<?xml version="1.0" standalone="no"?>
<!DOCTYPE svg PUBLIC "-//W3C//DTD SVG 1.1//EN" "http://www.w3.org/Graphics/SVG/1.1/DTD/svg11.dtd" >
<svg xmlns="http://www.w3.org/2000/svg" xmlns:xlink="http://www.w3.org/1999/xlink" version="1.1">
<metadata></metadata>
<defs>
<font id="kg_miss_speechy_iparegular" horiz-adv-x="1270" >
<font-face units-per-em="2048" ascent="1638" descent="-410" />
<missing-glyph horiz-adv-x="700" />
<glyph horiz-adv-x="0" />
<glyph horiz-adv-x="0" />
<glyph unicode="&#xd;" horiz-adv-x="700" />
<glyph unicode=" "  horiz-adv-x="700" />
<glyph unicode="&#x09;" horiz-adv-x="700" />
<glyph unicode="&#xa0;" horiz-adv-x="700" />
<glyph unicode="!" horiz-adv-x="322" d="M48 1612q-4 38 22 61t61 27t65 -12t34 -54l32 -1298q2 -36 -23 -51t-57 -13t-59 17t-29 39q-4 42 -6 134t-4 211t-5 254t-7 263t-10 239t-14 183zM86 102q20 32 55 50t75 14t60 -44q20 -42 3 -73t-51 -46t-74 -7t-66 44q-22 30 -2 62z" />
<glyph unicode="&#x22;" horiz-adv-x="822" d="M128 1537q12 27 39 44t60 18t57 -29q166 -212 28 -514q-18 -40 -55 -44t-69 14t-47 52t11 68q20 28 40 65t24 81t-13 94t-67 104q-20 20 -8 47zM484 1577q12 27 39 44t60 18t57 -29q166 -212 28 -514q-18 -40 -55 -44t-69 14t-47 52t11 68q20 28 40 65t24 81t-13 94 t-67 104q-20 20 -8 47z" />
<glyph unicode="#" horiz-adv-x="1564" d="M62 550q-2 32 11 60t35 32q40 8 122 19t190 27l38 294l-310 -44q-36 -6 -52 18t-18 56t11 60t35 32q44 8 139 22t219 30l54 404q4 36 31 46t58 3t55 -27t22 -42q-4 -46 -17 -141t-29 -217q74 10 149 21t147 21l46 340q4 36 31 46t58 3t55 -27t22 -42q-4 -40 -13 -116 t-23 -176q78 12 144 25t114 23q38 8 64 -16t33 -58t-5 -66t-50 -40l-324 -46q-10 -72 -19 -145t-19 -147q92 16 171 30t133 26q38 8 64 -16t33 -58t-5 -66t-50 -40l-368 -52q-12 -102 -20 -187t-12 -143q-2 -40 -32 -58t-65 -16t-62 23t-25 59l38 296l-292 -42 q-10 -80 -16 -149t-8 -117q-2 -40 -32 -58t-65 -16t-62 23t-25 59l30 234l-264 -38q-36 -6 -52 18t-18 56zM594 712q72 10 147 21t149 23l38 292l-296 -42q-10 -74 -19 -147t-19 -147z" />
<glyph unicode="$" horiz-adv-x="1176" d="M60 488q-12 28 9 52t51 38t60 13t36 -23q32 -98 97 -167t155 -103l6 504q-22 8 -41 15t-35 17q-88 40 -157 99t-107 132t-36 161t54 186q48 90 137 136t195 56l2 94q0 36 26 50t58 12t58 -18t26 -40v-102q68 -10 131 -32t115 -56t90 -78t54 -98q10 -34 -3 -61t-35 -41 t-44 -14t-30 18q-32 76 -108 134t-170 80q-2 -114 -4 -256t-6 -296q76 -28 161 -66t155 -91t115 -123t39 -160q-6 -86 -49 -149t-110 -104t-149 -62t-164 -25q4 -68 6 -104q2 -38 -26 -60t-62 -25t-64 13t-32 54l2 136q-60 14 -120 43t-114 74t-99 104t-73 133zM247 1192 q9 -54 43 -98t86 -78t100 -56l6 500q-64 -12 -118 -49t-90 -101t-27 -118zM640 270q58 2 117 13t104 37t70 67t13 101q-10 52 -39 91t-70 70t-90 54t-101 41q-2 -130 -3 -251t-1 -223z" />
<glyph unicode="%" horiz-adv-x="1458" d="M84 1361q8 79 39 146t84 114t127 55q68 8 128 -8t105 -52t73 -91t32 -123q6 -104 -30 -191t-98 -143t-142 -76t-160 10q-62 22 -100 79t-52 129t-6 151zM215 1278q3 -50 23 -90t60 -52q60 -20 105 -2t74 58t41 94t6 105t-29 91t-63 54q-52 18 -94 -1t-70 -60t-42 -94 t-11 -103zM354 48l574 1628q12 34 41 38t57 -9t48 -37t14 -46q-12 -42 -53 -158t-97 -273t-120 -336t-121 -345t-102 -301t-63 -205q-10 -38 -43 -50t-66 -3t-56 35t-13 62zM792 365q8 79 39 146t84 114t127 55q68 8 128 -8t105 -52t73 -91t32 -123q6 -104 -30 -191 t-98 -143t-142 -76t-160 10q-62 22 -100 79t-52 129t-6 151zM923 282q3 -50 23 -90t60 -52q60 -20 105 -2t74 58t41 94t6 105t-29 91t-63 54q-52 18 -94 -1t-70 -60t-42 -94t-11 -103z" />
<glyph unicode="&#x26;" horiz-adv-x="1350" d="M65 226q-23 86 0 193t102 226t229 239q-58 86 -94 180t-49 186t-2 174t49 142t104 92t164 24q100 -10 158 -60t81 -125t14 -165t-39 -178t-80 -166t-108 -128q80 -100 167 -207t171 -197q64 64 107 151t81 189q18 50 54 69t67 10t45 -46t-14 -101q-32 -70 -58 -120 t-52 -95t-56 -92t-68 -109q0 -10 25 -38t56 -61t60 -63t39 -44q22 -34 11 -64t-35 -47t-54 -17t-48 26q-24 36 -45 61t-40 45t-39 39t-42 43q-96 -82 -203 -137t-211 -74t-201 4t-171 101q-52 54 -75 140zM205 332q-1 -78 41 -140t117 -72t161 16t169 78t137 116 q-40 44 -91 105t-101 123t-93 118t-67 92q-82 -52 -144 -125t-95 -153t-34 -158zM393 1390q-9 -82 20 -190t103 -220q30 16 61 61t56 103t38 124t10 124t-28 99t-79 53q-78 16 -125 -28t-56 -126z" />
<glyph unicode="'" horiz-adv-x="428" d="M80 1461q12 27 39 44t60 18t57 -29q166 -212 28 -514q-18 -40 -55 -44t-69 14t-47 52t11 68q20 28 40 65t24 81t-13 94t-67 104q-20 20 -8 47z" />
<glyph unicode="(" horiz-adv-x="732" d="M23 672q3 124 17 230q20 156 67 305t116 283t158 249t195 199q30 24 57 12t44 -39t18 -60t-19 -49q-90 -72 -168 -178t-138 -229t-101 -254t-59 -251q-12 -74 -15 -175t6 -209t33 -214t70 -191t114 -142t166 -67q32 -4 43 -30t6 -55t-23 -53t-44 -20q-130 14 -224 77 t-157 157t-99 212t-51 243t-12 249z" />
<glyph unicode=")" horiz-adv-x="764" d="M18 1851q2 33 19 60t44 39t57 -12q106 -84 195 -199t158 -249t116 -283t67 -305q14 -106 17 -230t-12 -249t-51 -243t-99 -212t-157 -157t-224 -77q-28 -4 -46 20t-22 53t7 55t43 30q98 10 166 67t114 142t70 191t33 214t5 208t-14 176q-18 120 -59 251t-101 254 t-138 229t-168 178q-22 16 -20 49z" />
<glyph unicode="*" horiz-adv-x="716" d="M116 952q4 28 38 50t102 22q-8 92 10 139t48 51q28 4 62 -31t62 -109q76 40 123 39t59 -27t-12 -68t-88 -82q52 -70 64 -118t-8 -70t-64 -12t-104 58q-34 -78 -74 -100t-64 0q-20 18 -24 62t18 110q-78 4 -115 30t-33 56z" />
<glyph unicode="+" horiz-adv-x="1084" d="M103 784q3 32 19 59t40 27q58 4 135 3t163 -1l18 316q0 36 27 48t58 8t57 -22t26 -42q-2 -58 -7 -137t-9 -169q72 2 147 5t151 9q40 2 62 -25t25 -61t-14 -65t-55 -33l-324 -2q-4 -70 -5 -143t3 -145q0 -40 -28 -60t-63 -21t-65 18t-30 57l16 294h-286q-36 -2 -50 24 t-11 58z" />
<glyph unicode="," horiz-adv-x="386" d="M76 203q12 27 39 44t60 18t57 -29q166 -212 28 -514q-18 -40 -55 -44t-69 14t-47 52t11 68q20 28 40 65t24 81t-13 94t-67 104q-20 20 -8 47z" />
<glyph unicode="-" horiz-adv-x="1104" d="M127 760q3 32 19 59t40 27q64 2 152 2h188t209 3t217 13q40 2 62 -25t25 -61t-14 -65t-55 -33l-782 -2q-36 -2 -50 24t-11 58z" />
<glyph unicode="." horiz-adv-x="350" d="M81 109q17 31 51 46t74 7t66 -44q20 -30 1 -62t-54 -50t-75 -14t-60 44q-20 42 -3 73z" />
<glyph unicode="/" horiz-adv-x="796" d="M32 48l574 1628q12 34 41 38t57 -9t48 -37t14 -46q-12 -42 -53 -158t-97 -273t-120 -336t-121 -345t-102 -301t-63 -205q-10 -38 -43 -50t-66 -3t-56 35t-13 62z" />
<glyph unicode="0" horiz-adv-x="1280" d="M58 840q2 100 21 204t55 201t89 182t125 146t162 94t202 27q118 -6 206 -52t149 -116t99 -161t56 -187q24 -126 22 -266t-30 -275t-82 -257t-136 -211t-191 -137t-247 -34q-154 14 -253 93t-155 197t-76 263t-16 289zM218 842q-6 -96 8 -211t54 -217t110 -176t176 -88 q100 -14 180 27t140 115t102 173t65 205t28 209t-7 185q-14 86 -39 170t-70 149t-113 106t-166 43q-90 2 -158 -34t-119 -96t-86 -137t-57 -154t-33 -148t-15 -121z" />
<glyph unicode="1" horiz-adv-x="330" d="M60 58l22 1598q0 36 26 50t58 12t58 -18t26 -40q2 -32 1 -106t-2 -174t-3 -221t-4 -248t-3 -253t-1 -237t1 -201t5 -144q2 -38 -26 -60t-62 -25t-64 13t-32 54z" />
<glyph unicode="2" horiz-adv-x="1232" d="M40 84q4 26 32 56q142 182 246 312t178 227t124 168t84 133q18 32 44 87t50 119t37 129t5 118t-44 87t-112 34q-28 0 -74 -10t-107 -51t-133 -126t-152 -235q-16 -30 -44 -34t-52 7t-37 35t-1 52q58 126 129 222t149 160t162 97t166 31q122 -2 206 -50t110 -147t-15 -252 t-169 -365q-130 -214 -269 -389t-277 -353q8 2 53 4t113 2h155t180 -1t186 -3t175 -2q22 0 37 -21t16 -46t-16 -46t-59 -23q-134 -6 -274 -6t-273 2t-252 2t-209 -6q-16 0 -34 10t-28 28t-6 44z" />
<glyph unicode="3" horiz-adv-x="1168" d="M28 307q8 27 27 46t43 23t42 -16q30 -34 70 -72t88 -71t103 -56t113 -23q94 -2 175 20t140 69t94 121t35 178q0 92 -28 151t-73 90t-104 41t-120 5t-119 -21t-102 -32q-40 -16 -61 3t-28 49t-1 59t24 35q52 18 109 50t111 74t102 92t80 102q52 84 47 156t-51 114t-122 46 t-166 -46q-72 -42 -134 -97t-90 -97q-16 -22 -40 -18t-44 23t-28 46t8 49q54 72 113 130t125 94q98 54 188 67t163 -8t126 -71t77 -120t15 -157t-61 -181q-62 -118 -162 -188q112 2 191 -39t128 -107t70 -147t19 -159q-12 -270 -165 -395t-431 -125q-16 0 -74 9t-131 37 t-150 79t-133 137q-16 24 -8 51z" />
<glyph unicode="4" horiz-adv-x="1180" d="M34 840l56 804q0 36 25 53t55 15t54 -21t22 -51q-4 -62 -8 -148t-10 -183t-12 -202t-10 -207l634 56l22 686q0 36 26 51t56 14t55 -16t25 -39q0 -30 -1 -97t-4 -158t-6 -201t-7 -224l78 6q36 2 51 -22t12 -54t-18 -56t-39 -26q-18 -2 -41 -4t-49 -4q-4 -118 -7 -232 t-5 -215t-2 -181t2 -130q2 -38 -26 -60t-62 -25t-64 13t-30 54l26 760q-76 -8 -161 -16t-171 -16t-169 -17t-155 -19q-34 -4 -61 -4t-46 12t-29 36t-6 68z" />
<glyph unicode="5" horiz-adv-x="1178" d="M52 286q-14 26 2 54t42 45t53 17t37 -30q20 -64 62 -110t100 -74t126 -36t138 6q74 14 143 58t122 105t81 136t20 151q-10 90 -54 156t-109 107t-145 57t-163 8t-161 -41t-138 -91q-12 -12 -38 -15t-52 3t-45 23t-19 45q0 60 3 145t7 184t5 203t-5 200q-2 38 13 58t38 29 t52 11t53 2l820 4q36 2 51 -22t14 -55t-16 -57t-39 -26q-36 -4 -115 -3t-187 3t-239 2t-275 -6h-4q-2 -64 -5 -142t-6 -153t-4 -139t1 -98q98 58 202 82t203 17t188 -43t159 -97t115 -146t57 -189q12 -100 -25 -202t-105 -189t-156 -149t-178 -82q-120 -26 -219 -11t-177 58 t-135 106t-93 131z" />
<glyph unicode="6" horiz-adv-x="1210" d="M40 630q0 84 20 186t61 207t99 208t131 192t161 158t186 105q26 10 53 -4t41 -37t9 -50t-41 -45q-132 -64 -241 -175t-185 -246t-114 -285t-26 -294q74 104 180 200t224 150q66 32 143 47t151 5t137 -53t101 -127q38 -86 36 -173t-34 -168t-90 -153t-130 -129t-155 -96 t-165 -55q-142 -26 -246 17t-171 132t-100 215t-35 268zM224 340q10 -22 34 -63t64 -78t98 -58t138 -1q84 20 170 73t152 127t99 163t9 183q-20 50 -61 73t-89 26t-99 -9t-93 -30q-66 -28 -126 -74t-113 -102t-99 -115t-84 -115z" />
<glyph unicode="7" horiz-adv-x="1126" d="M24 1573q-2 31 11 57t35 26q36 -2 96 -2t135 2t162 4t174 7t172 12t159 15q38 4 68 -7t46 -33t15 -54t-23 -70q-46 -80 -114 -204t-143 -271t-153 -302t-146 -295t-118 -253t-72 -173q-14 -36 -48 -44t-66 5t-53 41t-7 64l720 1424l-778 -24q-36 -4 -53 20t-19 55z" />
<glyph unicode="8" horiz-adv-x="1162" d="M30 448q4 84 36 153t85 128t121 110t142 97q-44 32 -90 74t-80 94q-92 146 -94 258t54 187t154 113t206 36q106 -2 204 -40t155 -112t57 -183t-90 -251q-34 -52 -84 -101t-102 -77q94 -44 170 -105t128 -128t81 -136t31 -131q2 -126 -37 -212t-111 -139t-173 -76 t-223 -23t-224 26t-174 81t-110 143t-32 214zM182 466q-16 -90 13 -155t86 -106t133 -60t156 -19t155 19t131 60t85 105t17 156q-6 42 -32 90t-73 96t-116 93t-161 83q-78 -26 -145 -63t-119 -84t-86 -101t-44 -114zM310 1315q12 -63 50 -125q34 -54 91 -99t119 -81 q62 36 121 86t89 106q48 86 47 151t-35 108t-93 66t-129 27q-30 2 -69 -5t-78 -24t-70 -43t-43 -64q-12 -40 0 -103z" />
<glyph unicode="9" horiz-adv-x="1222" d="M50 1111q10 81 40 157t75 142t97 110q38 32 103 68t156 59t206 26t251 -29q-2 40 22 59t54 21t57 -11t29 -37q12 -92 17 -222t6 -281t-2 -311t-7 -311t-8 -282t-4 -221q0 -26 -29 -43t-62 -18t-61 15t-28 56q0 22 5 87t12 152t13 185t11 186t5 155t-6 91 q-66 -56 -155 -110t-188 -88t-203 -39t-200 39q-86 38 -134 101t-65 138t-7 156zM217 1129q-17 -81 5 -155t100 -114q40 -22 106 -21t141 21t151 55t137 81t98 102t37 116v62t-1 70t-4 70t-5 64q-78 18 -156 29t-154 6t-148 -28t-140 -75q-58 -48 -104 -125t-63 -158z" />
<glyph unicode=":" horiz-adv-x="406" d="M115 439q17 31 51 46t74 7t66 -44q20 -30 1 -62t-54 -50t-75 -14t-60 44q-20 42 -3 73zM119 915q17 31 51 46t74 7t66 -44q20 -30 1 -62t-54 -50t-75 -14t-60 44q-20 42 -3 73z" />
<glyph unicode=";" horiz-adv-x="386" d="M69 545q17 31 51 46t74 7t66 -44q20 -30 1 -62t-54 -50t-75 -14t-60 44q-20 42 -3 73zM76 203q12 27 39 44t60 18t57 -29q166 -212 28 -514q-18 -40 -55 -44t-69 14t-47 52t11 68q20 28 40 65t24 81t-13 94t-67 104q-20 20 -8 47z" />
<glyph unicode="&#x3c;" horiz-adv-x="916" d="M85 736q-1 24 7 46t28 32l526 274q32 18 57 2t37 -46t10 -61t-22 -43l-356 -188l380 -148q20 -10 24 -41t-5 -61t-32 -49t-57 -3l-554 214q-20 6 -31 27t-12 45z" />
<glyph unicode="=" horiz-adv-x="1274" d="M193 580q3 32 19 59t40 27q64 2 152 2h188t209 3t217 13q40 2 62 -25t25 -61t-14 -65t-55 -33l-782 -2q-36 -2 -50 24t-11 58zM205 976q3 32 19 59t40 27q64 2 152 2h188t209 3t217 13q40 2 62 -25t25 -61t-14 -65t-55 -33l-782 -2q-36 -2 -50 24t-11 58z" />
<glyph unicode="&#x3e;" horiz-adv-x="864" d="M98 563q4 31 24 41l380 148l-356 188q-20 12 -22 43t10 61t37 46t57 -2l526 -274q20 -10 28 -32t7 -46t-12 -45t-31 -27l-554 -214q-34 -16 -57 3t-32 49t-5 61z" />
<glyph unicode="?" horiz-adv-x="1214" d="M42 1318q28 74 79 147t125 128t172 87t222 26q94 -6 188 -35t169 -82t122 -131t47 -180q0 -108 -34 -188t-91 -139t-129 -99t-149 -65t-152 -38t-135 -17q2 -70 9 -128t16 -103t17 -77t10 -48q6 -40 -16 -66t-52 -33t-60 6t-40 49q-6 20 -13 68t-14 108t-14 127t-13 127 q-6 58 25 103t109 35q34 -4 90 3t120 25t128 47t116 71t85 96t33 122t-35 120t-92 88t-130 56t-149 24q-72 2 -142 -19t-127 -61t-97 -96t-52 -124q-6 -30 -34 -35t-56 7t-48 38t-8 56zM406 18q-18 42 0 73t53 44t75 5t64 -46q20 -32 -1 -63t-57 -47t-76 -11t-58 45z" />
<glyph unicode="@" horiz-adv-x="1766" d="M47 615q-23 173 33 375q44 156 141 296t231 238t295 142t333 12q142 -28 271 -113t220 -207t133 -272t10 -308q-12 -60 -43 -119t-74 -104t-96 -70t-109 -17q-52 8 -110 48t-106 126q-26 -72 -74 -130t-113 -96t-140 -51t-155 7q-88 22 -146 80t-88 134t-33 162t21 168 q34 116 113 194t179 111t211 18t211 -85q98 2 136 -52t12 -188q-10 -54 -7 -105t18 -90t40 -64t55 -25q38 -2 73 33t61 123q34 110 8 229t-95 221t-172 178t-223 100q-144 30 -277 -3t-243 -112t-189 -195t-117 -254q-42 -152 -23 -293t84 -256t168 -199t229 -125t268 -30 t286 85q48 24 89 11t56 -44t-3 -70t-88 -65q-170 -66 -342 -72t-327 41t-282 142t-207 231t-103 309zM580 784q-4 -58 11 -110t51 -92t94 -58q68 -20 123 0t98 64t74 104t48 120t22 112t-3 80q-94 64 -173 77t-140 -9t-106 -71t-71 -107q-24 -52 -28 -110z" />
<glyph unicode="A" horiz-adv-x="1432" d="M18 112l602 1532q14 38 40 53t53 13t49 -18t30 -36l608 -1536q4 -14 4 -26q0 -21 -12 -38q-20 -28 -53 -39q-18 -6 -37 -6q-15 0 -30 4q-34 9 -46 47q-24 70 -76 207t-116 307l-688 -102q-52 -138 -92 -249t-62 -171q-12 -38 -46 -47q-15 -4 -30 -4q-18 0 -37 6 q-33 11 -53 39q-12 18 -12 38q0 12 4 26zM416 658q114 16 258 38t296 50q-70 182 -139 358t-121 308q-30 -72 -65 -162t-73 -188t-78 -201t-78 -203z" />
<glyph unicode="B" horiz-adv-x="1286" d="M52 1640q-2 36 21 52t52 16t54 -13t27 -37v-20q156 36 289 39q10 0 20 1q120 0 213 -34q100 -36 160 -111t66 -193q0 -4 1 -8q0 -39 -18 -85q-19 -51 -56 -102t-88 -97t-111 -78q35 4 73 4q43 0 91 -5q90 -9 171 -48t143 -112t80 -195q5 -34 5 -67q0 -77 -27 -145 q-38 -96 -114 -171t-180 -127t-218 -79t-229 -30h-24q-102 0 -189 23q-10 -28 -36 -42t-55 -13t-52 17t-25 50zM214 1470q4 -112 7 -261t7 -311q26 4 75 23t108 48t122 69t115 87t86 101t38 112q1 6 1 12q0 61 -56 98q-61 40 -149 54q-54 9 -111 9q-37 0 -75 -4 q-98 -9 -168 -37zM234 700q4 -156 10 -294t14 -240q76 -22 170 -23h10q89 0 179 17q95 18 183 55t155 91t103 125q28 56 28 122q0 18 -2 37q-8 70 -57 117t-122 71t-164 29q-28 2 -57 2l-125 -8q-91 -11 -177 -37t-148 -64z" />
<glyph unicode="C" horiz-adv-x="1248" d="M34 590q-7 64 -7 129q0 90 13 183q20 156 74 303t145 260t220 178q109 55 247 55q25 0 52 -2q66 -4 128 -25t116 -53t95 -74t65 -90q9 -19 9 -38q0 -14 -5 -26q-12 -30 -37 -46t-57 -15t-54 31q-60 80 -127 126t-161 50q-12 1 -24 1q-109 0 -193 -50q-93 -55 -159 -148 t-106 -211t-58 -238q-12 -85 -12 -176q0 -28 1 -57q5 -121 48 -224t129 -176t232 -91q26 -3 51 -3q47 0 89 12q64 19 119 58t103 96t96 123q25 37 56 37h2q32 -1 56 -22t31 -56q2 -8 2 -16q0 -27 -19 -51q-60 -78 -121 -144t-133 -113t-158 -69q-56 -14 -120 -14 q-35 0 -72 4q-180 18 -297 100t-180 206t-79 276z" />
<glyph unicode="D" horiz-adv-x="1334" d="M52 1640q0 32 19 48t44 19t50 -7t37 -28q110 24 222 24q20 0 40 -1q132 -5 254 -41t228 -103t182 -164t116 -225q32 -102 32 -224q0 -30 -2 -62q-14 -228 -104 -399t-230 -284t-319 -167q-151 -46 -313 -46q-30 0 -60 2q-18 -12 -42 -15t-46 4t-38 22t-18 39zM218 1502 q4 -86 9 -200t9 -241t9 -259t10 -256t11 -232t12 -184l44 -2q138 0 262 45q144 51 254 148t179 232t81 295q3 39 3 76q0 163 -58 282q-71 146 -197 226t-291 97q-46 5 -93 5q-120 0 -244 -32z" />
<glyph unicode="E" horiz-adv-x="1216" d="M64 1568q0 30 15 49t38 30t50 16t53 5l820 32q36 2 51 -23t14 -57t-16 -59t-39 -27q-36 -4 -114 -7t-185 -7t-237 -8t-274 -10q0 -102 1 -251v-101q0 -102 -1 -210l674 42q36 2 52 -23t14 -56t-17 -59t-39 -30q-72 -6 -246 -18t-436 -26q0 -82 1 -168t2 -167t3 -152 t4 -121l866 36q36 2 52 -23t14 -57t-16 -59t-38 -27q-38 -4 -128 -8t-212 -8t-266 -9t-290 -9q-22 0 -49 -1t-51 4t-41 19t-17 44z" />
<glyph unicode="F" horiz-adv-x="1124" d="M64 1568q0 30 15 49t38 30t50 16t53 5l820 32q36 2 51 -23t14 -57t-16 -59t-39 -27q-36 -4 -114 -7t-185 -7t-237 -8t-274 -10q0 -102 1 -251v-101q0 -102 -1 -210l674 42q36 2 52 -23t14 -56t-17 -59t-39 -30q-72 -6 -246 -18t-436 -26q-4 -78 -4 -179t1 -203t3 -193 t4 -149q2 -38 -25 -54t-59 -14t-59 19t-27 47z" />
<glyph unicode="G" horiz-adv-x="1402" d="M86 884q8 156 52 306t127 267t207 187q117 66 278 66h18q66 -2 130 -19t119 -47t99 -70t72 -88q12 -21 12 -41q0 -11 -4 -22q-10 -31 -34 -49t-55 -18t-55 30q-66 76 -136 119t-166 43q-124 0 -213 -59t-148 -154t-92 -215t-41 -240q-3 -41 -3 -84q0 -74 9 -150 q14 -120 64 -222t141 -171t239 -81q11 -1 21 -1q70 0 143 34q84 39 154 117t117 190t53 252q-130 -16 -254 -20q-41 -1 -78 -1q-74 0 -130 5q-30 2 -47 25t-21 50t6 50t36 27q32 3 77 3h24q31 -1 64 -1t70 1q73 1 153 7t160 24q21 5 38 5q37 0 59 -22q25 -25 25 -78 q0 -16 -2 -35q-22 -236 -93 -389t-168 -243t-207 -125q-104 -33 -197 -33h-11q-182 4 -304 81t-194 199t-98 276q-19 111 -19 226q0 44 3 88z" />
<glyph unicode="H" horiz-adv-x="1334" d="M52 1654q-2 36 23 51t57 13t59 -17t29 -39q2 -34 5 -109t7 -178t8 -227t8 -252q70 2 172 4t216 5t229 8t211 11l-26 708q-2 36 23 51t57 13t59 -17t29 -39q4 -42 8 -157t9 -266t11 -325t13 -335t15 -294t16 -205q1 -5 1 -10q0 -33 -23 -52q-26 -22 -61 -26q-7 -1 -14 -1 q-27 0 -51 13q-30 16 -34 54l-26 710l-828 -18q4 -102 9 -200t9 -183t9 -153t11 -112q1 -5 1 -10q0 -33 -23 -52q-26 -22 -61 -26q-7 -1 -14 -1q-27 0 -51 13q-30 16 -34 54z" />
<glyph unicode="I" horiz-adv-x="1080" d="M25 1616q3 30 20 54t41 24h75h168t213 1t210 2t158 3t60 6h6q34 0 54 -22q22 -24 24 -54t-16 -56t-56 -28l-388 2q2 -74 6 -184t8 -237t9 -264t10 -268t11 -246t12 -197q90 0 176 3t162 9h6q34 0 54 -23q22 -25 24 -56t-16 -57t-56 -28l-898 -8q-36 0 -49 25t-10 55 t20 55t41 25q60 2 160 2h214l-50 1392l-344 -8q-36 0 -49 24t-10 54z" />
<glyph unicode="J" horiz-adv-x="1410" d="M54 346q-6 28 15 49t50 30t57 1t34 -40q8 -34 33 -77t65 -81t92 -66t114 -30h15q56 0 95 26q44 30 70 81t38 115t16 130q3 53 3 102v25q-1 61 -1 103q0 80 -1 155t-4 167t-9 211t-14 285l-506 -10q-36 0 -50 26t-10 57t20 57t40 26q42 0 120 1t176 1h208t217 2t204 4 t169 8h5q35 0 55 -24q22 -26 24 -58t-15 -59t-55 -29l-444 -6q4 -234 13 -424t13 -374q1 -52 1 -102q0 -101 -5 -195q-8 -141 -51 -246t-133 -161q-72 -45 -190 -45q-30 0 -62 3q-58 6 -122 32t-123 72t-104 111t-63 147z" />
<glyph unicode="K" horiz-adv-x="1292" d="M80 1654q0 36 25 51t57 13t59 -17t27 -39q2 -30 3 -91t1 -146v-188v-213q58 50 130 112t147 127t150 129t138 120t112 100t73 70q23 25 54 25h7q35 -3 61 -24t35 -54q2 -8 2 -17q0 -24 -19 -46l-764 -666q112 -98 239 -207t245 -210t217 -182t155 -123q29 -20 29 -51v-6 q-3 -35 -24 -63t-54 -40q-12 -4 -23 -4q-21 0 -40 14l-868 748q0 -110 2 -215t3 -196t4 -165t7 -120v-5q0 -36 -25 -57q-27 -22 -61 -26q-7 -1 -13 -1q-27 0 -51 13q-30 16 -32 54z" />
<glyph unicode="L" horiz-adv-x="1458" d="M76 1654q-2 36 23 51t57 13t59 -17t29 -39q2 -40 6 -138t9 -231t10 -288t11 -307t12 -288t14 -232q98 14 233 31t276 36t271 40t218 43q10 2 18 2q26 0 46 -18q26 -24 34 -58q3 -13 3 -26q0 -21 -8 -40q-13 -32 -51 -40l-1090 -150q-20 -4 -41 -4t-39 6t-30 19t-12 39z " />
<glyph unicode="M" horiz-adv-x="1822" d="M64 1654q0 24 19 43t44 28t51 6t40 -21q24 -36 69 -110t102 -171t123 -210t132 -224t130 -214t118 -179q54 80 118 182t129 213t129 221t118 204t96 164t64 102q14 18 39 20t50 -8t44 -28t21 -38q4 -42 9 -157t11 -266t11 -325t12 -335t14 -294t15 -205q1 -5 1 -10 q0 -33 -23 -52q-26 -22 -61 -26q-7 -1 -14 -1q-27 0 -51 13q-30 16 -34 54l-50 1334l-536 -910q-36 -58 -71 -74q-24 -11 -45 -11q-9 0 -18 2q-28 7 -49 28t-31 37l-544 914q4 -100 8 -219t8 -243t9 -246t10 -230t11 -194t12 -138q1 -5 1 -10q0 -33 -23 -52q-26 -22 -61 -26 q-7 -1 -14 -1q-27 0 -51 13q-30 16 -34 54z" />
<glyph unicode="N" horiz-adv-x="1342" d="M68 58l8 1554q0 42 19 64t45 27t55 -5t51 -34q22 -26 74 -104t124 -189t157 -245t173 -272t175 -270t161 -240l-46 1296q-2 36 23 51t57 13t59 -17t29 -39q4 -44 8 -156t9 -261t10 -320t11 -330t12 -290t12 -203q2 -28 -14 -53t-41 -37t-54 -9t-51 29q-2 4 -7 10t-30 43 t-78 117t-151 228t-249 377t-373 567q-2 -100 -4 -220t-4 -245t-2 -248t1 -232t4 -196t9 -139q1 -5 1 -10q0 -33 -23 -52q-26 -22 -61 -26q-7 -1 -14 -1q-27 0 -51 13q-30 16 -34 54z" />
<glyph unicode="O" horiz-adv-x="1382" d="M48 856q8 150 55 304t136 275t219 192q109 59 249 59q28 0 57 -2q126 -10 224 -61t168 -128t114 -173t60 -194q16 -89 16 -184q0 -39 -3 -79q-9 -137 -47 -267t-104 -246t-160 -199t-214 -126q-87 -31 -189 -31q-38 0 -77 4q-162 18 -264 100t-158 202t-73 265 q-12 99 -12 197q0 46 3 92zM210 854q-5 -43 -5 -90q0 -57 7 -120q12 -116 54 -219t115 -179t185 -92q32 -5 63 -5q69 0 131 25q90 36 162 105t126 162t88 194t46 201q6 50 6 95.5t-6 86.5q-12 88 -44 176t-87 160t-134 119t-183 51h-19q-83 0 -150 -31q-75 -35 -131 -92 t-97 -131t-67 -150t-41 -146t-19 -120z" />
<glyph unicode="P" horiz-adv-x="1340" d="M58 1618q-1 5 -1 10q0 31 23 51q26 23 61 27q7 1 14 1q27 0 51 -13q30 -16 34 -54v-80q124 66 243 101q113 33 219 33h12q128 -2 238 -44t188 -120t118 -189q33 -92 33 -204q0 -22 -1 -45q-8 -118 -58 -217t-130 -173t-183 -119t-215 -57q-36 -4 -73 -4q-77 0 -155 17 q-116 25 -222 91q-3 -52 -3 -99q0 -24 1 -46q2 -67 7 -133t11 -135t12 -151q2 -36 -23 -57t-56 -23t-59 15t-30 57q-4 42 -6 155t-6 262t-8 320t-9 330t-12 290t-15 203zM246 1135q0 -73 2 -150t6 -139q66 -72 155 -110t185 -45q22 -2 45 -2q73 0 145 18q94 23 169 74 t124 128t55 177q1 17 1 33q0 88 -28 157q-33 82 -93 139t-142 86t-172 29q-58 0 -122 -14t-124 -38t-113 -55t-91 -65q-2 -30 -2 -90v-133z" />
<glyph unicode="Q" horiz-adv-x="1414" d="M48 856q8 150 55 304t136 275t219 192q109 59 249 59q28 0 57 -2q126 -10 224 -61t168 -128t114 -173t60 -194q14 -89 14 -183v-24q-2 -107 -22 -212t-58 -205t-94 -186q46 -44 93 -85t93 -81q27 -24 27 -54v-6q-3 -34 -25 -61t-55 -36q-9 -2 -18 -2q-23 0 -45 17 l-176 174q-98 -98 -226 -149q-97 -39 -212 -39q-36 0 -74 4q-162 18 -264 100t-158 202t-73 265q-12 99 -12 197q0 46 3 92zM210 854q-5 -43 -5 -90q0 -57 7 -120q12 -116 54 -219t115 -179t185 -92q31 -4 61 -4q79 0 147 30q94 42 170 120l-272 270q-28 24 -19 52t34 49 t55 28t48 -9q50 -46 115 -111l141 -141q42 68 71 144t46 152t22 149q2 28 2 55q0 42 -5 80q-12 88 -44 176t-87 160t-134 119t-183 51h-19q-83 0 -150 -31q-75 -35 -131 -92t-97 -131t-67 -150t-41 -146t-19 -120z" />
<glyph unicode="R" horiz-adv-x="1346" d="M64 1622q-1 5 -1 10q0 31 24 51q27 23 61 26h11q28 0 53 -13q30 -16 34 -54l-2 -80q126 64 246 99q108 31 209 31h23q128 -2 237 -40t187 -110t118 -178q30 -79 29 -175q0 -34 -3 -69q-10 -106 -58 -190t-125 -146t-178 -101t-217 -55q70 -50 147 -107t153 -123t148 -139 t132 -155q15 -20 15 -39q0 -12 -6 -24q-15 -31 -45 -49t-66 -18t-56 34q-154 176 -280 291t-233 187t-201 112t-184 64q-6 -78 -6 -149t4 -143t8 -146t8 -156q2 -36 -23 -56t-57 -22t-59 15t-29 57q-2 42 -2 155v262v320t-1 330t-5 290t-10 203zM240 987q0 -77 2 -139 q60 -38 147 -55q74 -14 154 -14h29q96 3 191 25t174 64t132 104t63 144q4 33 4 63q0 69 -22 122q-32 77 -93 127t-145 75t-174 25q-58 0 -122 -13t-125 -36t-115 -54t-92 -65q-2 -30 -4 -90t-3 -133t-1 -150z" />
<glyph unicode="S" horiz-adv-x="1264" d="M34 408q-12 32 5 58t44 39t55 10t36 -29q48 -150 165 -243t275 -105q18 -1 37 -1q56 0 118 9q83 12 152 42t109 82q30 39 30 91q0 18 -4 39q-20 100 -94 163t-170 106t-199 74t-177 65q-104 48 -186 112t-126 145t-44 179t62 212q50 92 137 147t192 76q69 14 140 14 q37 0 76 -4q111 -11 207 -49t168 -103t98 -153q5 -17 5 -32q0 -19 -9 -33q-16 -25 -43 -35t-54 -3t-35 29q-26 64 -80 115t-125 82t-150 40q-28 3 -57 3q-50 0 -99 -10q-77 -16 -143 -62t-110 -124q-34 -60 -34 -112q0 -19 5 -38q17 -68 67 -123t118 -94t126 -59 q50 -18 123 -42t152 -58t158 -78t140 -101t97 -129q31 -62 31 -135q0 -12 -1 -25q-6 -112 -67 -187t-152 -118t-200 -59q-79 -12 -155 -12q-28 0 -56 2q-78 2 -159 29t-156 79t-138 130t-105 184z" />
<glyph unicode="T" horiz-adv-x="1298" d="M22 1594q0 30 18 54t56 24l1114 18q36 -2 48 -27t7 -55t-23 -54t-42 -22h-87t-118 1t-140 1t-153 -2q2 -100 3 -234t2 -281t2 -296t3 -276t5 -224t7 -139q1 -5 1 -10q0 -31 -23 -50q-26 -22 -60 -26q-7 -1 -13 -1q-27 0 -51 13q-30 16 -32 54l-8 1470q-48 -2 -110 -5 t-123 -6t-116 -5t-91 -2q-38 0 -57 25t-19 55z" />
<glyph unicode="U" horiz-adv-x="1400" d="M70 939q-4 100 -4 208q0 231 20 501q2 24 31 41t61 19t56 -16q19 -14 19 -47q0 -8 -1 -17q-10 -74 -18 -178t-11 -224q-1 -36 0 -73q0 -86 4 -175q7 -128 27 -249t55 -229t92 -187t137 -123q70 -39 162 -39q13 0 26 1q136 8 225 76t140 179t70 256q17 131 17 275v30 q-2 160 -21 326t-41 322q-4 30 20 52t57 29t62 -5t33 -52q18 -160 35 -341t18 -361v-14q0 -173 -24 -333q-25 -167 -94 -297t-189 -212t-308 -92q-22 -1 -42 -1q-189 0 -314 98q-138 109 -212 324t-88 528z" />
<glyph unicode="V" horiz-adv-x="1522" d="M46 1590q-16 32 1 56t46 35t59 8t42 -23q16 -32 57 -126t94 -222t115 -277t122 -292t114 -264t92 -193q36 74 85 197t104 265t111 291t105 277t86 222t55 126q12 20 43 23t61 -8t47 -35t1 -56l-612 -1550q-8 -18 -32 -28t-51 -11t-51 9t-34 30z" />
<glyph unicode="W" horiz-adv-x="1840" d="M36 1620q-10 36 13 55t54 23t61 -6t36 -32q8 -32 28 -110t46 -186t58 -236t64 -260t63 -260t59 -236l320 992q6 30 31 45t54 15t55 -16t32 -46q14 -58 50 -174t82 -258t95 -292t89 -278q26 108 58 237t65 262t64 262t58 238t46 188t29 111q6 22 36 32t61 6t53 -23t14 -55 l-378 -1556q-6 -26 -32 -41t-56 -18t-57 8t-35 39l-328 1000l-332 -998q-8 -28 -35 -39t-57 -8t-56 18t-32 41z" />
<glyph unicode="X" horiz-adv-x="1374" d="M47 1638q15 26 43 41t60 15t44 -18q18 -24 64 -90t113 -158t149 -205t170 -233q86 120 168 233t149 205t114 158t65 90q12 18 44 18t60 -15t42 -41t-6 -56l-530 -738q84 -114 165 -225t150 -205t123 -166t84 -110q16 -22 16 -44q0 -10 -3 -21q-11 -33 -38 -54t-62 -22h-2 q-33 0 -55 29l-484 672l-484 -672q-21 -29 -55 -29h-2q-35 1 -62 22t-38 54q-3 10 -3 21q0 22 16 44q30 38 84 110t123 166t150 205t165 225l-530 738q-22 30 -7 56z" />
<glyph unicode="Y" horiz-adv-x="1228" d="M27 1643q11 25 36 40t55 17t44 -16q54 -70 107 -141t108 -143t113 -149t124 -159q66 80 124 155t112 147t106 141t106 139q14 18 44 16t56 -17t38 -40t-10 -53l-488 -648q-5 -158 -5 -348v-64q1 -228 5 -464q0 -40 -24 -59t-54 -20t-56 18t-30 57q-2 216 -2 365t-1 246 t-1 149v76v29v5l-496 668q-22 28 -11 53z" />
<glyph unicode="Z" horiz-adv-x="1390" d="M54 91q4 23 22 45l1048 1400l-996 -26q-36 -2 -51 21t-14 50t16 51t39 26q42 2 121 4t178 4t211 4t220 6t206 9t170 11q32 2 54 -16t33 -46t6 -62t-27 -62q-50 -64 -131 -175t-176 -244t-197 -277t-198 -274t-177 -236t-131 -162h133t172 2t193 5t192 6t171 7t133 10 q6 1 11 1q32 0 53 -21q24 -24 28 -54t-11 -57t-53 -29q-348 -8 -571 -12t-353 -5t-183 -1h-61q-28 2 -47 17t-28 36t-5 44z" />
<glyph unicode="[" horiz-adv-x="604" d="M48 1768q0 30 15 49t38 30t50 16t53 5l254 16q36 2 51 -23t14 -57t-16 -59t-39 -27l-244 -16q0 -102 6 -535t14 -1183l224 4q36 2 52 -23t14 -57t-16 -59t-38 -27l-254 -2q-22 0 -49 -1t-51 4t-41 19t-17 44z" />
<glyph unicode="\" horiz-adv-x="798" d="M22 1622q-6 22 14 46t48 37t57 9t41 -38l574 -1628q10 -36 -13 -62t-56 -35t-66 3t-43 50q-18 70 -63 205t-102 301t-121 345t-120 336t-97 273t-53 158z" />
<glyph unicode="]" horiz-adv-x="604" d="M50 1796q2 32 16 59t38 27l254 2q20 0 48 1t52 -4t41 -19t17 -44l20 -1882q0 -30 -15 -49t-38 -30t-50 -16t-53 -5l-254 -16q-36 -2 -51 23t-14 57t16 59t39 27l244 16q0 102 -6 535t-14 1183l-224 -4q-36 -2 -52 23t-14 57z" />
<glyph unicode="^" horiz-adv-x="576" d="M116 834l122 218q6 14 23 22t36 8t36 -7t23 -23l124 -216q12 -26 -2 -45t-37 -27t-48 -5t-33 19l-64 106l-60 -112q-8 -16 -33 -18t-48 7t-37 28t-2 45z" />
<glyph unicode="_" horiz-adv-x="988" d="M35 28q3 32 19 59t40 27q64 2 152 2h188t209 3t217 13q40 2 62 -25t25 -61t-14 -65t-55 -33l-782 -2q-36 -2 -50 24t-11 58z" />
<glyph unicode="`" horiz-adv-x="428" d="M55 1564q5 32 27 52t56 19t66 -37l152 -168q26 -30 20 -59t-28 -47t-53 -20t-55 22l-164 174q-26 32 -21 64z" />
<glyph unicode="a" horiz-adv-x="1250" d="M61 604q9 88 36 170t69 148q138 216 323 271q74 22 154 22q119 0 249 -49q-1 10 -1 18q0 36 20 57q25 25 57 28h9q27 0 53 -16q30 -19 34 -57q10 -78 20 -175t20 -200t21 -208t22 -201t23 -178t26 -140q3 -13 3 -25q0 -24 -13 -43q-20 -28 -50 -36t-60 7t-40 63l-34 146 q-48 -58 -124 -101t-165 -66t-183 -23t-174 26q-90 28 -151 86t-96 135t-46 165q-6 48 -6 97q0 39 4 79zM221 484q7 -98 51 -178t138 -112q50 -16 111 -16q22 0 46 2q89 8 173 42t149 90t85 128q-16 126 -22 241t-18 227q-54 74 -139 108q-70 28 -146 28q-16 0 -31 -1 q-92 -7 -177 -54t-137 -135q-42 -72 -66 -172q-19 -77 -19 -154q0 -22 2 -44z" />
<glyph unicode="b" d="M36 1636q0 24 25 41t56 20t57 -10t28 -51q8 -164 10 -317t26 -307q100 84 205 128t206 50q17 1 33 1q83 0 160 -25q92 -30 165 -91t123 -153t66 -208q9 -65 9 -129q0 -56 -7 -111q-14 -118 -65 -214t-144 -161t-233 -83q-35 -5 -69 -5q-83 0 -160 28q-109 39 -217 109 v-104q0 -38 -28 -59t-63 -23h-7q-31 0 -56 15q-28 17 -28 55q0 72 -6 207t-16 299t-21 340t-22 330t-18 269t-9 159zM262 798q4 -102 6 -203t16 -203q30 -66 90 -113t132 -74t148 -32q18 -1 35 -2q55 0 101 13q84 24 138 79t82 126t34 151q2 24 2 47q0 54 -10 105 q-16 98 -63 167t-114 109t-146 49q-24 3 -48 3q-56 0 -112 -15q-81 -21 -157 -73t-134 -134z" />
<glyph unicode="c" horiz-adv-x="1138" d="M38 602q0 106 26 206t78 191t130 157q80 70 185 87q42 7 85 7q62 0 122 -15q102 -25 188 -88t132 -153q9 -19 9 -38q0 -14 -5 -26q-12 -30 -37 -46t-57 -15t-54 31q-64 84 -129 125t-123 52q-28 5 -53 5q-28 0 -52 -6q-47 -12 -77 -32q-66 -48 -110 -115t-67 -144 t-23 -161t22 -164q22 -88 64 -151t101 -99t131 -44q19 -2 39 -2q54 0 113 16q80 30 148 90t130 148q25 37 56 37h2q32 -1 56 -22t31 -56q2 -8 2 -16q0 -27 -19 -51q-58 -76 -100 -121t-79 -72t-74 -44t-87 -37q-89 -37 -186 -37h-15q-105 3 -200 49t-169 134t-108 218 q-26 96 -26 202z" />
<glyph unicode="d" horiz-adv-x="1208" d="M44 546q6 178 89 310t213 199q118 61 260 61q15 0 30 -1q160 -7 320 -107q4 65 4 129q0 90 -8 179q-14 152 -24 316q-2 36 23 51t57 13t59 -17t29 -39q4 -42 8 -157t9 -266t11 -325t13 -335t15 -294t16 -205q1 -5 1 -10q0 -33 -23 -52q-26 -22 -61 -26q-7 -1 -14 -1 q-27 0 -51 13q-30 16 -34 54l-10 104q-100 -88 -208 -118t-226 -36q-23 -1 -45 -1q-111 0 -192 33q-97 40 -156 116t-84 182q-22 91 -22 196q0 17 1 34zM202 552l-2 -42q0 -53 8 -105q10 -73 40 -132t85 -99t141 -48q20 -2 41 -2q46 0 99 9q78 13 151 46t131 84t80 123 q1 34 1 68q0 68 -5 135q-8 101 -16 203q-66 72 -146 110t-162 45q-19 2 -38 2q-62 0 -122 -18q-78 -23 -139 -74t-101 -128t-46 -177z" />
<glyph unicode="e" horiz-adv-x="1176" d="M40 480q-1 24 -1 47q0 120 26 226q31 127 97 222t166 154t232 71q18 2 36 2q69 0 133 -25q81 -31 147 -83t111 -116t63 -124q8 -28 17 -60t7 -62t-21 -56t-69 -40q-84 -24 -183 -43t-202 -34t-204 -29t-187 -30q10 -184 102 -275q78 -77 211 -77q23 0 49 2q42 4 99 15 t114 34t109 59t88 92q22 34 56 39q8 1 16 1q25 0 46 -12q28 -16 40 -48q4 -11 4 -24q0 -23 -14 -50q-36 -66 -104 -115t-147 -81t-162 -49t-149 -21q-22 -1 -42 -1q-104 0 -185 33q-97 40 -162 110t-99 162t-38 186zM216 678q6 -4 28 -4q15 0 36 2q54 4 128 14t159 25 t158 29t123 26t58 16q-20 70 -59 121t-87 82t-100 44q-36 9 -67 9q-15 0 -29 -2q-156 -22 -248 -120t-100 -242z" />
<glyph unicode="f" horiz-adv-x="1186" d="M3 786q3 32 19 59t40 27q22 0 48 1t56 1q-2 94 -3 185v37q0 73 3 150q2 116 40 203t102 145t152 85q72 22 155 22q18 0 37 -1q62 -4 131 -17t135 -52t124 -110t98 -189q12 -36 -6 -60t-45 -34t-56 -3t-37 31q-36 102 -89 160t-109 86t-108 34t-86 6q-84 -2 -137 -44 t-84 -103t-43 -127t-12 -116q2 -160 6 -288q70 -1 144 -1t151 1q155 2 293 14h5q35 0 55 -25q22 -27 25 -61v-10q0 -28 -14 -54q-17 -30 -55 -32l-600 -2q4 -152 6 -258t5 -175t4 -109t2 -62t2 -33t1 -21v-5q0 -36 -25 -52q-27 -17 -60 -15t-61 18t-28 40q-4 190 -8 354 t-8 318h-104q-36 0 -50 25t-11 57z" />
<glyph unicode="g" horiz-adv-x="1138" d="M48 642q16 120 68 223t134 180t184 111q69 23 144 23q36 0 72 -5q114 -16 230 -100q0 18 -1 21t-2 4t-2 5t-1 24v5q0 36 25 52q27 17 60 15t61 -18t28 -40q2 -180 6 -333t7 -292t3 -273t-2 -278q-2 -116 -40 -203t-102 -145t-152 -85q-72 -22 -155 -22q-18 0 -37 1 q-62 2 -131 16t-135 53t-124 110t-98 189q-12 36 6 60t45 34t55 3t38 -31q36 -102 89 -160t109 -86t108 -34t86 -6q84 2 137 44t84 103t43 127t12 116l-2 88q-36 -26 -77 -51t-89 -45q-91 -38 -190 -38h-10q-104 2 -197 47t-165 132t-106 217q-21 81 -21 162q0 40 5 80z M205 634q-7 -38 -7 -76q0 -54 14 -108q24 -88 69 -150t107 -98t135 -42q14 -1 28 -1q60 0 125 21q64 22 118 66t106 104q0 94 -1 219t-7 267q-2 0 -2 2q-84 102 -174 138q-66 26 -129 26q-23 0 -45 -3q-84 -13 -155 -66t-118 -130t-64 -169z" />
<glyph unicode="h" horiz-adv-x="1208" d="M30 1640q-4 36 19 52t53 16t57 -13t29 -37q2 -28 7 -86t11 -138t13 -177t15 -201q104 74 215 124q107 48 214 48h9q132 -4 221 -54t143 -132t80 -187t32 -217q6 -84 6 -168t-2 -160t-6 -141t-8 -109q-6 -40 -38 -54q-22 -10 -46 -10q-10 0 -20 2q-34 6 -59 32 q-18 19 -18 45q0 11 3 23q8 40 15 97t10 125q2 51 2 107v38q-1 77 -5 159q-6 88 -26 169t-61 141t-105 93q-54 28 -127 28q-13 0 -27 -1q-54 -4 -110 -25t-107 -53t-95 -72t-74 -82q8 -116 18 -229t19 -212t17 -178t16 -127q1 -8 1 -15q0 -30 -20 -48q-25 -23 -58 -28 q-8 -1 -16 -1q-24 0 -47 11q-30 15 -34 53z" />
<glyph unicode="i" horiz-adv-x="312" d="M41 1479q17 31 51 46q22 10 47 10q13 0 27 -3q40 -8 66 -44q10 -15 10 -31q0 -15 -9 -31q-19 -32 -54 -50q-29 -15 -61 -15q-7 0 -14 1q-40 4 -60 44q-11 23 -11 42q0 17 8 31zM58 1192q-2 36 23 51t57 13t59 -17t29 -39q4 -44 7 -124t6 -183t7 -218t9 -226t12 -211 t15 -172q1 -5 1 -10q0 -33 -23 -52q-26 -22 -61 -26q-7 -1 -14 -1q-27 0 -51 13q-30 16 -34 54z" />
<glyph unicode="j" horiz-adv-x="374" d="M-486 -166q-6 28 15 49t50 30t57 1t34 -40q8 -34 24 -70t45 -67t72 -53t105 -24h14q74 0 116 39q46 43 68 107t27 134t5 120q0 88 1 161q1 37 1 73t-1 72q-1 72 -3 150t-5 175t-10 218t-15 279q-2 40 23 56t56 13t57 -20t26 -41q2 -180 9 -340t13 -307t9 -288 q2 -85 2 -170q0 -57 -1 -115q-2 -116 -33 -206t-88 -150t-138 -89q-60 -22 -131 -22q-24 0 -50 3q-58 6 -113 26t-103 58t-84 97t-54 141zM99 1465q17 31 51 46q22 10 47 10q13 0 27 -3q40 -8 66 -44q10 -15 10 -31q0 -15 -9 -31q-19 -32 -54 -50q-29 -15 -61 -15 q-7 0 -14 1q-40 4 -60 44q-11 23 -11 42q0 17 8 31z" />
<glyph unicode="k" horiz-adv-x="1228" d="M90 1654q-2 36 24 51t58 13t59 -17t27 -39q0 -34 1 -115t1 -192t-1 -243t-1 -268q64 32 139 79t156 104t165 121t168 132q23 19 47 19q7 0 14 -2q31 -7 53 -28t29 -48t-11 -41q-78 -68 -161 -130t-163 -116t-150 -100t-124 -82q94 -52 206 -136t218 -174t193 -175 t133 -135q26 -30 16 -58t-36 -47t-57 -24t-47 13q-106 100 -205 194t-195 175t-191 147t-195 114q0 -90 1 -176t3 -159t4 -133t6 -98v-5q0 -36 -25 -57q-27 -22 -61 -26q-7 -1 -13 -1q-27 0 -51 13q-30 16 -32 54z" />
<glyph unicode="l" horiz-adv-x="394" d="M76 1654q-2 36 23 51t57 13t59 -17t29 -39q4 -42 8 -157t9 -266t11 -325t13 -335t15 -294t16 -205q1 -5 1 -10q0 -33 -23 -52q-26 -22 -61 -26q-7 -1 -14 -1q-27 0 -51 13q-30 16 -34 54z" />
<glyph unicode="m" horiz-adv-x="2030" d="M50 1112q-4 36 19 53t53 19t56 -11t28 -37l26 -178q90 98 198 159q105 59 213 59h7h14q135 0 232 -74q102 -78 140 -196q26 78 76 133t110 89t124 48t120 14q162 -4 260 -87t151 -232t69 -355t16 -454q0 -40 -28 -60t-61 -21h-3q-31 0 -57 19q-25 19 -25 56v6 q5 113 5 224q0 69 -2 137q-5 177 -40 315t-107 219q-67 75 -181 75h-17q-56 -4 -111 -30t-100 -68t-76 -97t-39 -113q-22 -166 -22 -319t10 -313v-5q0 -36 -25 -55q-27 -20 -60 -21h-3q-31 0 -58 19q-28 20 -28 62q3 77 3 180q0 52 -1 110q-2 174 -38 380q-12 64 -39 113 t-65 80t-84 45q-32 10 -65 10q-14 0 -29 -2q-54 -6 -107 -36t-101 -71t-89 -88t-71 -89q4 -186 10 -354t28 -288q1 -8 1 -15q0 -29 -19 -48q-24 -23 -57 -28q-8 -1 -16 -1q-24 0 -48 11q-31 15 -35 53z" />
<glyph unicode="n" horiz-adv-x="1132" d="M40 1190q-4 36 19 53t53 19t56 -11t28 -37l26 -178q90 98 198 159q105 59 213 60q4 0 7 -1h17q97 0 166 -42q75 -46 124 -128t76 -195t40 -246t17 -279t6 -292q0 -40 -27 -60t-60 -21h-3q-31 0 -57 19q-27 20 -27 62q2 64 3 166v29q0 89 -5 189q-6 116 -23 233t-51 208 t-90 145q-47 46 -114 46q-12 0 -26 -2q-54 -6 -107 -36t-101 -71t-89 -88t-71 -89q2 -92 4 -195t6 -201t11 -184t17 -146q1 -8 1 -15q0 -29 -19 -48q-24 -23 -57 -28q-8 -1 -16 -1q-24 0 -48 11q-31 15 -35 53z" />
<glyph unicode="o" d="M54 700q14 102 57 199t118 172t183 119q99 40 230 40h24q118 -4 220 -51t177 -131t115 -199q33 -96 33 -208q0 -22 -1 -45q-4 -86 -28 -170t-66 -157t-103 -131t-141 -92q-124 -52 -236 -52t-208 39t-172 110t-126 161t-71 192q-12 58 -12 116q0 44 7 88zM222 674 q-5 -38 -5 -75q0 -71 18 -137q27 -100 89 -171t157 -105q62 -22 135 -22q39 0 80 6q80 12 142 48t107 89t71 121t34 144q2 27 2 53q0 62 -13 121q-19 84 -67 151t-123 110t-177 53q-13 1 -27 1q-37 0 -86 -7q-69 -10 -138 -49t-125 -118t-74 -213z" />
<glyph unicode="p" horiz-adv-x="1220" d="M46 1110q-1 5 -1 10q0 31 23 51q26 23 61 27q7 1 14 1q27 0 51 -13q30 -16 34 -54l10 -112q194 174 434 186q21 1 41 1q114 0 196 -38q97 -45 156 -127t84 -193q22 -96 22 -201q0 -17 -1 -34q-4 -118 -43 -217t-105 -173t-154 -119t-188 -57q-32 -4 -66 -4q-69 0 -142 17 q-108 25 -214 91q-3 -52 -3 -99q0 -24 1 -46q2 -67 7 -133t11 -135t12 -151q2 -36 -23 -57t-56 -23t-59 15t-30 57q-4 42 -8 153t-9 257t-11 312t-13 322t-15 285t-16 201zM238 774q-1 -34 -1 -68q0 -68 5 -135q8 -101 16 -203q66 -72 146 -110t162 -45q19 -2 38 -2 q62 0 122 18q78 23 139 74t101 128t46 177q1 21 1 43q0 53 -7 108q-10 77 -41 140t-86 107t-141 52q-16 2 -33 2q-49 0 -106 -13q-77 -17 -150 -54t-131 -92t-80 -127z" />
<glyph unicode="q" horiz-adv-x="1292" d="M64 508q-3 39 -3 78q0 81 14 159q21 115 76 206t150 151t235 74q39 5 76 5q197 0 366 -123l6 114q2 38 32 59t64 23h6q31 0 56 -17q26 -18 26 -54v-5q-4 -58 -7 -159t-4 -225t-1 -263v-275t1 -260t1 -216l106 120q26 16 48 16q11 0 20 -3q30 -11 45 -37t14 -57t-23 -47 l-200 -232q-8 -8 -33 -18t-52 -10t-48 14t-23 54q-4 82 -5 152t-3 139t-3 145t-3 172q-102 -88 -209 -132t-208 -48h-22q-89 0 -169 29q-90 33 -159 98t-114 160t-53 213zM210 526q10 -100 52 -174t105 -120t142 -61q34 -6 69 -6q46 0 94 11q84 20 165 76t151 152 q4 102 7 204q1 28 1 56q0 74 -6 148q-24 68 -85 115t-135 72t-153 30q-19 1 -37 1q-56 0 -102 -12q-86 -22 -141 -72t-86 -118t-40 -146q-5 -41 -5 -83q0 -36 4 -73z" />
<glyph unicode="r" horiz-adv-x="1090" d="M40 1190q-4 36 19 53t53 19t56 -11t28 -37l26 -178q90 98 198 159q105 59 213 59h7h10q67 0 133 -26q71 -28 130 -81t101 -126t56 -161q2 -12 2 -22q0 -32 -19 -52q-25 -26 -58 -32q-9 -2 -19 -2q-23 0 -45 11q-31 15 -37 47q-12 72 -43 127t-71 89t-86 50q-33 12 -65 12 q-12 0 -23 -2q-54 -6 -107 -36t-101 -71t-89 -88t-71 -89q8 -116 18 -226t19 -205t17 -171t16 -124q1 -8 1 -15q0 -30 -20 -48q-25 -23 -58 -28q-8 -1 -16 -1q-24 0 -47 11q-30 15 -34 53z" />
<glyph unicode="s" horiz-adv-x="1114" d="M40 352q-4 38 16 59t48 26t55 -6t37 -37q12 -30 23 -70t36 -76t68 -64t119 -36q22 -2 47 -2t52 2q55 4 110 16t105 33t86 52t54 71q12 26 12 56q0 17 -4 36q-18 86 -79 122t-144 49t-174 17t-169 28q-98 32 -160 90t-88 128q-18 48 -18 97q0 28 6 56q16 77 78 133 q38 36 89 59t106 36t113 14h11q52 0 101 -9q102 -18 191 -63t169 -125q28 -28 23 -56t-28 -46t-53 -22t-52 14q-76 64 -150 103t-138 49q-20 3 -42 3q-11 0 -23 -1q-35 -2 -71 -10t-69 -22t-57 -36q-39 -35 -39 -82q0 -23 9 -48q20 -52 81 -97t157 -55q68 -6 153 -12 t165 -25t145 -57t93 -110q30 -79 31 -147q0 -18 -3 -35q-10 -82 -57 -145t-120 -108t-160 -70t-180 -32q-34 -3 -67 -3q-56 0 -108 8q-80 12 -140 48t-102 85t-65 106t-29 111z" />
<glyph unicode="t" horiz-adv-x="1144" d="M-22 1140q0 30 18 54t56 24h344l-8 432q-2 36 23 51t56 12t57 -19t26 -40q2 -44 4 -162t6 -274h510q36 -2 48 -27t7 -55t-23 -54t-42 -22h-87t-118 1t-140 1t-153 -2q2 -150 5 -305t7 -295t9 -253t11 -177q1 -5 1 -10q0 -31 -23 -50q-26 -22 -60 -26q-7 -1 -13 -1 q-27 0 -51 13q-30 16 -32 54l-18 1050q-64 -3 -125 -3q-30 0 -60 1q-89 2 -159 2q-38 0 -57 25t-19 55z" />
<glyph unicode="u" horiz-adv-x="1246" d="M67 716q5 108 23 213t42 193q8 28 38 39t62 6t52 -28q12 -14 12 -36q0 -13 -4 -29q-20 -64 -37 -151t-25 -181q-5 -58 -5 -115q0 -36 2 -72q5 -93 27 -169t64 -129t110 -67q24 -5 49 -4q50 0 103 18q80 28 154 78t134 109t90 107l-64 600q-6 36 19 52t56 16t59 -13 t32 -35q6 -44 15 -116t18 -162t20 -191t23 -200t24 -191t26 -162q2 -9 2 -18q0 -26 -19 -45q-25 -25 -59 -31q-10 -2 -20 -2q-23 0 -46 10q-32 14 -38 52l-26 238q-52 -56 -126 -115t-159 -101t-179 -55q-25 -3 -50 -3q-69 0 -136 26q-82 32 -135 99t-83 157t-40 195 q-7 70 -7 141q0 36 2 72z" />
<glyph unicode="v" horiz-adv-x="1216" d="M56 1062q-16 32 1 56t47 35t61 8t43 -23q26 -48 74 -147t107 -222t122 -254t121 -239q54 112 112 250t112 269t99 237t71 154q12 20 43 23t61 -8t47 -35t1 -56l-468 -1082q-8 -18 -29 -28t-45 -11t-46 9t-32 30z" />
<glyph unicode="w" horiz-adv-x="1648" d="M32 1132q-14 34 6 57t50 34t61 6t41 -25q22 -48 57 -158t78 -246t91 -278t96 -252q72 202 131 382t101 318q8 24 30 37t48 14t50 -11t34 -38q46 -126 102 -312t128 -388q32 74 63 163t61 184t57 187t51 173t44 142t34 93q10 20 41 25t61 -6t50 -34t6 -57l-372 -1116 q-8 -20 -35 -28t-58 -6t-58 13t-35 29l-222 658l-222 -660q-8 -18 -35 -29t-58 -13t-58 6t-35 28z" />
<glyph unicode="x" horiz-adv-x="1192" d="M34 1152q14 26 43 41t60 16t43 -19q14 -26 53 -74t95 -111t124 -138t142 -155q72 80 139 157t124 142t99 115t64 78q14 18 44 15t57 -20t39 -45t-10 -58l-444 -504q66 -70 129 -138t120 -128t104 -110t79 -86q19 -22 19 -45q0 -9 -3 -18q-10 -33 -37 -54t-62 -24h-6 q-31 0 -53 27l-400 452l-400 -452q-23 -29 -55 -29h-2q-33 1 -58 20t-33 50q-2 7 -2 15q0 24 20 46q32 36 78 87t101 113t117 131t126 141l-446 506q-22 30 -8 56z" />
<glyph unicode="y" horiz-adv-x="1240" d="M39 1093q11 31 37 50t57 21t53 -28l566 -848l302 834q12 36 43 44t61 -3t49 -37t7 -58q-14 -40 -55 -150t-95 -256t-114 -313t-115 -323t-98 -284t-61 -198q-10 -38 -43 -50q-19 -7 -38 -7q-14 0 -29 4q-34 9 -56 36q-15 19 -15 41q0 11 3 22l176 484q-44 66 -100 155 t-117 186t-124 194t-118 182t-98 150t-67 95q-22 26 -11 57z" />
<glyph unicode="z" horiz-adv-x="1084" d="M45 1053q1 27 16 51t39 26q64 2 165 6t217 9t238 12t230 17q32 2 54 -16t33 -46t6 -62t-27 -62q-76 -96 -172 -208t-196 -226t-196 -221t-172 -191q80 0 171 1t183 4t182 8t170 13q6 1 11 1q32 0 53 -21q24 -24 28 -54t-11 -57t-53 -29q-232 -4 -386 -8t-250 -5t-144 -2 t-69 -1t-23 1t-8 1q-28 2 -47 17t-28 36t-5 44t22 45l774 878l-740 -32q-36 -2 -51 21t-14 50z" />
<glyph unicode="{" horiz-adv-x="688" d="M86 853q-8 57 60 113q40 32 62 82t31 106t8 113t-6 106t-12 85t-9 48q-16 74 3 149t69 132t125 87t169 14q20 -4 31 -27t10 -49t-12 -47t-35 -19q-42 2 -82 -12t-70 -41t-46 -66t-10 -85q12 -82 29 -175t16 -183t-28 -173t-101 -147q94 -70 118 -158t13 -184t-37 -195 t-32 -193q-2 -38 6 -84t29 -86t56 -65t85 -19q30 4 49 -22t21 -59t-16 -60t-60 -23q-154 12 -246 110t-96 284q-2 48 9 108t24 124t24 129t9 121t-21 100t-63 68q-66 36 -74 93z" />
<glyph unicode="|" horiz-adv-x="1406" d="M72 644l126 254l190 -168l24 -22q-26 -4 -48 -8l-40 -8t-34 -8q18 -24 48 -57t69 -65t86 -57t99 -33q0 8 5 78t11 167t13 208t13 201l-160 -12v128q30 -2 58 -6q24 -4 52 -7t54 -5q4 44 6 70t2 30q-152 50 -152 192q0 44 17 83t46 69t68 47t83 17q40 0 78 -16t72 -52 q22 -32 38 -65t16 -83q0 -26 -10 -55t-28 -55t-43 -48t-55 -34v-30t4 -66l152 14v-128l-148 12q6 -90 13 -201t13 -210t11 -170t5 -83q48 18 94 44t85 56t70 62t51 60q-26 0 -56 6t-40 6l-32 12l222 190l106 -222l12 -32q-28 4 -50 10q-20 4 -39 7t-29 3q-4 -44 -19 -100 t-49 -113t-89 -108t-139 -81q0 -4 -29 -23t-65 -51t-69 -78t-41 -106h-34q-4 60 -36 107t-68 81q-44 38 -96 70q-120 46 -197 153t-91 261q-12 -4 -29 -7t-33 -7q-18 -4 -36 -6zM588 1516q0 -46 32 -80t78 -34t79 34t33 80t-33 78t-79 32t-78 -32t-32 -78z" />
<glyph unicode="}" horiz-adv-x="668" d="M71 1812q-1 26 9 49t32 27q94 16 169 -14t125 -87t69 -132t3 -149q-2 -12 -9 -48t-12 -85t-6 -106t8 -113t31 -106t62 -82q68 -56 60 -113t-74 -93q-46 -24 -64 -68t-20 -100t9 -121t24 -129t23 -124t10 -108q-4 -186 -96 -284t-246 -110q-42 -4 -60 23t-16 60t21 59 t49 22q50 -6 85 19t56 65t29 86t6 84q-6 94 -32 193t-37 195t13 184t118 158q-74 64 -101 147t-28 173t16 183t29 175q6 46 -10 85t-46 66t-70 41t-82 12q-24 -2 -35 19t-12 47z" />
<glyph unicode="~" horiz-adv-x="1254" d="M110 674q24 50 52 98t65 88t85 70t112 42q92 18 154 -12t108 -74t82 -86t72 -50q30 -6 57 7t49 36t42 53t38 60q12 18 37 20t49 -7t41 -28t11 -41q-14 -54 -51 -102t-83 -83t-95 -55t-87 -20q-46 -2 -83 18t-69 50t-62 64t-60 61t-64 42t-74 7q-16 -4 -39 -15t-49 -35 t-53 -64t-49 -100q-12 -34 -39 -37t-52 10t-40 37t-5 46z" />
<glyph unicode="&#xa1;" horiz-adv-x="336" d="M53 1529q17 31 51 46t74 7t66 -44q22 -30 2 -62t-55 -50t-75 -14t-60 44q-20 42 -3 73zM70 1242q-2 36 23 51t57 13t59 -17t29 -39q4 -42 6 -134t4 -211t5 -254t7 -263t10 -239t14 -183q4 -38 -22 -61t-61 -27t-65 12t-34 54z" />
<glyph unicode="&#xa2;" horiz-adv-x="1138" d="M64 830q0 106 26 206t78 191t130 157q66 56 154 80l-6 178q-2 36 23 51t57 13t59 -17t29 -39t4 -69t4 -107q60 -6 119 -27t110 -53t92 -76t67 -96q16 -34 4 -64t-37 -46t-57 -15t-54 31q-60 80 -121 120t-117 54q4 -100 8 -216t8 -234t8 -235t10 -219l20 4t20 6 q80 30 148 90t130 148q26 38 58 37t56 -22t31 -56t-17 -67q-58 -76 -100 -121t-79 -72t-74 -44t-87 -37q-48 -22 -96 -30q4 -52 7 -94t7 -72q4 -40 -22 -62t-61 -26t-65 12t-34 54l-8 188q-136 22 -248 121t-158 273q-26 96 -26 202zM232 852q0 -84 22 -164q28 -114 90 -185 t146 -97l-32 882q-8 -4 -14 -8l-12 -8q-66 -48 -110 -115t-67 -144t-23 -161z" />
<glyph unicode="&#xa3;" horiz-adv-x="1530" d="M87 111q-3 75 35 139t108 104t152 26q10 70 23 160t21 168h-94q-36 -2 -50 23t-10 56t20 57t40 26q26 2 55 2h63q26 186 63 334t89 253t125 166t173 73q62 8 125 -11t115 -65t85 -122t33 -184q0 -40 -26 -53t-56 -9t-55 24t-23 46q8 84 -13 129t-53 66t-67 24t-53 1 q-66 -4 -116 -66t-87 -158t-63 -214t-44 -234q114 0 241 2t255 14q40 2 62 -24t24 -59t-15 -63t-55 -32l-534 -2q-6 -64 -13 -124t-13 -111t-10 -89t-4 -58q36 -12 99 -38t141 -54t162 -50t161 -24t140 23t97 91q16 32 51 32t63 -21t36 -58t-28 -79q-62 -74 -141 -107 t-166 -38t-178 12t-178 46t-167 62t-142 61q-18 -56 -49 -110t-73 -88t-95 -41t-117 33q-66 58 -69 133zM213 133q-1 -25 17 -41q24 -20 44 -3t36 46t24 60t8 37q-40 2 -69 -13t-44 -38t-16 -48z" />
<glyph unicode="&#xa5;" horiz-adv-x="1228" d="M25 1643q9 25 33 40t52 17t42 -16q110 -142 220 -291t242 -315q132 162 242 309t220 287q14 18 42 16t52 -17t33 -40t-13 -53l-488 -648q0 -10 -1 -18t-1 -18q72 2 146 5t146 11q40 2 62 -25t25 -61t-14 -65t-55 -33l-312 -2q0 -20 -1 -40t-1 -42q70 2 142 5t142 11 q40 2 62 -25t25 -61t-14 -65t-55 -33l-302 -2q2 -102 3 -207t3 -211q0 -40 -24 -59t-54 -20t-56 18t-30 57q-2 134 -2 236v186h-320q-36 -2 -50 24t-11 58t19 59t40 27q60 4 142 3t178 -1v82h-306q-36 -2 -50 24t-11 58t19 59t40 27q58 4 138 3t170 -1v26l-496 668 q-22 28 -13 53z" />
<glyph unicode="&#xa8;" horiz-adv-x="704" d="M101 1431q17 31 51 46t74 7t66 -44q20 -30 1 -62t-54 -50t-75 -14t-60 44q-20 42 -3 73zM429 1443q17 31 51 46t74 7t66 -44q20 -30 1 -62t-54 -50t-75 -14t-60 44q-20 42 -3 73z" />
<glyph unicode="&#xa9;" horiz-adv-x="1550" d="M44 884q8 174 68 328t163 265t247 171t320 46q126 -10 238 -58t196 -135t136 -210t58 -279q8 -238 -40 -433t-153 -329t-267 -199t-380 -41q-162 18 -276 102t-185 208t-101 272t-24 292zM204 876q-8 -150 18 -274t83 -216t142 -149t197 -73q158 -22 284 32t215 163 t134 265t41 336q-4 124 -44 227t-108 179t-159 120t-195 48q-142 6 -253 -49t-188 -148t-119 -214t-48 -247zM331 843q-3 83 13 163t54 151t102 125q66 56 154 70t173 -7t158 -72t109 -125q14 -28 2 -56t-34 -47t-49 -22t-45 23q-40 58 -89 91t-98 46t-91 9t-66 -22 q-54 -38 -86 -96t-46 -120t-13 -122t13 -102q18 -70 57 -116t87 -70t102 -30t102 4q64 26 109 84t95 128q20 30 51 27t55 -24t34 -52t-8 -57q-22 -30 -49 -68t-60 -75t-73 -67t-86 -44q-84 -24 -171 -18t-162 44t-134 109t-85 177q-22 78 -25 161z" />
<glyph unicode="&#xab;" horiz-adv-x="1450" d="M117 432q-1 24 7 46t28 32l526 274q32 18 57 2t37 -46t10 -61t-22 -43l-356 -188l380 -148q20 -10 24 -41t-5 -61t-32 -49t-57 -3l-554 214q-20 6 -31 27t-12 45zM685 468q-1 24 7 46t28 32l526 274q32 18 57 2t37 -46t10 -61t-22 -43l-356 -188l380 -148q20 -10 24 -41 t-5 -61t-32 -49t-57 -3l-554 214q-20 6 -31 27t-12 45z" />
<glyph unicode="&#xad;" horiz-adv-x="1104" d="M127 760q3 32 19 59t40 27q64 2 152 2h188t209 3t217 13q40 2 62 -25t25 -61t-14 -65t-55 -33l-782 -2q-36 -2 -50 24t-11 58z" />
<glyph unicode="&#xae;" horiz-adv-x="1534" d="M44 884q8 174 68 328t163 265t247 171t320 46q126 -10 238 -58t196 -135t136 -210t58 -279q8 -238 -40 -433t-153 -329t-267 -199t-380 -41q-162 18 -276 102t-185 208t-101 272t-24 292zM204 876q-8 -150 18 -274t83 -216t142 -149t197 -73q158 -22 284 32t215 163 t134 265t41 336q-4 124 -44 227t-108 179t-159 120t-195 48q-142 6 -253 -49t-188 -148t-119 -214t-48 -247zM436 1262q-2 20 19 32t47 13t49 -7t25 -28v-42q64 34 127 52t121 16q66 -2 124 -22t98 -57t61 -92t13 -127q-10 -110 -95 -175t-205 -81q74 -52 156 -120t146 -154 q12 -16 -3 -33t-40 -28t-51 -11t-36 18q-70 84 -122 135t-99 83t-95 53t-112 45q-4 -40 -3 -73t4 -65t7 -66t6 -76q0 -18 -20 -29t-45 -12t-46 8t-23 29q-2 22 -2 81t1 137t1 167t-1 172t-2 151t-5 106zM576 1009q2 -41 4 -105q48 -30 120 -33t138 14t114 52t48 83 q0 26 -10 52t-31 48t-54 36t-81 14q-30 0 -65 -7t-69 -19t-63 -29t-49 -35q-4 -30 -2 -71z" />
<glyph unicode="&#xaf;" horiz-adv-x="1092" d="M51 1382q3 32 19 59t40 27q64 2 152 2h188t209 3t217 13q40 2 62 -25t25 -61t-14 -65t-55 -33l-782 -2q-36 -2 -50 24t-11 58z" />
<glyph unicode="&#xb4;" horiz-adv-x="428" d="M55 1371q-7 29 21 59l152 168q32 36 66 37t56 -19t27 -52t-21 -64l-164 -174q-24 -24 -55 -22t-53 20t-29 47z" />
<glyph unicode="&#xb8;" horiz-adv-x="548" d="M20 -288q-8 24 6 45t35 32t41 9t26 -22q12 -44 52 -73t90 -27q52 2 83 18t31 62q0 34 -25 53t-58 28t-66 11t-51 0q-14 -2 -30 4t-28 19t-19 32t-3 45q8 40 10 71t6 45q4 12 24 16t42 0t39 -13t15 -23q-2 -10 -8 -28t-6 -64q48 2 98 -7t91 -32t67 -61t26 -92 q0 -62 -26 -100t-64 -60t-80 -30t-74 -10q-42 -2 -82 11t-73 36t-57 51t-32 54z" />
<glyph unicode="&#xbb;" horiz-adv-x="1406" d="M130 275q4 31 24 41l380 148l-356 188q-20 12 -22 43t10 61t37 46t57 -2l526 -274q20 -10 28 -32t7 -46t-12 -45t-31 -27l-554 -214q-34 -16 -57 3t-32 49t-5 61zM678 259q4 31 24 41l380 148l-356 188q-20 12 -22 43t10 61t37 46t57 -2l526 -274q20 -10 28 -32t7 -46 t-12 -45t-31 -27l-554 -214q-34 -16 -57 3t-32 49t-5 61z" />
<glyph unicode="&#xbf;" horiz-adv-x="1214" d="M52 282q0 108 34 188t91 139t129 99t149 65t152 38t135 17q-2 70 -9 128t-16 103t-17 77t-10 48q-6 40 16 66t52 33t60 -6t40 -49q6 -20 13 -68t14 -108t14 -127t13 -127q6 -58 -25 -103t-109 -35q-34 4 -90 -3t-120 -25t-128 -47t-116 -71t-85 -96t-33 -122t35 -120 t92 -88t130 -56t149 -24q72 -2 142 19t127 61t97 96t52 124q6 30 34 35t56 -7t48 -38t8 -56q-28 -74 -79 -147t-125 -128t-172 -87t-222 -26q-94 6 -188 35t-169 82t-122 131t-47 180zM620 1466q-20 32 1 63t57 47t76 11t58 -45q18 -42 0 -73t-53 -44t-75 -5t-64 46z" />
<glyph unicode="&#xc0;" horiz-adv-x="1432" d="M18 112l602 1532q14 38 40 53t53 13t49 -18t30 -36l608 -1536q12 -36 -8 -64t-53 -39t-67 -2t-46 47q-24 70 -76 207t-116 307l-688 -102q-52 -138 -92 -249t-62 -171q-12 -38 -46 -47t-67 2t-53 39t-8 64zM416 658q114 16 258 38t296 50q-70 182 -139 358t-121 308 q-30 -72 -65 -162t-73 -188t-78 -201t-78 -203zM553 2042q5 32 27 52t56 19t66 -37l152 -168q26 -30 20 -59t-28 -47t-53 -20t-55 22l-164 174q-26 32 -21 64z" />
<glyph unicode="&#xc1;" horiz-adv-x="1432" d="M18 112l602 1532q14 38 40 53t53 13t49 -18t30 -36l608 -1536q12 -36 -8 -64t-53 -39t-67 -2t-46 47q-24 70 -76 207t-116 307l-688 -102q-52 -138 -92 -249t-62 -171q-12 -38 -46 -47t-67 2t-53 39t-8 64zM416 658q114 16 258 38t296 50q-70 182 -139 358t-121 308 q-30 -72 -65 -162t-73 -188t-78 -201t-78 -203zM557 1849q-7 29 21 59l152 168q32 36 66 37t56 -19t27 -52t-21 -64l-164 -174q-24 -24 -55 -22t-53 20t-29 47z" />
<glyph unicode="&#xc2;" horiz-adv-x="1432" d="M18 112l602 1532q14 38 40 53t53 13t49 -18t30 -36l608 -1536q12 -36 -8 -64t-53 -39t-67 -2t-46 47q-24 70 -76 207t-116 307l-688 -102q-52 -138 -92 -249t-62 -171q-12 -38 -46 -47t-67 2t-53 39t-8 64zM416 658q114 16 258 38t296 50q-70 182 -139 358t-121 308 q-30 -72 -65 -162t-73 -188t-78 -201t-78 -203zM534 1878l122 218q6 14 23 22t36 8t36 -7t23 -23l124 -216q12 -26 -2 -45t-37 -27t-48 -5t-33 19l-64 106l-60 -112q-8 -16 -33 -18t-48 7t-37 28t-2 45z" />
<glyph unicode="&#xc3;" horiz-adv-x="1432" d="M18 112l602 1532q14 38 40 53t53 13t49 -18t30 -36l608 -1536q12 -36 -8 -64t-53 -39t-67 -2t-46 47q-24 70 -76 207t-116 307l-688 -102q-52 -138 -92 -249t-62 -171q-12 -38 -46 -47t-67 2t-53 39t-8 64zM196 1858q24 50 52 98t65 88t85 70t112 42q92 18 154 -12 t108 -74t82 -86t72 -50q30 -6 57 7t49 36t42 53t38 60q12 18 37 20t49 -7t41 -28t11 -41q-14 -54 -51 -102t-83 -83t-95 -55t-87 -20q-46 -2 -83 18t-69 50t-62 64t-60 61t-64 42t-74 7q-16 -4 -39 -15t-49 -35t-53 -64t-49 -100q-12 -34 -39 -37t-52 10t-40 37t-5 46z M416 658q114 16 258 38t296 50q-70 182 -139 358t-121 308q-30 -72 -65 -162t-73 -188t-78 -201t-78 -203z" />
<glyph unicode="&#xc4;" horiz-adv-x="1432" d="M18 112l602 1532q14 38 40 53t53 13t49 -18t30 -36l608 -1536q12 -36 -8 -64t-53 -39t-67 -2t-46 47q-24 70 -76 207t-116 307l-688 -102q-52 -138 -92 -249t-62 -171q-12 -38 -46 -47t-67 2t-53 39t-8 64zM416 658q114 16 258 38t296 50q-70 182 -139 358t-121 308 q-30 -72 -65 -162t-73 -188t-78 -201t-78 -203zM453 1909q17 31 51 46t74 7t66 -44q20 -30 1 -62t-54 -50t-75 -14t-60 44q-20 42 -3 73zM781 1921q17 31 51 46t74 7t66 -44q20 -30 1 -62t-54 -50t-75 -14t-60 44q-20 42 -3 73z" />
<glyph unicode="&#xc5;" horiz-adv-x="1432" d="M18 112l602 1532q14 38 40 53t53 13t49 -18t30 -36l608 -1536q12 -36 -8 -64t-53 -39t-67 -2t-46 47q-24 70 -76 207t-116 307l-688 -102q-52 -138 -92 -249t-62 -171q-12 -38 -46 -47t-67 2t-53 39t-8 64zM416 658q114 16 258 38t296 50q-70 182 -139 358t-121 308 q-30 -72 -65 -162t-73 -188t-78 -201t-78 -203zM545 1985q33 57 93 84t129 13t107 -82q26 -48 18 -89t-37 -73t-72 -51t-88 -19t-85 20t-64 68q-34 72 -1 129zM636 1952q-14 -24 2 -56q16 -30 47 -33t60 11t44 37t-1 47q-22 28 -53 33t-58 -5t-41 -34z" />
<glyph unicode="&#xc6;" horiz-adv-x="2280" d="M70 16q-16 28 2 64l1018 1498q24 36 50 54t52 26t49 9t43 1l820 32q36 2 51 -23t14 -57t-16 -59t-39 -27q-36 -4 -114 -7t-185 -7t-237 -8t-274 -10v-120t-1 -146t-2 -162t-1 -164l674 42q36 2 52 -23t14 -56t-17 -59t-39 -30q-72 -6 -246 -18t-436 -26q0 -82 1 -163 t3 -156t5 -142t5 -117l866 36q36 2 52 -23t14 -57t-16 -59t-38 -27q-38 -4 -128 -8t-212 -8t-266 -9t-290 -9q-22 0 -49 -1t-51 4t-41 19t-17 44l-6 666l-430 -22q-34 -54 -79 -119t-93 -135t-97 -139t-89 -128t-70 -103t-40 -64q-20 -38 -55 -47t-65 3t-46 40zM842 892 l290 12l-2 450z" />
<glyph unicode="&#xc7;" horiz-adv-x="1248" d="M32 613q-12 141 8 289q20 156 74 303t145 260t220 178t299 53q66 -4 128 -25t116 -53t95 -74t65 -90q16 -34 4 -64t-37 -46t-57 -15t-54 31q-60 80 -127 126t-161 50q-124 6 -217 -49t-159 -148t-106 -211t-58 -238q-16 -112 -11 -233t48 -224t129 -176t232 -91 q76 -10 140 9t119 58t103 96t96 123q26 38 58 37t56 -22t31 -56t-17 -67q-58 -78 -119 -143t-132 -112t-155 -70t-188 -13q-2 -10 -3 -22t-1 -32q48 2 98 -7t91 -32t67 -61t26 -92q0 -62 -26 -100t-64 -60t-80 -30t-74 -10q-42 -2 -82 11t-73 36t-57 51t-32 54q-8 24 6 45 t35 32t41 9t26 -22q12 -44 52 -73t90 -27q52 2 83 18t31 62q0 34 -25 53t-58 28t-66 11t-51 0q-14 -2 -30 4t-28 19t-19 32t-3 45q4 22 6 42t4 36q-148 36 -243 122t-146 205t-63 260z" />
<glyph unicode="&#xc8;" horiz-adv-x="1216" d="M64 1568q0 30 15 49t38 30t50 16t53 5l820 32q36 2 51 -23t14 -57t-16 -59t-39 -27q-36 -4 -114 -7t-185 -7t-237 -8t-274 -10q0 -102 1 -251t-1 -311l674 42q36 2 52 -23t14 -56t-17 -59t-39 -30q-72 -6 -246 -18t-436 -26q0 -82 1 -168t2 -167t3 -152t4 -121l866 36 q36 2 52 -23t14 -57t-16 -59t-38 -27q-38 -4 -128 -8t-212 -8t-266 -9t-290 -9q-22 0 -49 -1t-51 4t-41 19t-17 44zM445 2042q5 32 27 52t56 19t66 -37l152 -168q26 -30 20 -59t-28 -47t-53 -20t-55 22l-164 174q-26 32 -21 64z" />
<glyph unicode="&#xc9;" horiz-adv-x="1216" d="M64 1568q0 30 15 49t38 30t50 16t53 5l820 32q36 2 51 -23t14 -57t-16 -59t-39 -27q-36 -4 -114 -7t-185 -7t-237 -8t-274 -10q0 -102 1 -251t-1 -311l674 42q36 2 52 -23t14 -56t-17 -59t-39 -30q-72 -6 -246 -18t-436 -26q0 -82 1 -168t2 -167t3 -152t4 -121l866 36 q36 2 52 -23t14 -57t-16 -59t-38 -27q-38 -4 -128 -8t-212 -8t-266 -9t-290 -9q-22 0 -49 -1t-51 4t-41 19t-17 44zM449 1849q-7 29 21 59l152 168q32 36 66 37t56 -19t27 -52t-21 -64l-164 -174q-24 -24 -55 -22t-53 20t-29 47z" />
<glyph unicode="&#xca;" horiz-adv-x="1216" d="M64 1568q0 30 15 49t38 30t50 16t53 5l820 32q36 2 51 -23t14 -57t-16 -59t-39 -27q-36 -4 -114 -7t-185 -7t-237 -8t-274 -10q0 -102 1 -251t-1 -311l674 42q36 2 52 -23t14 -56t-17 -59t-39 -30q-72 -6 -246 -18t-436 -26q0 -82 1 -168t2 -167t3 -152t4 -121l866 36 q36 2 52 -23t14 -57t-16 -59t-38 -27q-38 -4 -128 -8t-212 -8t-266 -9t-290 -9q-22 0 -49 -1t-51 4t-41 19t-17 44zM426 1878l122 218q6 14 23 22t36 8t36 -7t23 -23l124 -216q12 -26 -2 -45t-37 -27t-48 -5t-33 19l-64 106l-60 -112q-8 -16 -33 -18t-48 7t-37 28t-2 45z " />
<glyph unicode="&#xcb;" horiz-adv-x="1216" d="M64 1568q0 30 15 49t38 30t50 16t53 5l820 32q36 2 51 -23t14 -57t-16 -59t-39 -27q-36 -4 -114 -7t-185 -7t-237 -8t-274 -10q0 -102 1 -251t-1 -311l674 42q36 2 52 -23t14 -56t-17 -59t-39 -30q-72 -6 -246 -18t-436 -26q0 -82 1 -168t2 -167t3 -152t4 -121l866 36 q36 2 52 -23t14 -57t-16 -59t-38 -27q-38 -4 -128 -8t-212 -8t-266 -9t-290 -9q-22 0 -49 -1t-51 4t-41 19t-17 44zM345 1909q17 31 51 46t74 7t66 -44q20 -30 1 -62t-54 -50t-75 -14t-60 44q-20 42 -3 73zM673 1921q17 31 51 46t74 7t66 -44q20 -30 1 -62t-54 -50t-75 -14 t-60 44q-20 42 -3 73z" />
<glyph unicode="&#xcc;" horiz-adv-x="1080" d="M25 1616q3 30 20 54t41 24h75h168t213 1t210 2t158 3t60 6q38 2 60 -22t24 -54t-16 -56t-56 -28l-388 2q2 -74 6 -184t8 -237t9 -264t10 -268t11 -246t12 -197q90 0 176 3t162 9q38 2 60 -23t24 -56t-16 -57t-56 -28l-898 -8q-36 0 -49 25t-10 55t20 55t41 25q60 2 160 2 h214l-50 1392l-344 -8q-36 0 -49 24t-10 54zM377 2042q5 32 27 52t56 19t66 -37l152 -168q26 -30 20 -59t-28 -47t-53 -20t-55 22l-164 174q-26 32 -21 64z" />
<glyph unicode="&#xcd;" horiz-adv-x="1080" d="M25 1616q3 30 20 54t41 24h75h168t213 1t210 2t158 3t60 6q38 2 60 -22t24 -54t-16 -56t-56 -28l-388 2q2 -74 6 -184t8 -237t9 -264t10 -268t11 -246t12 -197q90 0 176 3t162 9q38 2 60 -23t24 -56t-16 -57t-56 -28l-898 -8q-36 0 -49 25t-10 55t20 55t41 25q60 2 160 2 h214l-50 1392l-344 -8q-36 0 -49 24t-10 54zM381 1849q-7 29 21 59l152 168q32 36 66 37t56 -19t27 -52t-21 -64l-164 -174q-24 -24 -55 -22t-53 20t-29 47z" />
<glyph unicode="&#xce;" horiz-adv-x="1080" d="M25 1616q3 30 20 54t41 24h75h168t213 1t210 2t158 3t60 6q38 2 60 -22t24 -54t-16 -56t-56 -28l-388 2q2 -74 6 -184t8 -237t9 -264t10 -268t11 -246t12 -197q90 0 176 3t162 9q38 2 60 -23t24 -56t-16 -57t-56 -28l-898 -8q-36 0 -49 25t-10 55t20 55t41 25q60 2 160 2 h214l-50 1392l-344 -8q-36 0 -49 24t-10 54zM358 1878l122 218q6 14 23 22t36 8t36 -7t23 -23l124 -216q12 -26 -2 -45t-37 -27t-48 -5t-33 19l-64 106l-60 -112q-8 -16 -33 -18t-48 7t-37 28t-2 45z" />
<glyph unicode="&#xcf;" horiz-adv-x="1080" d="M25 1616q3 30 20 54t41 24h75h168t213 1t210 2t158 3t60 6q38 2 60 -22t24 -54t-16 -56t-56 -28l-388 2q2 -74 6 -184t8 -237t9 -264t10 -268t11 -246t12 -197q90 0 176 3t162 9q38 2 60 -23t24 -56t-16 -57t-56 -28l-898 -8q-36 0 -49 25t-10 55t20 55t41 25q60 2 160 2 h214l-50 1392l-344 -8q-36 0 -49 24t-10 54zM277 1909q17 31 51 46t74 7t66 -44q20 -30 1 -62t-54 -50t-75 -14t-60 44q-20 42 -3 73zM605 1921q17 31 51 46t74 7t66 -44q20 -30 1 -62t-54 -50t-75 -14t-60 44q-20 42 -3 73z" />
<glyph unicode="&#xd0;" horiz-adv-x="1462" d="M36 876q2 32 16 59t38 27h20t35 1t35 1h22l-22 676q0 32 19 48t44 19t50 -7t37 -28q130 28 262 23t254 -41t228 -103t182 -164t116 -225t30 -286q-14 -228 -104 -399t-230 -284t-319 -167t-373 -44q-18 -12 -42 -15t-46 4t-38 22t-18 39l-26 762h-104q-36 -2 -52 24 t-14 58zM346 1502q4 -104 10 -244t12 -294q124 0 269 1t291 15q40 2 62 -25t25 -61t-14 -65t-55 -33l-572 -2q4 -96 8 -191t8 -181t8 -161t8 -131q162 -8 306 43t254 148t179 232t81 295q16 212 -55 358t-197 226t-291 97t-337 -27z" />
<glyph unicode="&#xd1;" horiz-adv-x="1342" d="M68 58l8 1554q0 42 19 64t45 27t55 -5t51 -34q22 -26 74 -104t124 -189t157 -245t173 -272t175 -270t161 -240l-46 1296q-2 36 23 51t57 13t59 -17t29 -39q4 -44 8 -156t9 -261t10 -320t11 -330t12 -290t12 -203q2 -28 -14 -53t-41 -37t-54 -9t-51 29q-2 4 -7 10t-30 43 t-78 117t-151 228t-249 377t-373 567q-2 -100 -4 -220t-4 -245t-2 -248t1 -232t4 -196t9 -139q4 -40 -22 -62t-61 -26t-65 12t-34 54zM150 1858q24 50 52 98t65 88t85 70t112 42q92 18 154 -12t108 -74t82 -86t72 -50q30 -6 57 7t49 36t42 53t38 60q12 18 37 20t49 -7 t41 -28t11 -41q-14 -54 -51 -102t-83 -83t-95 -55t-87 -20q-46 -2 -83 18t-69 50t-62 64t-60 61t-64 42t-74 7q-16 -4 -39 -15t-49 -35t-53 -64t-49 -100q-12 -34 -39 -37t-52 10t-40 37t-5 46z" />
<glyph unicode="&#xd2;" horiz-adv-x="1382" d="M48 856q8 150 55 304t136 275t219 192t306 57q126 -10 224 -61t168 -128t114 -173t60 -194q22 -126 13 -263t-47 -267t-104 -246t-160 -199t-214 -126t-266 -27q-162 18 -264 100t-158 202t-73 265t-9 289zM210 854q-10 -94 2 -210t54 -219t115 -179t185 -92 q104 -16 194 20t162 105t126 162t88 194t46 201t0 182q-12 88 -44 176t-87 160t-134 119t-183 51q-94 4 -169 -31t-131 -92t-97 -131t-67 -150t-41 -146t-19 -120zM527 2042q5 32 27 52t56 19t66 -37l152 -168q26 -30 20 -59t-28 -47t-53 -20t-55 22l-164 174q-26 32 -21 64 z" />
<glyph unicode="&#xd3;" horiz-adv-x="1382" d="M48 856q8 150 55 304t136 275t219 192t306 57q126 -10 224 -61t168 -128t114 -173t60 -194q22 -126 13 -263t-47 -267t-104 -246t-160 -199t-214 -126t-266 -27q-162 18 -264 100t-158 202t-73 265t-9 289zM210 854q-10 -94 2 -210t54 -219t115 -179t185 -92 q104 -16 194 20t162 105t126 162t88 194t46 201t0 182q-12 88 -44 176t-87 160t-134 119t-183 51q-94 4 -169 -31t-131 -92t-97 -131t-67 -150t-41 -146t-19 -120zM531 1849q-7 29 21 59l152 168q32 36 66 37t56 -19t27 -52t-21 -64l-164 -174q-24 -24 -55 -22t-53 20 t-29 47z" />
<glyph unicode="&#xd4;" horiz-adv-x="1382" d="M48 856q8 150 55 304t136 275t219 192t306 57q126 -10 224 -61t168 -128t114 -173t60 -194q22 -126 13 -263t-47 -267t-104 -246t-160 -199t-214 -126t-266 -27q-162 18 -264 100t-158 202t-73 265t-9 289zM210 854q-10 -94 2 -210t54 -219t115 -179t185 -92 q104 -16 194 20t162 105t126 162t88 194t46 201t0 182q-12 88 -44 176t-87 160t-134 119t-183 51q-94 4 -169 -31t-131 -92t-97 -131t-67 -150t-41 -146t-19 -120zM508 1878l122 218q6 14 23 22t36 8t36 -7t23 -23l124 -216q12 -26 -2 -45t-37 -27t-48 -5t-33 19l-64 106 l-60 -112q-8 -16 -33 -18t-48 7t-37 28t-2 45z" />
<glyph unicode="&#xd5;" horiz-adv-x="1382" d="M48 856q8 150 55 304t136 275t219 192t306 57q126 -10 224 -61t168 -128t114 -173t60 -194q22 -126 13 -263t-47 -267t-104 -246t-160 -199t-214 -126t-266 -27q-162 18 -264 100t-158 202t-73 265t-9 289zM170 1858q24 50 52 98t65 88t85 70t112 42q92 18 154 -12 t108 -74t82 -86t72 -50q30 -6 57 7t49 36t42 53t38 60q12 18 37 20t49 -7t41 -28t11 -41q-14 -54 -51 -102t-83 -83t-95 -55t-87 -20q-46 -2 -83 18t-69 50t-62 64t-60 61t-64 42t-74 7q-16 -4 -39 -15t-49 -35t-53 -64t-49 -100q-12 -34 -39 -37t-52 10t-40 37t-5 46z M210 854q-10 -94 2 -210t54 -219t115 -179t185 -92q104 -16 194 20t162 105t126 162t88 194t46 201t0 182q-12 88 -44 176t-87 160t-134 119t-183 51q-94 4 -169 -31t-131 -92t-97 -131t-67 -150t-41 -146t-19 -120z" />
<glyph unicode="&#xd6;" horiz-adv-x="1382" d="M48 856q8 150 55 304t136 275t219 192t306 57q126 -10 224 -61t168 -128t114 -173t60 -194q22 -126 13 -263t-47 -267t-104 -246t-160 -199t-214 -126t-266 -27q-162 18 -264 100t-158 202t-73 265t-9 289zM210 854q-10 -94 2 -210t54 -219t115 -179t185 -92 q104 -16 194 20t162 105t126 162t88 194t46 201t0 182q-12 88 -44 176t-87 160t-134 119t-183 51q-94 4 -169 -31t-131 -92t-97 -131t-67 -150t-41 -146t-19 -120zM427 1909q17 31 51 46t74 7t66 -44q20 -30 1 -62t-54 -50t-75 -14t-60 44q-20 42 -3 73zM755 1921 q17 31 51 46t74 7t66 -44q20 -30 1 -62t-54 -50t-75 -14t-60 44q-20 42 -3 73z" />
<glyph unicode="&#xd7;" horiz-adv-x="1084" d="M197 1030q11 28 36 47t56 24t47 -11q40 -44 92 -103t112 -125q100 102 202 220q26 30 60 27t61 -26t36 -56t-15 -61l-228 -232q48 -52 99 -104t103 -100q30 -28 24 -62t-30 -60t-58 -33t-62 19l-198 218l-202 -202q-24 -28 -52 -19t-48 34t-28 55t8 48q40 42 95 97 l115 115l-210 236q-26 26 -15 54z" />
<glyph unicode="&#xd8;" horiz-adv-x="1382" d="M48 856q8 150 55 304t136 275t219 192t306 57q68 -6 132 -24l6 16q12 34 41 38t57 -9t48 -37t14 -46q-4 -8 -6 -17t-6 -19q120 -82 189 -204t91 -254q22 -126 13 -263t-47 -267t-104 -246t-160 -199t-214 -126t-266 -27q-12 2 -23 3t-23 3v-2q-10 -38 -43 -50t-66 -3 t-56 35t-13 62l6 20q-92 54 -151 140t-91 191t-41 223t-3 234zM207 695q5 -87 27 -172t61 -161t99 -128l448 1270q-48 16 -108 20q-94 4 -169 -31t-131 -92t-97 -131t-67 -150t-41 -146t-19 -120q-8 -72 -3 -159zM552 156q4 0 7 -1t7 -1q104 -16 194 20t162 105t126 162 t88 194t46 201t0 182q-16 108 -61 216t-129 184q-30 -82 -66 -185t-77 -217t-83 -232t-81 -231t-73 -215t-60 -182z" />
<glyph unicode="&#xd9;" horiz-adv-x="1400" d="M70 939q-14 313 16 709q2 24 31 41t61 19t56 -16t18 -64q-10 -74 -18 -178t-11 -224t4 -248t27 -249t55 -229t92 -187t137 -123t188 -38q136 8 225 76t140 179t70 256t17 305t-21 326t-41 322q-4 30 20 52t57 29t62 -5t33 -52q18 -160 35 -341t18 -361t-24 -347t-94 -297 t-189 -212t-308 -92q-218 -12 -356 97t-212 324t-88 528zM537 2042q5 32 27 52t56 19t66 -37l152 -168q26 -30 20 -59t-28 -47t-53 -20t-55 22l-164 174q-26 32 -21 64z" />
<glyph unicode="&#xda;" horiz-adv-x="1400" d="M70 939q-14 313 16 709q2 24 31 41t61 19t56 -16t18 -64q-10 -74 -18 -178t-11 -224t4 -248t27 -249t55 -229t92 -187t137 -123t188 -38q136 8 225 76t140 179t70 256t17 305t-21 326t-41 322q-4 30 20 52t57 29t62 -5t33 -52q18 -160 35 -341t18 -361t-24 -347t-94 -297 t-189 -212t-308 -92q-218 -12 -356 97t-212 324t-88 528zM541 1849q-7 29 21 59l152 168q32 36 66 37t56 -19t27 -52t-21 -64l-164 -174q-24 -24 -55 -22t-53 20t-29 47z" />
<glyph unicode="&#xdb;" horiz-adv-x="1400" d="M70 939q-14 313 16 709q2 24 31 41t61 19t56 -16t18 -64q-10 -74 -18 -178t-11 -224t4 -248t27 -249t55 -229t92 -187t137 -123t188 -38q136 8 225 76t140 179t70 256t17 305t-21 326t-41 322q-4 30 20 52t57 29t62 -5t33 -52q18 -160 35 -341t18 -361t-24 -347t-94 -297 t-189 -212t-308 -92q-218 -12 -356 97t-212 324t-88 528zM518 1878l122 218q6 14 23 22t36 8t36 -7t23 -23l124 -216q12 -26 -2 -45t-37 -27t-48 -5t-33 19l-64 106l-60 -112q-8 -16 -33 -18t-48 7t-37 28t-2 45z" />
<glyph unicode="&#xdc;" horiz-adv-x="1400" d="M70 939q-14 313 16 709q2 24 31 41t61 19t56 -16t18 -64q-10 -74 -18 -178t-11 -224t4 -248t27 -249t55 -229t92 -187t137 -123t188 -38q136 8 225 76t140 179t70 256t17 305t-21 326t-41 322q-4 30 20 52t57 29t62 -5t33 -52q18 -160 35 -341t18 -361t-24 -347t-94 -297 t-189 -212t-308 -92q-218 -12 -356 97t-212 324t-88 528zM437 1909q17 31 51 46t74 7t66 -44q20 -30 1 -62t-54 -50t-75 -14t-60 44q-20 42 -3 73zM765 1921q17 31 51 46t74 7t66 -44q20 -30 1 -62t-54 -50t-75 -14t-60 44q-20 42 -3 73z" />
<glyph unicode="&#xdd;" horiz-adv-x="1228" d="M27 1643q11 25 36 40t55 17t44 -16q54 -70 107 -141t108 -143t113 -149t124 -159q66 80 124 155t112 147t106 141t106 139q14 18 44 16t56 -17t38 -40t-10 -53l-488 -648q-6 -184 -5 -412t5 -464q0 -40 -24 -59t-54 -20t-56 18t-30 57q-2 216 -2 365t-1 246t-1 149v76v29 v5l-496 668q-22 28 -11 53zM455 1849q-7 29 21 59l152 168q32 36 66 37t56 -19t27 -52t-21 -64l-164 -174q-24 -24 -55 -22t-53 20t-29 47z" />
<glyph unicode="&#xde;" d="M72 1340q0 24 25 41t56 20t57 -10t28 -51v-328q100 84 205 128t206 50t193 -24t165 -91t123 -153t66 -208q16 -122 2 -240t-65 -214t-144 -161t-233 -83q-120 -16 -243 14t-225 126l18 -342q0 -38 -28 -59t-63 -23t-63 15t-28 55q0 72 -3 202t-8 287t-12 324t-13 314 t-10 257t-6 154zM262 798q4 -102 6 -203t16 -203q30 -66 90 -113t132 -74t148 -32t136 11q84 24 138 79t82 126t34 151t-8 152q-16 98 -63 167t-114 109t-146 49t-160 -12t-157 -73t-134 -134z" />
<glyph unicode="&#xdf;" horiz-adv-x="1286" d="M64 1212q-4 112 21 194t64 136t86 84t89 36q132 20 245 13t197 -46t133 -111t55 -178q2 -42 -17 -93t-56 -102t-88 -97t-111 -78q74 8 164 -1t171 -48t143 -112t80 -195q14 -92 -12 -176t-78 -155t-129 -129t-165 -96t-186 -56t-192 -10q-20 2 -37 27t-20 53t12 51t59 21 q104 -6 213 28t197 95t140 145t42 178q-10 80 -72 129t-152 71t-197 19t-207 -25q-28 -6 -49 18t-30 58t-3 66t34 42q50 18 112 56t117 88t93 108t42 118q4 54 -32 90t-95 56t-132 25t-145 -3q-22 -2 -48 -18t-49 -48t-37 -79t-12 -111l42 -1232q-2 -34 -26 -53t-54 -22 t-56 12t-28 49z" />
<glyph unicode="&#xe0;" horiz-adv-x="1250" d="M61 604q9 88 36 170t69 148q138 216 323 271t403 -27q-6 50 19 75t57 28t62 -16t34 -57q10 -78 20 -175t20 -200t21 -208t22 -201t23 -178t26 -140q10 -40 -10 -68t-50 -36t-60 7t-40 63l-34 146q-48 -58 -124 -101t-165 -66t-183 -23t-174 26q-90 28 -151 86t-96 135 t-46 165t-2 176zM221 484q7 -98 51 -178t138 -112q68 -22 157 -14t173 42t149 90t85 128q-16 126 -22 241t-18 227q-54 74 -139 108t-177 27t-177 -54t-137 -135q-42 -72 -66 -172t-17 -198zM461 1564q5 32 27 52t56 19t66 -37l152 -168q26 -30 20 -59t-28 -47t-53 -20 t-55 22l-164 174q-26 32 -21 64z" />
<glyph unicode="&#xe1;" horiz-adv-x="1250" d="M61 604q9 88 36 170t69 148q138 216 323 271t403 -27q-6 50 19 75t57 28t62 -16t34 -57q10 -78 20 -175t20 -200t21 -208t22 -201t23 -178t26 -140q10 -40 -10 -68t-50 -36t-60 7t-40 63l-34 146q-48 -58 -124 -101t-165 -66t-183 -23t-174 26q-90 28 -151 86t-96 135 t-46 165t-2 176zM221 484q7 -98 51 -178t138 -112q68 -22 157 -14t173 42t149 90t85 128q-16 126 -22 241t-18 227q-54 74 -139 108t-177 27t-177 -54t-137 -135q-42 -72 -66 -172t-17 -198zM465 1371q-7 29 21 59l152 168q32 36 66 37t56 -19t27 -52t-21 -64l-164 -174 q-24 -24 -55 -22t-53 20t-29 47z" />
<glyph unicode="&#xe2;" horiz-adv-x="1250" d="M61 604q9 88 36 170t69 148q138 216 323 271t403 -27q-6 50 19 75t57 28t62 -16t34 -57q10 -78 20 -175t20 -200t21 -208t22 -201t23 -178t26 -140q10 -40 -10 -68t-50 -36t-60 7t-40 63l-34 146q-48 -58 -124 -101t-165 -66t-183 -23t-174 26q-90 28 -151 86t-96 135 t-46 165t-2 176zM221 484q7 -98 51 -178t138 -112q68 -22 157 -14t173 42t149 90t85 128q-16 126 -22 241t-18 227q-54 74 -139 108t-177 27t-177 -54t-137 -135q-42 -72 -66 -172t-17 -198zM442 1400l122 218q6 14 23 22t36 8t36 -7t23 -23l124 -216q12 -26 -2 -45t-37 -27 t-48 -5t-33 19l-64 106l-60 -112q-8 -16 -33 -18t-48 7t-37 28t-2 45z" />
<glyph unicode="&#xe3;" horiz-adv-x="1250" d="M61 604q9 88 36 170t69 148q138 216 323 271t403 -27q-6 50 19 75t57 28t62 -16t34 -57q10 -78 20 -175t20 -200t21 -208t22 -201t23 -178t26 -140q10 -40 -10 -68t-50 -36t-60 7t-40 63l-34 146q-48 -58 -124 -101t-165 -66t-183 -23t-174 26q-90 28 -151 86t-96 135 t-46 165t-2 176zM104 1380q24 50 52 98t65 88t85 70t112 42q92 18 154 -12t108 -74t82 -86t72 -50q30 -6 57 7t49 36t42 53t38 60q12 18 37 20t49 -7t41 -28t11 -41q-14 -54 -51 -102t-83 -83t-95 -55t-87 -20q-46 -2 -83 18t-69 50t-62 64t-60 61t-64 42t-74 7 q-16 -4 -39 -15t-49 -35t-53 -64t-49 -100q-12 -34 -39 -37t-52 10t-40 37t-5 46zM221 484q7 -98 51 -178t138 -112q68 -22 157 -14t173 42t149 90t85 128q-16 126 -22 241t-18 227q-54 74 -139 108t-177 27t-177 -54t-137 -135q-42 -72 -66 -172t-17 -198z" />
<glyph unicode="&#xe4;" horiz-adv-x="1250" d="M61 604q9 88 36 170t69 148q138 216 323 271t403 -27q-6 50 19 75t57 28t62 -16t34 -57q10 -78 20 -175t20 -200t21 -208t22 -201t23 -178t26 -140q10 -40 -10 -68t-50 -36t-60 7t-40 63l-34 146q-48 -58 -124 -101t-165 -66t-183 -23t-174 26q-90 28 -151 86t-96 135 t-46 165t-2 176zM221 484q7 -98 51 -178t138 -112q68 -22 157 -14t173 42t149 90t85 128q-16 126 -22 241t-18 227q-54 74 -139 108t-177 27t-177 -54t-137 -135q-42 -72 -66 -172t-17 -198zM361 1431q17 31 51 46t74 7t66 -44q20 -30 1 -62t-54 -50t-75 -14t-60 44 q-20 42 -3 73zM689 1443q17 31 51 46t74 7t66 -44q20 -30 1 -62t-54 -50t-75 -14t-60 44q-20 42 -3 73z" />
<glyph unicode="&#xe5;" horiz-adv-x="1250" d="M61 604q9 88 36 170t69 148q138 216 323 271t403 -27q-6 50 19 75t57 28t62 -16t34 -57q10 -78 20 -175t20 -200t21 -208t22 -201t23 -178t26 -140q10 -40 -10 -68t-50 -36t-60 7t-40 63l-34 146q-48 -58 -124 -101t-165 -66t-183 -23t-174 26q-90 28 -151 86t-96 135 t-46 165t-2 176zM221 484q7 -98 51 -178t138 -112q68 -22 157 -14t173 42t149 90t85 128q-16 126 -22 241t-18 227q-54 74 -139 108t-177 27t-177 -54t-137 -135q-42 -72 -66 -172t-17 -198zM453 1507q33 57 93 84t129 13t107 -82q26 -48 18 -89t-37 -73t-72 -51t-88 -19 t-85 20t-64 68q-34 72 -1 129zM544 1474q-14 -24 2 -56q16 -30 47 -33t60 11t44 37t-1 47q-22 28 -53 33t-58 -5t-41 -34z" />
<glyph unicode="&#xe6;" horiz-adv-x="2042" d="M26 999q-10 27 8 49q26 32 90 77t151 81t186 53t196 -7t182 -99t143 -223q64 132 176 213t270 95q88 8 169 -23t147 -83t111 -116t63 -124q8 -28 17 -60t7 -62t-21 -56t-69 -40q-84 -24 -183 -43t-202 -34t-204 -29t-187 -30q10 -184 102 -275t260 -75q42 4 99 15t114 34 t109 59t88 92q22 34 56 39t62 -11t40 -48t-10 -74q-36 -66 -104 -115t-147 -81t-162 -49t-149 -21q-140 -10 -241 37t-167 127q-14 -26 -31 -46t-39 -36q-44 -42 -114 -74t-152 -48t-169 -16t-161 18q-124 32 -196 115t-93 187t11 211t116 187q74 68 148 107t154 51t167 1 t187 -41q-30 116 -86 179t-123 89t-141 20t-141 -31t-123 -61t-88 -72q-18 -18 -45 -10t-49 29t-32 48zM229 336q7 -66 50 -121t131 -79q62 -16 145 -9t160 34t138 69t79 94q-16 44 -23 73t-11 56t-5 59t-3 82q-48 54 -125 79t-159 22t-161 -32t-131 -81q-46 -46 -69 -113 t-16 -133zM1084 716q10 -6 64 -2t128 14t159 25t158 29t123 26t58 16q-20 70 -59 121t-87 82t-100 44t-96 7q-156 -22 -248 -120t-100 -242z" />
<glyph unicode="&#xe7;" horiz-adv-x="1138" d="M38 602q0 106 26 206t78 191t130 157q80 70 185 87t207 -8t188 -88t132 -153q16 -34 4 -64t-37 -46t-57 -15t-54 31q-64 84 -129 125t-123 52t-105 -1t-77 -32q-66 -48 -110 -115t-67 -144t-23 -161t22 -164q22 -88 64 -151t101 -99t131 -44t152 14q80 30 148 90t130 148 q26 38 58 37t56 -22t31 -56t-17 -67q-58 -76 -100 -121t-79 -72t-74 -44t-87 -37q-96 -40 -198 -36q-2 -10 -2 -21v-27q48 2 98 -7t91 -32t67 -61t26 -92q0 -62 -26 -100t-64 -60t-80 -30t-74 -10q-42 -2 -82 11t-73 36t-57 51t-32 54q-8 24 6 45t35 32t41 9t26 -22 q12 -44 52 -73t90 -27q52 2 83 18t31 62q0 34 -25 53t-58 28t-66 11t-51 0q-14 -2 -30 4t-28 19t-19 32t-3 45q4 20 5 36t3 30q-62 16 -119 49t-105 81t-84 112t-56 144q-26 96 -26 202z" />
<glyph unicode="&#xe8;" horiz-adv-x="1176" d="M40 480q-6 146 25 273t97 222t166 154t232 71q88 8 169 -23t147 -83t111 -116t63 -124q8 -28 17 -60t7 -62t-21 -56t-69 -40q-84 -24 -183 -43t-202 -34t-204 -29t-187 -30q10 -184 102 -275t260 -75q42 4 99 15t114 34t109 59t88 92q22 34 56 39t62 -11t40 -48t-10 -74 q-36 -66 -104 -115t-147 -81t-162 -49t-149 -21q-130 -8 -227 32t-162 110t-99 162t-38 186zM216 678q10 -6 64 -2t128 14t159 25t158 29t123 26t58 16q-20 70 -59 121t-87 82t-100 44t-96 7q-156 -22 -248 -120t-100 -242zM425 1564q5 32 27 52t56 19t66 -37l152 -168 q26 -30 20 -59t-28 -47t-53 -20t-55 22l-164 174q-26 32 -21 64z" />
<glyph unicode="&#xe9;" horiz-adv-x="1176" d="M40 480q-6 146 25 273t97 222t166 154t232 71q88 8 169 -23t147 -83t111 -116t63 -124q8 -28 17 -60t7 -62t-21 -56t-69 -40q-84 -24 -183 -43t-202 -34t-204 -29t-187 -30q10 -184 102 -275t260 -75q42 4 99 15t114 34t109 59t88 92q22 34 56 39t62 -11t40 -48t-10 -74 q-36 -66 -104 -115t-147 -81t-162 -49t-149 -21q-130 -8 -227 32t-162 110t-99 162t-38 186zM216 678q10 -6 64 -2t128 14t159 25t158 29t123 26t58 16q-20 70 -59 121t-87 82t-100 44t-96 7q-156 -22 -248 -120t-100 -242zM429 1371q-7 29 21 59l152 168q32 36 66 37 t56 -19t27 -52t-21 -64l-164 -174q-24 -24 -55 -22t-53 20t-29 47z" />
<glyph unicode="&#xea;" horiz-adv-x="1176" d="M40 480q-6 146 25 273t97 222t166 154t232 71q88 8 169 -23t147 -83t111 -116t63 -124q8 -28 17 -60t7 -62t-21 -56t-69 -40q-84 -24 -183 -43t-202 -34t-204 -29t-187 -30q10 -184 102 -275t260 -75q42 4 99 15t114 34t109 59t88 92q22 34 56 39t62 -11t40 -48t-10 -74 q-36 -66 -104 -115t-147 -81t-162 -49t-149 -21q-130 -8 -227 32t-162 110t-99 162t-38 186zM216 678q10 -6 64 -2t128 14t159 25t158 29t123 26t58 16q-20 70 -59 121t-87 82t-100 44t-96 7q-156 -22 -248 -120t-100 -242zM406 1400l122 218q6 14 23 22t36 8t36 -7t23 -23 l124 -216q12 -26 -2 -45t-37 -27t-48 -5t-33 19l-64 106l-60 -112q-8 -16 -33 -18t-48 7t-37 28t-2 45z" />
<glyph unicode="&#xeb;" horiz-adv-x="1176" d="M40 480q-6 146 25 273t97 222t166 154t232 71q88 8 169 -23t147 -83t111 -116t63 -124q8 -28 17 -60t7 -62t-21 -56t-69 -40q-84 -24 -183 -43t-202 -34t-204 -29t-187 -30q10 -184 102 -275t260 -75q42 4 99 15t114 34t109 59t88 92q22 34 56 39t62 -11t40 -48t-10 -74 q-36 -66 -104 -115t-147 -81t-162 -49t-149 -21q-130 -8 -227 32t-162 110t-99 162t-38 186zM216 678q10 -6 64 -2t128 14t159 25t158 29t123 26t58 16q-20 70 -59 121t-87 82t-100 44t-96 7q-156 -22 -248 -120t-100 -242zM325 1431q17 31 51 46t74 7t66 -44q20 -30 1 -62 t-54 -50t-75 -14t-60 44q-20 42 -3 73zM653 1443q17 31 51 46t74 7t66 -44q20 -30 1 -62t-54 -50t-75 -14t-60 44q-20 42 -3 73z" />
<glyph unicode="&#xec;" horiz-adv-x="312" d="M-7 1564q5 32 27 52t56 19t66 -37l152 -168q26 -30 20 -59t-28 -47t-53 -20t-55 22l-164 174q-26 32 -21 64zM58 1192q-2 36 23 51t57 13t59 -17t29 -39q4 -44 7 -124t6 -183t7 -218t9 -226t12 -211t15 -172q4 -40 -22 -62t-61 -26t-65 12t-34 54z" />
<glyph unicode="&#xed;" horiz-adv-x="312" d="M-3 1371q-7 29 21 59l152 168q32 36 66 37t56 -19t27 -52t-21 -64l-164 -174q-24 -24 -55 -22t-53 20t-29 47zM58 1192q-2 36 23 51t57 13t59 -17t29 -39q4 -44 7 -124t6 -183t7 -218t9 -226t12 -211t15 -172q4 -40 -22 -62t-61 -26t-65 12t-34 54z" />
<glyph unicode="&#xee;" horiz-adv-x="312" d="M-26 1400l122 218q6 14 23 22t36 8t36 -7t23 -23l124 -216q12 -26 -2 -45t-37 -27t-48 -5t-33 19l-64 106l-60 -112q-8 -16 -33 -18t-48 7t-37 28t-2 45zM58 1192q-2 36 23 51t57 13t59 -17t29 -39q4 -44 7 -124t6 -183t7 -218t9 -226t12 -211t15 -172q4 -40 -22 -62 t-61 -26t-65 12t-34 54z" />
<glyph unicode="&#xef;" horiz-adv-x="312" d="M-107 1431q17 31 51 46t74 7t66 -44q20 -30 1 -62t-54 -50t-75 -14t-60 44q-20 42 -3 73zM58 1192q-2 36 23 51t57 13t59 -17t29 -39q4 -44 7 -124t6 -183t7 -218t9 -226t12 -211t15 -172q4 -40 -22 -62t-61 -26t-65 12t-34 54zM221 1443q17 31 51 46t74 7t66 -44 q20 -30 1 -62t-54 -50t-75 -14t-60 44q-20 42 -3 73z" />
<glyph unicode="&#xf0;" horiz-adv-x="1210" d="M68 634q12 90 53 178t112 155t173 107t240 36q152 -6 272 -78q-60 136 -158 260l-440 -78q-36 -8 -54 15t-21 55t9 61t34 35q62 14 146 28l180 30q-78 66 -170 112q-36 18 -41 45t9 50t40 37t54 4q84 -32 160 -86t142 -126q58 12 116 26t116 30q38 10 64 -13t35 -57 t-2 -67t-47 -41l-162 -30q56 -84 102 -178t79 -194t49 -203t12 -207q-4 -78 -28 -153t-66 -141t-102 -118t-134 -82q-116 -46 -222 -50t-197 27t-162 92t-118 142t-67 178t-6 199zM228 610q-14 -102 11 -191t84 -153t148 -95t203 -15q74 12 134 44t102 80t67 109t31 129 q8 80 -11 154t-64 131t-115 94t-166 45q-28 2 -67 1t-83 -12t-88 -32t-82 -58t-66 -94t-38 -137z" />
<glyph unicode="&#xf1;" horiz-adv-x="1132" d="M34 1440q24 50 52 98t65 88t85 70t112 42q92 18 154 -12t108 -74t82 -86t72 -50q30 -6 57 7t49 36t42 53t38 60q12 18 37 20t49 -7t41 -28t11 -41q-14 -54 -51 -102t-83 -83t-95 -55t-87 -20q-46 -2 -83 18t-69 50t-62 64t-60 61t-64 42t-74 7q-16 -4 -39 -15t-49 -35 t-53 -64t-49 -100q-12 -34 -39 -37t-52 10t-40 37t-5 46zM40 1190q-4 36 19 53t53 19t56 -11t28 -37l26 -178q90 98 198 159t220 59q108 4 183 -42t124 -128t76 -195t40 -246t17 -279t6 -292q0 -40 -27 -60t-60 -21t-60 19t-27 62q2 64 3 166t-5 218t-23 233t-51 208 t-90 145t-140 44q-54 -6 -107 -36t-101 -71t-89 -88t-71 -89q2 -92 4 -195t6 -201t11 -184t17 -146q6 -40 -18 -63t-57 -28t-64 10t-35 53z" />
<glyph unicode="&#xf2;" d="M54 700q14 102 57 199t118 172t183 119t254 40q118 -4 220 -51t177 -131t115 -199t32 -253q-4 -86 -28 -170t-66 -157t-103 -131t-141 -92q-124 -52 -236 -52t-208 39t-172 110t-126 161t-71 192t-5 204zM222 674q-14 -112 13 -212t89 -171t157 -105t215 -16 q80 12 142 48t107 89t71 121t34 144q8 90 -11 174t-67 151t-123 110t-177 53q-44 4 -113 -6t-138 -49t-125 -118t-74 -213zM471 1564q5 32 27 52t56 19t66 -37l152 -168q26 -30 20 -59t-28 -47t-53 -20t-55 22l-164 174q-26 32 -21 64z" />
<glyph unicode="&#xf3;" d="M54 700q14 102 57 199t118 172t183 119t254 40q118 -4 220 -51t177 -131t115 -199t32 -253q-4 -86 -28 -170t-66 -157t-103 -131t-141 -92q-124 -52 -236 -52t-208 39t-172 110t-126 161t-71 192t-5 204zM222 674q-14 -112 13 -212t89 -171t157 -105t215 -16 q80 12 142 48t107 89t71 121t34 144q8 90 -11 174t-67 151t-123 110t-177 53q-44 4 -113 -6t-138 -49t-125 -118t-74 -213zM475 1371q-7 29 21 59l152 168q32 36 66 37t56 -19t27 -52t-21 -64l-164 -174q-24 -24 -55 -22t-53 20t-29 47z" />
<glyph unicode="&#xf4;" d="M54 700q14 102 57 199t118 172t183 119t254 40q118 -4 220 -51t177 -131t115 -199t32 -253q-4 -86 -28 -170t-66 -157t-103 -131t-141 -92q-124 -52 -236 -52t-208 39t-172 110t-126 161t-71 192t-5 204zM222 674q-14 -112 13 -212t89 -171t157 -105t215 -16 q80 12 142 48t107 89t71 121t34 144q8 90 -11 174t-67 151t-123 110t-177 53q-44 4 -113 -6t-138 -49t-125 -118t-74 -213zM452 1400l122 218q6 14 23 22t36 8t36 -7t23 -23l124 -216q12 -26 -2 -45t-37 -27t-48 -5t-33 19l-64 106l-60 -112q-8 -16 -33 -18t-48 7t-37 28 t-2 45z" />
<glyph unicode="&#xf5;" d="M54 700q14 102 57 199t118 172t183 119t254 40q118 -4 220 -51t177 -131t115 -199t32 -253q-4 -86 -28 -170t-66 -157t-103 -131t-141 -92q-124 -52 -236 -52t-208 39t-172 110t-126 161t-71 192t-5 204zM114 1380q24 50 52 98t65 88t85 70t112 42q92 18 154 -12t108 -74 t82 -86t72 -50q30 -6 57 7t49 36t42 53t38 60q12 18 37 20t49 -7t41 -28t11 -41q-14 -54 -51 -102t-83 -83t-95 -55t-87 -20q-46 -2 -83 18t-69 50t-62 64t-60 61t-64 42t-74 7q-16 -4 -39 -15t-49 -35t-53 -64t-49 -100q-12 -34 -39 -37t-52 10t-40 37t-5 46zM222 674 q-14 -112 13 -212t89 -171t157 -105t215 -16q80 12 142 48t107 89t71 121t34 144q8 90 -11 174t-67 151t-123 110t-177 53q-44 4 -113 -6t-138 -49t-125 -118t-74 -213z" />
<glyph unicode="&#xf6;" d="M54 700q14 102 57 199t118 172t183 119t254 40q118 -4 220 -51t177 -131t115 -199t32 -253q-4 -86 -28 -170t-66 -157t-103 -131t-141 -92q-124 -52 -236 -52t-208 39t-172 110t-126 161t-71 192t-5 204zM222 674q-14 -112 13 -212t89 -171t157 -105t215 -16 q80 12 142 48t107 89t71 121t34 144q8 90 -11 174t-67 151t-123 110t-177 53q-44 4 -113 -6t-138 -49t-125 -118t-74 -213zM371 1431q17 31 51 46t74 7t66 -44q20 -30 1 -62t-54 -50t-75 -14t-60 44q-20 42 -3 73zM699 1443q17 31 51 46t74 7t66 -44q20 -30 1 -62t-54 -50 t-75 -14t-60 44q-20 42 -3 73z" />
<glyph unicode="&#xf7;" horiz-adv-x="1036" d="M75 656q3 32 19 59t40 27q64 2 152 2h188t209 3t217 13q40 2 62 -25t25 -61t-14 -65t-55 -33l-782 -2q-36 -2 -50 24t-11 58zM401 379q17 31 51 46t74 7t66 -44q20 -30 1 -62t-54 -50t-75 -14t-60 44q-20 42 -3 73zM409 971q17 31 51 46t74 7t66 -44q20 -30 1 -62 t-54 -50t-75 -14t-60 44q-20 42 -3 73z" />
<glyph unicode="&#xf8;" d="M53 534q-11 84 1 166q14 102 57 199t118 172t183 119t254 40q64 -4 124 -18l30 68q12 34 41 38t57 -9t48 -37t14 -46q-4 -16 -12 -36t-20 -46q126 -80 199 -220t63 -328q-4 -86 -28 -170t-66 -157t-103 -131t-141 -92q-116 -48 -221 -51t-197 27q-2 -4 -2 -9t-2 -9 q-10 -38 -43 -50t-66 -3t-56 35t-13 62l26 60q-66 50 -118 118t-84 146t-43 162zM222 674q-16 -130 20 -241t120 -181l356 800q-10 4 -22 5t-24 3q-44 4 -113 -6t-138 -49t-125 -118t-74 -213zM510 176q82 -22 186 -6q80 12 142 48t107 89t71 121t34 144q12 126 -32 237 t-140 179q-40 -88 -90 -193t-100 -213t-96 -213t-82 -193z" />
<glyph unicode="&#xf9;" horiz-adv-x="1246" d="M67 716q5 108 23 213t42 193q8 28 38 39t62 6t52 -28t8 -65q-20 -64 -37 -151t-25 -181t-3 -187t27 -169t64 -129t110 -67q72 -14 152 14t154 78t134 109t90 107l-64 600q-6 36 19 52t56 16t59 -13t32 -35q6 -44 15 -116t18 -162t20 -191t23 -200t24 -191t26 -162 q8 -38 -17 -63t-59 -31t-66 8t-38 52l-26 238q-52 -56 -126 -115t-159 -101t-179 -55t-186 23q-82 32 -135 99t-83 157t-40 195t-5 213zM459 1564q5 32 27 52t56 19t66 -37l152 -168q26 -30 20 -59t-28 -47t-53 -20t-55 22l-164 174q-26 32 -21 64z" />
<glyph unicode="&#xfa;" horiz-adv-x="1246" d="M67 716q5 108 23 213t42 193q8 28 38 39t62 6t52 -28t8 -65q-20 -64 -37 -151t-25 -181t-3 -187t27 -169t64 -129t110 -67q72 -14 152 14t154 78t134 109t90 107l-64 600q-6 36 19 52t56 16t59 -13t32 -35q6 -44 15 -116t18 -162t20 -191t23 -200t24 -191t26 -162 q8 -38 -17 -63t-59 -31t-66 8t-38 52l-26 238q-52 -56 -126 -115t-159 -101t-179 -55t-186 23q-82 32 -135 99t-83 157t-40 195t-5 213zM463 1371q-7 29 21 59l152 168q32 36 66 37t56 -19t27 -52t-21 -64l-164 -174q-24 -24 -55 -22t-53 20t-29 47z" />
<glyph unicode="&#xfb;" horiz-adv-x="1246" d="M67 716q5 108 23 213t42 193q8 28 38 39t62 6t52 -28t8 -65q-20 -64 -37 -151t-25 -181t-3 -187t27 -169t64 -129t110 -67q72 -14 152 14t154 78t134 109t90 107l-64 600q-6 36 19 52t56 16t59 -13t32 -35q6 -44 15 -116t18 -162t20 -191t23 -200t24 -191t26 -162 q8 -38 -17 -63t-59 -31t-66 8t-38 52l-26 238q-52 -56 -126 -115t-159 -101t-179 -55t-186 23q-82 32 -135 99t-83 157t-40 195t-5 213zM440 1400l122 218q6 14 23 22t36 8t36 -7t23 -23l124 -216q12 -26 -2 -45t-37 -27t-48 -5t-33 19l-64 106l-60 -112q-8 -16 -33 -18 t-48 7t-37 28t-2 45z" />
<glyph unicode="&#xfc;" horiz-adv-x="1246" d="M67 716q5 108 23 213t42 193q8 28 38 39t62 6t52 -28t8 -65q-20 -64 -37 -151t-25 -181t-3 -187t27 -169t64 -129t110 -67q72 -14 152 14t154 78t134 109t90 107l-64 600q-6 36 19 52t56 16t59 -13t32 -35q6 -44 15 -116t18 -162t20 -191t23 -200t24 -191t26 -162 q8 -38 -17 -63t-59 -31t-66 8t-38 52l-26 238q-52 -56 -126 -115t-159 -101t-179 -55t-186 23q-82 32 -135 99t-83 157t-40 195t-5 213zM359 1431q17 31 51 46t74 7t66 -44q20 -30 1 -62t-54 -50t-75 -14t-60 44q-20 42 -3 73zM687 1443q17 31 51 46t74 7t66 -44 q20 -30 1 -62t-54 -50t-75 -14t-60 44q-20 42 -3 73z" />
<glyph unicode="&#xfd;" horiz-adv-x="1240" d="M39 1093q11 31 37 50t57 21t53 -28l566 -848l302 834q12 36 43 44t61 -3t49 -37t7 -58q-14 -40 -55 -150t-95 -256t-114 -313t-115 -323t-98 -284t-61 -198q-10 -38 -43 -50t-67 -3t-56 36t-12 63l176 484q-44 66 -100 155t-117 186t-124 194t-118 182t-98 150t-67 95 q-22 26 -11 57zM461 1371q-7 29 21 59l152 168q32 36 66 37t56 -19t27 -52t-21 -64l-164 -174q-24 -24 -55 -22t-53 20t-29 47z" />
<glyph unicode="&#xfe;" horiz-adv-x="1274" d="M50 1626q0 24 25 41t56 20t57 -10t28 -51v-328q98 84 204 128t207 50t193 -24t165 -91t123 -153t66 -208q16 -122 2 -240t-65 -214t-144 -161t-233 -83q-120 -16 -243 14t-225 126l18 -342q0 -38 -28 -59t-63 -23t-63 15t-28 55q0 72 -3 202t-8 287t-12 324t-13 314 t-10 257t-6 154zM240 1084q4 -102 6 -203t16 -203q30 -66 90 -113t132 -74t148 -32t136 11q84 24 138 79t82 126t34 151t-8 152q-16 98 -63 167t-114 109t-146 49t-160 -12t-157 -73t-134 -134z" />
<glyph unicode="&#xff;" horiz-adv-x="1240" d="M39 1093q11 31 37 50t57 21t53 -28l566 -848l302 834q12 36 43 44t61 -3t49 -37t7 -58q-14 -40 -55 -150t-95 -256t-114 -313t-115 -323t-98 -284t-61 -198q-10 -38 -43 -50t-67 -3t-56 36t-12 63l176 484q-44 66 -100 155t-117 186t-124 194t-118 182t-98 150t-67 95 q-22 26 -11 57zM357 1431q17 31 51 46t74 7t66 -44q20 -30 1 -62t-54 -50t-75 -14t-60 44q-20 42 -3 73zM685 1443q17 31 51 46t74 7t66 -44q20 -30 1 -62t-54 -50t-75 -14t-60 44q-20 42 -3 73z" />
<glyph unicode="&#x152;" horiz-adv-x="1834" d="M60 860q8 180 64 324t157 248t241 165t316 71l820 32q36 2 51 -23t14 -57t-16 -59t-39 -27q-36 -4 -114 -7t-185 -7t-237 -8t-274 -10q0 -102 1 -251t-1 -311l674 42q36 2 52 -23t14 -56t-17 -59t-39 -30q-72 -6 -246 -18t-436 -26q0 -82 1 -168t2 -167t3 -152t4 -121 l866 36q36 2 52 -23t14 -57t-16 -59t-38 -27q-38 -4 -128 -7t-212 -7t-266 -9t-290 -11q-218 -10 -372 39t-250 157t-138 274t-32 392zM232 858q-10 -94 2 -208t52 -216t112 -176t184 -90q28 -4 56 -10t54 -2l-10 1326q-80 -10 -144 -47t-112 -91t-82 -119t-58 -131 t-37 -128t-17 -108z" />
<glyph unicode="&#x153;" horiz-adv-x="1938" d="M108 676q14 102 57 199t118 172t183 119t254 40q90 -4 170 -32t148 -80q58 44 129 71t155 35q88 8 169 -23t147 -83t111 -116t63 -124q8 -28 17 -60t7 -62t-21 -56t-69 -40q-84 -24 -183 -43t-202 -34t-204 -29t-187 -30q10 -184 102 -275t260 -75q42 4 99 15t114 34 t109 59t88 92q22 34 56 39t62 -11t40 -48t-10 -74q-36 -66 -104 -115t-147 -81t-162 -49t-149 -21q-100 -6 -178 15t-140 65q-40 -30 -84 -48q-122 -52 -235 -52t-209 39t-172 110t-126 161t-71 192t-5 204zM276 650q-14 -112 13 -212t89 -171t157 -105t215 -16q78 8 142 46 q-42 64 -64 138t-26 150q-8 144 23 269t95 221q-82 54 -194 66q-44 4 -113 -6t-138 -49t-125 -118t-74 -213zM978 678q10 -6 64 -2t128 14t159 25t158 29t123 26t58 16q-20 70 -59 121t-87 82t-100 44t-96 7q-156 -22 -248 -120t-100 -242z" />
<glyph unicode="&#x178;" horiz-adv-x="1228" d="M27 1643q11 25 36 40t55 17t44 -16q54 -70 107 -141t108 -143t113 -149t124 -159q66 80 124 155t112 147t106 141t106 139q14 18 44 16t56 -17t38 -40t-10 -53l-488 -648q-6 -184 -5 -412t5 -464q0 -40 -24 -59t-54 -20t-56 18t-30 57q-2 216 -2 365t-1 246t-1 149v76v29 v5l-496 668q-22 28 -11 53zM351 1909q17 31 51 46t74 7t66 -44q20 -30 1 -62t-54 -50t-75 -14t-60 44q-20 42 -3 73zM679 1921q17 31 51 46t74 7t66 -44q20 -30 1 -62t-54 -50t-75 -14t-60 44q-20 42 -3 73z" />
<glyph unicode="&#x2c6;" horiz-adv-x="584" d="M92 1400l122 218q6 14 23 22t36 8t36 -7t23 -23l124 -216q12 -26 -2 -45t-37 -27t-48 -5t-33 19l-64 106l-60 -112q-8 -16 -33 -18t-48 7t-37 28t-2 45z" />
<glyph unicode="&#x2dc;" horiz-adv-x="1254" d="M82 1380q24 50 52 98t65 88t85 70t112 42q92 18 154 -12t108 -74t82 -86t72 -50q30 -6 57 7t49 36t42 53t38 60q12 18 37 20t49 -7t41 -28t11 -41q-14 -54 -51 -102t-83 -83t-95 -55t-87 -20q-46 -2 -83 18t-69 50t-62 64t-60 61t-64 42t-74 7q-16 -4 -39 -15t-49 -35 t-53 -64t-49 -100q-12 -34 -39 -37t-52 10t-40 37t-5 46z" />
<glyph unicode="&#x2000;" horiz-adv-x="1081" />
<glyph unicode="&#x2001;" horiz-adv-x="2162" />
<glyph unicode="&#x2002;" horiz-adv-x="1081" />
<glyph unicode="&#x2003;" horiz-adv-x="2162" />
<glyph unicode="&#x2004;" horiz-adv-x="720" />
<glyph unicode="&#x2005;" horiz-adv-x="540" />
<glyph unicode="&#x2006;" horiz-adv-x="360" />
<glyph unicode="&#x2007;" horiz-adv-x="360" />
<glyph unicode="&#x2008;" horiz-adv-x="270" />
<glyph unicode="&#x2009;" horiz-adv-x="432" />
<glyph unicode="&#x200a;" horiz-adv-x="120" />
<glyph unicode="&#x2010;" horiz-adv-x="1104" d="M127 760q3 32 19 59t40 27q64 2 152 2h188t209 3t217 13q40 2 62 -25t25 -61t-14 -65t-55 -33l-782 -2q-36 -2 -50 24t-11 58z" />
<glyph unicode="&#x2011;" horiz-adv-x="1104" d="M127 760q3 32 19 59t40 27q64 2 152 2h188t209 3t217 13q40 2 62 -25t25 -61t-14 -65t-55 -33l-782 -2q-36 -2 -50 24t-11 58z" />
<glyph unicode="&#x2012;" horiz-adv-x="1104" d="M127 760q3 32 19 59t40 27q64 2 152 2h188t209 3t217 13q40 2 62 -25t25 -61t-14 -65t-55 -33l-782 -2q-36 -2 -50 24t-11 58z" />
<glyph unicode="&#x2013;" horiz-adv-x="864" d="M127 760q3 32 19 59t40 27q64 2 111 0t98 -4t119 -1t176 11q40 2 62 -25t25 -61t-14 -65t-55 -33l-520 10q-36 -2 -50 24t-11 58z" />
<glyph unicode="&#x2014;" horiz-adv-x="1578" d="M127 760q3 32 19 59t40 27q42 2 127 1t193 -3t230 -4t240 -2t221 2t175 8q40 2 62 -25t25 -61t-14 -65t-55 -33l-1202 14q-36 -2 -50 24t-11 58z" />
<glyph unicode="&#x2018;" horiz-adv-x="428" d="M140 1478q18 40 55 44t69 -14t47 -52t-11 -68q-22 -28 -41 -65t-23 -81t12 -94t68 -104q20 -22 8 -48t-39 -43t-60 -18t-57 29q-166 212 -28 514z" />
<glyph unicode="&#x2019;" horiz-adv-x="428" d="M80 1461q12 27 39 44t60 18t57 -29q166 -212 28 -514q-18 -40 -55 -44t-69 14t-47 52t11 68q20 28 40 65t24 81t-13 94t-67 104q-20 20 -8 47z" />
<glyph unicode="&#x201a;" horiz-adv-x="428" d="M64 375q12 27 39 44t60 18t57 -29q166 -212 28 -514q-18 -40 -55 -44t-69 14t-47 52t11 68q20 28 40 65t24 81t-13 94t-67 104q-20 20 -8 47z" />
<glyph unicode="&#x201c;" horiz-adv-x="822" d="M188 1096q-138 302 28 514q24 30 57 29t60 -18t39 -44t-8 -47q-52 -54 -68 -104t-12 -94t23 -81t41 -65q26 -34 11 -68t-47 -52t-69 -14t-55 44zM544 1056q-138 302 28 514q24 30 57 29t60 -18t39 -44t-8 -47q-52 -54 -68 -104t-12 -94t23 -81t41 -65q26 -34 11 -68 t-47 -52t-69 -14t-55 44z" />
<glyph unicode="&#x201d;" horiz-adv-x="822" d="M128 1537q12 27 39 44t60 18t57 -29q166 -212 28 -514q-18 -40 -55 -44t-69 14t-47 52t11 68q20 28 40 65t24 81t-13 94t-67 104q-20 20 -8 47zM484 1577q12 27 39 44t60 18t57 -29q166 -212 28 -514q-18 -40 -55 -44t-69 14t-47 52t11 68q20 28 40 65t24 81t-13 94 t-67 104q-20 20 -8 47z" />
<glyph unicode="&#x201e;" horiz-adv-x="822" d="M132 355q12 27 39 44t60 18t57 -29q166 -212 28 -514q-18 -40 -55 -44t-69 14t-47 52t11 68q20 28 40 65t24 81t-13 94t-67 104q-20 20 -8 47zM488 395q12 27 39 44t60 18t57 -29q166 -212 28 -514q-18 -40 -55 -44t-69 14t-47 52t11 68q20 28 40 65t24 81t-13 94 t-67 104q-20 20 -8 47z" />
<glyph unicode="&#x2026;" horiz-adv-x="1050" d="M81 109q17 31 51 46t74 7t66 -44q20 -30 1 -62t-54 -50t-75 -14t-60 44q-20 42 -3 73zM431 109q17 31 51 46t74 7t66 -44q20 -30 1 -62t-54 -50t-75 -14t-60 44q-20 42 -3 73zM781 109q17 31 51 46t74 7t66 -44q20 -30 1 -62t-54 -50t-75 -14t-60 44q-20 42 -3 73z" />
<glyph unicode="&#x202f;" horiz-adv-x="432" />
<glyph unicode="&#x2039;" horiz-adv-x="916" d="M117 432q-1 24 7 46t28 32l526 274q32 18 57 2t37 -46t10 -61t-22 -43l-356 -188l380 -148q20 -10 24 -41t-5 -61t-32 -49t-57 -3l-554 214q-20 6 -31 27t-12 45z" />
<glyph unicode="&#x203a;" horiz-adv-x="896" d="M130 259q4 31 24 41l380 148l-356 188q-20 12 -22 43t10 61t37 46t57 -2l526 -274q20 -10 28 -32t7 -46t-12 -45t-31 -27l-554 -214q-34 -16 -57 3t-32 49t-5 61z" />
<glyph unicode="&#x205f;" horiz-adv-x="540" />
<glyph unicode="&#x20ac;" horiz-adv-x="1562" d="M57 624q3 32 19 59t40 27q36 2 90 2h118q0 34 2 68t6 68h-208q-36 -2 -50 24t-11 58t19 59t40 27q40 2 100 2h136q30 138 88 265t146 222t209 148t275 43q66 -4 141 -40t135 -102t96 -162t24 -222q-4 -42 -32 -66t-59 -26t-54 18t-17 66q14 104 -8 175t-63 115t-93 63 t-98 21q-108 6 -192 -36t-148 -115t-107 -169t-69 -200q144 -2 289 1t259 13q40 2 62 -25t25 -61t-14 -65t-55 -33l-596 2q-4 -34 -6 -69t-2 -69q150 -2 305 1t275 13q40 2 62 -25t25 -61t-14 -65t-55 -33l-580 2q14 -70 43 -134t77 -114t115 -83t159 -45q76 -10 151 11 t132 66t89 113t24 152q-4 44 23 65t62 19t66 -24t31 -62q2 -124 -50 -221t-138 -163t-194 -96t-214 -18q-128 12 -224 58t-162 117t-106 163t-58 196h-220q-36 -2 -50 24t-11 58z" />
<glyph unicode="&#x25fc;" horiz-adv-x="1220" d="M0 0v1220h1220v-1220h-1220z" />
</font>
</defs>
</svg>
