<?xml version="1.0" encoding="utf-8"?>
<!-- Generator: Adobe Illustrator 18.0.0, SVG Export Plug-In . SVG Version: 6.00 Build 0)  -->
<!DOCTYPE svg PUBLIC "-//W3C//DTD SVG 1.1//EN" "http://www.w3.org/Graphics/SVG/1.1/DTD/svg11.dtd">
<svg version="1.1" id="Camada_1" xmlns="http://www.w3.org/2000/svg" xmlns:xlink="http://www.w3.org/1999/xlink" x="0px" y="0px"
	 viewBox="0 0 178.4 45.3" enable-background="new 0 0 178.4 45.3" xml:space="preserve">
<path opacity="0.34" fill-rule="evenodd" clip-rule="evenodd" fill="#FFFFFF" d="M18.8,6h141c9.9,0,18,8.1,18,18s-8.1,18-18,18h-141
	c-9.9,0-18-8.1-18-18S8.9,6,18.8,6z"/>
<g>
	<g>
		<path fill="none" stroke="#FFFFFF" stroke-miterlimit="10" stroke-dasharray="2.9929,2.9929,2.9929,2.9929,2.9929,2.9929" d="
			M18.8,6h141c9.9,0,18,8.1,18,18s-8.1,18-18,18h-141c-9.9,0-18-8.1-18-18S8.9,6,18.8,6z"/>
	</g>
</g>
<g>
	<path fill="#663434" d="M50.4,28.9c0,0.1-0.1,0.2-0.3,0.2s-0.3,0.1-0.4,0.1s-0.3,0-0.4-0.1s-0.2-0.1-0.3-0.3l-4.4-9.1
		c-0.1-0.2-0.1-0.4,0-0.5s0.2-0.2,0.4-0.3s0.4-0.1,0.5-0.1s0.3,0.1,0.4,0.2c0.2,0.3,0.4,0.7,0.7,1.3s0.6,1.2,0.9,2s0.7,1.5,1.1,2.2
		s0.7,1.5,1.1,2.1c0.3-0.7,0.6-1.4,1-2.2s0.7-1.6,1-2.4s0.6-1.5,0.9-2.1s0.5-1.1,0.6-1.4c0.1-0.1,0.2-0.2,0.4-0.2s0.4,0,0.5,0.1
		s0.3,0.2,0.4,0.3s0.1,0.3,0,0.5L50.4,28.9z"/>
	<path fill="#663434" d="M59,29.2c-0.8,0-1.4,0-2-0.3s-1-0.6-1.4-1s-0.7-0.9-0.9-1.4s-0.3-1.1-0.3-1.6c0-0.9,0-1.7,0.2-2.4
		s0.5-1.4,0.9-2s0.9-1,1.5-1.4s1.3-0.6,2-0.6c0.5,0,1,0,1.5,0.2s0.9,0.4,1.3,0.7s0.7,0.6,1,1s0.4,0.7,0.6,1.1c0,0.2,0.1,0.3,0.2,0.5
		s0.1,0.4,0.1,0.5s-0.1,0.3-0.2,0.5s-0.3,0.3-0.6,0.4c-0.5,0.1-1,0.3-1.6,0.4s-1.2,0.2-1.8,0.3s-1.2,0.2-1.8,0.3s-1.1,0.2-1.6,0.3
		c0.1,1.1,0.4,1.9,0.9,2.4s1.3,0.8,2.3,0.7c0.2,0,0.5-0.1,0.9-0.1s0.7-0.2,1-0.3s0.7-0.3,1-0.5s0.6-0.5,0.8-0.8
		c0.1-0.2,0.3-0.3,0.5-0.3s0.4,0,0.5,0.1s0.3,0.2,0.4,0.4s0,0.4-0.1,0.7c-0.2,0.4-0.5,0.7-0.9,1s-0.8,0.5-1.3,0.7s-0.9,0.3-1.4,0.4
		S59.4,29.2,59,29.2z M55.9,23.2c0.1,0,0.2,0,0.6,0s0.7-0.1,1.1-0.1s0.9-0.1,1.4-0.2s1-0.2,1.4-0.3s0.8-0.2,1.1-0.2s0.5-0.1,0.5-0.1
		c-0.1-0.4-0.3-0.8-0.5-1.1s-0.5-0.5-0.8-0.7s-0.6-0.3-0.9-0.4S59.2,20,59,20c-0.9,0.1-1.6,0.5-2.2,1.1S56,22.3,55.9,23.2z"/>
	<path fill="#663434" d="M63,33.4c-0.3,0-0.7-0.1-1-0.2s-0.6-0.3-0.9-0.5s-0.5-0.5-0.7-0.9s-0.4-0.8-0.5-1.2c0-0.2,0-0.3,0.1-0.4
		s0.3-0.2,0.4-0.3s0.3-0.1,0.5,0s0.3,0.2,0.3,0.4c0,0.2,0.1,0.4,0.2,0.6s0.2,0.4,0.4,0.6s0.4,0.3,0.6,0.5s0.6,0.2,0.9,0.2
		c0.5,0,0.9-0.1,1.1-0.3s0.5-0.6,0.6-0.9s0.2-0.8,0.2-1.2s0-0.8,0-1.1c0-0.5,0-1,0-1.4s0-0.9,0-1.3s0-0.9,0-1.3s0-1,0-1.5
		s0-1.2-0.1-1.9s-0.1-1.5-0.1-2.5c0-0.2,0.1-0.4,0.2-0.5s0.3-0.1,0.5-0.1s0.3,0.1,0.5,0.2s0.2,0.2,0.2,0.4c0,1.1,0,2.1,0.1,3
		s0.1,1.8,0.1,2.7s0.1,1.7,0.1,2.5s0,1.7,0,2.5c0,0.7-0.1,1.3-0.3,1.8s-0.4,1-0.8,1.3s-0.7,0.6-1.2,0.8S63.6,33.5,63,33.4z
		 M66.7,16.2c0.1,0.2,0.1,0.4,0,0.5s-0.3,0.3-0.5,0.4s-0.4,0.1-0.7,0.1s-0.4-0.2-0.5-0.4c-0.1-0.2-0.1-0.5,0-0.6s0.2-0.3,0.4-0.4
		s0.4-0.1,0.7-0.1S66.6,16,66.7,16.2z"/>
	<path fill="#663434" d="M70.4,28.8c-0.5-0.2-1-0.4-1.3-0.8s-0.6-0.7-0.8-1.2s-0.3-0.9-0.4-1.5s-0.1-1,0-1.5s0.2-1,0.3-1.5
		s0.4-0.9,0.6-1.3c0.8-1.3,1.8-2.1,2.8-2.4s2.3-0.2,3.5,0.2c0-0.3,0-0.5,0.2-0.7s0.3-0.2,0.5-0.2s0.4,0,0.5,0.1s0.3,0.3,0.3,0.5
		c0.1,0.5,0.1,1,0.2,1.5s0.1,1.2,0.2,1.8s0.1,1.2,0.2,1.8s0.1,1.2,0.2,1.8s0.1,1.1,0.2,1.6s0.1,0.9,0.2,1.2c0.1,0.2,0,0.4-0.1,0.6
		s-0.3,0.3-0.4,0.3s-0.4,0-0.5-0.1s-0.3-0.3-0.4-0.6l-0.3-1.3c-0.3,0.3-0.6,0.6-1.1,0.9s-0.9,0.4-1.4,0.6S72.5,29,71.9,29
		S70.9,28.9,70.4,28.8z M70.9,27.4c0.4,0.1,0.9,0.2,1.4,0.1s1-0.2,1.5-0.4s0.9-0.5,1.3-0.8s0.6-0.7,0.7-1.1
		c-0.1-0.7-0.2-1.4-0.2-2.1s-0.1-1.3-0.2-2c-0.3-0.4-0.7-0.8-1.2-0.9s-1-0.3-1.6-0.2s-1.1,0.2-1.6,0.5s-0.9,0.7-1.2,1.2
		c-0.2,0.4-0.4,0.9-0.6,1.5s-0.2,1.2-0.1,1.7s0.2,1.1,0.4,1.6S70.3,27.3,70.9,27.4z"/>
	<path fill="#663434" d="M84.5,19.4c0-0.2,0-0.4,0.2-0.5s0.3-0.2,0.5-0.2s0.3,0,0.5,0.1s0.2,0.2,0.2,0.3l0.2,1.6
		c0.5-0.6,1.1-1,1.7-1.4s1.3-0.5,1.9-0.5c0.8,0,1.6,0.2,2.2,0.7s1,1,1.2,1.7c0.2-0.5,0.4-0.8,0.7-1.2s0.6-0.6,1-0.8s0.7-0.3,1.1-0.4
		s0.7-0.1,1.1-0.1c0.9,0,1.7,0.3,2.3,0.8s1,1.2,1.3,2s0.5,1.9,0.6,3.1s0.1,2.5,0.1,4c0,0.2-0.1,0.4-0.2,0.5s-0.3,0.2-0.5,0.2
		s-0.4,0-0.5-0.2s-0.2-0.3-0.2-0.5c0-1.1,0.1-2.1,0-3.2s-0.1-2-0.4-2.8s-0.5-1.5-0.9-1.9s-1-0.7-1.7-0.7c-0.3,0-0.7,0.1-1,0.3
		s-0.6,0.4-0.9,0.6s-0.5,0.5-0.7,0.9s-0.3,0.7-0.3,1c-0.1,1-0.2,1.9-0.2,2.8s0,1.8,0.1,2.8c0,0.2-0.1,0.4-0.2,0.5s-0.3,0.2-0.5,0.2
		s-0.4,0-0.5-0.2s-0.2-0.3-0.2-0.5c0-0.7,0-1.5,0-2.5s-0.1-2.1-0.3-3.3c-0.1-0.4-0.2-0.7-0.3-1s-0.3-0.5-0.6-0.7s-0.5-0.3-0.7-0.4
		s-0.5-0.1-0.8-0.1c-0.3,0-0.6,0.1-0.9,0.3s-0.6,0.4-0.9,0.6s-0.5,0.5-0.8,0.8s-0.4,0.5-0.6,0.8c0,1.1,0.1,2.1,0.1,3.1
		s0.1,1.8,0.2,2.5c0,0.2,0,0.4-0.2,0.6s-0.3,0.2-0.5,0.2s-0.4,0-0.6-0.1s-0.3-0.2-0.3-0.5L84.5,19.4z"/>
	<path fill="#663434" d="M104.9,28.8c-0.5-0.2-1-0.4-1.3-0.8s-0.6-0.7-0.8-1.2s-0.3-0.9-0.4-1.5s-0.1-1,0-1.5s0.2-1,0.3-1.5
		s0.4-0.9,0.6-1.3c0.8-1.3,1.8-2.1,2.8-2.4s2.3-0.2,3.5,0.2c0-0.3,0-0.5,0.2-0.7s0.3-0.2,0.5-0.2s0.4,0,0.5,0.1s0.3,0.3,0.3,0.5
		c0.1,0.5,0.1,1,0.2,1.5s0.1,1.2,0.2,1.8s0.1,1.2,0.2,1.8s0.1,1.2,0.2,1.8s0.1,1.1,0.2,1.6s0.1,0.9,0.2,1.2c0.1,0.2,0,0.4-0.1,0.6
		s-0.3,0.3-0.4,0.3s-0.4,0-0.5-0.1s-0.3-0.3-0.4-0.6l-0.3-1.3c-0.3,0.3-0.6,0.6-1.1,0.9s-0.9,0.4-1.5,0.6s-1.1,0.2-1.6,0.2
		S105.3,28.9,104.9,28.8z M105.3,27.4c0.4,0.1,0.9,0.2,1.4,0.1s1-0.2,1.5-0.4s0.9-0.5,1.3-0.8s0.6-0.7,0.7-1.1
		c-0.1-0.7-0.2-1.4-0.2-2.1s-0.1-1.3-0.2-2c-0.3-0.4-0.7-0.8-1.2-0.9s-1-0.3-1.6-0.2s-1.1,0.2-1.6,0.5s-0.9,0.7-1.2,1.2
		c-0.2,0.4-0.4,0.9-0.6,1.5s-0.2,1.2-0.2,1.7s0.2,1.1,0.4,1.6S104.8,27.3,105.3,27.4z"/>
	<path fill="#663434" d="M114.6,16.1c0.1,0.2,0.1,0.4,0,0.5s-0.3,0.3-0.5,0.4s-0.4,0.1-0.7,0.1s-0.4-0.2-0.5-0.4
		c-0.1-0.2-0.1-0.5,0-0.6s0.2-0.3,0.4-0.4s0.4-0.1,0.7-0.1S114.4,15.9,114.6,16.1z M113,18.7c0-0.2,0.1-0.4,0.2-0.4s0.3-0.1,0.5-0.1
		s0.4,0.1,0.5,0.1s0.2,0.2,0.3,0.3c0,0.3,0,0.6,0.1,1.1s0,1,0.1,1.6s0,1.2,0.1,1.9s0.1,1.3,0.1,2s0.1,1.3,0.1,1.9s0.1,1.1,0.1,1.5
		c0,0.2,0,0.4-0.2,0.5s-0.3,0.2-0.5,0.2s-0.4,0-0.6-0.1s-0.3-0.3-0.3-0.5L113,18.7z"/>
	<path fill="#663434" d="M118.4,29.1c-0.5-0.1-0.9-0.2-1.2-0.4s-0.7-0.5-0.9-0.7s-0.4-0.6-0.6-0.9s-0.2-0.7-0.3-1
		c0-0.2,0-0.4,0.1-0.5s0.3-0.2,0.4-0.2s0.3,0,0.5,0.1s0.3,0.2,0.3,0.3c0.1,0.2,0.1,0.4,0.2,0.6s0.2,0.5,0.3,0.7s0.3,0.4,0.6,0.6
		s0.6,0.3,1,0.3c0.3,0,0.5,0,0.9,0s0.6-0.1,1-0.1s0.6-0.2,0.9-0.3s0.5-0.3,0.8-0.5s0.4-0.4,0.5-0.6s0.1-0.5,0.1-0.8
		c-0.1-0.5-0.3-0.9-0.7-1.1s-0.8-0.4-1.3-0.4s-1-0.1-1.5-0.1s-1-0.1-1.5-0.2c-0.6-0.2-1-0.5-1.4-0.8s-0.6-0.7-0.8-1.1
		c-0.2-0.4-0.2-0.9-0.1-1.3s0.3-0.8,0.7-1.2c0.2-0.2,0.5-0.4,0.8-0.5s0.6-0.2,0.9-0.3s0.7-0.1,1-0.1s0.7,0,1,0.1
		c0.6,0.1,1.2,0.3,1.7,0.6s1,0.6,1.5,1.1c0.2,0.2,0.2,0.3,0.2,0.5s-0.1,0.3-0.2,0.4s-0.3,0.2-0.5,0.2s-0.3,0-0.5-0.1
		c-0.4-0.4-0.9-0.7-1.3-0.9s-0.8-0.4-1.2-0.4c-0.2,0-0.4,0-0.6,0s-0.4,0-0.6,0.1s-0.4,0.1-0.6,0.2s-0.4,0.2-0.5,0.3
		c-0.3,0.3-0.4,0.7-0.3,1.1c0.1,0.3,0.4,0.6,0.7,0.9s0.8,0.4,1.4,0.5c0.4,0,0.8,0.1,1.3,0.1s1,0.1,1.4,0.2s0.9,0.3,1.3,0.5
		s0.7,0.5,0.8,1c0.2,0.6,0.3,1.1,0.2,1.6s-0.2,0.9-0.5,1.3s-0.6,0.7-1.1,0.9s-0.9,0.5-1.4,0.6s-1,0.2-1.6,0.3S118.9,29.2,118.4,29.1
		z"/>
</g>
</svg>
