<?xml version="1.0" encoding="utf-8"?>
<!-- Generator: Adobe Illustrator 18.0.0, SVG Export Plug-In . SVG Version: 6.00 Build 0)  -->
<!DOCTYPE svg PUBLIC "-//W3C//DTD SVG 1.1//EN" "http://www.w3.org/Graphics/SVG/1.1/DTD/svg11.dtd">
<svg version="1.1" id="Camada_1" xmlns="http://www.w3.org/2000/svg" xmlns:xlink="http://www.w3.org/1999/xlink" x="0px" y="0px"
	 viewBox="0 0 187.9 45.3" enable-background="new 0 0 187.9 45.3" xml:space="preserve">
<path opacity="0.34" fill-rule="evenodd" clip-rule="evenodd" fill="#FFFFFF" d="M28.3,6h141c9.9,0,18,8.1,18,18s-8.1,18-18,18h-141
	c-9.9,0-18-8.1-18-18S18.3,6,28.3,6z"/>
<g>
	<g>
		<path fill="none" stroke="#FFFFFF" stroke-miterlimit="10" stroke-dasharray="2.9929,2.9929,2.9929,2.9929,2.9929,2.9929" d="
			M28.3,6h141c9.9,0,18,8.1,18,18s-8.1,18-18,18h-141c-9.9,0-18-8.1-18-18S18.3,6,28.3,6z"/>
	</g>
</g>
<path fill="#5EAEB0" d="M22.3,44.8l5.1-5.1L10.6,22.8L27.4,5.9l-5.1-5.1l-21.9,22L22.3,44.8z"/>
<g>
	<path fill="#663434" d="M80.9,29.9c0,0.1-0.1,0.2-0.3,0.2s-0.3,0.1-0.4,0.1s-0.3,0-0.4-0.1s-0.2-0.1-0.3-0.3l-4.4-9.1
		c-0.1-0.2-0.1-0.4,0-0.5s0.2-0.2,0.4-0.3s0.4-0.1,0.5-0.1s0.3,0.1,0.4,0.2c0.2,0.3,0.4,0.7,0.7,1.3s0.6,1.2,0.9,2s0.7,1.5,1.1,2.2
		s0.7,1.5,1.1,2.1c0.3-0.7,0.6-1.4,1-2.2s0.7-1.6,1-2.4s0.6-1.5,0.9-2.1s0.5-1.1,0.6-1.4c0.1-0.1,0.2-0.2,0.4-0.2s0.4,0,0.5,0.1
		s0.3,0.2,0.4,0.3s0.1,0.3,0,0.5L80.9,29.9z"/>
	<path fill="#663434" d="M92.2,29.7c-0.7,0.3-1.4,0.5-2.1,0.5s-1.3-0.1-1.8-0.3s-1.1-0.6-1.5-1s-0.8-0.9-1.1-1.4s-0.5-1.1-0.6-1.7
		s-0.1-1.2,0-1.8c0.1-0.6,0.2-1.2,0.5-1.7s0.6-1.1,1-1.5s1-0.8,1.6-1s1.4-0.4,2.2-0.4c0.7,0,1.3,0.2,1.9,0.4s1.1,0.7,1.6,1.2
		s0.8,1.1,1,1.7s0.3,1.4,0.3,2.2c0,0.5-0.1,1-0.2,1.5s-0.3,1-0.6,1.4s-0.5,0.8-0.9,1.2S92.6,29.5,92.2,29.7z M86.5,24.2
		c-0.1,0.7,0,1.3,0.1,1.9s0.4,1.1,0.8,1.5s0.8,0.7,1.4,0.9s1.2,0.2,1.9,0.1c0.5-0.1,0.9-0.2,1.2-0.4s0.7-0.5,0.9-0.8
		s0.5-0.7,0.6-1.1s0.3-0.8,0.3-1.3c0-0.5,0-1-0.1-1.5s-0.3-0.9-0.6-1.3s-0.6-0.7-1.1-1s-1-0.4-1.6-0.5c-0.3,0-0.6,0-1,0.1
		s-0.8,0.2-1.2,0.4s-0.8,0.6-1.1,1S86.6,23.4,86.5,24.2z"/>
	<path fill="#663434" d="M96.2,15.6c0-0.2,0.1-0.4,0.2-0.4s0.3-0.1,0.5-0.1s0.4,0.1,0.5,0.1s0.2,0.2,0.3,0.3c0,0.2,0,0.7,0.1,1.4
		s0,1.5,0.1,2.3s0.1,1.8,0.1,2.9s0.1,2,0.1,2.9s0.1,1.8,0.1,2.6s0.1,1.4,0.1,1.8c0,0.2,0,0.4-0.2,0.5s-0.3,0.2-0.5,0.2
		s-0.4,0-0.6-0.1s-0.3-0.3-0.3-0.5L96.2,15.6z"/>
	<path fill="#663434" d="M102.3,19.4l-0.1-3.8c0-0.2,0.1-0.4,0.2-0.4s0.3-0.1,0.5-0.1s0.3,0.1,0.5,0.2s0.2,0.2,0.2,0.4
		c0,0.3,0,0.7,0,1.4s0,1.5,0.1,2.4h4.5c0.2,0,0.4,0.1,0.4,0.2s0.1,0.3,0.1,0.5s-0.1,0.3-0.2,0.5s-0.2,0.2-0.4,0.2
		c-0.2,0-0.5,0-0.8,0s-0.7,0-1,0s-0.8,0-1.2,0s-0.9,0-1.3,0c0,0.9,0,1.8,0,2.7s0,1.8,0.1,2.6s0,1.6,0.1,2.2s0.1,1.2,0.1,1.6
		c0,0.2,0,0.4-0.2,0.5s-0.3,0.2-0.5,0.2s-0.4,0-0.6-0.1s-0.3-0.3-0.3-0.5l-0.2-9.2c-0.6,0-1.1,0-1.6,0s-1,0-1.4,0
		c-0.2,0-0.4-0.1-0.5-0.2s-0.2-0.3-0.2-0.5s0.1-0.3,0.2-0.5s0.3-0.2,0.5-0.2H102.3z"/>
	<path fill="#663434" d="M110.5,29.8c-0.5-0.2-1-0.4-1.3-0.8s-0.6-0.7-0.8-1.2s-0.3-0.9-0.4-1.5s-0.1-1,0-1.5s0.2-1,0.3-1.5
		s0.4-0.9,0.6-1.3c0.8-1.3,1.8-2.1,2.8-2.4s2.3-0.2,3.5,0.2c0-0.3,0-0.5,0.2-0.7s0.3-0.2,0.5-0.2s0.4,0,0.5,0.1s0.3,0.3,0.3,0.5
		c0.1,0.5,0.1,1,0.2,1.5s0.1,1.2,0.2,1.8s0.1,1.2,0.2,1.8s0.1,1.2,0.2,1.8s0.1,1.1,0.2,1.6s0.1,0.9,0.2,1.2c0.1,0.2,0,0.4-0.1,0.6
		s-0.3,0.3-0.4,0.3s-0.4,0-0.5-0.1s-0.3-0.3-0.4-0.6l-0.3-1.3c-0.3,0.3-0.6,0.6-1.1,0.9s-0.9,0.4-1.5,0.6S112.6,30,112,30
		S111,29.9,110.5,29.8z M111,28.4c0.4,0.1,0.9,0.2,1.4,0.1s1-0.2,1.5-0.4s0.9-0.5,1.3-0.8s0.6-0.7,0.7-1.1c-0.1-0.7-0.2-1.4-0.2-2.1
		s-0.1-1.3-0.2-2c-0.3-0.4-0.7-0.8-1.2-0.9s-1-0.3-1.6-0.2s-1.1,0.2-1.6,0.5s-0.9,0.7-1.2,1.2c-0.2,0.4-0.4,0.9-0.6,1.5
		s-0.2,1.2-0.1,1.7s0.2,1.1,0.4,1.6S110.4,28.3,111,28.4z"/>
	<path fill="#663434" d="M118.5,19.7c0-0.2,0-0.4,0.2-0.5s0.3-0.2,0.5-0.2s0.3,0,0.5,0.1s0.2,0.2,0.2,0.3l0.2,1.6
		c0.5-0.6,1.1-1,1.7-1.4s1.3-0.5,1.9-0.5c0.4,0,0.8,0.1,1.3,0.2s0.8,0.4,1.1,0.7s0.6,0.7,0.9,1.1s0.4,0.9,0.5,1.4
		c0,0.3,0,0.5-0.1,0.7s-0.3,0.2-0.5,0.3s-0.4,0-0.6-0.1s-0.3-0.2-0.3-0.4c-0.1-0.4-0.2-0.8-0.4-1.1s-0.4-0.6-0.6-0.8
		s-0.5-0.3-0.8-0.4s-0.5-0.1-0.8-0.1c-0.3,0-0.6,0.1-0.9,0.3s-0.6,0.4-0.9,0.6s-0.5,0.5-0.8,0.8s-0.4,0.5-0.6,0.8
		c0,0.7,0.1,1.3,0.2,2s0.1,1.2,0.2,1.8s0.1,1.1,0.1,1.5s0.1,0.8,0.1,1.1c0,0.2,0,0.4-0.2,0.6s-0.3,0.2-0.5,0.2s-0.4,0-0.6-0.1
		s-0.3-0.2-0.3-0.5L118.5,19.7z"/>
</g>
</svg>
