<?xml version="1.0" encoding="utf-8"?>
<!-- Generator: Adobe Illustrator 18.0.0, SVG Export Plug-In . SVG Version: 6.00 Build 0)  -->
<!DOCTYPE svg PUBLIC "-//W3C//DTD SVG 1.1//EN" "http://www.w3.org/Graphics/SVG/1.1/DTD/svg11.dtd">
<svg version="1.1" id="Camada_1" xmlns="http://www.w3.org/2000/svg" xmlns:xlink="http://www.w3.org/1999/xlink" x="0px" y="0px"
	 viewBox="0 0 234 88.7" enable-background="new 0 0 234 88.7" xml:space="preserve">
<g id="Camada_1">
	<g>
		<path fill="none" stroke="#009296" stroke-miterlimit="10" stroke-dasharray="4,4,4,4,4,4" d="M195.2,70.5
			c-9.3-2.1-20.6-3.2-33.9-3.1c-13.3,0.1-26.7,1-40.2,2.9c-13.5,1.9-26.6,4.2-39.1,6.9c-12.5,2.7-23.8,5.6-33.8,8.7l-4.3,1.7
			 M165.1,59.3c-5.9,0-16.4,0.2-31.5,0.7c-15.2,0.5-26.8,0.6-35,0.4"/>
		
			<path fill-rule="evenodd" clip-rule="evenodd" fill="none" stroke="#009296" stroke-miterlimit="10" stroke-dasharray="4,4,4,4,4,4" d="
			M1.2,69.7C60.6,48,120.8,70,180.6,55.5C196,51.8,217.9,46,230,35.1c1.3-0.8,2.7-1.5,4-2.3"/>
		<g>
			<path fill="#663434" d="M48.2,18.9c-1.3,0.1-2.3-0.2-3.1-0.9s-1.4-1.6-1.9-2.8s-0.7-2.8-0.8-4.6s0-3.9,0.1-6.2
				c0-0.1,0.1-0.3,0.3-0.4c0.2-0.1,0.3-0.2,0.5-0.2s0.4,0,0.5,0.1c0.1,0.1,0.2,0.3,0.2,0.6C44,4.9,44,5.4,43.9,6s-0.1,1.3-0.1,2
				s0,1.4,0,2.2s0.1,1.5,0.2,2.2s0.3,1.4,0.5,2s0.5,1.2,0.8,1.6c0.3,0.5,0.7,0.8,1.2,1.1s1,0.4,1.7,0.3c0.8,0,1.5-0.3,2-0.7
				s0.9-0.9,1.2-1.6s0.5-1.4,0.6-2.3s0.2-1.7,0.2-2.7S52.1,8.4,52,7.4s-0.2-1.9-0.4-2.8c0-0.2,0-0.3,0.2-0.5C52,4,52.1,3.9,52.3,3.9
				s0.4,0,0.5,0s0.3,0.2,0.3,0.5c0.1,0.9,0.2,1.9,0.3,3s0.2,2.1,0.2,3.2s-0.1,2.1-0.2,3s-0.4,1.8-0.8,2.6c-0.4,0.8-1,1.4-1.7,1.9
				S49.3,18.8,48.2,18.9z M47.8,2.9c-0.1,0.1-0.3,0.2-0.5,0.2S47,3,46.9,2.9s-0.2-0.2-0.3-0.4s0-0.3,0.2-0.5l1.3-1.5
				c0.2-0.2,0.4-0.3,0.6-0.3s0.4,0,0.5,0.2s0.2,0.3,0.2,0.5s0,0.4-0.2,0.6L47.8,2.9z"/>
			<path fill="#663434" d="M54.6,4.2c0-0.2,0.1-0.4,0.2-0.4s0.3-0.1,0.5-0.1s0.4,0.1,0.5,0.1s0.2,0.2,0.3,0.3c0,0.2,0,0.7,0.1,1.4
				s0,1.5,0.1,2.3s0.1,1.8,0.1,2.9s0.1,2,0.1,2.9s0.1,1.8,0.1,2.6c0,0.8,0.1,1.4,0.1,1.8c0,0.2,0,0.4-0.2,0.5s-0.3,0.2-0.5,0.2
				s-0.4,0-0.6-0.1s-0.3-0.3-0.3-0.5L54.6,4.2z"/>
			<path fill="#663434" d="M60.7,8.1l-0.1-3.8c0-0.2,0.1-0.4,0.2-0.4s0.3-0.1,0.5-0.1s0.3,0.1,0.5,0.2s0.2,0.2,0.2,0.4
				c0,0.3,0,0.7,0,1.4s0,1.5,0.1,2.4h4.5c0.2,0,0.4,0.1,0.4,0.2s0.1,0.3,0.1,0.5s-0.1,0.3-0.2,0.5s-0.2,0.2-0.4,0.2
				c-0.2,0-0.5,0-0.8,0s-0.7,0-1,0s-0.8,0-1.2,0s-0.9,0-1.3,0c0,0.9,0,1.8,0,2.7s0,1.8,0.1,2.6s0,1.6,0.1,2.2s0.1,1.2,0.1,1.6
				c0,0.2,0,0.4-0.2,0.5s-0.3,0.2-0.5,0.2s-0.4,0-0.6-0.1s-0.3-0.3-0.3-0.5l-0.2-9.2c-0.6,0-1.1,0-1.6,0s-1,0-1.4,0
				c-0.2,0-0.4-0.1-0.5-0.2s-0.2-0.3-0.2-0.5s0.1-0.3,0.2-0.5s0.3-0.2,0.5-0.2H60.7z"/>
			<path fill="#663434" d="M69.2,5.7c0.1,0.2,0.1,0.4,0,0.5s-0.3,0.3-0.5,0.4s-0.4,0.1-0.7,0.1s-0.4-0.2-0.5-0.4
				c-0.1-0.2-0.1-0.5,0-0.6s0.2-0.3,0.4-0.4s0.4-0.1,0.7-0.1S69,5.5,69.2,5.7z M67.6,8.3c0-0.2,0.1-0.4,0.2-0.4s0.3-0.1,0.5-0.1
				s0.4,0.1,0.5,0.1s0.2,0.2,0.3,0.3c0,0.3,0,0.6,0.1,1.1s0,1,0.1,1.6s0,1.2,0.1,1.9s0,1.3,0.1,2s0.1,1.3,0.1,1.9s0.1,1.1,0.1,1.5
				c0,0.2,0,0.4-0.2,0.5s-0.3,0.2-0.5,0.2s-0.4,0-0.6-0.1S68,18.6,68,18.4L67.6,8.3z"/>
			<path fill="#663434" d="M70.1,9c0-0.2,0-0.4,0.2-0.5s0.3-0.2,0.5-0.2s0.3,0,0.5,0.1s0.2,0.2,0.2,0.3l0.2,1.6
				c0.5-0.6,1.1-1,1.7-1.4s1.3-0.5,1.9-0.5c0.8,0,1.6,0.2,2.2,0.7s1,1,1.2,1.7c0.2-0.5,0.4-0.8,0.7-1.2s0.6-0.6,1-0.8
				s0.7-0.3,1.1-0.4s0.7-0.1,1.1-0.1c0.9,0,1.7,0.3,2.3,0.8s1,1.2,1.3,2s0.5,1.9,0.6,3.1s0.1,2.5,0.1,4c0,0.2-0.1,0.4-0.2,0.5
				s-0.3,0.2-0.5,0.2s-0.4,0-0.5-0.2s-0.2-0.3-0.2-0.5c0-1.1,0.1-2.1,0-3.2s-0.1-2-0.4-2.8s-0.5-1.5-0.9-1.9s-1-0.7-1.7-0.7
				c-0.3,0-0.7,0.1-1,0.3s-0.6,0.4-0.9,0.6s-0.5,0.5-0.7,0.9s-0.3,0.7-0.3,1c-0.1,1-0.2,1.9-0.2,2.8c0,0.9,0,1.8,0.1,2.8
				c0,0.2-0.1,0.4-0.2,0.5s-0.3,0.2-0.5,0.2s-0.4,0-0.5-0.2s-0.2-0.3-0.2-0.5c0-0.7,0-1.5,0-2.5s-0.1-2.1-0.3-3.3
				c-0.1-0.4-0.2-0.7-0.3-1s-0.3-0.5-0.6-0.7s-0.5-0.3-0.7-0.4s-0.5-0.1-0.8-0.1c-0.3,0-0.6,0.1-0.9,0.3s-0.6,0.4-0.9,0.6
				s-0.5,0.5-0.8,0.8s-0.4,0.5-0.6,0.8c0,1.1,0.1,2.1,0.1,3.1s0.1,1.8,0.2,2.5c0,0.2,0,0.4-0.2,0.6s-0.3,0.2-0.5,0.2s-0.4,0-0.6-0.1
				s-0.3-0.2-0.3-0.5L70.1,9z"/>
			<path fill="#663434" d="M90.5,18.4c-0.5-0.2-1-0.4-1.3-0.8s-0.6-0.7-0.8-1.2S88,15.5,87.9,15s-0.1-1,0-1.5s0.2-1,0.3-1.5
				s0.4-0.9,0.6-1.3c0.8-1.3,1.8-2.1,2.8-2.4c1.1-0.3,2.3-0.2,3.5,0.2c0-0.3,0-0.5,0.2-0.7c0.1-0.1,0.3-0.2,0.5-0.2s0.4,0,0.5,0.1
				s0.3,0.3,0.3,0.5c0.1,0.5,0.1,1,0.2,1.5s0.1,1.2,0.2,1.8s0.1,1.2,0.2,1.8s0.1,1.2,0.2,1.8s0.1,1.1,0.2,1.6s0.1,0.9,0.2,1.2
				c0.1,0.2,0,0.4-0.1,0.6s-0.3,0.3-0.4,0.3s-0.4,0-0.5-0.1s-0.3-0.3-0.4-0.6L96.2,17c-0.3,0.3-0.6,0.6-1.1,0.9s-0.9,0.4-1.5,0.6
				s-1.1,0.2-1.6,0.2S91,18.6,90.5,18.4z M91,17.1c0.4,0.1,0.9,0.2,1.4,0.1s1-0.2,1.5-0.4s0.9-0.5,1.3-0.8c0.4-0.3,0.6-0.7,0.7-1.1
				c-0.1-0.7-0.2-1.4-0.2-2.1s-0.1-1.3-0.2-2c-0.3-0.4-0.7-0.8-1.2-0.9s-1-0.3-1.6-0.2s-1.1,0.2-1.6,0.5s-0.9,0.7-1.2,1.2
				c-0.2,0.4-0.4,0.9-0.6,1.5s-0.2,1.2-0.1,1.7s0.2,1.1,0.4,1.6C90,16.6,90.4,16.9,91,17.1z"/>
			<path fill="#663434" d="M101.5,18.8c-0.5-0.1-0.9-0.2-1.2-0.4s-0.7-0.5-0.9-0.7s-0.4-0.6-0.6-0.9s-0.2-0.7-0.3-1
				c0-0.2,0-0.4,0.1-0.5s0.3-0.2,0.4-0.2s0.3,0,0.5,0.1s0.3,0.2,0.3,0.3c0.1,0.2,0.1,0.4,0.2,0.6c0.1,0.2,0.2,0.5,0.3,0.7
				s0.3,0.4,0.6,0.6s0.6,0.3,1,0.3c0.3,0,0.5,0,0.9,0s0.6-0.1,1-0.1s0.6-0.2,0.9-0.3s0.5-0.3,0.8-0.5s0.4-0.4,0.5-0.6
				c0.1-0.2,0.1-0.5,0.1-0.8c-0.1-0.5-0.3-0.9-0.7-1.1s-0.8-0.4-1.3-0.4s-1-0.1-1.5-0.1s-1-0.1-1.5-0.2c-0.6-0.2-1-0.5-1.4-0.8
				s-0.6-0.7-0.8-1.1c-0.2-0.4-0.2-0.9-0.1-1.3s0.3-0.8,0.7-1.2c0.2-0.2,0.5-0.4,0.8-0.5s0.6-0.2,0.9-0.3c0.3-0.1,0.7-0.1,1-0.1
				s0.7,0,1,0.1c0.6,0.1,1.2,0.3,1.7,0.6s1,0.6,1.5,1.1c0.2,0.2,0.2,0.3,0.2,0.5s-0.1,0.3-0.2,0.4s-0.3,0.2-0.5,0.2s-0.3,0-0.5-0.1
				c-0.4-0.4-0.9-0.7-1.3-0.9s-0.8-0.4-1.2-0.4c-0.2,0-0.4,0-0.6,0s-0.4,0-0.6,0.1s-0.4,0.1-0.6,0.2s-0.4,0.2-0.5,0.3
				c-0.3,0.3-0.4,0.7-0.3,1.1c0.1,0.3,0.4,0.6,0.7,0.9s0.8,0.4,1.4,0.5c0.4,0,0.8,0.1,1.3,0.1s1,0.1,1.5,0.2s0.9,0.3,1.3,0.5
				s0.7,0.5,0.8,1c0.2,0.6,0.3,1.1,0.2,1.6c-0.1,0.5-0.2,0.9-0.5,1.3s-0.6,0.7-1.1,0.9s-0.9,0.5-1.4,0.6s-1,0.2-1.6,0.3
				S102,18.8,101.5,18.8z"/>
		</g>
		<g>
			<path fill="#FFFFFF" d="M61,50.5c0,0-0.1-0.1-0.1-0.2s-0.2-0.3-0.5-0.7c-0.3-0.4-0.7-1.1-1.3-2s-1.5-2.2-2.6-3.9
				c-1.1-1.7-2.5-3.8-4.3-6.4c-1.7-2.6-3.8-5.8-6.4-9.7c0,1.1,0,2.4-0.1,3.8c0,1.4,0,2.8-0.1,4.2c0,1.4,0,2.8,0,4.2s0,2.7,0,4
				c0,1.2,0,2.4,0.1,3.3c0,1,0.1,1.8,0.2,2.4c0,0.5-0.1,0.8-0.4,1.1c-0.3,0.3-0.6,0.4-1,0.4c-0.4,0-0.8,0-1.1-0.2
				c-0.3-0.2-0.5-0.5-0.6-0.9l0.1-26.6c0-0.5,0.1-0.8,0.3-1.1s0.5-0.4,0.8-0.5c0.3-0.1,0.6,0,0.9,0.1s0.6,0.3,0.9,0.6
				c0.3,0.3,0.7,0.9,1.3,1.8c0.6,0.9,1.3,2,2.1,3.2s1.7,2.7,2.7,4.2c1,1.5,2,3.1,3,4.6s2,3.1,3,4.6c1,1.5,1.9,2.9,2.8,4.1l-0.8-22.1
				c0-0.4,0.1-0.7,0.4-0.9s0.6-0.2,1-0.2c0.4,0,0.7,0.1,1,0.3c0.3,0.2,0.5,0.4,0.5,0.7c0,0.5,0.1,1.4,0.1,2.7c0,1.3,0.1,2.8,0.2,4.5
				c0.1,1.7,0.1,3.5,0.2,5.5s0.1,3.8,0.2,5.6s0.1,3.5,0.2,5c0.1,1.5,0.1,2.6,0.2,3.5c0,0.3-0.1,0.6-0.2,0.9
				c-0.2,0.3-0.4,0.5-0.7,0.6S62.2,51,61.9,51C61.6,50.9,61.3,50.8,61,50.5z"/>
			<path fill="#FFFFFF" d="M79.1,50c-1.4,0.6-2.8,0.9-4,0.9c-1.3,0-2.5-0.2-3.6-0.7s-2.1-1.1-2.9-1.9c-0.9-0.8-1.6-1.7-2.2-2.8
				c-0.6-1-1-2.1-1.2-3.3C65,41.1,65,40,65.1,38.8c0.2-1.2,0.5-2.3,1-3.4c0.5-1.1,1.2-2.1,2-2.9c0.9-0.9,1.9-1.5,3.1-2
				s2.7-0.7,4.3-0.7c1.3,0,2.6,0.3,3.8,0.9c1.2,0.5,2.2,1.3,3,2.2c0.9,1,1.5,2.1,2,3.4c0.5,1.3,0.6,2.8,0.5,4.3c0,1-0.2,1.9-0.5,2.9
				s-0.6,1.9-1.1,2.7c-0.5,0.8-1.1,1.6-1.8,2.2C80.8,49.1,80,49.6,79.1,50z M68,39.3c-0.2,1.3-0.1,2.5,0.2,3.6
				c0.3,1.1,0.8,2.1,1.5,2.9c0.7,0.8,1.6,1.4,2.7,1.8c1.1,0.4,2.3,0.5,3.7,0.3c0.9-0.1,1.7-0.4,2.4-0.8c0.7-0.4,1.3-0.9,1.8-1.5
				c0.5-0.6,0.9-1.3,1.2-2.1c0.3-0.8,0.5-1.6,0.6-2.5c0.1-1,0-2-0.2-3s-0.6-1.8-1.1-2.6c-0.5-0.8-1.2-1.4-2.1-1.9
				c-0.9-0.5-1.9-0.8-3-0.9c-0.5,0-1.1,0-1.9,0.1c-0.8,0.1-1.6,0.4-2.4,0.8c-0.8,0.4-1.5,1.1-2.1,2C68.6,36.5,68.2,37.7,68,39.3z"/>
			<path fill="#FFFFFF" d="M92.3,30l-0.1-7.4c0-0.4,0.1-0.7,0.4-0.9s0.6-0.2,1-0.2s0.7,0.1,1,0.3c0.3,0.2,0.4,0.4,0.4,0.7
				c0,0.5,0,1.4,0.1,2.8c0,1.3,0.1,2.9,0.1,4.7h8.7c0.4,0,0.7,0.2,0.8,0.5c0.1,0.3,0.2,0.6,0.1,0.9c-0.1,0.3-0.2,0.6-0.4,0.9
				s-0.4,0.4-0.7,0.4c-0.4,0-0.9,0-1.5,0c-0.6,0-1.3,0-2,0c-0.7,0-1.5,0-2.4,0c-0.9,0-1.7,0-2.6,0c0,1.7,0.1,3.4,0.1,5.2
				c0,1.8,0.1,3.4,0.1,5c0,1.6,0.1,3,0.2,4.3c0.1,1.3,0.1,2.3,0.2,3c0,0.4-0.1,0.8-0.4,1c-0.3,0.3-0.6,0.4-1,0.4
				c-0.4,0-0.8,0-1.1-0.2c-0.3-0.2-0.5-0.5-0.5-0.9l-0.3-17.9c-1.1,0-2.1,0.1-3.2,0c-1,0-1.9,0-2.7,0c-0.4,0-0.8-0.1-1-0.4
				c-0.2-0.3-0.3-0.6-0.3-0.9s0.1-0.6,0.3-0.9s0.5-0.4,1-0.4H92.3z"/>
			<path fill="#FFFFFF" d="M107.1,28.1c-0.3,0.3-0.6,0.4-0.9,0.4s-0.7-0.1-0.9-0.3c-0.3-0.2-0.4-0.5-0.5-0.8c-0.1-0.3,0-0.7,0.4-1
				l2.6-2.9c0.4-0.4,0.7-0.6,1.1-0.6c0.4,0,0.7,0.1,1,0.3c0.3,0.2,0.4,0.5,0.5,0.9s-0.1,0.7-0.4,1.1L107.1,28.1z M105.8,30.4
				c0-0.4,0.1-0.7,0.4-0.9c0.3-0.2,0.6-0.2,1-0.2c0.4,0,0.7,0.1,1,0.3c0.3,0.2,0.5,0.4,0.5,0.7c0,0.5,0.1,1.2,0.1,2.1
				c0,0.9,0.1,2,0.1,3.1c0,1.2,0.1,2.4,0.1,3.7c0,1.3,0.1,2.6,0.2,3.9s0.1,2.5,0.2,3.6s0.2,2.1,0.3,2.9c0,0.5-0.1,0.8-0.4,1.1
				c-0.3,0.3-0.6,0.4-1,0.4c-0.4,0-0.8,0-1.1-0.2c-0.3-0.2-0.5-0.5-0.6-0.9L105.8,30.4z"/>
			<path fill="#FFFFFF" d="M122.4,50.2c-1.1,0.5-2.2,0.7-3.4,0.6c-1.2,0-2.3-0.3-3.4-0.8c-1.1-0.5-2-1.3-2.9-2.3
				c-0.8-1-1.5-2.2-1.8-3.7c-0.3-1.1-0.4-2.2-0.4-3.5s0.1-2.4,0.4-3.5c0.3-1.1,0.7-2.2,1.3-3.3c0.6-1,1.3-1.9,2.2-2.7
				c0.9-0.8,2-1.3,3.2-1.5c1.2-0.2,2.4-0.1,3.5,0.1c1.2,0.3,2.2,0.8,3.2,1.5c1,0.7,1.7,1.6,2.3,2.6c0.2,0.4,0.2,0.8,0.1,1.1
				s-0.3,0.6-0.6,0.8s-0.6,0.3-1,0.3c-0.4,0-0.7-0.2-0.9-0.5c-0.7-1-1.5-1.7-2.2-2.1c-0.7-0.5-1.4-0.8-2.1-0.9
				c-0.7-0.1-1.3-0.1-1.8,0s-1,0.3-1.3,0.5c-0.8,0.5-1.4,1.2-1.9,2c-0.5,0.8-0.9,1.6-1.1,2.5c-0.3,0.9-0.4,1.8-0.4,2.8
				s0.1,1.9,0.4,2.8c0.3,1,0.6,1.9,1.1,2.6s1.1,1.3,1.7,1.7c0.7,0.4,1.4,0.7,2.2,0.8s1.7,0,2.6-0.2c0.9-0.3,1.8-0.9,2.5-1.5
				c0.8-0.7,1.5-1.5,2.2-2.5c0.3-0.4,0.6-0.6,1-0.6c0.4,0,0.7,0.1,1,0.4s0.4,0.6,0.5,1c0.1,0.4,0,0.8-0.3,1.1
				c-0.7,0.9-1.2,1.6-1.7,2.1s-0.9,0.9-1.4,1.2s-0.8,0.6-1.3,0.8C123.5,49.7,123,49.9,122.4,50.2z"/>
			<path fill="#FFFFFF" d="M132.8,25.3c0.2,0.3,0.2,0.7,0,1.1c-0.2,0.4-0.5,0.6-0.9,0.9s-0.8,0.3-1.3,0.2c-0.5,0-0.8-0.3-1-0.8
				c-0.2-0.5-0.2-0.9-0.1-1.2c0.2-0.4,0.5-0.6,0.9-0.8c0.4-0.2,0.8-0.2,1.3-0.1C132.2,24.7,132.5,24.9,132.8,25.3z M129.9,30.4
				c0-0.4,0.1-0.7,0.4-0.9c0.3-0.2,0.6-0.2,1-0.2c0.4,0,0.7,0.1,1,0.3c0.3,0.2,0.5,0.4,0.5,0.7c0,0.5,0.1,1.2,0.1,2.1
				c0,0.9,0.1,2,0.1,3.1c0,1.2,0.1,2.4,0.1,3.7c0,1.3,0.1,2.6,0.2,3.9s0.1,2.5,0.2,3.6s0.2,2.1,0.3,2.9c0,0.5-0.1,0.8-0.4,1.1
				c-0.3,0.3-0.6,0.4-1,0.4c-0.4,0-0.8,0-1.1-0.2c-0.3-0.2-0.5-0.5-0.6-0.9L129.9,30.4z"/>
			<path fill="#FFFFFF" d="M139.9,50.1c-1-0.3-1.9-0.8-2.6-1.5c-0.7-0.7-1.2-1.4-1.6-2.3c-0.4-0.9-0.7-1.8-0.8-2.8s-0.1-2,0-3
				c0.1-1,0.3-2,0.6-2.9c0.3-0.9,0.7-1.8,1.2-2.5c1.6-2.5,3.4-4,5.5-4.6c2.1-0.6,4.4-0.5,6.9,0.5c-0.1-0.6,0-1,0.3-1.3
				c0.3-0.3,0.6-0.4,1-0.5c0.4,0,0.7,0.1,1.1,0.3c0.3,0.2,0.5,0.5,0.6,1c0.1,0.9,0.2,1.9,0.3,3c0.1,1.1,0.2,2.2,0.3,3.4
				c0.1,1.2,0.2,2.4,0.4,3.6c0.1,1.2,0.3,2.3,0.4,3.4s0.3,2.1,0.4,3s0.3,1.7,0.4,2.4c0.1,0.5,0.1,0.8-0.2,1.2
				c-0.2,0.3-0.5,0.5-0.9,0.6c-0.3,0.1-0.7,0.1-1-0.1s-0.6-0.5-0.7-1.1l-0.6-2.5c-0.5,0.7-1.3,1.2-2.1,1.7c-0.9,0.5-1.8,0.9-2.8,1.1
				c-1,0.3-2.1,0.4-3.1,0.4C141.8,50.5,140.8,50.4,139.9,50.1z M140.8,47.5c0.8,0.3,1.7,0.3,2.7,0.2s2-0.3,3-0.7s1.8-0.9,2.5-1.5
				c0.7-0.6,1.2-1.4,1.5-2.2c-0.2-1.4-0.3-2.8-0.4-4.1c-0.1-1.3-0.2-2.6-0.3-3.9c-0.6-0.8-1.4-1.5-2.4-1.8s-2-0.5-3-0.5
				c-1,0.1-2.1,0.4-3,0.9c-1,0.5-1.8,1.3-2.3,2.3c-0.5,0.8-0.9,1.8-1.1,2.9s-0.4,2.3-0.3,3.4c0.1,1.1,0.4,2.1,0.9,3
				C139,46.5,139.8,47.1,140.8,47.5z"/>
			<path fill="#FFFFFF" d="M161.3,50.7c-0.9-0.1-1.7-0.4-2.4-0.8s-1.3-0.9-1.7-1.5c-0.5-0.6-0.8-1.2-1.1-1.8
				c-0.3-0.6-0.4-1.3-0.5-1.9c0-0.4,0-0.8,0.3-1c0.2-0.2,0.5-0.4,0.8-0.4c0.3-0.1,0.6,0,0.9,0.1c0.3,0.1,0.5,0.3,0.6,0.6
				c0.1,0.3,0.3,0.7,0.4,1.2s0.3,0.9,0.6,1.3s0.7,0.8,1.2,1.1s1.2,0.5,2,0.6c0.5,0,1.1,0,1.7,0c0.6,0,1.3-0.1,1.9-0.3
				s1.2-0.3,1.8-0.6c0.6-0.2,1.1-0.5,1.5-0.9c0.4-0.4,0.7-0.8,0.9-1.2s0.3-1,0.1-1.6c-0.2-1-0.7-1.7-1.3-2.1
				c-0.7-0.4-1.5-0.7-2.5-0.8c-0.9-0.1-1.9-0.2-3-0.3s-2-0.2-2.9-0.5c-1.1-0.4-2-0.9-2.7-1.5c-0.7-0.7-1.2-1.4-1.5-2.2
				c-0.3-0.9-0.4-1.7-0.2-2.6c0.2-0.9,0.6-1.6,1.3-2.3c0.4-0.4,0.9-0.7,1.5-1c0.6-0.3,1.2-0.5,1.8-0.6c0.6-0.1,1.3-0.2,1.9-0.2
				c0.7,0,1.3,0,1.9,0.2c1.2,0.2,2.3,0.6,3.3,1.1s2,1.2,2.9,2.1c0.3,0.3,0.4,0.6,0.4,1s-0.2,0.6-0.5,0.8s-0.6,0.3-0.9,0.4
				s-0.6,0-0.9-0.2c-0.9-0.7-1.7-1.3-2.6-1.8c-0.8-0.4-1.6-0.7-2.4-0.8c-0.3,0-0.7-0.1-1.1,0c-0.4,0-0.8,0.1-1.2,0.2
				s-0.8,0.2-1.2,0.4c-0.4,0.2-0.7,0.4-1,0.6c-0.7,0.6-0.8,1.3-0.5,2.2c0.2,0.6,0.7,1.1,1.4,1.7s1.6,0.8,2.7,0.9
				c0.8,0.1,1.6,0.1,2.6,0.2c1,0.1,1.9,0.2,2.8,0.4c0.9,0.2,1.7,0.5,2.5,1s1.3,1.1,1.6,1.9c0.4,1.1,0.6,2.2,0.5,3.1
				c-0.1,0.9-0.4,1.8-1,2.5s-1.2,1.3-2.1,1.8s-1.7,0.9-2.7,1.2c-1,0.3-2,0.5-3.1,0.5C163.2,50.9,162.2,50.9,161.3,50.7z"/>
		</g>
	</g>
</g>
</svg>
