<?xml version="1.0" encoding="utf-8"?>
<!-- Generator: Adobe Illustrator 18.0.0, SVG Export Plug-In . SVG Version: 6.00 Build 0)  -->
<!DOCTYPE svg PUBLIC "-//W3C//DTD SVG 1.1//EN" "http://www.w3.org/Graphics/SVG/1.1/DTD/svg11.dtd">
<svg version="1.1" id="Camada_1" xmlns="http://www.w3.org/2000/svg" xmlns:xlink="http://www.w3.org/1999/xlink" x="0px" y="0px"
	 viewBox="0 0 366.3 62.8" enable-background="new 0 0 366.3 62.8" xml:space="preserve">
<path fill-rule="evenodd" clip-rule="evenodd" fill="#87CDD3" d="M60,2.5h279c13.8,0,25,11.2,25,25v9c0,13.8-11.2,25-25,25H60
	c-13.8,0-25-11.2-25-25v-9C35,13.7,46.2,2.5,60,2.5z"/>
<path fill-rule="evenodd" clip-rule="evenodd" fill="none" stroke="#FCF6EC" stroke-width="2" stroke-miterlimit="10" stroke-dasharray="10,10,10,10,10,10" d="
	M61.1,3.4h277.9c13.8,0,24.9,10.8,24.9,24.2v8.7c0,13.4-11.2,24.2-24.9,24.2H61.1c-13.8,0-24.9-10.8-24.9-24.2v-8.7
	C36.2,14.3,47.4,3.4,61.1,3.4z"/>
<g>
	<path fill="#B2447A" d="M99.2,37.6c-1.1,1.1-2.4,1.9-3.9,2.5c-1.5,0.6-3.1,0.7-4.9,0.5c-1.8-0.2-3.3-0.8-4.5-1.8s-2-2.1-2.7-3.5
		s-1-2.9-1.2-4.5c-0.2-1.7-0.2-3.3-0.1-4.9c0.1-1.7,0.5-3.4,1-5.2c0.6-1.7,1.4-3.3,2.4-4.7c1-1.4,2.3-2.4,3.8-3.2s3.2-1.1,5.2-0.9
		c1.4,0.1,2.7,0.5,3.8,1.1c1.1,0.6,2.1,1.3,2.8,2.2c0.8,0.9,1.4,1.9,1.9,3c0.5,1.1,0.8,2.2,1,3.3c0.2,1.1,0.2,2.3,0.2,3.5
		c0,1.2-0.2,2.4-0.4,3.6c-0.2,1.2-0.6,2.4-1,3.5c-0.5,1.1-1,2.2-1.7,3.2c0.5,0.5,1,1,1.6,1.5c0.5,0.5,1.1,0.9,1.6,1.4
		c0.3,0.3,0.5,0.6,0.4,1c0,0.4-0.2,0.7-0.4,1c-0.3,0.3-0.6,0.5-0.9,0.6c-0.4,0.1-0.7,0-1.1-0.3L99.2,37.6z M90.7,38
		c1.3,0.2,2.5,0.1,3.6-0.4c1.1-0.5,2.1-1.1,2.9-2l-4.6-4.7c-0.3-0.3-0.4-0.6-0.3-0.9c0.1-0.3,0.3-0.6,0.6-0.8
		c0.3-0.2,0.6-0.4,0.9-0.5s0.6,0,0.8,0.2c0.6,0.5,1.2,1.2,1.9,1.9c0.7,0.8,1.5,1.6,2.4,2.4c0.5-0.8,0.9-1.6,1.3-2.4
		c0.3-0.9,0.6-1.7,0.8-2.6s0.3-1.7,0.4-2.5c0.1-0.8,0.1-1.6,0-2.3c-0.1-1-0.4-2-0.7-3s-0.8-1.9-1.4-2.8s-1.4-1.5-2.3-2.1
		c-0.9-0.5-1.9-0.9-3.1-0.9c-1.1-0.1-2,0.1-2.9,0.5c-0.9,0.4-1.6,0.9-2.3,1.5c-0.6,0.6-1.2,1.4-1.7,2.2c-0.5,0.8-0.9,1.7-1.2,2.5
		s-0.6,1.7-0.7,2.5c-0.2,0.8-0.3,1.5-0.4,2c-0.1,1.1-0.1,2.3,0,3.6s0.4,2.6,0.9,3.8c0.5,1.2,1.1,2.2,1.9,3.1
		C88.3,37.3,89.4,37.8,90.7,38z"/>
	<path fill="#B2447A" d="M121.6,36c-0.6,0.6-1.3,1.3-2.2,1.9c-0.9,0.7-1.8,1.2-2.7,1.7c-1,0.5-2,0.8-3.1,0.9c-1.1,0.1-2.1,0-3.2-0.4
		c-0.9-0.4-1.7-1-2.3-1.7c-0.6-0.8-1.1-1.7-1.4-2.7c-0.3-1-0.5-2.1-0.6-3.3c-0.1-1.2-0.1-2.4,0-3.6c0.1-1.2,0.2-2.4,0.4-3.6
		c0.2-1.2,0.5-2.3,0.8-3.3c0.1-0.3,0.3-0.5,0.7-0.7c0.3-0.1,0.7-0.1,1.1-0.1c0.4,0.1,0.7,0.2,0.9,0.5c0.2,0.3,0.3,0.6,0.1,1.1
		c-0.2,0.7-0.5,1.6-0.7,2.6s-0.4,2-0.5,3.1c-0.1,1.1-0.1,2.1-0.1,3.2c0,1.1,0.2,2,0.4,2.9c0.2,0.9,0.6,1.6,1.1,2.2s1.1,1,1.9,1.2
		c0.8,0.2,1.7,0.1,2.6-0.2c0.9-0.3,1.8-0.7,2.7-1.3c0.9-0.6,1.6-1.2,2.3-1.8s1.2-1.3,1.6-1.8l-0.9-10.3c-0.1-0.4,0-0.7,0.3-0.9
		c0.3-0.2,0.6-0.3,1-0.3c0.4,0,0.7,0.1,1,0.2c0.3,0.2,0.5,0.4,0.5,0.6c0.1,0.5,0.1,1.2,0.2,2c0.1,0.8,0.2,1.7,0.3,2.8
		c0.1,1,0.2,2.1,0.3,3.3c0.1,1.2,0.2,2.3,0.3,3.4c0.1,1.1,0.2,2.2,0.4,3.3c0.1,1,0.3,2,0.4,2.8c0.1,0.4,0,0.8-0.3,1.1
		c-0.3,0.3-0.6,0.5-1,0.5c-0.4,0.1-0.8,0-1.1-0.2c-0.4-0.2-0.6-0.5-0.6-0.9L121.6,36z"/>
	<path fill="#B2447A" d="M135.4,41.5c-1.5,0.1-2.8-0.1-3.9-0.6c-1.1-0.5-2-1.1-2.7-1.9c-0.7-0.8-1.3-1.7-1.7-2.8
		c-0.4-1.1-0.6-2.1-0.6-3.2c0-1.7,0.1-3.2,0.5-4.7c0.4-1.4,0.9-2.7,1.7-3.8c0.8-1.1,1.7-1.9,2.9-2.6c1.1-0.7,2.5-1,4-1.2
		c1-0.1,2,0.1,2.9,0.4c0.9,0.4,1.7,0.9,2.5,1.5c0.7,0.6,1.4,1.3,1.9,2c0.5,0.7,0.9,1.4,1,2.1c0.1,0.3,0.2,0.7,0.3,1
		c0.1,0.4,0.1,0.7,0.1,1.1c0,0.3-0.2,0.7-0.4,1c-0.2,0.3-0.6,0.5-1.2,0.7c-1,0.3-2,0.5-3.1,0.7c-1.1,0.2-2.3,0.4-3.5,0.5
		c-1.2,0.2-2.3,0.3-3.5,0.4c-1.2,0.1-2.2,0.3-3.2,0.5c0.1,2.1,0.6,3.7,1.7,4.7c1,1.1,2.5,1.5,4.4,1.3c0.5,0,1-0.1,1.7-0.2
		c0.7-0.1,1.3-0.3,2-0.6c0.7-0.3,1.3-0.6,1.9-1c0.6-0.4,1.1-0.9,1.5-1.5c0.3-0.4,0.6-0.6,1-0.7c0.4-0.1,0.7,0,1.1,0.2
		c0.3,0.2,0.5,0.5,0.7,0.8s0.1,0.8-0.2,1.3c-0.4,0.7-1,1.4-1.8,1.9c-0.8,0.5-1.6,1-2.5,1.3c-0.9,0.4-1.8,0.6-2.8,0.8
		S136.1,41.4,135.4,41.5z M129.6,29.6c0.1,0.1,0.5,0.1,1.1,0c0.6,0,1.3-0.1,2.2-0.2c0.8-0.1,1.8-0.2,2.7-0.4c1-0.2,1.9-0.3,2.7-0.5
		c0.8-0.1,1.5-0.3,2.1-0.4c0.6-0.1,0.9-0.2,1-0.3c-0.2-0.8-0.5-1.5-1-2.1c-0.4-0.6-0.9-1.1-1.5-1.4s-1.1-0.6-1.7-0.8
		c-0.6-0.2-1.1-0.2-1.6-0.1c-1.8,0.2-3.2,0.9-4.3,2C130.3,26.6,129.7,28,129.6,29.6z"/>
	<path fill="#B2447A" d="M146.6,22.4c0-0.4,0.1-0.7,0.3-0.9c0.3-0.2,0.6-0.3,0.9-0.3c0.3,0,0.7,0,1,0.2c0.3,0.2,0.4,0.4,0.5,0.6
		l0.4,3c1-1.1,2.2-2,3.4-2.7c1.2-0.7,2.5-1,3.8-1c1.6,0,3,0.4,4.2,1.3s1.9,2,2.3,3.4c0.3-0.9,0.8-1.6,1.3-2.3
		c0.6-0.6,1.2-1.1,1.9-1.5c0.7-0.4,1.4-0.6,2.1-0.8c0.7-0.1,1.4-0.2,2.1-0.2c1.8,0.1,3.3,0.6,4.4,1.6c1.1,1,1.9,2.3,2.5,4
		c0.6,1.7,0.9,3.7,1.1,6.1c0.1,2.4,0.2,4.9,0.2,7.8c0,0.5-0.2,0.8-0.5,1c-0.3,0.2-0.7,0.3-1,0.3c-0.4,0-0.7-0.1-1-0.3
		c-0.3-0.2-0.4-0.6-0.4-1.1c0.1-2.1,0.2-4.2,0.1-6.2s-0.2-3.8-0.6-5.4c-0.4-1.6-1-2.8-1.8-3.8c-0.8-0.9-1.9-1.4-3.4-1.3
		c-0.6,0-1.3,0.2-1.9,0.5c-0.6,0.3-1.2,0.7-1.7,1.1c-0.5,0.5-1,1-1.3,1.6c-0.4,0.6-0.6,1.3-0.7,1.9c-0.3,1.9-0.4,3.7-0.5,5.4
		c0,1.7,0,3.5,0.1,5.4c0,0.5-0.1,0.8-0.4,1c-0.3,0.2-0.7,0.3-1,0.3c-0.4,0-0.7-0.1-1-0.3c-0.3-0.2-0.5-0.6-0.5-1.1
		c0.1-1.3,0.1-3,0.1-5s-0.2-4.1-0.6-6.5c-0.1-0.7-0.3-1.4-0.6-1.9c-0.3-0.6-0.7-1-1.1-1.4c-0.4-0.4-0.9-0.6-1.4-0.8
		c-0.5-0.2-1.1-0.2-1.6-0.2c-0.6,0.1-1.2,0.3-1.8,0.6c-0.6,0.3-1.2,0.7-1.7,1.2s-1.1,1-1.5,1.5c-0.5,0.5-0.9,1-1.2,1.5
		c0,2.1,0,4.1,0.1,6.1c0,1.9,0.2,3.6,0.4,4.9c0.1,0.5,0,0.8-0.3,1.1s-0.6,0.4-1,0.5c-0.4,0.1-0.7,0-1.1-0.2
		c-0.4-0.2-0.5-0.5-0.6-0.9L146.6,22.4z"/>
	<path fill="#B2447A" d="M201.5,42.5c-0.9,0-1.8-0.2-2.7-0.5c-0.9-0.3-1.8-0.8-2.6-1.4c-0.8-0.6-1.6-1.4-2.3-2.3
		c-0.7-0.9-1.3-2-1.7-3.2c-0.1-0.4-0.1-0.7,0.1-1c0.2-0.3,0.5-0.5,0.8-0.7c0.3-0.1,0.6-0.2,0.9-0.2s0.5,0.2,0.6,0.5
		c0.5,1.7,1.4,3.1,2.8,4.2c1.3,1.1,2.9,1.7,4.7,1.9c0.8,0.1,1.7,0,2.7-0.1c0.9-0.1,1.8-0.3,2.6-0.7c0.8-0.3,1.4-0.8,1.9-1.4
		c0.5-0.6,0.6-1.3,0.5-2.2c-0.2-1.1-0.7-2.1-1.6-2.8c-0.8-0.7-1.8-1.3-2.9-1.9c-1.1-0.5-2.2-0.9-3.4-1.3c-1.2-0.4-2.2-0.8-3-1.2
		c-1.2-0.6-2.2-1.2-3.2-2c-0.9-0.7-1.6-1.6-2.1-2.5c-0.5-0.9-0.7-2-0.7-3.1c0-1.1,0.4-2.3,1.1-3.6c0.6-1,1.4-1.9,2.4-2.5
		c1-0.6,2.1-1,3.3-1.3c1.2-0.2,2.4-0.3,3.7-0.1c1.3,0.1,2.4,0.4,3.5,0.9c1.1,0.4,2,1,2.8,1.8c0.8,0.8,1.4,1.6,1.6,2.6
		c0.1,0.5,0.1,0.8-0.1,1.1c-0.2,0.3-0.4,0.5-0.7,0.6c-0.3,0.1-0.6,0.1-0.9,0c-0.3-0.1-0.5-0.3-0.6-0.5c-0.3-0.7-0.7-1.4-1.3-2
		s-1.3-1.1-2.1-1.4c-0.8-0.4-1.7-0.6-2.6-0.7c-0.9-0.1-1.8-0.1-2.7,0.1c-0.9,0.2-1.7,0.5-2.5,1c-0.8,0.5-1.4,1.2-1.9,2.1
		c-0.5,0.9-0.7,1.8-0.5,2.6c0.2,0.8,0.6,1.5,1.1,2.1c0.6,0.6,1.2,1.2,2,1.6c0.8,0.5,1.5,0.8,2.1,1c0.6,0.2,1.3,0.5,2.1,0.7
		c0.8,0.3,1.7,0.6,2.6,1c0.9,0.4,1.8,0.9,2.7,1.4c0.9,0.5,1.7,1.1,2.4,1.8c0.7,0.7,1.2,1.4,1.6,2.2c0.4,0.8,0.6,1.7,0.5,2.7
		c-0.1,1.3-0.5,2.3-1.2,3.2c-0.7,0.8-1.6,1.5-2.6,2c-1,0.5-2.2,0.8-3.4,1S202.7,42.6,201.5,42.5z"/>
	<path fill="#B2447A" d="M227.6,41.8c-1.4,0.6-2.8,0.8-4,0.8c-1.3,0-2.5-0.3-3.5-0.7c-1.1-0.5-2.1-1.1-2.9-1.9
		c-0.9-0.8-1.6-1.7-2.1-2.8c-0.6-1-0.9-2.1-1.2-3.3c-0.2-1.2-0.2-2.3,0-3.5c0.2-1.2,0.5-2.3,1-3.4c0.5-1.1,1.2-2.1,2.1-2.9
		c0.9-0.8,1.9-1.5,3.2-2c1.2-0.5,2.7-0.7,4.4-0.6c1.3,0.1,2.6,0.4,3.7,0.9c1.2,0.6,2.2,1.3,3,2.3c0.8,1,1.5,2.1,1.9,3.4
		c0.4,1.3,0.6,2.8,0.5,4.3c-0.1,1-0.2,1.9-0.5,2.9c-0.3,1-0.7,1.8-1.2,2.7c-0.5,0.8-1.1,1.6-1.8,2.2C229.3,41,228.5,41.5,227.6,41.8
		z M216.6,30.9c-0.2,1.3-0.1,2.5,0.2,3.6c0.3,1.1,0.8,2.1,1.5,2.9c0.7,0.8,1.6,1.4,2.7,1.8c1.1,0.4,2.3,0.5,3.7,0.3
		c0.9-0.1,1.7-0.4,2.4-0.8c0.7-0.4,1.3-0.9,1.9-1.5c0.5-0.6,0.9-1.3,1.2-2s0.5-1.6,0.6-2.5c0.1-1,0.1-2-0.1-3s-0.6-1.8-1.1-2.6
		c-0.5-0.8-1.2-1.4-2.1-1.9c-0.8-0.5-1.9-0.8-3-1c-0.5-0.1-1.1,0-1.9,0.1c-0.8,0.1-1.6,0.4-2.4,0.8c-0.8,0.4-1.5,1.1-2.2,2
		C217.3,28.2,216.8,29.4,216.6,30.9z"/>
	<path fill="#B2447A" d="M235.1,23.7c0-0.4,0.1-0.7,0.3-0.9c0.3-0.2,0.6-0.3,0.9-0.3c0.3,0,0.7,0,1,0.2c0.3,0.2,0.5,0.4,0.5,0.6
		l0.4,3c1-1.1,2.2-2,3.4-2.7c1.2-0.7,2.5-1,3.8-1c1.6,0,3,0.4,4.2,1.3c1.1,0.9,1.9,2,2.3,3.4c0.3-0.9,0.8-1.6,1.3-2.3
		c0.6-0.6,1.2-1.1,1.9-1.5c0.7-0.4,1.4-0.6,2.1-0.8c0.7-0.1,1.4-0.2,2.1-0.2c1.8,0.1,3.3,0.6,4.4,1.6c1.1,1,1.9,2.3,2.5,4
		c0.6,1.7,0.9,3.7,1.1,6.1c0.1,2.3,0.2,4.9,0.2,7.8c0,0.5-0.2,0.8-0.5,1c-0.3,0.2-0.7,0.3-1,0.3c-0.4,0-0.7-0.1-1-0.3
		c-0.3-0.2-0.4-0.6-0.4-1.1c0.1-2.1,0.2-4.2,0.1-6.2c0-2-0.2-3.8-0.6-5.4c-0.4-1.6-1-2.8-1.8-3.8s-1.9-1.4-3.4-1.3
		c-0.6,0-1.3,0.2-1.9,0.5c-0.6,0.3-1.2,0.7-1.7,1.1c-0.5,0.5-1,1-1.3,1.6c-0.4,0.6-0.6,1.3-0.7,1.9c-0.3,1.9-0.4,3.7-0.5,5.4
		s0,3.5,0.1,5.4c0,0.5-0.1,0.8-0.4,1c-0.3,0.2-0.7,0.3-1,0.3c-0.4,0-0.7-0.1-1-0.3c-0.3-0.2-0.5-0.6-0.5-1.1c0.1-1.3,0.1-3,0.1-5
		c0-2-0.2-4.1-0.6-6.5c-0.1-0.7-0.3-1.4-0.6-1.9c-0.3-0.6-0.7-1-1.1-1.4s-0.9-0.6-1.4-0.8c-0.5-0.2-1.1-0.2-1.6-0.2
		c-0.6,0.1-1.2,0.3-1.8,0.6c-0.6,0.3-1.2,0.7-1.7,1.2c-0.6,0.5-1.1,1-1.5,1.5c-0.5,0.5-0.9,1-1.2,1.5c0,2.1,0,4.1,0.1,6.1
		c0,1.9,0.2,3.6,0.4,4.9c0.1,0.5,0,0.8-0.3,1.1s-0.6,0.4-1,0.5c-0.4,0.1-0.7,0-1.1-0.2c-0.4-0.2-0.5-0.5-0.6-0.9L235.1,23.7z"/>
	<path fill="#B2447A" d="M283.3,42.7c-1.4,0.6-2.8,0.8-4,0.8c-1.3,0-2.5-0.3-3.5-0.7c-1.1-0.5-2.1-1.1-2.9-1.9
		c-0.9-0.8-1.6-1.7-2.1-2.8c-0.6-1-0.9-2.1-1.2-3.3c-0.2-1.2-0.2-2.3,0-3.5c0.2-1.2,0.5-2.3,1-3.4c0.5-1.1,1.2-2.1,2.1-2.9
		c0.9-0.8,1.9-1.5,3.2-2c1.2-0.5,2.7-0.7,4.3-0.6c1.3,0.1,2.6,0.4,3.7,0.9c1.2,0.6,2.2,1.3,3,2.3c0.8,1,1.5,2.1,1.9,3.4
		c0.4,1.3,0.6,2.8,0.5,4.3c-0.1,1-0.2,1.9-0.5,2.9c-0.3,1-0.7,1.8-1.2,2.7c-0.5,0.8-1.1,1.6-1.8,2.2C285,41.8,284.2,42.3,283.3,42.7
		z M272.3,31.8c-0.2,1.3-0.1,2.5,0.2,3.6c0.3,1.1,0.8,2.1,1.5,2.9c0.7,0.8,1.6,1.4,2.7,1.8c1.1,0.4,2.3,0.5,3.7,0.3
		c0.9-0.1,1.7-0.4,2.4-0.8c0.7-0.4,1.3-0.9,1.9-1.5c0.5-0.6,0.9-1.3,1.2-2c0.3-0.8,0.5-1.6,0.6-2.5c0.1-1,0.1-2-0.1-3
		s-0.6-1.8-1.1-2.6c-0.5-0.8-1.2-1.4-2.1-1.9c-0.8-0.5-1.9-0.8-3-0.9c-0.5-0.1-1.1,0-1.9,0.1c-0.8,0.1-1.6,0.4-2.4,0.8
		c-0.8,0.4-1.5,1.1-2.2,2C273,29,272.5,30.2,272.3,31.8z"/>
	<path fill="#B2447A" d="M296.1,43.6c-0.9-0.2-1.7-0.4-2.4-0.9s-1.3-0.9-1.7-1.5c-0.5-0.6-0.8-1.2-1.1-1.8c-0.3-0.7-0.4-1.3-0.5-1.9
		c0-0.4,0.1-0.8,0.3-1c0.2-0.2,0.5-0.4,0.8-0.4c0.3-0.1,0.6,0,0.9,0.1c0.3,0.1,0.5,0.3,0.6,0.6c0.1,0.3,0.3,0.7,0.4,1.2
		c0.1,0.5,0.3,0.9,0.6,1.3c0.3,0.4,0.7,0.8,1.1,1.1s1.2,0.5,2,0.6c0.5,0.1,1.1,0.1,1.7,0c0.6,0,1.3-0.1,1.9-0.2s1.2-0.3,1.8-0.5
		c0.6-0.2,1.1-0.5,1.5-0.9c0.4-0.3,0.7-0.7,0.9-1.2c0.2-0.5,0.3-1,0.2-1.6c-0.2-1-0.6-1.7-1.3-2.1c-0.7-0.4-1.5-0.7-2.4-0.9
		c-0.9-0.2-1.9-0.3-3-0.3c-1-0.1-2-0.2-2.9-0.5c-1.1-0.4-2-0.9-2.7-1.6c-0.7-0.7-1.2-1.4-1.5-2.2c-0.3-0.9-0.4-1.7-0.2-2.6
		c0.2-0.9,0.6-1.6,1.4-2.3c0.4-0.4,1-0.7,1.5-1c0.6-0.3,1.2-0.4,1.8-0.6c0.6-0.1,1.3-0.2,1.9-0.2c0.7,0,1.3,0.1,1.9,0.2
		c1.2,0.2,2.2,0.6,3.2,1.1s2,1.3,2.9,2.2c0.3,0.3,0.4,0.6,0.4,1s-0.2,0.6-0.5,0.8s-0.6,0.3-0.9,0.4c-0.3,0-0.6,0-0.9-0.3
		c-0.9-0.7-1.7-1.3-2.5-1.8c-0.8-0.5-1.6-0.7-2.3-0.9c-0.3-0.1-0.7-0.1-1.1-0.1c-0.4,0-0.8,0.1-1.2,0.2c-0.4,0.1-0.8,0.2-1.2,0.4
		c-0.4,0.2-0.7,0.4-1,0.6c-0.7,0.6-0.9,1.3-0.5,2.2c0.2,0.6,0.7,1.2,1.4,1.7c0.7,0.5,1.6,0.8,2.7,1c0.8,0.1,1.6,0.2,2.6,0.2
		c1,0.1,1.9,0.2,2.8,0.5c0.9,0.2,1.7,0.6,2.5,1c0.7,0.4,1.3,1.1,1.6,1.9c0.4,1.1,0.6,2.2,0.4,3.1c-0.1,0.9-0.5,1.8-1,2.5
		c-0.5,0.7-1.2,1.3-2.1,1.8c-0.8,0.5-1.8,0.9-2.8,1.2c-1,0.3-2,0.4-3.1,0.5C298,43.8,297,43.7,296.1,43.6z"/>
</g>
<path fill="#FFFFFF" d="M6.9,59.7h22.2V35H6.9V59.7z M57,17.8H44c0.9-0.5,1.8-1,2.5-1.5c2.8-2,4.3-4.6,4.3-7.1c0-2.1-1-3.9-2.4-5.2
	C46.9,2.7,45,2,43,2c-2.2,0-4.2,0.7-5.9,1.9c-2.6,1.7-4.6,4.4-6.1,7.2c-0.1,0.1-0.1,0.3-0.2,0.4c-0.5-1.1-1.2-2.2-1.8-3.2
	c-1.2-1.8-2.7-3.3-4.4-4.5C22.8,2.7,20.7,2,18.6,2c-2.2,0-4.1,0.9-5.6,2.3c-1.5,1.4-2.5,3.3-2.5,5.6c0,1.3,0.4,2.7,1.2,3.9
	c1,1.6,2.5,2.9,4.7,4H4.6c-1.6,0-2.8,1.3-2.8,2.8v10.5h27.4V17.8h3.3v13.3h27.4V20.6C59.8,19,58.6,17.8,57,17.8z M17.2,13.6
	c-1.1-0.7-1.8-1.4-2.2-2c-0.4-0.6-0.5-1.2-0.5-1.7C14.5,9,15,8,15.8,7.3c0.8-0.7,1.8-1.2,2.8-1.2h0c1.2,0,2.4,0.4,3.6,1.2
	c1.8,1.2,3.5,3.3,4.7,5.7c0.6,1.2,1.1,2.5,1.4,3.7C22.8,16.1,19.3,14.9,17.2,13.6z M36,10.7c1-1.4,2.2-2.6,3.4-3.4
	c1.2-0.8,2.4-1.2,3.6-1.2c0,0,0,0,0,0c1,0,2,0.4,2.7,1c0.7,0.6,1,1.3,1,2.1c0,0.9-0.5,2.2-2.6,3.8c-2,1.5-5.5,3-10.9,4
	C33.7,14.8,34.7,12.6,36,10.7z M32.5,59.7h22.2V35H32.5V59.7z"/>
</svg>
