<?xml version="1.0" encoding="utf-8"?>
<!-- Generator: Adobe Illustrator 18.0.0, SVG Export Plug-In . SVG Version: 6.00 Build 0)  -->
<!DOCTYPE svg PUBLIC "-//W3C//DTD SVG 1.1//EN" "http://www.w3.org/Graphics/SVG/1.1/DTD/svg11.dtd">
<svg version="1.1" id="Camada_1" xmlns="http://www.w3.org/2000/svg" xmlns:xlink="http://www.w3.org/1999/xlink" x="0px" y="0px"
	 viewBox="0 0 583.1 384.1" enable-background="new 0 0 583.1 384.1" xml:space="preserve">
<path fill="#B1DCE1" d="M31.3,53.9l14.6-31.6L72.8,0l439.4,0.6l24.8,21.8L548,53.9l1.8,121.7l3.7,12.3l-1.8,56.6l1.8,54.8l-2.7,32
	l-6.8,22.4l-12.3,18.3l-18.3,12.2h-448l-22.7-23.6l-11.2-27.4l-1.6-27.9v-57.5l1.4-41.1l0.5-16.9c0,0,1.4-62.1,1.8-60.3
	c0.5,1.8-1.8-39.7-1.8-39.7L31.3,53.9z"/>
<path fill="#FFFFFF" d="M49.2,24.6l0.4-0.6l0.4-0.6l0.4-0.6l0.4-0.6l0.4-0.5l0.4-0.5l0.5-0.5l0.5-0.5l0.5-0.5l0.5-0.5l0.5-0.5
	l0.5-0.5l0.5-0.5l0.5-0.5l0.5-0.5l0.5-0.5l0.5-0.5l0.5-0.5l0.6-0.5l0.6-0.4l0.6-0.4l0.6-0.4l0.6-0.4l0.6-0.4l0.6-0.4l0.6-0.4
	l0.6-0.4l0.6-0.4l0.7-0.4l0.7-0.4l0.7-0.4l0.7-0.3l0.7-0.3l0.7-0.3l0.7-0.3l0.7-0.3L70,8.2l0.8-0.3l0.8-0.3l0.8-0.3l0.8-0.3l0.8-0.3
	l0.8-0.3l-2-6.6l-0.9,0.3L71,0.6l-0.9,0.3l-0.9,0.3l-0.9,0.3l-0.8,0.3l-0.8,0.3l-0.8,0.4L65,2.9l-0.8,0.4l-0.8,0.4l-0.8,0.4
	l-0.8,0.4l-0.8,0.4l-0.7,0.4l-0.7,0.4l-0.7,0.4l-0.7,0.5l-0.7,0.5l-0.7,0.5L56.1,8l-0.7,0.5L54.8,9l-0.7,0.5L53.5,10l-0.6,0.5
	l-0.6,0.5l-0.6,0.5L51,12.2l-0.6,0.6l-0.6,0.6l-0.6,0.6l-0.6,0.6l-0.6,0.6l-0.5,0.6l-0.5,0.6l-0.5,0.6l-0.5,0.6l-0.5,0.6l-0.5,0.6
	l-0.5,0.6L44.1,20l-0.4,0.6L49.2,24.6L49.2,24.6z M67.4,377.6c-8.7-3-15-8.6-19.9-16.3l-5.7,3.7c5.7,8.9,13.5,15.7,23.5,19.1
	L67.4,377.6L67.4,377.6z M44.3,355.7c-4.9-9.9-7.5-20.9-9.2-31.8l-6.7,1c1.8,11.6,4.6,23.2,9.8,33.8L44.3,355.7L44.3,355.7z
	 M34.2,317.3c-1.3-11.2-1.7-22.5-1.6-33.8l0,0l-6.8-0.1c-0.1,6,0.1,12.1,0.3,18.1c0.3,5.6,0.7,11,1.3,16.6L34.2,317.3L34.2,317.3z
	 M32.8,276.7c0.3-10.8,1-21.7,1.9-32.5l0.1-1.5l-6.8-0.6l-0.1,1.5c-0.9,10.9-1.6,21.9-1.9,32.9L32.8,276.7L32.8,276.7z M35.3,235.7
	l0-0.6l0.1-1.4l0.1-1.4l0.1-1.4l0.1-1.4l0.1-1.4l0-1.3l0-1.3l0-1.3l0-1.3l0-1.3l0-1.2l0-1.2l0-1.2l0-1.2l0-1.2l0-1.1l0-1.1l0-1.1
	l0-1.1l0-1.1l-0.1-1l-0.1-1l-0.1-1l-0.1-1l-0.1-1l-0.1-1l-0.1-0.9l-0.1-0.9l-0.1-0.9l-0.1-0.7l-6.7,0.8l0.1,0.6l0.1,0.8l0.1,0.9
	l0.1,0.9l0.1,0.9l0.1,0.9l0.1,0.9l0.1,1l0.1,1l0,1l0,1l0,1l0,1l0,1.1l0,1.1l0,1.1l0,1.1l0,1.2l0,1.2l0,1.2l0,1.2l0,1.2l0,1.3l0,1.3
	l0,1.3l-0.1,1.3l-0.1,1.3l-0.1,1.4l-0.1,1.4l-0.1,1.4l0,0.6L35.3,235.7L35.3,235.7z M33.8,193.8c-0.6-3-1.5-6.5-2.9-9.7l3.2,1.2
	c4.1-10.5,4.6-23.9,4.5-35.1l-6.8,0.1c0.1,9.1-0.3,20.5-3.1,29.7c-2.4-3.7-5.7-6.4-10.2-6.9c-4.8-0.3-9,2-12.4,5.3l4.8,4.8
	c1.5-1.5,3.2-2.7,5.3-3.2c4.5-0.9,7.3,3.6,9,8.2l-0.2,0.1l-0.1,0l0,0l-0.1,0.1c-4.1,2-13.4,6.1-17.3,4.4c-1.3-0.6-0.8-2.5-0.5-3.6
	c0.2-0.5,0.4-1,0.6-1.5L1.5,185c-3.7,8.1-0.6,15.4,9,15.1c5.6-0.3,11.5-2.7,16.6-5.1l0,0.2L33.8,193.8L33.8,193.8z M38.5,143.3
	l0-0.6l0-0.9l0-0.9l0-0.9l0-0.9l0-0.9l0-0.9l0-0.9l0-0.9l0-0.9l0-0.9l0-0.9l0-0.9l0-0.9l0-0.9l0-0.9l0-0.9l0-0.9l0-0.9l0-0.9
	l-0.1-0.9l0-0.9l0-0.9l0-0.9l-0.1-0.9l0-0.9l-0.1-0.9l-0.1-0.9l-0.1-0.9l-0.1-0.9l-0.1-0.9l0-0.9l0-0.9l0-0.9l-0.1-0.9l0-0.9l0-0.9
	l0-0.9l0-0.4l-6.8,0.4l0,0.4l0,0.9l0,0.9l0,0.9l0,0.9l0.1,0.9l0.1,0.9l0,0.9l0.1,0.9l0.1,0.9l0,0.9l0.1,0.9l0.1,0.9l0.1,0.9l0.1,0.9
	l0,0.9l0,0.9l0,0.9l0.1,0.9l0,0.9l0,0.9l0,0.9l0,0.9l0,0.9l0,0.9l0,0.9l0,0.9l0,0.9l0,0.9l0,0.9l0,0.9l0,0.9l0,0.9l0,0.9l0,0.9
	l0,0.9l0,0.8l0,0.8l0,0.6L38.5,143.3L38.5,143.3z M36.4,102.2l0-0.1l0-0.9l0-0.9l0-0.9l0-0.9l0-0.9l0-0.9l0-0.9l0-0.9l0-0.9l0-0.9
	l0-0.9l0-0.9l0-0.9l0-0.9l0-0.9l0-0.9l0-0.9l0-0.9l0-0.9l0-0.9l0-0.9l0-0.9l0-0.9l0-0.9l0-0.9l0-0.9l0-0.9l0-0.9l0-0.9l0-0.9l0-0.9
	l0-0.9l0-0.9l0-0.9l0-0.9l0.1-0.9l0.1-0.9l0-0.1l-6.8-0.5l0,0.2l-0.1,0.9l-0.1,0.9l-0.1,0.9l0,0.9l0,0.9l0,0.9l0,0.9l0,0.9l0,0.9
	l0,0.9l0,0.9l0,0.9l0,0.9l0,0.9l0,0.9l0,0.9l0,0.9l0,0.9l0,0.9l0,0.9l0,0.9l0,0.9l0,0.9l0,0.9l0,0.9l0,0.9l0,0.9l0,0.9l0,0.9l0,0.9
	l0,0.9l0,0.9l0,0.9l0,0.9l0,0.9l0,0.9l0,0.9l0,0.1L36.4,102.2L36.4,102.2z M37.1,61.6L37.1,61.6l0.1-0.9l0.1-0.8l0.1-0.8l0.1-0.8
	l0.1-0.8l0.1-0.8l0.1-0.8l0.1-0.8l0.1-0.8l0.1-0.8l0.1-0.8l0.2-0.8l0.2-0.8l0.2-0.8l0.2-0.8l0.2-0.8l0.2-0.8l0.2-0.8l0.2-0.8
	l0.2-0.8l0.2-0.8l0.2-0.8l0.2-0.7l0.2-0.7l0.2-0.7l0.2-0.7l0.2-0.7l0.2-0.7l0.2-0.7l0.3-0.7l0.3-0.7l0.3-0.7l0.3-0.7l0.3-0.7
	l0.3-0.7L44,34l0.3-0.7l0.3-0.7l0.3-0.7l0.3-0.7l0.3-0.6l0.3-0.6l0,0l-6-3.3l0,0.1l-0.4,0.7l-0.4,0.7L38.8,29l-0.4,0.7l-0.3,0.7
	l-0.3,0.7L37.4,32l-0.3,0.8l-0.3,0.8l-0.3,0.8L36.2,35l-0.3,0.8l-0.3,0.8l-0.3,0.8l-0.3,0.8l-0.3,0.8l-0.2,0.8l-0.2,0.8l-0.2,0.8
	l-0.2,0.8l-0.2,0.8l-0.2,0.8l-0.2,0.8L33,45.4l-0.2,0.8l-0.2,0.8l-0.2,0.8l-0.2,0.8l-0.2,0.8l-0.2,0.8l-0.2,0.8l-0.2,0.9L31.5,53
	l-0.1,0.9l-0.1,0.9l-0.1,0.9l-0.1,0.9l-0.1,0.9l-0.1,0.9l-0.1,0.9L30.5,60l-0.1,0.9v0L37.1,61.6L37.1,61.6z"/>
<path fill="#FFFFFF" d="M533.9,24.6l-0.4-0.6l-0.4-0.6l-0.4-0.6l-0.4-0.6l-0.4-0.5l-0.4-0.5l-0.5-0.5l-0.5-0.5l-0.5-0.5l-0.5-0.5
	l-0.5-0.5l-0.5-0.5l-0.5-0.5l-0.5-0.5l-0.5-0.5l-0.5-0.5l-0.5-0.5l-0.6-0.5l-0.6-0.5l-0.6-0.4l-0.6-0.4l-0.6-0.4l-0.6-0.4l-0.6-0.4
	l-0.6-0.4l-0.6-0.4l-0.6-0.4l-0.6-0.4l-0.7-0.4l-0.7-0.4l-0.7-0.4l-0.7-0.3L516,9.5l-0.7-0.3l-0.7-0.3l-0.7-0.3l-0.7-0.3l-0.8-0.3
	l-0.8-0.3l-0.8-0.3L510,7.1l-0.8-0.3l-0.8-0.3l2-6.6l0.9,0.3l0.9,0.3l0.9,0.3l0.9,0.3l0.9,0.3l0.8,0.3l0.8,0.3l0.8,0.4l0.8,0.4
	l0.8,0.4l0.8,0.4l0.8,0.4l0.8,0.4l0.8,0.4l0.7,0.4l0.7,0.4l0.7,0.4l0.7,0.5l0.7,0.5l0.7,0.5L527,8l0.7,0.5l0.7,0.5l0.7,0.5l0.6,0.5
	l0.6,0.5l0.6,0.5l0.6,0.5l0.6,0.5l0.6,0.6l0.6,0.6l0.6,0.6l0.6,0.6l0.6,0.6l0.5,0.6l0.5,0.6l0.5,0.6l0.5,0.6l0.5,0.6l0.5,0.6
	l0.5,0.6L539,20l0.4,0.6L533.9,24.6L533.9,24.6z M515.7,377.6c8.7-3,15-8.6,19.9-16.3l5.7,3.7c-5.7,8.9-13.5,15.7-23.5,19.1
	L515.7,377.6L515.7,377.6z M538.8,355.7c4.9-9.9,7.5-20.9,9.2-31.8l6.7,1c-1.8,11.6-4.6,23.2-9.8,33.8L538.8,355.7L538.8,355.7z
	 M548.9,317.3c1.3-11.2,1.7-22.5,1.6-33.8v0l6.8-0.1c0.1,6-0.1,12.1-0.3,18.1c-0.3,5.6-0.7,11-1.3,16.6L548.9,317.3L548.9,317.3z
	 M550.4,276.7c-0.3-10.8-1-21.7-1.9-32.5l-0.1-1.5l6.8-0.6l0.1,1.5c0.9,10.9,1.6,21.9,1.9,32.9L550.4,276.7L550.4,276.7z
	 M547.8,235.7l0-0.6l-0.1-1.4l-0.1-1.4l-0.1-1.4l-0.1-1.4l-0.1-1.4l0-1.3l0-1.3l0-1.3l0-1.3l0-1.3l0-1.2l0-1.2l0-1.2l0-1.2l0-1.2
	l0-1.1l0-1.1l0-1.1l0-1.1l0-1.1l0.1-1l0.1-1l0.1-1l0.1-1l0.1-1l0.1-1l0.1-0.9l0.1-0.9l0.1-0.9l0.1-0.7l6.8,0.8l-0.1,0.6l-0.1,0.8
	l-0.1,0.9l-0.1,0.9l-0.1,0.9l-0.1,0.9l-0.1,0.9l-0.1,1l-0.1,1l0,1l0,1l0,1l0,1l0,1.1l0,1.1l0,1.1l0,1.1l0,1.2l0,1.2l0,1.2l0,1.2
	l0,1.2l0,1.3l0,1.3l0,1.3l0.1,1.3l0.1,1.3l0.1,1.4l0.1,1.4l0.1,1.4l0,0.6L547.8,235.7L547.8,235.7z M549.3,193.8
	c0.6-3,1.5-6.5,2.9-9.7l-3.2,1.2c-4.1-10.5-4.6-23.9-4.5-35.1l6.8,0.1c-0.1,9.1,0.3,20.5,3.1,29.7c2.4-3.7,5.7-6.4,10.2-6.9
	c4.8-0.3,9,2,12.4,5.3l-4.8,4.8c-1.5-1.5-3.2-2.7-5.3-3.2c-4.5-0.9-7.3,3.6-9,8.2l0.2,0.1l0.1,0l0,0l0.1,0.1
	c4.1,2,13.4,6.1,17.3,4.4c1.3-0.6,0.8-2.5,0.5-3.6c-0.2-0.5-0.4-1-0.6-1.5l6.2-2.8c3.7,8.1,0.6,15.4-9,15.1
	c-5.6-0.3-11.5-2.7-16.6-5.1l0,0.2L549.3,193.8L549.3,193.8z M544.7,143.3l0-0.6l0-0.9l0-0.9l0-0.9l0-0.9l0-0.9l0-0.9l0-0.9l0-0.9
	l0-0.9l0-0.9l0-0.9l0-0.9l0-0.9l0-0.9l0-0.9l0-0.9l0-0.9l0.1-0.9l0-0.9l0-0.9l0-0.9l0.1-0.9l0.1-0.9l0.1-0.9l0.1-0.9l0.1-0.9
	l0.1-0.9l0-0.9l0.1-0.9l0.1-0.9l0.1-0.9l0.1-0.9l0-0.9l0-0.9l0-0.9l0.1-0.9l0-0.9l0-0.4l6.8,0.4l0,0.4l0,0.9l-0.1,0.9l0,0.9
	l-0.1,0.9l0,0.9l-0.1,0.9l-0.1,0.9l-0.1,0.9l-0.1,0.9l0,0.9l-0.1,0.9l0,0.9l-0.1,0.9l0,0.9l-0.1,0.9l0,0.9l-0.1,0.9l0,0.9l-0.1,0.9
	l0,0.9l0,0.9l0,0.9l0,0.9l0,0.9l0,0.9l0,0.9l0,0.9l0,0.9l0,0.9l0,0.9l0,0.9l0,0.9l0,0.9l0,0.9l0,0.9l0,0.8l0,0.8l0,0.6L544.7,143.3
	L544.7,143.3z M546.7,102.2l0-0.1l0-0.9l0-0.9l0-0.9l0-0.9l0-0.9l0-0.9l0-0.9l0-0.9l0-0.9l0-0.9l0-0.9l0-0.9l0-0.9l0-0.9l0-0.9
	l0-0.9l0-0.9l0-0.9v-0.9v-0.9l0-0.9l0-0.9l0-0.9l0-0.9l0-0.9l0-0.9l0-0.9l0-0.9l0-0.9l0-0.9l0-0.9l0-0.9l0-0.9l0-0.9l0-0.9l-0.1-0.9
	l-0.1-0.9l0-0.1l6.8-0.5l0,0.2l0.1,0.9l0.1,0.9l0.1,0.9l0,0.9l0,0.9l0,0.9l0,0.9l0,0.9l0,0.9l0,0.9l0,0.9l0,0.9l0,0.9l0,0.9l0,0.9
	l0,0.9l0,0.9v0.9v0.9l0,0.9l0,0.9l0,0.9l0,0.9l0,0.9l0,0.9l0,0.9l0,0.9l0,0.9l0,0.9l0,0.9l0,0.9l0,0.9l0,0.9l0,0.9l0,0.9l0,0.9
	l0,0.9l0,0.1L546.7,102.2L546.7,102.2z M546,61.6L546,61.6l-0.1-0.9l-0.1-0.8l-0.1-0.8l-0.1-0.8l-0.1-0.8l-0.1-0.8l-0.1-0.8
	l-0.1-0.8l-0.1-0.8l-0.1-0.8l-0.1-0.8l-0.2-0.8l-0.2-0.8l-0.2-0.8l-0.2-0.8l-0.2-0.8l-0.2-0.8l-0.2-0.8l-0.2-0.8l-0.2-0.8l-0.2-0.8
	l-0.2-0.8l-0.2-0.7l-0.2-0.7l-0.2-0.7l-0.2-0.7l-0.2-0.7l-0.2-0.7l-0.2-0.7l-0.3-0.7l-0.3-0.7l-0.3-0.7l-0.3-0.7l-0.3-0.7l-0.3-0.7
	l-0.3-0.7l-0.3-0.7l-0.3-0.7l-0.3-0.7l-0.3-0.7l-0.3-0.6l-0.3-0.6l0,0l6-3.3l0,0.1l0.4,0.7l0.4,0.7l0.4,0.7l0.4,0.7l0.3,0.7l0.3,0.7
	l0.3,0.7l0.3,0.8l0.3,0.8l0.3,0.8l0.3,0.8l0.3,0.8l0.3,0.8l0.3,0.8l0.3,0.8l0.3,0.8l0.3,0.8l0.2,0.8l0.2,0.8l0.2,0.8l0.2,0.8
	l0.2,0.8l0.2,0.8l0.2,0.8l0.2,0.8l0.2,0.8l0.2,0.8l0.2,0.8l0.2,0.8l0.2,0.8l0.2,0.8l0.2,0.9l0.1,0.9l0.1,0.9l0.1,0.9l0.1,0.9
	l0.1,0.9l0.1,0.9l0.1,0.9l0.1,0.9l0.1,0.9l0.1,0.9l0,0L546,61.6L546,61.6z"/>
</svg>
