<?xml version="1.0" encoding="utf-8"?>
<!-- Generator: Adobe Illustrator 18.0.0, SVG Export Plug-In . SVG Version: 6.00 Build 0)  -->
<!DOCTYPE svg PUBLIC "-//W3C//DTD SVG 1.1//EN" "http://www.w3.org/Graphics/SVG/1.1/DTD/svg11.dtd">
<svg version="1.1" id="Camada_1" xmlns="http://www.w3.org/2000/svg" xmlns:xlink="http://www.w3.org/1999/xlink" x="0px" y="0px"
	 viewBox="0 0 58.1 36.8" enable-background="new 0 0 58.1 36.8" xml:space="preserve">
<path fill="#7E3A3B" d="M20.3,28.2c-0.1,0.4-0.4,0.7-0.8,0.9l-5,2c-0.2,0.1-0.5,0.2-0.8,0.2c-0.3,0-0.6,0-0.9-0.1c0,0-0.1,0-0.2-0.1
	c-0.1,0-0.2-0.1-0.4-0.1c-0.3-0.1-0.9-0.4-1.6-0.9c-0.7-0.4-1.5-1.1-2.4-2c-0.9-0.9-1.8-2.1-2.8-3.6c-1-1.5-1.9-3.3-2.8-5.5
	c-0.7-1.7-1.2-3.3-1.6-4.7c-0.3-1.4-0.6-2.7-0.6-3.9c-0.1-1.1-0.1-2.1,0-3c0.1-0.9,0.2-1.6,0.3-2.2c0.1-0.6,0.3-1,0.5-1.3
	c0.2-0.3,0.2-0.5,0.3-0.5C1.6,3.2,1.8,3,2,2.8c0.2-0.2,0.5-0.3,0.7-0.4l5-2c0.4-0.1,0.7-0.1,1,0C9,0.4,9.2,0.6,9.3,0.8
	C9.4,1,9.5,1.2,9.5,1.5L10.1,8c0,0.3,0,0.7-0.3,1C9.6,9.2,9.3,9.5,9,9.6l-1.9,0.7c-0.1,0-0.1,0.1-0.2,0.1c-0.1,0.1-0.1,0.1-0.1,0.2
	c-0.1,0.4-0.1,0.9-0.1,1.5c0,0.5,0.1,1.2,0.3,1.9c0.2,0.8,0.5,1.7,1,2.9C8.5,18,9,19,9.4,19.7c0.4,0.7,0.8,1.2,1.1,1.6
	c0.3,0.4,0.6,0.6,0.8,0.8l0.3,0.2c0,0,0.1,0,0.2,0c0.1,0,0.2,0,0.2,0l2.2-0.9c0.4-0.1,0.9-0.1,1.3,0c0.3,0.1,0.5,0.3,0.6,0.5l0,0
	l3.8,5.1C20.3,27.5,20.4,27.8,20.3,28.2z"/>
<g>
	<g>
		<g>
			<path fill="none" stroke="#7E3A3B" stroke-miterlimit="10" d="M15.3,29.9c0.5,0.2,0.9,0.4,1.4,0.6"/>
			<path fill="none" stroke="#7E3A3B" stroke-miterlimit="10" stroke-dasharray="2.5926,2.5926,2.5926,2.5926" d="M19,31.6
				c3.3,1.7,5.5,3.5,8,4.3"/>
			<path fill="none" stroke="#7E3A3B" stroke-miterlimit="10" stroke-dasharray="2.5926,2.5926,2.5926,2.5926,2.5926,2.5926" d="
				M28.3,36.1c3,0.5,6.8-0.5,13.3-4.5c1.2-0.4,8.9-6.3,14.1-0.7"/>
			<path fill="none" stroke="#7E3A3B" stroke-miterlimit="10" d="M56.6,32c0.3,0.4,0.5,0.8,0.8,1.3"/>
		</g>
	</g>
</g>
</svg>
