<?xml version="1.0" encoding="utf-8"?>
<!-- Generator: Adobe Illustrator 18.0.0, SVG Export Plug-In . SVG Version: 6.00 Build 0)  -->
<!DOCTYPE svg PUBLIC "-//W3C//DTD SVG 1.1//EN" "http://www.w3.org/Graphics/SVG/1.1/DTD/svg11.dtd">
<svg version="1.1" id="Camada_1" xmlns="http://www.w3.org/2000/svg" xmlns:xlink="http://www.w3.org/1999/xlink" x="0px" y="0px"
	 viewBox="0 0 30 30" enable-background="new 0 0 30 30" xml:space="preserve">
<circle fill="#FFFFFF" cx="11.2" cy="11.2" r="8.8"/>
<path fill="#663333" d="M22.5,11.2C22.5,5,17.5,0,11.2,0S0,5,0,11.2c0,6.2,5,11.3,11.2,11.3S22.5,17.5,22.5,11.2z M11.2,19.7
	c-4.7,0-8.4-3.8-8.4-8.4c0-4.7,3.8-8.4,8.4-8.4c4.7,0,8.4,3.8,8.4,8.4C19.7,15.9,15.9,19.7,11.2,19.7z"/>
<path fill="#663333" d="M29.2,25.2l-6.9-6.9c-1,1.6-2.4,3-4,4l6.9,6.9c1.1,1.1,2.9,1.1,4,0C30.3,28.1,30.3,26.3,29.2,25.2z"/>
</svg>
