<?xml version="1.0" encoding="utf-8"?>
<!-- Generator: Adobe Illustrator 18.0.0, SVG Export Plug-In . SVG Version: 6.00 Build 0)  -->
<!DOCTYPE svg PUBLIC "-//W3C//DTD SVG 1.1//EN" "http://www.w3.org/Graphics/SVG/1.1/DTD/svg11.dtd">
<svg version="1.1" id="logo" xmlns="http://www.w3.org/2000/svg" xmlns:xlink="http://www.w3.org/1999/xlink" x="0px" y="0px"
	 viewBox="0 0 348.8 195" enable-background="new 0 0 348.8 195" xml:space="preserve">
<path fill="#FEFEFE" d="M348,116c0.5,18.9-5.7,35.5-14,48.5c-20,31.3-102.5,30-170.8,30c-59.5,0-129.5,1.4-144.8-30.3
	C11.9,150.4,5.4,134.3,3,108.4c-2.4-25.6,7.4-70.1,29.3-89.3c29-25.3,65.8-17,126.2-14.8C314,9.8,303-5.3,328,24.8
	C341.9,41.4,347.5,96.9,348,116z"/>
<g>
	<path fill="#FF6699" d="M46.6,19.6l0.1-0.1l0.1-0.1l0.1-0.1l0.1-0.1L47,19l0.1-0.1l0.1-0.1l0.1-0.1l0.1-0.1l0.1-0.1l0.1-0.1
		l0.1-0.1l0.1-0.1l0.1-0.1L48,18l0.1-0.1l0.1-0.1l0.1-0.1l0.1-0.1l0.1-0.1l0.1-0.1l0.1-0.1l0.1-0.1l0.1-0.1l0.1-0.1l0.1-0.1l0.1-0.1
		l0.1-0.1l0.1-0.1l0.1-0.1l0.1-0.1l0.1-0.1l0.1-0.1l0.1-0.1l0.1-0.1l0.1-0.1l0.1-0.1l0.2-0.1l0.2-0.1l0.2-0.1l0.2-0.1l0.2-0.1l0.2,0
		l-0.4-1.3l-0.2,0.1L51,14.9l-0.2,0.1L50.6,15L50.4,15l-0.2,0.1l-0.2,0.1l-0.2,0.1l-0.2,0.1l-0.2,0.1l-0.2,0.1l-0.2,0.1l-0.2,0.1
		L49,15.7l-0.2,0.1l-0.1,0.1L48.5,16l-0.1,0.1l-0.1,0.1l-0.1,0.1L48,16.3l-0.1,0.1l-0.1,0.1l-0.1,0.1l-0.1,0.1l-0.1,0.1l-0.1,0.1
		L47.1,17l-0.1,0.1l-0.1,0.1l-0.1,0.1l-0.1,0.1l-0.1,0.1l-0.1,0.1l-0.1,0.1l-0.1,0.1L46,18.1l-0.1,0.1l-0.1,0.1l-0.1,0.1l-0.1,0.1
		l-0.1,0.1l-0.1,0.1L46.6,19.6L46.6,19.6z M50.3,89c-1.7-0.6-3-1.7-4-3.2l-1.2,0.7c1.1,1.8,2.7,3.1,4.7,3.8L50.3,89L50.3,89z
		 M45.6,84.6c-1-2-1.5-4.1-1.9-6.2l-1.4,0.2c0.4,2.3,0.9,4.6,2,6.6L45.6,84.6L45.6,84.6z M43.6,77.1c-0.3-2.2-0.3-4.4-0.3-6.6v0
		l-1.4,0c0,1.2,0,2.4,0.1,3.6c0.1,1.1,0.1,2.2,0.3,3.3L43.6,77.1L43.6,77.1z M43.3,69.1c0.1-2.1,0.2-4.3,0.4-6.4l0-0.3l-1.4-0.1
		l0,0.3c-0.2,2.2-0.3,4.3-0.4,6.5L43.3,69.1L43.3,69.1z M43.8,61.1l0-0.1l0-0.3l0-0.3l0-0.3l0-0.3l0-0.3l0-0.3l0-0.3l0-0.3l0-0.2
		l0-0.2l0-0.2l0-0.2l0-0.2l0-0.2l0-0.2l0-0.2l0-0.2l0-0.2l0-0.2l0-0.2l0-0.2l0-0.2l0-0.2l0-0.2l0-0.2l0-0.2l0-0.2l0-0.2l0-0.2l0-0.1
		l-1.4,0.2l0,0.1l0,0.2l0,0.2l0,0.2l0,0.2l0,0.2l0,0.2l0,0.2l0,0.2l0,0.2l0,0.2l0,0.2l0,0.2l0,0.2l0,0.2l0,0.2l0,0.2l0,0.2l0,0.2
		l0,0.2l0,0.2l0,0.2l0,0.2l0,0.3l0,0.3l0,0.3l0,0.3l0,0.3l0,0.3l0,0.3l0,0.1L43.8,61.1L43.8,61.1z M43.5,52.8
		c-0.1-0.6-0.3-1.3-0.6-1.9l0.6,0.2c0.8-2.1,0.9-4.7,0.9-6.9l-1.4,0c0,1.8-0.1,4-0.6,5.8c-0.5-0.7-1.1-1.3-2.1-1.4
		c-1-0.1-1.8,0.4-2.5,1l1,1c0.3-0.3,0.7-0.5,1.1-0.6c0.9-0.2,1.5,0.7,1.8,1.6l0,0l0,0l0,0l0,0c-0.8,0.4-2.7,1.2-3.5,0.9
		c-0.3-0.1-0.2-0.5-0.1-0.7c0-0.1,0.1-0.2,0.1-0.3L37,51.1c-0.7,1.6-0.1,3,1.8,3c1.1-0.1,2.3-0.5,3.3-1l0,0L43.5,52.8L43.5,52.8z
		 M44.4,42.9l0-0.1l0-0.2l0-0.2l0-0.2l0-0.2l0-0.2l0-0.2l0-0.2l0-0.2l0-0.2l0-0.2l0-0.2l0-0.2l0-0.2l0-0.2l0-0.2l0-0.2l0-0.2l0-0.2
		l0-0.2l0-0.2l0-0.2l0-0.2l0-0.2l0-0.2l0-0.2l0-0.2l0-0.2l0-0.2l0-0.2l0-0.2l0-0.2l0-0.2l0-0.2l0-0.2l0-0.2l0-0.2l0-0.2l0-0.1
		l-1.4,0.1l0,0.1l0,0.2l0,0.2l0,0.2l0,0.2l0,0.2l0,0.2l0,0.2l0,0.2l0,0.2l0,0.2l0,0.2l0,0.2l0,0.2l0,0.2l0,0.2l0,0.2l0,0.2l0,0.2
		l0,0.2l0,0.2l0,0.2l0,0.2l0,0.2l0,0.2l0,0.2l0,0.2l0,0.2l0,0.2l0,0.2l0,0.2l0,0.2l0,0.2l0,0.2l0,0.2l0,0.2l0,0.2l0,0.2l0,0.1
		L44.4,42.9L44.4,42.9z M44,34.8L44,34.8l0-0.2l0-0.2l0-0.2l0-0.2l0-0.2l0-0.2l0-0.2l0-0.2l0-0.2l0-0.2l0-0.2l0-0.2l0-0.2l0-0.2
		l0-0.2l0-0.2l0-0.2l0-0.2l0-0.2l0-0.2l0-0.2l0-0.2l0-0.2l0-0.2l0-0.2l0-0.2l0-0.2l0-0.2l0-0.2l0-0.2l0-0.2l0-0.2l0-0.2l0-0.2l0-0.2
		l0-0.2l0-0.2l0,0l-1.4-0.1l0,0l0,0.2l0,0.2l0,0.2l0,0.2l0,0.2l0,0.2l0,0.2l0,0.2l0,0.2l0,0.2l0,0.2l0,0.2l0,0.2l0,0.2l0,0.2l0,0.2
		l0,0.2l0,0.2l0,0.2l0,0.2l0,0.2l0,0.2l0,0.2l0,0.2l0,0.2l0,0.2l0,0.2l0,0.2l0,0.2l0,0.2l0,0.2l0,0.2l0,0.2l0,0.2l0,0.2l0,0.2l0,0.2
		l0,0L44,34.8L44,34.8z M44.1,26.9L44.1,26.9l0-0.2l0-0.2l0-0.2l0-0.2l0-0.2l0-0.2l0-0.2l0-0.2l0-0.2l0-0.2l0-0.2l0-0.2l0-0.2l0-0.2
		l0-0.2l0-0.2l0-0.2l0-0.2l0-0.2l0-0.2l0-0.1l0-0.1l0-0.1l0-0.1l0-0.1l0-0.1l0-0.1l0-0.1l0.1-0.1l0.1-0.1l0.1-0.1l0.1-0.1l0.1-0.1
		l0.1-0.1l0.1-0.1l0.1-0.1l0.1-0.1l0.1-0.1l0.1-0.1l0.1-0.1l0.1-0.1l0.1-0.1l0,0L44.7,20l0,0l-0.1,0.1l-0.1,0.1l-0.1,0.1l-0.1,0.1
		l-0.1,0.1l-0.1,0.1L44.2,21l-0.1,0.1l-0.1,0.1L44,21.5L44,21.6l-0.1,0.2l-0.1,0.2l-0.1,0.2l-0.1,0.2l-0.1,0.2l-0.1,0.2l0,0.2l0,0.2
		l0,0.2l0,0.2l0,0.2l0,0.2l0,0.2l0,0.2l0,0.2l0,0.2l0,0.2l0,0.2l0,0.2l0,0.2l0,0.2l0,0.2l0,0.2l0,0.2l0,0.2l0,0.2l0,0.2l0,0.2l0,0.2
		l0,0.2l0,0.2l0,0L44.1,26.9L44.1,26.9z"/>
	<path fill="#663333" d="M92.8,43.3c0,3.6-1.4,6.2-4.1,8c-2.8,1.8-6.4,2.6-11.1,2.6c-0.6,0-1.1,0-1.5,0c0,3.4,0.1,7.5,0.4,12.3h-4.6
		c0.2-4.4,0.4-9.8,0.4-16c0-5.4-0.1-10.2-0.4-14.5h3.4c0.4,0,1.4,0,3.1-0.1c1.7,0,3.2-0.1,4.4-0.1c3.1,0,5.5,0.7,7.3,2
		C91.9,39,92.8,40.9,92.8,43.3L92.8,43.3z M88.8,44.7c0-4-2.8-6-8.4-6c-1.4,0-2.9,0.1-4.6,0.4C76,41.5,76,45.5,76,50.9
		c0.6,0,1.2,0,2.1,0C85.2,50.9,88.8,48.8,88.8,44.7L88.8,44.7z M115.4,66.2l-3.7,0.1c-0.2-0.8-0.3-1.5-0.3-2.2h-0.2
		c-2,1.8-4.6,2.6-8,2.6c-1.8,0-3.4-0.5-4.7-1.6c-1.3-1-2-2.6-2-4.5c0-2.4,1-4.3,3.1-5.8c2.1-1.5,5.9-2.2,11.5-2.3
		c0-0.4,0.1-0.8,0.1-1.3c0-1.9-0.5-3.2-1.6-3.8c-1-0.6-2.6-1-4.7-1c-2.5,0-4.9,0.3-7.4,0.9l0.4-3.2c2.4-0.7,5.1-1,8.2-1
		c2.8,0,5,0.6,6.6,1.7c1.5,1.2,2.3,3.1,2.3,5.9c0,0.7,0,2.1-0.1,4c-0.1,1.9-0.1,3.2-0.1,3.9C114.8,61.5,115,64,115.4,66.2
		L115.4,66.2z M111.2,61.7c-0.1-2.4-0.1-4.5-0.1-6.4c-3,0-5.3,0.2-6.8,0.7c-2.6,0.8-3.9,2.3-3.9,4.5c0,2.1,1.5,3.2,4.6,3.2
		C107.6,63.6,109.7,63,111.2,61.7L111.2,61.7z M141.7,66.2h-4.3c0.3-4.1,0.5-8.6,0.5-13.4c0-2.4-0.5-4-1.5-4.9
		c-1-0.9-2.4-1.3-4.3-1.3c-2.3,0-4.3,0.8-6.2,2.4c0,5.3,0,11.1,0.1,17.3h-4.3c0.3-5.3,0.4-9.2,0.4-11.5c0-3.7-0.3-7.2-1-10.6
		l4.2-0.6l0.4,2.9h0.2c2.4-2.1,4.9-3.1,7.6-3.1c2.6,0,4.7,0.6,6.1,1.7c1.4,1.2,2.2,3.2,2.2,6.1c0,0.3,0,0.9,0,1.8c0,0.9,0,1.5,0,1.8
		C141.6,57.2,141.6,61.1,141.7,66.2L141.7,66.2z M169.7,54.4c0,4-1.2,7.1-3.5,9.4c-2.3,2.2-5.1,3.4-8.3,3.4c-3,0-5.5-1-7.6-3
		c-2.1-2-3.2-4.8-3.2-8.4c0-4,1.2-7.2,3.5-9.4c2.3-2.3,5.1-3.4,8.3-3.4c3,0,5.5,1,7.6,3C168.6,48,169.7,50.8,169.7,54.4L169.7,54.4z
		 M165.6,55.3c0-2.4-0.6-4.6-1.9-6.5c-1.3-1.9-3-2.8-5.3-2.8c-2.3,0-4.1,0.9-5.3,2.7c-1.2,1.8-1.8,3.9-1.8,6.3
		c0,2.5,0.6,4.6,1.9,6.5c1.2,1.9,3,2.8,5.4,2.8c2.3,0,4-0.9,5.3-2.7C165,59.7,165.6,57.6,165.6,55.3L165.6,55.3z M211.7,49.9
		c0,4.4-1.4,8.3-4.3,11.7c-2.9,3.3-6.9,5-11.9,5c-1.7,0-4.4-0.1-8.3-0.3c0.2-4.8,0.4-10.2,0.4-16c0-5.5-0.1-10.3-0.4-14.5h2.6
		c0.6,0,1.6,0,2.9-0.1c1.3,0,2.2-0.1,2.6-0.1c5.6,0,9.7,1.4,12.4,4.1C210.3,42.4,211.7,45.8,211.7,49.9L211.7,49.9z M207.5,50.9
		c0-3.5-1.1-6.4-3.4-8.7c-2.2-2.3-5.7-3.5-10.4-3.5c-0.7,0-1.6,0.1-2.7,0.2c0.1,3.6,0.2,7.4,0.2,11.2c0,4.2,0.1,8.5,0.3,12.8
		c1.3,0.2,2.5,0.4,3.7,0.4c4.2,0,7.3-1.2,9.4-3.7C206.5,57.3,207.5,54.4,207.5,50.9L207.5,50.9z M238.9,54.4c0,4-1.2,7.1-3.5,9.4
		c-2.3,2.2-5.1,3.4-8.3,3.4c-3,0-5.5-1-7.6-3c-2.1-2-3.2-4.8-3.2-8.4c0-4,1.2-7.2,3.5-9.4c2.3-2.3,5.1-3.4,8.3-3.4c3,0,5.5,1,7.6,3
		C237.9,48,238.9,50.8,238.9,54.4L238.9,54.4z M234.8,55.3c0-2.4-0.6-4.6-1.9-6.5c-1.3-1.9-3-2.8-5.3-2.8c-2.3,0-4.1,0.9-5.3,2.7
		c-1.2,1.8-1.8,3.9-1.8,6.3c0,2.5,0.6,4.6,1.9,6.5c1.2,1.9,3,2.8,5.4,2.8c2.3,0,4-0.9,5.3-2.7C234.2,59.7,234.8,57.6,234.8,55.3
		L234.8,55.3z M261.8,62.7l-0.2,3.1c-1.3,0.7-3,1.1-5.2,1.1c-4.1,0-7.3-1.1-9.4-3.3c-2.2-2.2-3.3-4.9-3.3-8.1c0-3.3,1.1-6.2,3.4-8.6
		c2.3-2.4,5.3-3.6,9.1-3.6c1.9,0,3.4,0.2,4.6,0.6l-0.6,3.7c-1.7-0.6-3.4-0.9-5.1-0.9c-2.3,0-4.1,0.8-5.4,2.3c-1.3,1.6-2,3.5-2,5.8
		c0,2.5,0.8,4.6,2.4,6.3c1.6,1.7,3.8,2.5,6.7,2.5C258,63.5,259.7,63.2,261.8,62.7L261.8,62.7z M286,52.5c0,0.7,0,1.6-0.1,2.7
		l-16.4,0.3c0.2,2.3,1.1,4.2,2.7,5.7c1.6,1.5,3.8,2.3,6.5,2.3c2.4,0,4.7-0.3,6.8-0.9l-0.4,3.3c-1.6,0.6-3.8,0.9-6.7,0.9
		c-4.1,0-7.3-1.1-9.5-3.3c-2.2-2.2-3.3-4.9-3.3-8.1c0-3.4,1-6.3,3-8.8c2-2.5,4.6-3.7,8-3.7c3.1,0,5.4,0.9,7,2.7
		C285.3,47.4,286,49.7,286,52.5L286,52.5z M282.1,52.5c0-4.4-1.9-6.6-5.6-6.6c-3.8,0-6.1,2.3-6.7,6.8L282.1,52.5L282.1,52.5z"/>
	<path fill="#FF6699" d="M311.6,19.6l-0.1-0.1l-0.1-0.1l-0.1-0.1l-0.1-0.1l-0.1-0.1l-0.1-0.1l-0.1-0.1l-0.1-0.1l-0.1-0.1l-0.1-0.1
		l-0.1-0.1l-0.1-0.1l-0.1-0.1l-0.1-0.1l-0.1-0.1l-0.1-0.1l-0.1-0.1l-0.1-0.1l-0.1-0.1l-0.1-0.1l-0.1-0.1l-0.1-0.1l-0.1-0.1l-0.1-0.1
		l-0.1-0.1l-0.1-0.1l-0.1-0.1l-0.1-0.1l-0.1-0.1l-0.1-0.1l-0.1-0.1l-0.1-0.1l-0.1-0.1l-0.1-0.1l-0.1-0.1l-0.1-0.1l-0.1-0.1l-0.2-0.1
		l-0.2-0.1l-0.2-0.1l-0.2-0.1l-0.2-0.1l-0.2,0l0.4-1.3l0.2,0.1l0.2,0.1l0.2,0.1l0.2,0.1l0.2,0.1l0.2,0.1l0.2,0.1l0.2,0.1l0.2,0.1
		l0.2,0.1l0.2,0.1l0.2,0.1l0.2,0.1l0.2,0.1l0.2,0.1l0.1,0.1l0.1,0.1l0.1,0.1l0.1,0.1l0.1,0.1l0.1,0.1l0.1,0.1l0.1,0.1l0.1,0.1
		l0.1,0.1l0.1,0.1l0.1,0.1l0.1,0.1l0.1,0.1l0.1,0.1l0.1,0.1l0.1,0.1l0.1,0.1l0.1,0.1l0.1,0.1l0.1,0.1l0.1,0.1l0.1,0.1l0.1,0.1
		l0.1,0.1l0.1,0.1l0.1,0.1l0.1,0.1L311.6,19.6L311.6,19.6z M307.9,89c1.7-0.6,3-1.7,4-3.2l1.2,0.7c-1.1,1.8-2.7,3.1-4.7,3.8
		L307.9,89L307.9,89z M312.6,84.6c1-2,1.5-4.1,1.9-6.2l1.4,0.2c-0.4,2.3-0.9,4.6-2,6.6L312.6,84.6L312.6,84.6z M314.6,77.1
		c0.3-2.2,0.3-4.4,0.3-6.6v0l1.4,0c0,1.2,0,2.4-0.1,3.6c-0.1,1.1-0.1,2.2-0.3,3.3L314.6,77.1L314.6,77.1z M314.9,69.1
		c-0.1-2.1-0.2-4.3-0.4-6.4l0-0.3l1.4-0.1l0,0.3c0.2,2.2,0.3,4.3,0.4,6.5L314.9,69.1L314.9,69.1z M314.4,61.1l0-0.1l0-0.3l0-0.3
		l0-0.3l0-0.3l0-0.3l0-0.3l0-0.3l0-0.3l0-0.2l0-0.2l0-0.2l0-0.2l0-0.2l0-0.2l0-0.2l0-0.2l0-0.2l0-0.2l0-0.2l0-0.2l0-0.2l0-0.2l0-0.2
		l0-0.2l0-0.2l0-0.2l0-0.2l0-0.2l0-0.2l0-0.1l1.4,0.2l0,0.1l0,0.2l0,0.2l0,0.2l0,0.2l0,0.2l0,0.2l0,0.2l0,0.2l0,0.2l0,0.2l0,0.2
		l0,0.2l0,0.2l0,0.2l0,0.2l0,0.2l0,0.2l0,0.2l0,0.2l0,0.2l0,0.2l0,0.2l0,0.3l0,0.3l0,0.3l0,0.3l0,0.3l0,0.3l0,0.3l0,0.1L314.4,61.1
		L314.4,61.1z M314.7,52.8c0.1-0.6,0.3-1.3,0.6-1.9l-0.6,0.2c-0.8-2.1-0.9-4.7-0.9-6.9l1.4,0c0,1.8,0.1,4,0.6,5.8
		c0.5-0.7,1.1-1.3,2.1-1.4c1-0.1,1.8,0.4,2.5,1l-1,1c-0.3-0.3-0.7-0.5-1.1-0.6c-0.9-0.2-1.5,0.7-1.8,1.6l0,0l0,0l0,0l0,0
		c0.8,0.4,2.7,1.2,3.5,0.9c0.3-0.1,0.2-0.5,0.1-0.7c0-0.1-0.1-0.2-0.1-0.3l1.3-0.6c0.7,1.6,0.1,3-1.8,3c-1.1-0.1-2.3-0.5-3.3-1l0,0
		L314.7,52.8L314.7,52.8z M313.8,42.9l0-0.1l0-0.2l0-0.2l0-0.2l0-0.2l0-0.2l0-0.2l0-0.2l0-0.2l0-0.2l0-0.2l0-0.2l0-0.2l0-0.2l0-0.2
		l0-0.2l0-0.2l0-0.2l0-0.2l0-0.2l0-0.2l0-0.2l0-0.2l0-0.2l0-0.2l0-0.2l0-0.2l0-0.2l0-0.2l0-0.2l0-0.2l0-0.2l0-0.2l0-0.2l0-0.2l0-0.2
		l0-0.2l0-0.2l0-0.1l1.4,0.1l0,0.1l0,0.2l0,0.2l0,0.2l0,0.2l0,0.2l0,0.2l0,0.2l0,0.2l0,0.2l0,0.2l0,0.2l0,0.2l0,0.2l0,0.2l0,0.2
		l0,0.2l0,0.2l0,0.2l0,0.2l0,0.2l0,0.2l0,0.2l0,0.2l0,0.2l0,0.2l0,0.2l0,0.2l0,0.2l0,0.2l0,0.2l0,0.2l0,0.2l0,0.2l0,0.2l0,0.2l0,0.2
		l0,0.2l0,0.1L313.8,42.9L313.8,42.9z M314.2,34.8L314.2,34.8l0-0.2l0-0.2l0-0.2l0-0.2l0-0.2l0-0.2l0-0.2l0-0.2l0-0.2l0-0.2l0-0.2
		l0-0.2l0-0.2l0-0.2l0-0.2l0-0.2l0-0.2l0-0.2l0-0.2l0-0.2l0-0.2l0-0.2l0-0.2l0-0.2l0-0.2l0-0.2l0-0.2l0-0.2l0-0.2l0-0.2l0-0.2l0-0.2
		l0-0.2l0-0.2l0-0.2l0-0.2l0-0.2l0,0l1.4-0.1l0,0l0,0.2l0,0.2l0,0.2l0,0.2l0,0.2l0,0.2l0,0.2l0,0.2l0,0.2l0,0.2l0,0.2l0,0.2l0,0.2
		l0,0.2l0,0.2l0,0.2l0,0.2l0,0.2l0,0.2l0,0.2l0,0.2l0,0.2l0,0.2l0,0.2l0,0.2l0,0.2l0,0.2l0,0.2l0,0.2l0,0.2l0,0.2l0,0.2l0,0.2l0,0.2
		l0,0.2l0,0.2l0,0.2l0,0L314.2,34.8L314.2,34.8z M314.1,26.9L314.1,26.9l0-0.2l0-0.2l0-0.2l0-0.2l0-0.2l0-0.2l0-0.2l0-0.2l0-0.2
		l0-0.2l0-0.2l0-0.2l0-0.2l0-0.2l0-0.2l0-0.2l0-0.2l0-0.2l0-0.2l0-0.2l0-0.1l0-0.1l0-0.1l0-0.1l0-0.1l0-0.1l0-0.1l0-0.1l0-0.1
		l-0.1-0.1l-0.1-0.1l-0.1-0.1l-0.1-0.1l-0.1-0.1l-0.1-0.1l-0.1-0.1l-0.1-0.1l-0.1-0.1l-0.1-0.1l-0.1-0.1l-0.1-0.1l-0.1-0.1l0,0
		l1.2-0.7l0,0l0.1,0.1l0.1,0.1l0.1,0.1l0.1,0.1l0.1,0.1l0.1,0.1L314,21l0.1,0.1l0.1,0.1l0.1,0.2l0.1,0.2l0.1,0.2l0.1,0.2l0.1,0.2
		l0.1,0.2l0.1,0.2l0.1,0.2l0,0.2l0,0.2l0,0.2l0,0.2l0,0.2l0,0.2l0,0.2l0,0.2l0,0.2l0,0.2l0,0.2l0,0.2l0,0.2l0,0.2l0,0.2l0,0.2l0,0.2
		l0,0.2l0,0.2l0,0.2l0,0.2l0,0.2l0,0.2l0,0.2l0,0.2l0,0L314.1,26.9L314.1,26.9z"/>
	<path fill-rule="evenodd" clip-rule="evenodd" fill="#BDE6BD" d="M220.2,158.7l0.1-0.2c-0.8-2.5-4.1-6.1-6.4-7.5
		c-0.1-0.1-3.2-0.3-2.4,1.3c1,2.1,4.2,7.6,6.6,8.1c1,0.2,1.5-0.2,1.4-1.3c0.2-0.1,0,0,0.1-0.1C219.5,158.7,220.1,158.8,220.2,158.7
		L220.2,158.7z"/>
	<path fill-rule="evenodd" clip-rule="evenodd" fill="#BDE6BD" d="M223.1,159.1c0.6-2.1,3.3-5,5.8-5.5c1.8-0.4,0.6,0,1.7-0.1
		c0.2,0.1,0.4,0.3,0.5,0.4l0.1,0.1c0.4,2-2.2,4.5-3.9,5.4c-1.6,0.8-4.4,2.9-4.4,0.3C222.9,158.9,223,159.4,223.1,159.1L223.1,159.1z
		"/>
	<path fill-rule="evenodd" clip-rule="evenodd" fill="#BDE6BD" d="M219.8,170.8l-0.5-0.1c-0.7-0.2-2.2-2.6-4.1-3.8
		c-0.7-0.5-3.8-1.2-3.8,0.1c-0.1,1.5,3.1,3,4.5,3.9c0.9,0.6,5.3,3.9,4.1,0.1C220,170.8,220,170.8,219.8,170.8L219.8,170.8z"/>
	<path fill-rule="evenodd" clip-rule="evenodd" fill="#BDE6BD" d="M222.1,171.9l0.1-0.2c2-3.6,3.4-3.6,6.4-5.8
		c1.1-0.8,4.2-2.4,4.2-0.1c0,1.2-1,2-2,2.9c-2.1,2-4.7,2.7-7,4c-1,0.6-1.4,0.2-1.8-0.6C222.2,172,222.1,172,222.1,171.9L222.1,171.9
		z"/>
	<path fill-rule="evenodd" clip-rule="evenodd" fill="#F7EAB4" d="M83.5,108.2c1-0.8-0.2-6.3-1.2-7.7l-0.2-0.3
		c-1.4-1.9-3.7-3.2-6-3.8c-0.2-0.1-0.6-0.1-0.9-0.1c0,0.1,3.6,6.1,4,7.1c0.2,0.5,1.9,4.4,2.1,4.4c0.2,0.6,0.1,0.6,0.2,1
		c-4.5-0.8-5.9-2.7-10.7-2.3c-2.1,0.2-3.7-0.3-5.7,0.5c-0.7,0.3-1.9,0.3-0.9,2.1c1.7,3,9.4,2.3,12.7,2.3c1.1,0,1.3-0.5,2.9-0.5
		c-1.7,1-9.6,0-14.5,3.1c-2.9,1.8-2.4,0.9-3.9,3.6c-0.6,1.2,1.7,3.1,4.1,2.8c3-0.4,2.4,0,5.7-1.3c5.1-1.9,7.6-2.5,12.6-5.3l0.8-0.4
		c0.5-0.3,0.1-0.1,0.4-0.3c1.1,0.6-1.5,1.7,5.1,1.7c3.1,0,7.8,0.5,10.5-0.1c2.4-0.5,8.2-0.4,11.4-0.6c2.4-0.2,2.9,0.7,4.7-1.1
		c0.9-0.8-0.8-2.3-2.6-2.3c-4.3,0-8.5,0-12.8,0.1c-2.4,0-4.8-0.3-7.4-0.2c-0.1,0-1,0-1-0.2l0.4-0.4c1.3-1.1,4.6-1.5,6.8-2.6
		c3.2-1.6,3.3-0.1,6.4-2.8c0.1-0.1,2.3-1.9,2.6-1.9c0-2.4-4.5,0.5-5.7,1c-4.2,1.8-9.9,3.2-14.3,4.6c-1.3,0.4-5.5,1.4-6.8,1.1
		c-0.2-0.7,0.9-0.9,1-1.2C83.4,108.2,83.4,108.2,83.5,108.2L83.5,108.2z"/>
	<path fill-rule="evenodd" clip-rule="evenodd" fill="#FCCDE4" d="M130.8,146.8c1.4-1.3,7.8-0.3,12.2-4.9l0.5-0.3
		c0.4-0.3,0.9-0.8,1.4-0.9c0.2-0.4,0.3-0.5,0.4-1c3.7-0.5-1.4-14.8-7.3-15.9c-0.2-1.5-12.8-1.2-17.2,1.4c-6,3.5-3.7,3.9-4.6,9.3
		c5.6,5.3-2.2,4,14.3,10.7c0.4,0.2,0.5,0.2,0.5,0.7c0.9,0.1,0.8,1.3,0.4,1.9C130.9,147.4,130.5,147.1,130.8,146.8L130.8,146.8z"/>
	<path fill-rule="evenodd" clip-rule="evenodd" fill="#FCCDE4" d="M218.3,111.9l-0.5,0.1c-3.1,0.4-9.2,2-10.4,5.2
		c-1.5,3.9,4,6.8,7.4,7.7c2.9,0.8,11.8,1,14-0.6c1.6-1.1,2.6-4.1,1-6.2c-2.5-3.4-4.7-4.9-9.1-5.5c-0.3,0-0.8-0.3-1-0.2
		c-0.1-0.1-0.1-0.1-0.2-0.2C219.1,112.2,218.7,111.8,218.3,111.9L218.3,111.9z"/>
	<path fill-rule="evenodd" clip-rule="evenodd" fill="#F7EAB4" d="M214.7,128.4c0,0,1.9,7.4,2,8.7c0.4,3.7-0.8,2.4,6.4,2.5
		c1.9,0,4.1,0,5.9-0.6c0.1,0,0.2,0,0.3,0c0-0.1,0.7-2.5,0.7-3.4c0-0.7,0-5.7-0.2-6.1c-1.6-1.9-0.9-0.6-4.5-0.6
		c-4.3-0.1-5.5,0.4-9.9-0.4C214.9,128.6,214.7,128.4,214.7,128.4L214.7,128.4z"/>
	<path fill-rule="evenodd" clip-rule="evenodd" fill="#BDE6BD" d="M251.5,111.3c2.2,2.3,1.4,1.3,2.5,2.9c-0.1,6.3-1.4,4,0.1,11
		c2.6,11.8,2.6,4.4,16.4,8.4c3.3,1,13.3,1.2,14.3-2.2c2.5-8.3,2-4,2-12.6c0-1-0.4-5-1.5-5.5c-7.1-1.7-21,0.8-29.9-1.3
		C254.1,111.6,253.3,113.1,251.5,111.3L251.5,111.3z"/>
	<path fill="#663333" d="M85.2,172.5L85.2,172.5l0,0.2l0,0.2l0,0.2l0,0.2l0,0.2l0,0.2l0,0.2l0,0.2l0,0.2l0,0.2l0,0.2l0,0.2l0,0.2
		l0,0.2l0,0.2l0,0.2l0,0.2l0,0.2l0,0.2l0,0.2l0,0.2l0,0.2l0,0.2l0,0.2l0,0.2l0,0.2l0,0.2l0,0.1l0,0.1l0,0.1l0,0.1l0,0.1l0,0.1l0,0.1
		l0,0.1l0,0.1l0,0.1l0,0.1l0,0.1l0,0.1l0,0.1l0,0.1l0,0.1l1.5,0.3l0-0.1l0-0.1l0-0.1l0-0.1l0-0.1l0-0.1l0-0.1l0-0.1l0-0.1l0-0.1
		l0-0.1l0-0.1l0-0.1l0-0.2l0-0.2l0-0.2l0-0.2l0-0.2l0-0.2l0-0.2l0-0.2l0-0.2l0-0.2l0-0.2l0-0.2l0-0.2l0-0.2l0-0.2l0-0.2l0-0.2l0-0.2
		l0-0.2l0-0.2l0-0.2l0-0.2l0-0.2l0-0.2l0-0.2l0-0.2l0-0.2l0-0.2l0-0.2l0-0.2l0,0L85.2,172.5L85.2,172.5z M85.4,113.5L85.4,113.5
		L85.4,113.5L85.4,113.5L85.4,113.5L85.4,113.5L85.4,113.5L85.4,113.5L85.4,113.5L85.4,113.5L85.4,113.5L85.4,113.5L85.4,113.5
		l0-0.1l0,0l0,0l0,0l0,0l0,0v0v0l0,0c-0.2-0.4-0.6-0.6-1.1-0.4c0,0-0.1,0.1-0.1,0.1c-1.8,1.5-3.7,3-5.7,4.1l0.7,1.3
		c2.2-1.2,4.2-2.7,6-4.3C85.3,114,85.4,113.7,85.4,113.5L85.4,113.5L85.4,113.5L85.4,113.5z M84.5,113.5l-0.5,0.1l0.2-0.5
		L84.5,113.5L84.5,113.5z M77.1,117.9c-2.2,1-4.5,1.5-6.9,1.6l0.1,1.5c2.7-0.1,5.1-0.6,7.5-1.7L77.1,117.9L77.1,117.9z M68.7,119.5
		c-2.3,0-4.6-0.4-6.9-0.8l-0.1,0.7l0.1-0.4l-0.9,0.2l0,0.1l0,0.1l0,0.1l0,0.1l0,0.1l0,0.1c0.1,0.3,0.3,0.4,0.6,0.5
		c2.3,0.4,4.7,0.8,7.1,0.8L68.7,119.5L68.7,119.5z M62.4,117.8c0.6-1.7,4-3,5.6-3.5l-0.5-1.4c-2.1,0.7-5.7,2.1-6.5,4.4L62.4,117.8
		L62.4,117.8z M69.4,113.9c2.3-0.7,4.8-1.1,7.2-1.5l-0.2-1.4c-0.3,0-0.5,0.1-0.8,0.1l0-0.6c-0.4,0-0.8,0-1.2,0c-2.1,0-4.1,0-6.2,0
		l0,0l0,1.5c0.3,0,0.6,0,0.9,0c0.7,0,1.4,0,2.1,0c-0.7,0.2-1.4,0.4-2.1,0.5L69.4,113.9L69.4,113.9z M78,112.2
		c0.8-0.1,1.7-0.2,2.5-0.3c0.2,0,0.3,0,0.5,0l0.2,0c0.9,0,1-1.2,0.2-1.4c0,0-0.1,0-0.1,0L78,112.2L78,112.2z M81.3,110.4L81.3,110.4
		L81.3,110.4L81.3,110.4L81.3,110.4L81.3,110.4L81.3,110.4L81.3,110.4L81.3,110.4L81.3,110.4L81.3,110.4L81.3,110.4L81.3,110.4
		L81.3,110.4L81.3,110.4L81.3,110.4L81.3,110.4L81.3,110.4L81.3,110.4L81.3,110.4L81.3,110.4L81.3,110.4L81.3,110.4L81.3,110.4
		c-0.1,0-0.2,0-0.3,0c-1.3,0-2.7,0-4,0l0,1.5l0.9,0l0,0.3L81.3,110.4L81.3,110.4z M66.7,110.3L66.7,110.3L66.7,110.3L66.7,110.3
		L66.7,110.3L66.7,110.3l-0.1,0l0,0l0,0l0,0l0,0l0,0l0,0l0,0l0,0c-0.8-0.3-2.4-1-3-1.7c0,0-0.1-0.1-0.1-0.2l0,0v0c0,0,0,0,0-0.1
		c0.3-0.3,0.9-0.5,1.3-0.6l-0.4-1.4c-0.9,0.3-1.9,0.7-2.3,1.5c-0.7,1.7,1.7,2.8,2.9,3.4c0.3,0.1,0.7,0.3,1,0.4l0,0l0,0l0,0l0,0l0,0
		l0,0l0,0l0,0l0,0l0,0l0,0l0,0l0,0l0,0l0,0l0,0l0,0l0,0l0,0h0L66.7,110.3L66.7,110.3z M66.1,107.4c2.3-0.4,4.9-0.3,7.2-0.1l0.2-1.5
		c-2.4-0.3-5.1-0.3-7.5,0.1l-0.2,0L66.1,107.4L66.1,107.4z M74.8,107.6c2.1,0.4,4.8,1.1,6.4,2.6l0.3-0.4c0.2,0.4,0.4,0.8,0.5,1.3
		l-0.1,0l0,0l0,0.1l0,0.1l0,0.1l0,0.1l0,0.1l0,0l0,0l0,0c0.1,0.2,0.3,0.4,0.6,0.4c0.5,0.1,0.9-0.4,0.8-0.9l0-0.1l0,0l0,0l0,0l0,0
		l0.1,0l0,0l0.1,0l0,0l0.1,0l0,0l0.1,0l0,0l0,0l0,0l0,0l0,0l0,0l0,0l0,0l0.1,0l0,0l0,0l0,0l0,0l0,0l0,0l0,0l0,0l0.1,0l0,0l0,0l0,0
		l0,0l0,0l0,0l0,0l0,0l0,0l0,0l0,0l0,0l0,0h0l0.1-0.1c1.2-0.1,3-0.8,4-1.2c0.4-0.2,0.8-0.3,1.2-0.5l-0.6-1.3c-1.2,0.5-2.5,1-3.7,1.4
		c-0.3,0.1-0.8,0.2-1.2,0.2c-0.3,0-0.5,0.1-0.6,0.2c-0.1,0.1-0.2,0.2-0.3,0.3v0l0,0l0,0l0,0l0,0l0,0l0,0l0,0l0,0
		c-0.3-0.7-0.7-1.5-1.1-2.1c-0.5-0.9-1-1.8-1.6-2.7l-1.3,0.7c0.5,0.8,1,1.6,1.5,2.5c-1.7-0.9-3.7-1.5-5.5-1.8L74.8,107.6L74.8,107.6
		z M83.1,109.5L83.1,109.5L83.1,109.5L83.1,109.5L83.1,109.5L83.1,109.5L83.1,109.5z M83.1,109.5L83.1,109.5L83.1,109.5L83.1,109.5
		L83.1,109.5L83.1,109.5L83.1,109.5L83.1,109.5C83.1,109.5,83.2,109.5,83.1,109.5L83.1,109.5L83.1,109.5L83.1,109.5L83.1,109.5
		L83.1,109.5L83.1,109.5L83.1,109.5L83.1,109.5L83.1,109.5L83.1,109.5L83.1,109.5L83.1,109.5C83.2,109.5,83.2,109.5,83.1,109.5
		L83.1,109.5L83.1,109.5L83.1,109.5L83.1,109.5L83.1,109.5L83.1,109.5L83.1,109.5L83.1,109.5L83.1,109.5L83.1,109.5L83.1,109.5
		L83.1,109.5L83.1,109.5z M83.1,109.5L83.1,109.5L83.1,109.5L83.1,109.5L83.1,109.5L83.1,109.5z M79.6,103.4c-0.5-0.8-1-1.6-1.5-2.5
		c-0.6-1-1.2-2.2-1.6-3.3c-0.1-0.2-0.1-0.3-0.1-0.5l0,0L75,97.4c0.1,0.6,0.3,1.1,0.6,1.7c0.8,1.8,1.8,3.4,2.8,5.1l0,0L79.6,103.4
		L79.6,103.4z M76.2,97l0.1-1.5l0.6,0l-0.1,1.5c0.9,0,2,0.8,2.8,1.1c0.1,0,0.1,0,0.2,0.1c0.4,0.9,0.9,1.7,1.7,2.4l1.1-1l0,0
		c-0.7-0.7-1.1-1.4-1.5-2.3c-0.1-0.2-0.3-0.4-0.5-0.4c-0.8-0.2-1.5-0.7-2.2-1c-0.4-0.2-1-0.3-1.4-0.3L76.2,97L76.2,97z M76.9,97.1
		l-0.6,0L76.9,97.1L76.9,97.1z M76.9,97.1L76.9,97.1L76.9,97.1L76.9,97.1z M82.6,101.6c0.7,0.8,0.8,1.6,0.7,2.6
		c0,1.3-0.3,2.6-0.6,3.9l1.5,0.3c0.3-1.2,0.5-2.4,0.6-3.7c0.1-1.5,0-2.9-1.1-4L82.6,101.6L82.6,101.6z M83.5,110.9L83.5,110.9
		L83.5,110.9L83.5,110.9z M83.5,110.9L83.5,110.9L83.5,110.9L83.5,110.9z M90.9,108.1c2.3-1,4.5-2.1,6.8-3.1l-0.6-1.3
		c-2.3,1-4.5,2.1-6.8,3.1L90.9,108.1L90.9,108.1z M99,104.4c1.8-0.8,3.7-1.6,5.6-2.1c0.4-0.1,0.8-0.2,1.2-0.3l-0.2-1.5
		c-0.7,0.1-1.4,0.3-2.1,0.5c-1.8,0.5-3.5,1.3-5.2,2L99,104.4L99,104.4z M107.2,102c0.6,0,1.2,0.1,1.7,0.1c0.3,0,1.2,0.2,1.4,0.4
		c-0.1-0.1-0.1-0.2-0.1-0.3c0,0.1-0.3,0.3-0.4,0.4c-0.5,0.4-1.2,0.7-1.8,1l0.7,1.3c0.8-0.4,1.8-0.9,2.5-1.6c0.8-0.8,0.6-1.7-0.5-2.2
		c-1-0.4-2.5-0.5-3.6-0.5L107.2,102L107.2,102z M106.9,104.2L106.9,104.2l-0.2,0.1l-0.1,0.1l-0.1,0.1l-0.1,0.1l-0.1,0.1l-0.1,0.1
		l-0.1,0.1l-0.1,0.1l-0.1,0.1l-0.2,0.1l-0.2,0.1l-0.2,0.1L105,105l-0.2,0.1l-0.2,0.1l-0.2,0.1l-0.2,0.1l-0.2,0.1l-0.2,0.1l-0.2,0.1
		l-0.2,0.1l-0.2,0.1l-0.2,0.1l-0.2,0.1l-0.2,0.1l-0.2,0.1l-0.2,0.1l-0.2,0.1l-0.2,0.1l-0.2,0.1l-0.2,0.1l-0.2,0.1l-0.2,0.1l-0.2,0.1
		l-0.2,0.1l-0.2,0.1l-0.2,0.1l-0.2,0.1l-0.2,0.1l-0.2,0.1l-0.2,0.1l-0.2,0.1l0,0l0.5,1.4l0,0l0.2-0.1l0.2-0.1l0.2-0.1l0.2-0.1
		l0.2-0.1l0.2-0.1l0.2-0.1l0.2-0.1l0.2-0.1l0.2-0.1l0.2-0.1l0.2-0.1l0.2-0.1l0.2-0.1l0.2-0.1l0.2-0.1l0.2-0.1l0.2-0.1l0.2-0.1
		l0.2-0.1l0.2-0.1l0.2-0.1l0.2-0.1l0.2-0.1l0.2-0.1l0.2-0.1l0.2-0.1l0.2-0.1l0.2-0.1l0.2-0.1l0.2-0.1l0.2-0.1l0.2-0.1l0.2-0.1
		l0.2-0.1l0.1-0.1l0.1-0.1l0.1-0.1l0.1-0.1l0.1-0.1l0.1-0.1l0.1-0.1l0,0L106.9,104.2L106.9,104.2z M98.6,107.2L98.6,107.2l-0.2,0.1
		l-0.2,0.1l-0.2,0.1l-0.2,0.1l-0.2,0.1l-0.2,0.1l-0.2,0.1l-0.2,0.1l-0.2,0.1l-0.2,0.1l-0.2,0.1l-0.2,0.1l-0.2,0.1L96,108l-0.2,0.1
		l-0.2,0.1l-0.2,0.1l-0.2,0.1l-0.2,0.1l-0.2,0.1l-0.2,0.1l-0.2,0.1l-0.2,0.1l-0.2,0.1l-0.2,0.1l-0.2,0.1l-0.2,0.1l-0.2,0.1l-0.2,0.1
		l-0.2,0.1L93,109l-0.2,0.1l-0.2,0.1l-0.2,0.1l-0.2,0.1l-0.2,0l-0.2,0l-0.2,0l-0.2,0l-0.1,0c-0.9,0.1-1.8,0.2-2.6,0.3
		c-0.2,0-0.4,0.1-0.6,0.1l0.1,0.5l-1.5,0.4l-0.2-0.6l-0.1,0l-0.1,0l-0.1,0l-0.1,0l-0.1,0l-0.1,0l-0.1,0l-0.1,0l-0.1,0l-0.1,0l-0.1,0
		l-0.1,0l-0.1,0l-0.1,0l-0.1,0l-0.1,0l-0.1,0l-0.1,0l-0.1,0l-0.1,0l-0.1,0l-0.1,0l-0.1,0l-0.1,0l-0.1,0.1l-0.1,0.1l-0.1,0.1
		l-0.1,0.1l0,0.1l0,0.1l0,0.1l0,0.1l0,0.1l0,0.1l0,0.1l0,0.1l0,0.1l0,0.1c0,0.6,0.6,0.9,1,0.7c0.1,0,0.2-0.1,0.2-0.1
		c1.6-0.5,3.2-0.9,4.7-1.4l-0.1-0.2c1.8-0.2,3.7-0.3,5.5-0.4l0-0.9l0,0l0.2-0.1l0.2-0.1l0.2-0.1l0.2-0.1l0.2-0.1l0.2-0.1l0.2-0.1
		l0.2,0l0.1,1.3l0,0l0.2,0l0.2,0l0.2,0l0.2,0l0.2,0l0.2,0l0.2,0l0.2,0l0.2,0l0.2,0l0.2,0l0.2,0l0.2,0l0.2,0l0.2,0l0.2,0l0.2,0l0.2,0
		l0.2,0l0.2,0l0.2,0l0.2,0l0.2,0l0.2,0l0.2,0l0.2,0l0.2,0l0.2,0l0.2,0l0.2,0l0.2,0l0.2,0l0.2,0l0.2,0l0.2,0l0.2,0l0.2,0l0.2,0l0.2,0
		l0.2,0l0.1,0l0-1.5l-0.1,0l-0.2,0l-0.2,0l-0.2,0l-0.2,0l-0.2,0l-0.2,0l-0.2,0l-0.2,0l-0.2,0l-0.2,0l-0.2,0l-0.2,0l-0.2,0l-0.2,0
		l-0.2,0l-0.2,0l-0.2,0l-0.2,0l-0.2,0l-0.2,0l-0.2,0l-0.2,0l-0.2,0l-0.2,0l-0.2,0l-0.2,0l-0.2,0l-0.2,0l-0.2,0l-0.2,0l-0.2,0l-0.2,0
		l-0.2,0l-0.2,0l-0.2,0l-0.2,0l-0.2,0l-0.1,0l0.1,0l0.2-0.1l0.2-0.1l0.2-0.1l0.2-0.1l0.2-0.1l0.2-0.1l0,0L98.6,107.2L98.6,107.2z
		 M106.3,110.3L106.3,110.3l0.3,0l0.2,0l0.2,0l0.2,0l0.2,0l0.2,0l0.2,0l0.2,0l0.2,0h0.2h0.2h0.2l0.2,0l0.2,0h0.2l0.2,0l0.2,0l0.2,0
		l0.2,0l0.2,0l0.2,0l0.2,0l0.2,0l0.2,0l0.2,0l0.2,0l0.2,0l0.2,0l0.2,0l0.2,0l0.2,0l0.2,0l0.2,0l0.2,0l0.2,0l0.2,0l0.2,0l0.2,0l0.1,0
		l0.1,0l0.1,0l0.1,0l0.1,0l0.1,0l0.1,0l0-1.5l-0.1,0l-0.1,0l-0.1,0l-0.1,0l-0.1,0l-0.1,0l-0.2,0l-0.2,0l-0.2,0l-0.2,0l-0.2,0l-0.2,0
		l-0.2,0l-0.2,0l-0.2,0l-0.2,0l-0.2,0l-0.2,0l-0.2,0l-0.2,0l-0.2,0l-0.2,0l-0.2,0l-0.2,0l-0.2,0l-0.2,0l-0.2,0l-0.2,0l-0.2,0l-0.2,0
		l-0.2,0h-0.2l-0.2,0h-0.2h-0.2H108l-0.2,0h-0.2l-0.2,0l-0.2,0l-0.2,0l-0.2,0l-0.2,0l-0.2,0l-0.2,0l-0.1,0L106.3,110.3L106.3,110.3z
		 M115.2,110.3l0.1,0l0.1,0l0.1,0l0.1,0l0.1,0l0.1,0l0.1,0l0.1,0l0.1,0l0.1,0l0.1,0l0.1,0l0.1,0l0.1,0l0.1,0l0.1,0l0.1,0l0.1,0
		l0.1,0l0.1,0l0.1,0l0.1,0l0.1,0l0.1,0l0.1,0l0.1,0l0,0l0,0l0,0.1l0,0.1l0,0.1l0,0.1l0,0.1l0,0.1l0,0.1l0,0.1l0,0.1l0,0.1l0,0.1
		l-0.1,0.1l-0.1,0.1l-0.1,0.1l-0.1,0.1l-0.1,0.1l-0.1,0.1l-0.1,0.1l-0.1,0.1l-0.1,0.1l-0.1,0.1l-0.1,0.1l-0.1,0.1l-0.1,0.1l-0.1,0.1
		l-0.1,0.1l-0.1,0.1l0,0l0.7,1.3l0.1,0l0.1-0.1l0.1-0.1l0.1-0.1l0.1-0.1l0.1-0.1l0.1-0.1l0.1-0.1l0.1-0.1l0.1-0.1l0.1-0.1l0.1-0.1
		l0.1-0.1l0.1-0.1l0.1-0.1l0.1-0.1l0.1-0.1l0.1-0.1l0.1-0.1l0.1-0.1l0.1-0.1l0.1-0.1l0.1-0.1l0.1-0.1l0.1-0.1l0.1-0.1l0-0.1l0-0.1
		l0-0.1l0-0.1l0-0.1l0-0.1l0-0.1l0-0.1l0-0.1l0-0.1l0-0.1l0-0.1l0-0.1c0-0.5-0.4-0.7-0.7-0.7l0,0h0l-0.1,0h-0.1l-0.1,0l-0.1,0
		l-0.1,0l-0.1,0l-0.1,0l-0.1,0l-0.1,0l-0.1,0l-0.1,0l-0.1,0l-0.1,0l-0.1,0l-0.1,0l-0.1,0l-0.1,0l-0.1,0l-0.1,0l-0.1,0l-0.1,0l-0.1,0
		l-0.1,0l-0.1,0l-0.1,0l-0.1,0l-0.1,0l-0.1,0l-0.1,0l-0.1,0l-0.1,0l-0.1,0l-0.1,0l-0.1,0l-0.1,0l-0.1,0l-0.1,0l-0.1,0l-0.1,0
		L115.2,110.3L115.2,110.3z M115.2,112.5L115.2,112.5l-0.2,0.1l-0.1,0l-0.1,0l-0.1,0l-0.1,0l-0.1,0l-0.1,0l-0.1,0l-0.1,0l-0.1,0
		l-0.1,0l-0.1,0l-0.1,0l-0.1,0l-0.1,0l-0.2,0l-0.2,0l-0.2,0l-0.2,0l-0.2,0l-0.2,0l-0.2,0l-0.2,0l-0.2,0l-0.2,0l-0.2,0l-0.2,0l-0.2,0
		l-0.2,0l-0.2,0l-0.2,0l-0.2,0l-0.2,0l-0.2,0l-0.2,0l-0.2,0l-0.2,0l-0.2,0l-0.2,0l-0.2,0l-0.2,0l-0.2,0l-0.2,0l-0.2,0l0,0l0.1,1.5
		l0,0l0.2,0l0.2,0l0.2,0l0.2,0l0.2,0l0.2,0l0.2,0l0.2,0l0.2,0l0.2,0l0.2,0l0.2,0l0.2,0l0.2,0l0.2,0l0.2,0l0.2,0l0.2,0l0.2,0l0.2,0
		l0.2,0l0.2,0l0.2,0l0.2,0l0.2,0l0.2,0l0.2,0l0.2,0l0.2,0l0.2,0l0.2,0l0.2,0l0.2,0l0.2,0l0.2,0l0.1,0l0.1,0l0.1,0l0.1,0l0.1,0l0.1,0
		l0.1,0l0.1,0l0.1,0l0.1,0L115.2,112.5L115.2,112.5z M106.6,113.9L106.6,113.9l-0.2,0l-0.2,0l-0.2,0l-0.2,0l-0.2,0l-0.2,0l-0.2,0
		l-0.2,0l-0.2,0l-0.2,0l-0.2,0l-0.2,0l-0.2,0l-0.2,0l-0.2,0l-0.2,0l-0.2,0l-0.2,0l-0.2,0l-0.2,0l-0.2,0l-0.2,0l-0.2,0l-0.2,0l-0.2,0
		l-0.2,0l-0.2,0l-0.2,0l-0.2,0l-0.2,0l-0.2,0l-0.2,0l-0.2,0l-0.2,0l-0.2,0l-0.2,0l-0.1,0l0,1.5l0.1,0l0.2,0l0.2,0l0.2,0l0.2,0l0.2,0
		l0.2,0l0.2,0l0.2,0l0.2,0l0.2,0l0.2,0l0.2,0l0.2,0l0.2,0l0.2,0l0.2,0l0.2,0l0.2,0l0.2,0l0.2,0l0.2,0l0.2,0l0.2,0l0.2,0l0.2,0l0.2,0
		l0.2,0l0.2,0l0.2,0l0.2,0l0.2,0l0.2,0l0.2,0l0.2,0l0.2,0l0.2,0l0,0L106.6,113.9L106.6,113.9z M97.6,114.4L97.6,114.4l-0.3,0l-0.2,0
		l-0.2,0l-0.2,0l-0.2,0l-0.2,0l-0.2,0l-0.2,0l-0.2,0l-0.2,0l-0.2,0l-0.2,0l-0.2,0l-0.2,0l-0.2,0l-0.2,0l-0.2,0l-0.2,0l-0.2,0l-0.2,0
		l-0.2,0l-0.2,0l-0.2,0l-0.2,0l-0.2,0l-0.2,0l-0.2,0l-0.2,0l-0.2,0l-0.2,0l-0.2,0l-0.2,0l-0.2,0l-0.2,0l-0.2,0l-0.2,0l-0.2,0l-0.2,0
		l-0.1,0l0.1,1.5l0.1,0l0.2,0l0.2,0l0.2,0l0.2,0l0.2,0l0.2,0l0.2,0l0.2,0l0.2,0l0.2,0l0.2,0l0.2,0l0.2,0l0.2,0l0.2,0l0.2,0l0.2,0
		l0.2,0l0.2,0l0.2,0l0.2,0l0.2,0l0.2,0l0.2,0l0.2,0l0.2,0l0.2,0l0.2,0l0.2,0l0.2,0l0.2,0l0.2,0l0.2,0l0.2,0l0.2,0l0.2,0l0.2,0l0.2,0
		l0.1,0L97.6,114.4L97.6,114.4z M88.6,114.8c-1.1,0.1-2.2,0.3-3.4,0.5c-1.2,0.3-2.8,0.7-3.3,2l0,0.1l0,0.1l0,0.1l0,0.1l0,0.1l0,0.1
		l0,0.1l0,0.1l0,0.1l0,0.1l0,0l1.5,0.2l0,0l0-0.1l0-0.1l0-0.1l0-0.1l0-0.1l0-0.1l0-0.1l0-0.1l0,0l0,0c0.5-1.1,4.4-1.5,5.4-1.6
		L88.6,114.8L88.6,114.8z M81.6,119.8L81.6,119.8l0,0.2l0,0.2l0,0.2l0,0.2l0,0.2l0,0.2l0,0.2l0,0.2l0,0.2l0,0.2l0,0.2v0.2l0,0.2
		l0,0.2l0,0.2l0,0.2l0,0.2l0,0.2l0,0.2l0,0.2l0,0.2l0,0.2l0,0.2l0,0.2l0,0.2l0,0.2l0,0.2l0,0.2l0,0.2l0,0.2l0,0.2l0,0.2l0,0.2l0,0.2
		l0,0.2l0,0.2l0,0.2l1.5-0.1l0-0.2l0-0.2l0-0.2l0-0.2l0-0.2l0-0.2l0-0.2l0-0.2l0-0.2l0-0.2l0-0.2l0-0.2l0-0.2l0-0.2l0-0.2l0-0.2
		l0-0.2l0-0.2l0-0.2l0-0.2l0-0.2l0-0.2l0-0.2l0-0.2l0-0.2v-0.2l0-0.2l0-0.2l0-0.2l0-0.2l0-0.2l0-0.2l0-0.2l0-0.2l0-0.1l0-0.1l0-0.1
		l0-0.1L81.6,119.8L81.6,119.8z M81.8,128.7l0,0.1l0,0.3l0,0.3l0,0.3l0,0.3l0,0.3l0,0.3l0,0.3l0,0.3l0,0.3l0,0.3l0,0.3l0,0.3l0,0.3
		l0,0.3l0,0.3l0,0.3l0,0.3l0,0.3l0,0.3l0,0.3l0,0.3l0,0.3l0,0.3l0,0.3l0,0.3l0,0.2l1.5-0.1l0-0.2l0-0.3l0-0.3l0-0.3l0-0.3l0-0.3
		l0-0.3l0-0.3l0-0.3l0-0.3l0-0.3l0-0.3l0-0.3l0-0.3l0-0.3l0-0.3l0-0.3l0-0.3l0-0.3l0-0.3l0-0.3l0-0.3l0-0.3l0-0.3l0-0.3l0-0.3l0-0.1
		L81.8,128.7L81.8,128.7z M82.4,137.5l0,0.2l0,0.3l0,0.3l0,0.3l0,0.3l0,0.3l0,0.3l0,0.3l0,0.3l0,0.3l0,0.3l0,0.3l0,0.3l0,0.3l0,0.3
		l0,0.3l0,0.3l0,0.3l0,0.3l0,0.3l0,0.3l0,0.3l0,0.3l0,0.2l1.5-0.1l0-0.2l0-0.3l0-0.3l0-0.3l0-0.3l0-0.3l0-0.3l0-0.3l0-0.3l0-0.3
		l0-0.3l0-0.3l0-0.3l0-0.3l0-0.3l0-0.3l0-0.3l0-0.3l0-0.3l0-0.3l0-0.3l0-0.3l0-0.3l0-0.2L82.4,137.5L82.4,137.5z M83.2,146.2l0,0.3
		l0,0.3l0,0.3l0,0.3l0,0.3l0,0.3l0,0.3l0,0.3l0,0.3l0,0.3l0,0.3l0,0.3l0,0.3l0,0.3l0,0.3l0,0.3l0,0.3l0,0.3l0,0.3l0,0.3l0,0.3l0,0.3
		l0,0.2l1.5-0.1l0-0.2l0-0.3l0-0.3l0-0.3l0-0.3l0-0.3l0-0.3l0-0.3l0-0.3l0-0.3l0-0.3l0-0.3l0-0.3l0-0.3l0-0.3l0-0.3l0-0.3l0-0.3
		l0-0.3l0-0.3l0-0.3l0-0.3l0-0.3L83.2,146.2L83.2,146.2z M84,155l0,0.2l0,0.3l0,0.3l0,0.3l0,0.3l0,0.3l0,0.3l0,0.3l0,0.3l0,0.3
		l0,0.3l0,0.3l0,0.3l0,0.3l0,0.3l0,0.3l0,0.3l0,0.3l0,0.3l0,0.3l0,0.3l0,0.3l0,0.3l0,0.2l1.5-0.1l0-0.2l0-0.3l0-0.3l0-0.3l0-0.3
		l0-0.3l0-0.3l0-0.3l0-0.3l0-0.3l0-0.3l0-0.3l0-0.3l0-0.3l0-0.3l0-0.3l0-0.3l0-0.3l0-0.3l0-0.3l0-0.3l0-0.3l0-0.3l0-0.2L84,155
		L84,155z M84.7,163.8L84.7,163.8l0,0.4l0,0.3l0,0.3l0,0.3l0,0.3l0,0.3l0,0.3l0,0.3l0,0.3l0,0.3l0,0.3l0,0.3l0,0.3l0,0.3l0,0.3
		l0,0.3l0,0.3l0,0.3l0,0.3l0,0.3l0,0.3l0,0.3l0,0.3l0,0.3l0,0.2l0,0.2l0,0.2l1.5-0.1l0-0.2l0-0.2l0-0.3l0-0.3l0-0.3l0-0.3l0-0.3
		l0-0.3l0-0.3l0-0.3l0-0.3l0-0.3l0-0.3l0-0.3l0-0.3l0-0.3l0-0.3l0-0.3l0-0.3l0-0.3l0-0.3l0-0.3l0-0.3l0-0.3l0-0.3l0-0.3l0-0.3l0-0.1
		L84.7,163.8L84.7,163.8z"/>
	<path fill="#663333" d="M134,175.2c0,2.3,0,4.7,0,7v0.3h1.5c0-2.4,0-4.9,0-7.3v0L134,175.2L134,175.2z M136.6,131.6
		c0.2,0,0.4,0,0.5,0.2c0.2,0.3,0.1,1.1,0,1.4l1.4,0.4c0.4-1.3,0.3-3-1.3-3.3c-0.2,0-0.4-0.1-0.6-0.1V131.6L136.6,131.6z
		 M136.6,134.4L136.6,134.4L136.6,134.4L136.6,134.4L136.6,134.4L136.6,134.4L136.6,134.4L136.6,134.4L136.6,134.4l0.6,0.5l0.1,0.7
		c0.3,0,0.5-0.2,0.6-0.4l0,0l0,0l0,0l0,0l0,0l0,0l0,0c0.1-0.4-0.1-0.9-0.6-1c0,0-0.1,0-0.1,0l0,0.6L136.6,134.4L136.6,134.4
		L136.6,134.4z M136.7,134.4l0.5-0.3c-0.8,0.1-2.4,0.2-3.1-0.1l0,0l-0.1,0l0,0l0,0l0,0l0,0h0l0,0l0,0l0,0c0,0-0.2-0.2-0.2-0.2
		c-0.6-0.6-1-1.3-0.9-2.1v0l-1.5-0.2c-0.2,1.4,0.6,2.7,1.7,3.6l1-1.1L136.7,134.4L136.7,134.4z M133,135.1c0.9,0.8,3.1,0.6,4.2,0.5
		l0.1,0L133,135.1L133,135.1z M133,135.1L133,135.1L133,135.1L133,135.1z M133.1,130.6c1.1-1.8,3.7-2.6,5.7-2.1l0.4-1.4
		c-2.5-0.6-5.5,0.3-7.1,2.3c-0.1,0.1-0.2,0.3-0.3,0.4L133.1,130.6L133.1,130.6z M140.1,129L140.1,129L140.1,129l0.1,0.1l0,0l0.1,0
		l0,0l0,0l0,0l0,0l0,0l0,0l0,0l0,0l0,0l0,0l0,0l0,0l0,0l0,0l0,0l0,0l0,0l0,0l0,0l0,0.1l0,0.1l0,0.1l0,0.1l0,0.1
		c1,1.3,1.8,2.8,2.2,4.4l1.5-0.3c-0.4-1.8-1.3-3.5-2.5-5l-0.1-0.1l-0.1-0.1l-0.1-0.1l-0.1-0.1l-0.1-0.1l-0.1-0.1l-0.1-0.1l-0.1-0.1
		l-0.1-0.1l-0.1-0.1l-0.1-0.1l-0.1-0.1l-0.1-0.1l-0.1-0.1l-0.1-0.1l-0.1-0.1l-0.1-0.1l-0.1-0.1l-0.1-0.1l-0.1,0l-0.1,0l-0.1,0
		l-0.1,0l-0.1,0l-0.1,0l-0.1,0l-0.1,0l-0.1,0l0,0L140.1,129L140.1,129z M143.8,135.9c0.1,2.4-1,4.3-2.8,5.8l0.9,1.1
		c2.2-1.8,3.5-4.2,3.4-7L143.8,135.9L143.8,135.9z M139.8,142.5c-1.7,1-3.6,1.6-5.6,1.7l0,0h0h0l-1.2,0.1l0.1,1.5
		c-0.8,0.1-1.6,0.2-2.4,0.3l0,0c-0.1,0-0.1,0-0.2,0.1l0,0c-0.1,0-0.2,0.1-0.3,0.2c-0.2,0.4-0.2,0.9-0.2,1.3l0,0.1l1.5-0.1
		c0-0.1,0-0.2,0-0.2c2-0.3,3.9-0.5,5.9-1l-0.3-1.3c0.5-0.1,0.9-0.3,1.4-0.5l0.4,1.4c2.4-0.6,5-1.4,7.2-2.6l-0.7-1.3
		c-2,1.2-4.5,1.9-6.8,2.5c0.7-0.3,1.4-0.6,2-1L139.8,142.5L139.8,142.5z M131.6,144.4c-2.4,0.1-4.9-0.1-7.2-0.7l-0.4,1.4
		c2.5,0.7,5,0.8,7.6,0.8L131.6,144.4L131.6,144.4z M123,143.2c-2.2-0.8-4.2-2.1-5.4-4.1l0,0l-1.3,0.8c1.4,2.2,3.7,3.8,6.2,4.7
		L123,143.2L123,143.2z M117,138c-0.9-2.1-1-4.5-0.6-6.8l-1.5-0.2c-0.4,2.5-0.3,5.2,0.7,7.6L117,138L117,138z M116.6,129.8l0-0.1
		l0-0.1l0-0.1l0-0.1l0-0.1l0-0.1l0-0.1l0-0.1l0-0.1l0-0.1l0-0.1l0-0.1l0-0.1l0-0.1l0-0.1l0-0.1l0-0.1l0-0.1l0-0.1l0.1-0.1l0.1-0.1
		l0.1-0.1l0-0.1c0.9-0.3,1.8-1.1,2.5-1.5l0.5-0.3l0,0l-0.9-1.2c-0.4,0.3-0.8,0.6-1.2,0.9c-0.3,0.2-1.2,0.8-1.6,0.9
		c-0.3,0.1-0.5,0.2-0.6,0.5l-0.1,0.2l-0.1,0.2l-0.1,0.2l-0.1,0.2l-0.1,0.2l-0.1,0.2l-0.1,0.2l-0.1,0.2l-0.1,0.2l0,0.1l0,0.1l0,0.1
		l0,0.1l0,0.1l0,0.1l0,0.1l0,0.1l0,0.1l0,0.1l0,0.1l0,0.1l0,0.1l0,0.1l0,0.1l0,0.1L116.6,129.8L116.6,129.8z M121.7,124
		c0.6-0.4,1.4-0.8,2.1-1h0l0.9-0.2h0l0.1,0l0.1,0l0.1,0l0.1,0l0.1,0l0.1,0l0.1,0l0.1,0l0.1,0l0.1,0l0.1,0l0.1,0l0.1,0l0.1,0l0.1,0
		l0.1,0l0.1,0l0.1,0l0.1,0l0.1,0l0.1,0l0.1,0l0.1,0l0.1,0l0.1,0l0.1,0l0.1,0l0.1,0l0.1,0l0.1,0l0.1,0l0.1,0l0,0l0-1.5l-0.1,0l-0.1,0
		l-0.1,0l-0.1,0l-0.1,0l-0.1,0l-0.1,0l-0.1,0l-0.1,0l-0.1,0l-0.1,0l-0.1,0l-0.1,0l-0.1,0l-0.1,0l-0.1,0l-0.1,0l-0.1,0l-0.1,0l-0.1,0
		l-0.1,0l-0.1,0l-0.1,0l-0.1,0l-0.1,0l-0.1,0l-0.1,0l-0.1,0l-0.1,0l-0.1,0l-0.1,0l-0.1,0l-0.1,0h0l-0.9,0.2h0
		c-0.9,0.2-1.8,0.7-2.7,1.2L121.7,124L121.7,124z M124.8,122.8L124.8,122.8L124.8,122.8L124.8,122.8z M124.5,121.3l0.3,1.4
		L124.5,121.3L124.5,121.3z M129.9,122.6c2.4,0.2,4.8,0.8,7.1,1.6l0.5-1.4c-2.4-0.8-4.9-1.4-7.4-1.7L129.9,122.6L129.9,122.6z
		 M138.3,124.6c2.2,0.9,4.4,2.1,6.3,3.5l0.9-1.2c-2-1.5-4.3-2.8-6.6-3.7L138.3,124.6L138.3,124.6z M145.8,129.1
		c1.6,1.4,3.2,3.3,3.7,5.4l0,0.1l0,0.1l0,0l1.5-0.3l0,0l0-0.1l0-0.1c-0.6-2.4-2.3-4.5-4.2-6.1L145.8,129.1L145.8,129.1z M149.7,136
		c0,2.4-1.2,4.2-3.2,5.5l0.9,1.2c2.3-1.6,3.8-3.9,3.8-6.7L149.7,136L149.7,136z M130.2,149.3c0,0.4,0.1,0.8,0.1,1.3l0,0l0,0l0,0l0,0
		l0,0l0,0l0,0l0,0c0,0,0,0.2,0,0.1l0,0.1l0,0l0,0.2l0,0.2l0,0.2l0,0.2l0,0.2l0,0.2l0,0.2l0,0.2l0,0.2l0,0.2l0,0.2l0,0.2l0,0.2l0,0.2
		l0,0.2l0,0.2l0,0.2l0,0.2l0,0.2l0,0.2l0,0.2l0,0.1l0,0.1l0,0.1l0,0.1l0,0.1l0,0.1l0,0.1l0,0.1l0,0.1l0,0.1l0,0.1l0,0.1l0,0.1l0,0.1
		l0,0.1l0,0.1l0,0.1l1.5-0.3l0-0.1l0-0.1l0-0.1l0-0.1l0-0.1l0-0.1l0-0.1l0-0.1l0-0.1l0-0.1l0-0.1l0-0.1l0-0.1l0-0.1l0-0.1l0-0.2
		l0-0.2l0-0.2l0-0.2l0-0.2l0-0.2l0-0.2l0-0.2l0-0.2l0-0.2l0-0.2l0-0.2l0-0.2l0-0.2l0-0.2l0-0.2l0-0.2l0-0.2l0-0.2l0-0.2l0-0.2l0-0.2
		l0-0.1l0-0.1v0l0,0l0,0c0-0.4-0.1-0.8-0.1-1.2L130.2,149.3L130.2,149.3z M132.1,157.9c0.4,1.8,0.8,3.6,1,5.4
		c0.1,0.6,0.2,1.1,0.2,1.7l1.5-0.2c-0.3-2.5-0.8-4.9-1.3-7.3L132.1,157.9L132.1,157.9z M133.6,166.5c0.2,2.4,0.3,4.8,0.4,7.3l1.5,0
		c0-2.5-0.1-4.9-0.4-7.4L133.6,166.5L133.6,166.5z"/>
	<path fill="#663333" d="M129.8,161.9c0.8,0.5,2.2,1.4,2.7,2.3c0.2,0.4,0.1,0.8,0.2,1.3c-0.1,0.1-0.2,0.1-0.3,0.2
		c-0.1,0-0.2-0.1-0.3-0.1c-0.7-0.3-1.4-0.6-2.1-0.9l-0.6,1.4c0.8,0.3,1.6,0.6,2.4,1l0.1,0.1c0.1,0.1,0.3,0.1,0.5,0.1
		c0.4,0,0.8-0.2,1.1-0.4c0.2,0.1,0.4,0.2,0.6,0.3h0l0,0l0,0l0,0l0,0l0,0l0,0l0,0l0,0l0,0l0,0l0.6-1.3l0,0l0,0l0,0l0,0l0,0l0,0l0,0
		l0,0l0,0l0,0h0l0,0c0.6-0.6,1.1-1.2,1.6-1.9l-1.2-0.9c-0.3,0.4-0.6,0.8-1,1.2c-0.4-1.3-1.7-2.3-2.8-3.1c-0.2-0.1-0.4-0.3-0.7-0.4
		l-0.1,0l-0.1,0l-0.1,0l-0.1,0l-0.1,0l-0.8,1.3l0.1,0l0.1,0l0.1,0L129.8,161.9L129.8,161.9L129.8,161.9z M134.6,165.7L134.6,165.7
		L134.6,165.7L134.6,165.7z M136.1,167.4c0.3-0.1,0.5-0.2,0.8-0.3c0.1,0,0.3-0.1,0.4-0.3c0.1-0.1,0.1-0.2,0.1-0.3l0,0l0,0
		c0-0.1,0.1-0.2,0.1-0.2l0,0l0,0l0,0l0,0l0,0l0,0l0,0l0,0l0,0l0,0l0,0l0,0l0,0l0,0l0,0l0,0l0,0l0,0l0,0l0,0l0,0l0,0l0,0l0,0l0,0l0,0
		l0,0l0,0l0,0l0,0c0,0,0,0,0,0l0,0l0,0l0,0l0,0l0,0l0,0l0,0l0,0l0,0l0,0l0,0l0,0l0,0l0,0l0,0l0,0l0,0l0,0l0,0l0,0l0,0l0,0l0,0l0.1,0
		l0.2-0.1l0,0c0.2-0.1,0.4-0.1,0.6-0.3h0c1.3-0.7,2.6-1.5,3.9-2.2l-0.8-1.3c-1.1,0.7-2.2,1.3-3.4,1.9l-0.5,0.3l0,0l0,0l0,0l0,0l0,0
		l0,0l0,0l0,0l0,0l0,0l0,0l0,0l0,0l0,0l0,0l0,0l0,0l0,0l0,0l0,0l0,0l-0.1,0l0,0l0,0l0,0l0,0l-0.2,0.1l0,0c-0.2,0.1-0.4,0.1-0.5,0.2
		l0,0c-0.4,0.2-0.6,0.5-0.7,0.8c-0.2,0.1-0.4,0.1-0.5,0.2L136.1,167.4L136.1,167.4z M138.6,165.8L138.6,165.8L138.6,165.8
		L138.6,165.8z M137.8,164.6l0.8,1.3L137.8,164.6L137.8,164.6z M143.8,162.8c2.1-1.3,4.5-3.1,5.6-5.3l-1.4-0.6
		c-0.9,1.9-3.2,3.6-5,4.7L143.8,162.8L143.8,162.8z M149.8,155.8L149.8,155.8L149.8,155.8l0-0.2l0-0.1l0-0.1l0-0.1l0-0.1l0-0.1
		l0-0.1v-0.1l0-0.1l0-0.1l0-0.1l0-0.1l0-0.1l0-0.1l0-0.1l0,0c0-0.2-0.1-0.5-0.4-0.6c-0.1,0-0.1-0.1-0.2-0.1l0,0.1l-0.1-0.1
		c-2.4-0.6-4.6,0-6.7,1.3l0.8,1.2c1.6-1,3.2-1.5,5.1-1.2l0,0l0,0l0,0l0,0l0,0l0,0L149.8,155.8L149.8,155.8z M141.2,156.3
		c-0.2,0.1-0.4,0.3-0.6,0.5c-1.7,1.5-3.2,3.2-4.6,5l1.2,0.9c1.5-1.9,3.1-3.7,5-5.2l0,0L141.2,156.3L141.2,156.3z M128.6,164.1
		c-2.3-0.9-4.6-1.8-6.8-2.8l-0.1,0l-0.6,1.4c0.8,0.3,1.6,0.7,2.4,1c1.5,0.6,3,1.2,4.5,1.8L128.6,164.1L128.6,164.1z M120.3,160.7
		L120.3,160.7L120.3,160.7L120.3,160.7L120.3,160.7l-0.1,0l0,0l0,0l0,0l0,0l0,0l0,0l0,0l0,0l0,0l0,0l0,0l0,0l0,0l0,0l0,0l0,0l0,0
		l0,0l0,0l0,0l0,0l0.1,0L120.3,160.7l-0.7,0.5l-0.6,0.4l0.1,0.1l0.1,0.1l0,0l0,0l0,0l0,0l0,0l0,0l0,0l0,0l0,0l0,0l0,0l0,0l0,0l0,0
		l0,0l0,0l0,0l0,0l0,0l0,0l0,0l0,0l0,0l0,0l0,0l0,0l0-0.1l0,0l0.5-1.1L120.3,160.7L120.3,160.7z M119.8,162c0.5-0.1,0.8-0.7,0.5-1.1
		L119.8,162L119.8,162z M120.1,160.6c-0.1,0-0.1-0.1-0.2-0.1c-0.1,0-0.1,0-0.2,0l0,0c0,0,0,0,0,0l-0.1,0l0,0l-0.1,0h0l0,0h0l0,0h0h0
		h0h-0.1l0,0l0,0h0l0,0h0l0,0l0,0h0l0,0h0l0,0l0,0l0,0l0,0l0,0l0,0l0,0h0l0,0l0,0l0,0l0,0l0,0l0,0l0,0l0,0l0,0l0,0l0,0l0,0l0,0l0,0
		l0,0l0,0c-0.2-0.3-0.9-1.1-0.7-1.4c0.2-0.3,1.3-0.4,1.7-0.4c0.1,0,0.2,0,0.3,0l0.1-1.5c-1.3,0-3.4,0.2-3.6,1.9
		c0,0.9,0.5,1.7,1.1,2.4l0,0l0.1,0.1l0,0l0,0c0.1,0.1,0.1,0.1,0.2,0.1l0,0l0.1,0.1l0,0c0.1,0.1,0.3,0.1,0.5,0.1l0,0
		c0.1,0,0.4,0,0.4,0l0,0h0l0.1,0l0,0l0,0h0l0,0h0.1l0,0l0,0h0l0,0h0l0,0l0,0h0l0,0l0,0l0,0l0,0h0h0h0h0L120.1,160.6L120.1,160.6z
		 M119.4,162L119.4,162L119.4,162L119.4,162L119.4,162z M118.7,160.5L118.7,160.5L118.7,160.5L118.7,160.5L118.7,160.5z
		 M118.7,160.5L118.7,160.5L118.7,160.5L118.7,160.5L118.7,160.5z M118.7,160.5L118.7,160.5L118.7,160.5l-1.1,1L118.7,160.5
		L118.7,160.5z M121.4,158.8c0.2,0,0.5,0.1,0.7,0.1c2.1,0.4,4.2,1.1,6.1,2.1l0.7-1.3c-1.5-0.7-3.1-1.3-4.7-1.8
		c-0.8-0.2-1.8-0.4-2.6-0.6L121.4,158.8L121.4,158.8z"/>
	<path fill="#663333" d="M161.2,176.1l-0.2,0.1l-0.2,0.1l-0.2,0.1l-0.2,0.1l-0.2,0.1l-0.2,0.1l-0.2,0.1l-0.2,0.1l-0.2,0.1l-0.2,0.1
		l-0.2,0.1l-0.2,0.1l-0.2,0.1l-0.2,0.1l-0.2,0.1l-0.2,0.1l-0.2,0.1l-0.2,0.1l-0.2,0.1l-0.2,0.1l-0.2,0.1l-0.2,0.1l-0.2,0.1l-0.2,0.1
		l-0.2,0.1l-0.2,0.1l-0.2,0.1l-0.2,0.1l-0.2,0.1l-0.2,0.1l0.8,1.2l0.2-0.1l0.2-0.1l0.2-0.1l0.2-0.1l0.2-0.1l0.2-0.1l0.2-0.1l0.2-0.1
		l0.2-0.1l0.2-0.1l0.2-0.1l0.2-0.1l0.2-0.1l0.2-0.1l0.2-0.1l0.2-0.1l0.2-0.1l0.2-0.1l0.2-0.1l0.2-0.1l0.2-0.1l0.2-0.1l0.2-0.1
		l0.2-0.1l0.2-0.1l0.2-0.1l0.2-0.1l0.2-0.1l0.2-0.1l0.2-0.1L161.2,176.1L161.2,176.1z M163,117.4c0,0.7-0.2,1.9-0.9,2.2
		c-0.9,0.4-2.2-0.6-2.8-1.1l-0.4,0.5l-0.8,0.4l0,0c0,0.1,0.1,0.1,0.1,0.2l0,0c1.1,1,2.6,1.9,4.1,1.5c1.6-0.5,2-2.2,2.1-3.7
		L163,117.4L163,117.4z M158.8,117.5c-0.7-1.8-0.9-3.8,0.4-5.4c0.2-0.2,0.3-0.4,0.5-0.6l-1-1.1c-1.8,1.5-2.3,3.8-1.8,6.1
		c0.1,0.5,0.3,1,0.5,1.5L158.8,117.5L158.8,117.5z M160.8,110.9c0.9-0.4,1.9-0.4,2.7,0.1l0.1,0.1l0.1,0.1l0.1,0.1l0.1,0.1l0.1,0.1
		l0.1,0.1l0.1,0.1l0.1,0.1l0.1,0.1l0.1,0.1l0.1,0.1l0.1,0.1l0.1,0.1l0.1,0.1l0.1,0.1l0.1,0.1l0.1,0.1l0.1,0.1l0.1,0.1l0.1,0.1
		l0.1,0.1l0.1,0.1l0.1,0.1l0.1,0.1l0.1,0.1l0.1,0.1l0.1,0.1l0.1,0.1l0.1,0.1l0,0l0.9-1.2l0,0l-0.1-0.1l-0.1-0.1l-0.1-0.1l-0.1-0.1
		l-0.1-0.1l-0.1-0.1l-0.1-0.1l-0.1-0.1l-0.1-0.1l-0.1-0.1l-0.1-0.1l-0.1-0.1l-0.1-0.1l-0.1-0.1l-0.1-0.1l-0.1-0.1l-0.1-0.1l-0.1-0.1
		l-0.1-0.1l-0.1-0.1l-0.1-0.1l-0.1-0.1l-0.1-0.1l-0.1-0.1l-0.1-0.1l-0.1-0.1l-0.1-0.1l-0.1-0.1l-0.1-0.1c-1.2-0.7-2.7-0.8-4.1-0.2
		L160.8,110.9L160.8,110.9z M167.9,114c1.9,1.5,3.6,3.2,4.9,5.2l1.2-0.8c-1.4-2.1-3.2-3.9-5.2-5.5L167.9,114L167.9,114z
		 M173.6,120.4c1.2,2.1,1.9,4.3,2.3,6.7l1.5-0.2c-0.4-2.5-1.2-4.9-2.5-7.1L173.6,120.4L173.6,120.4z M176.1,128.5
		c0.2,2.1,0.3,4.1,0.2,6.2l0,0.3l0,0.3l0,0.3l0,0.2l1.5,0l0-0.2l0-0.3l0-0.3l0-0.3c0.1-2.2,0-4.3-0.2-6.4L176.1,128.5L176.1,128.5z
		 M176.2,137.2l0,0.1l0,0.3l0,0.3l0,0.3l0,0.2l0,0.2l0,0.2l0,0.2l0,0.2l0,0.2l0,0.2l0,0.2l0,0.2l0,0.2l0,0.2l0,0.2l0,0.2l0,0.2
		l0,0.2l0,0.2l0,0.2l0,0.2l0,0.2l0,0.2l0,0.2l0,0.2l0,0.2l0,0.2l0,0.2l0,0.2l0,0.2l0,0l1.5,0.1l0,0l0-0.2l0-0.2l0-0.2l0-0.2l0-0.2
		l0-0.2l0-0.2l0-0.2l0-0.2l0-0.2l0-0.2l0-0.2l0-0.2l0-0.2l0-0.2l0-0.2l0-0.2l0-0.2l0-0.2l0-0.2l0-0.2l0-0.2l0-0.2l0-0.2l0-0.2l0-0.2
		l0-0.3l0-0.3l0-0.3l0-0.3l0-0.1L176.2,137.2L176.2,137.2z M175.8,145.9L175.8,145.9l0,0.3l0,0.2l0,0.2l0,0.2l0,0.2l0,0.2l0,0.2
		l0,0.2l0,0.2l0,0.2l0,0.2l0,0.2l0,0.2l0,0.2l0,0.2l0,0.2l0,0.2l0,0.2l0,0.2l0,0.2l0,0.2l0,0.2l0,0.2l0,0.2l0,0.2l0,0.2l0,0.2l0,0.2
		l0,0.2l0,0.2l0,0.2l0,0.2l0,0.2l0,0.2l0,0.1l1.5,0.2l0-0.1l0-0.2l0-0.2l0-0.2l0-0.2l0-0.2l0-0.2l0-0.2l0-0.2l0-0.2l0-0.2l0-0.2
		l0-0.2l0-0.2l0-0.2l0-0.2l0-0.2l0-0.2l0-0.2l0-0.2l0-0.2l0-0.2l0-0.2l0-0.2l0-0.2l0-0.2l0-0.2l0-0.2l0-0.2l0-0.2l0-0.2l0-0.2l0-0.2
		l0-0.2l0-0.2l0-0.1L175.8,145.9L175.8,145.9z M174.6,154.6l0,0.2l0,0.2l0,0.2l0,0.2l0,0.2l0,0.2l0,0.2l0,0.2l0,0.2l0,0.2l0,0.2
		l0,0.2l0,0.2l0,0.2l0,0.2l0,0.2l0,0.2l0,0.2l0,0.2l-0.1,0.2l-0.1,0.2l-0.1,0.2l-0.1,0.2l-0.1,0.2l-0.1,0.2l-0.1,0.2l-0.1,0.2
		l-0.1,0.2l-0.1,0.2l-0.1,0.2l-0.1,0.2l-0.1,0.2l-0.1,0.2l-0.1,0.2l-0.1,0.2l-0.1,0.2l-0.1,0.2l-0.1,0.2l-0.1,0.2l0,0l1.4,0.5l0,0
		l0.1-0.2l0.1-0.2l0.1-0.2l0.1-0.2l0.1-0.2l0.1-0.2l0.1-0.2l0.1-0.2l0.1-0.2l0.1-0.2l0.1-0.2l0.1-0.2l0.1-0.2l0.1-0.2l0.1-0.2
		l0.1-0.2l0.1-0.2l0.1-0.2l0.1-0.2l0.1-0.2l0.1-0.2l0.1-0.2l0.1-0.2l0-0.2l0-0.2l0-0.2l0-0.2l0-0.2l0-0.2l0-0.2l0-0.2l0-0.2l0-0.2
		l0-0.2l0-0.2l0-0.2l0-0.2l0-0.2l0-0.2L174.6,154.6L174.6,154.6z M172.1,162.8l-0.1,0.1l-0.1,0.2l-0.1,0.2l-0.1,0.2l-0.1,0.2
		l-0.1,0.2l-0.1,0.2l-0.1,0.2l-0.1,0.2l-0.1,0.2l-0.1,0.2l-0.1,0.2l-0.1,0.2L171,165l-0.1,0.2l-0.1,0.2l-0.1,0.2l-0.1,0.2l-0.1,0.2
		l-0.1,0.2l-0.1,0.2l-0.1,0.2l-0.1,0.2l-0.1,0.2l-0.1,0.2l-0.1,0.2l-0.1,0.2l-0.1,0.2l-0.1,0.2l-0.1,0.2l-0.1,0.2l-0.1,0.2l-0.1,0.1
		l-0.1,0.1l-0.1,0.1l-0.1,0.1l-0.1,0.1l-0.1,0.1l-0.1,0.1l-0.1,0.1l0,0l1.2,0.9l0,0l0.1-0.2l0.1-0.2l0.1-0.2l0.1-0.2l0.1-0.2
		l0.1-0.2l0.1-0.2l0.1-0.2l0.1-0.2l0.1-0.2l0.1-0.2l0.1-0.2l0.1-0.2l0.1-0.2l0.1-0.2l0.1-0.2l0.1-0.2l0.1-0.2l0.1-0.2l0.1-0.2
		l0.1-0.2l0.1-0.2l0.1-0.2l0.1-0.2l0.1-0.2l0.1-0.2l0.1-0.2l0.1-0.2l0.1-0.2l0.1-0.2l0.1-0.2l0.1-0.2l0.1-0.2l0.1-0.2l0.1-0.2
		l0.1-0.2l0.1-0.2l0.1-0.2l0.1-0.2l0.1-0.1L172.1,162.8L172.1,162.8z M167.5,170.1L167.5,170.1l-0.1,0.2l-0.1,0.1l-0.1,0.1l-0.1,0.1
		l-0.1,0.1l-0.1,0.1l-0.1,0.1l-0.1,0.1l-0.1,0.1l-0.1,0.1l-0.1,0.1l-0.1,0.1l-0.1,0.1l-0.1,0.1l-0.1,0.1l-0.1,0.1l-0.1,0.1l-0.1,0.1
		l-0.1,0.1l-0.1,0.1l-0.1,0.1l-0.1,0.1l-0.2,0.1l-0.2,0.1l-0.2,0.1l-0.2,0.1l-0.2,0.1l-0.2,0.1l-0.2,0.1l-0.2,0.1l-0.2,0.1l-0.2,0.1
		l-0.2,0.1l-0.2,0.1l-0.2,0.1l-0.1,0.1l1,1.1l0.1-0.1l0.2-0.1l0.2-0.1l0.2-0.1l0.2-0.1l0.2-0.1l0.2-0.1l0.2-0.1l0.2-0.1l0.2-0.1
		l0.2-0.1l0.2-0.1l0.2-0.1l0.2-0.1l0.2-0.1l0.2-0.1l0.2-0.1l0.2-0.1l0.1-0.1l0.1-0.1l0.1-0.1l0.1-0.1l0.1-0.1l0.1-0.1l0.1-0.1
		l0.1-0.1l0.1-0.2l0.1-0.2l0.1-0.2l0.1-0.2l0.1-0.2l0.1-0.2l0.1-0.2l0.1-0.2l0.1-0.2l0.1-0.2l0,0L167.5,170.1L167.5,170.1z"/>
	<path fill="#663333" d="M176.6,140L176.6,140l-0.5,1.5l1.4,0.5l0.5-1.5v0l0,0l0,0l0,0c0.1-0.3,0.2-0.7,0.3-1.1
		c0.4-1.5,0.8-3,1.2-4.5l-1.4-0.4c-0.4,1.6-0.8,3.2-1.3,4.8C176.8,139.5,176.7,139.8,176.6,140L176.6,140L176.6,140z M187.1,123
		L187.1,123L187.1,123L187.1,123L187.1,123L187.1,123L187.1,123l0,0.1l0,0l0,0l0,0l0,0l0,0l0,0l0,0l0,0l0,0l0,0l0,0l0,0l0,0l0,0l0,0
		l0,0l0,0l0,0l0,0l0,0l0,0l0,0l0,0l0,0l0,0.1l0,0l0.1,0.2c0,0.1,0.1,0.3,0.3,0.4c0.1,0.1,0.2,0.1,0.3,0.1l0,0c0,0,0,0,0,0l0,0l0,0
		l0,0l0,0l0,0l0,0l0,0l0,0h0l0,0l0,0l0,0l0,0l0,0l0,0l0,0l0,0l0,0l0.1,0.1l0,0c0.8,0.6,1.5,0.7,2.4,0.4c0.5-0.1,0.9-0.3,1.4-0.5l0,0
		c0.2-0.1,0.4-0.3,0.4-0.5l0,0l0,0c0.2-1,0.4-1.9,0.4-2.9l-1.5-0.1c0,0.4-0.1,0.8-0.1,1.2c-0.1,0.4-0.1,0.8-0.2,1.2
		c-0.5,0.2-1.1,0.4-1.5,0.3l0,0c0,0-0.1,0-0.1,0c0,0-0.1,0-0.1-0.1c-0.2-0.2-0.4-0.3-0.6-0.4l0,0l0,0l0,0l0,0l0,0l0,0l0,0l0,0l0,0
		l0,0l0,0l0,0l0,0l0,0l0,0l0,0l0,0l0,0l0,0l0,0l0,0l0,0l0,0l0,0l0,0l0,0l0,0l0,0l-0.1,0c-0.1,0-0.2-0.1-0.3-0.1
		c-0.3-0.1-0.5,0-0.7,0.2L187.1,123L187.1,123z M188.3,122.9l-0.2,0l0-0.1L188.3,122.9L188.3,122.9z M192.8,119.2
		c-0.1-1.1-0.6-2.1-1.5-2.7c-1.9-1.2-3.7-1-5.4,0.3l0,0l1,1.1l0,0c1.2-1,2.3-1,3.6-0.2c0.6,0.4,0.8,1,0.8,1.6L192.8,119.2
		L192.8,119.2z M184.7,118c-1.6,1.9-2.7,4.4-3.6,6.7l1.4,0.5c0.8-2.1,1.9-4.5,3.3-6.2l0,0L184.7,118L184.7,118z M180.6,126
		c-0.8,2.3-1.5,4.7-2.2,7.1l1.4,0.4c0.6-2.3,1.3-4.7,2.1-7L180.6,126L180.6,126z"/>
	<path fill="#663333" d="M177.2,147.4c-1.6,1.9-3.2,4.9-2.5,7.3l1.4-0.4c-0.5-2,1-4.6,2.3-6L177.2,147.4L177.2,147.4z M185.2,146
		c0,1.6,0.4,2.8,2.2,2.9c0.7,0,1.3,0,2,0l0,0c0,0,0.1,0,0.1,0c0.2,0,0.4-0.1,0.6-0.3l0,0l0,0c0.2-0.2,0.4-0.4,0.6-0.6l0,0l0.1,0
		l0.1,0l0,0l0,0l0,0l0,0l0,0l0,0l0,0l0,0l0,0l0,0l0,0l0,0l0,0l0,0l0,0l0,0l0,0l0,0l0,0l0,0l0,0l0,0l0,0l0,0l-0.6-1.3l0,0l0,0l-0.1,0
		l0,0l0,0l0,0l0,0l0,0l-0.1,0l0,0l-0.1,0h0l0,0v0c-0.2,0.1-0.7,0.5-0.9,0.8c-0.6,0-1.1,0-1.7,0c-0.2,0-0.4,0-0.6-0.1l0,0l0,0l0,0
		l0,0l0,0l0,0l0,0l0,0c-0.2-0.2-0.2-1-0.2-1.3H185.2L185.2,146z M191.8,145.9c0-0.6,0-1.2,0.1-1.8c0-1.1-0.3-1.8-1.4-2.1
		c-0.6-0.2-1.2-0.2-1.8-0.2l-0.1,0l-0.1,0l-0.1,0l-0.1,0l-0.1,0l-0.1,0l-0.1,0l-0.1,0l-0.1,0l-0.1,0l-0.1,0l-0.1,0l-0.1,0l-0.1,0
		l-0.1,0l-0.1,0l-0.1,0l-0.1,0l-0.1,0l-0.1,0l-0.1,0l-0.1,0l0,0l0.3,1.4l0,0l0.1,0l0.1,0l0.1,0l0.1,0l0.1,0l0.1,0l0.1,0l0.1,0l0.1,0
		l0.1,0l0.1,0l0.1,0l0.1,0l0.1,0l0.1,0l0.1,0l0.1,0l0.1,0l0.1,0l0.1,0l0.1,0l0.1,0c0.3,0,1.3,0,1.6,0.2v0l0,0l0,0l0,0l0,0l0,0l0,0
		l0,0l0,0c0.1,0.2,0,1.3,0,1.5c0,0.3,0,0.6,0,0.9L191.8,145.9L191.8,145.9z M184.9,142.3c-2.5,0.7-4.8,2.1-6.6,3.9l1.1,1
		c1.6-1.6,3.7-2.9,6-3.6L184.9,142.3L184.9,142.3z"/>
	<path fill="#663333" d="M171.4,164.8c-0.1,2.2-0.9,4.1-3.2,4.8l-0.2,0.1l0.4,1.4c3.1-0.9,4.3-3.2,4.5-6.2l0-0.1L171.4,164.8
		L171.4,164.8z M162.1,152.5c-0.4,0-0.8,0-1.1-0.1l0,0l-0.4,1.4c0.5,0.1,1,0.2,1.5,0.2V152.5L162.1,152.5z M160.2,151.8
		c-0.3-0.4-0.1-1.1,0.1-1.5l0,0c0.3-0.9,0.8-1.7,1.9-1.6c0.3,0,0.8,0.2,1.1,0.4l0.7-1.3c-1.8-1-3.5-0.8-4.6,1
		c-0.2,0.3-0.3,0.7-0.5,1h0c-0.3,0.9-0.5,2,0.1,2.8L160.2,151.8L160.2,151.8z M160.3,150.3l-1.4-0.5L160.3,150.3L160.3,150.3
		L160.3,150.3z M164.3,149.8c1.8,1.5,3.2,3.6,4.3,5.6l1.3-0.7c-1.2-2.1-2.8-4.4-4.7-6L164.3,149.8L164.3,149.8z M169.3,156.7
		c1,2.1,1.8,4.4,2.1,6.7l1.5-0.1c-0.3-2.5-1.1-5-2.2-7.2L169.3,156.7L169.3,156.7z"/>
	<path fill="#663333" d="M221.1,173.4c0.1,1.1,0.3,2.2,0.6,3.2c0.3,1.4,0.7,2.9,1.5,4.1l1.3-0.8c-0.4-0.7-0.7-1.4-0.9-2.2
		c-0.4-1.5-0.7-3-0.9-4.6L221.1,173.4L221.1,173.4z M221.6,141.4c1.4,0.3,2.8,0.7,4.3,0.9c0.4,0,0.8,0.1,1.2,0.1l0-1.5
		c-0.4,0-0.9,0-1.3-0.1c-1.5-0.2-3-0.7-4.6-0.9c0-0.1-0.1-0.1-0.1-0.2c-0.2-0.2-0.4-0.3-0.6-0.3c-0.7,0-1.4,0-2,0l0,1.5
		c0.5,0,1,0,1.5,0c0,0.2,0.1,0.5,0.1,0.7c0.1,1.3,0.1,2.6,0.1,3.9l1.5,0C221.7,144.1,221.7,142.8,221.6,141.4L221.6,141.4
		L221.6,141.4z M228.6,142.3L228.6,142.3L228.6,142.3l0.1,0l0,0l0,0l0,0l0,0l0,0l0,0l0,0l0,0l0,0l0,0l0,0l0,0l0,0l0,0l0,0l0,0l0,0
		l0,0l0,0l0,0l0,0c0,0,0.1,0,0.1,0c0.1,0,0.2-0.1,0.3-0.1l0.7-0.5c0.1-0.1,0.2-0.2,0.3-0.4l0,0l0,0c0.4-1.2,0.6-2.6,0.7-3.9
		c0-0.5,0.1-1.1,0.1-1.6l-1.5-0.1c-0.1,1.5-0.2,3-0.5,4.5c0,0.2-0.1,0.3-0.1,0.5l-0.4,0.3l0,0l0,0l0,0l0,0l0,0l0,0l0,0l0,0l0,0l0,0
		l0,0l0,0l0,0l0,0l0,0l0,0l0,0l0,0l0,0L228.6,142.3L228.6,142.3z M232,134.1c0.1-2.5,0.1-4.9,0.1-7.4h-1.5c0,2.4,0,4.9-0.1,7.3
		L232,134.1L232,134.1z M230,125.8c-2.5,0-5,0.1-7.5,0.2l0.1,1.5c2.5-0.1,5-0.2,7.4-0.2L230,125.8L230,125.8z M221.1,126.1
		c-2.4,0.1-4.8,0.2-7.2,0.4l-0.3,0l0.2,1.5c1.4-0.2,2.8-0.2,4.2-0.3c1.1-0.1,2.1-0.1,3.2-0.2L221.1,126.1L221.1,126.1z M211.5,127.6
		c0,0.4,0.1,0.8,0.1,1.2c0.3,1.6,0.7,3.2,1,4.8c0,0.2,0.1,0.3,0.1,0.5c0,0.1,0,0.2,0,0.2c0,0.2,0,0.3,0.1,0.5c0,0.1,0.1,0.1,0.1,0.1
		l0,0l0,0l0,0l0,0l0,0l0,0l0,0l0,0l0,0l0,0l0,0l0,0l0,0l0,0l0,0l0,0l0,0l0,0l0,0l0.7-0.7l-0.5-0.1l0.7,0.1c0-0.1,0-0.2,0-0.3l0,0
		l0,0l0,0l0,0l0,0c0-0.7-0.2-1.6-0.3-2.1c-0.3-1.3-0.6-2.5-0.8-3.8c0-0.2-0.1-0.4-0.1-0.6l0,0L211.5,127.6L211.5,127.6z
		 M213.6,135.3L213.6,135.3L213.6,135.3L213.6,135.3c0,0.4,0,0.9,0,1.3c0,1,0,2.1,0,3.2c0,0.1,0,0.2,0,0.2c0,0.2,0.1,0.4,0.3,0.5
		c0,0,0.1,0.1,0.1,0.1l0,0l0,0c0.7,0.3,2.2,0.3,2.9,0.3v-1.5c-0.4,0-1.3,0-1.9-0.1l0,0c0-1.3,0-2.6,0-3.9c0-0.1,0-0.2,0-0.3
		L213.6,135.3L213.6,135.3z M220.2,146.9l0,0.1l0,0.2l0,0.2l0,0.2l0,0.2v0.2l0,0.2l0,0.2v0.2v0.2v0.2v0.2v0.2v0.2v0.2v0.2v0.2v0.2
		v0.2l0,0.2v0.2v0.2l0,0.2v0.2v0.2v0.2v0.2l0,0.2v0.2l0,0.2v0.2l0,0.2l0,0.2l0,0.2v0.2l0,0.2l0,0.2l0,0.2l0,0.2l0,0.1l1.5,0l0-0.1
		l0-0.2l0-0.2l0-0.2l0-0.2l0-0.2l0-0.2l0-0.2v-0.2l0-0.2v-0.2v-0.2l0-0.2v-0.2v-0.2v-0.2v-0.2l0-0.2v-0.2v-0.2v-0.2V150v-0.2l0-0.2
		v-0.2v-0.2v-0.2v-0.2v-0.2v-0.2l0-0.2v-0.2V148l0-0.2l0-0.2l0-0.2l0-0.2l0-0.2l0-0.2v-0.1L220.2,146.9L220.2,146.9z M220.2,155.7
		L220.2,155.7l0,0.2l0,0.2l0,0.2l0,0.2l0,0.2l0,0.2l0,0.2l0,0.2l0,0.2l0,0.2l0,0.2l0,0.2l0,0.2l0,0.2l0,0.2l0,0.2l0,0.2l0,0.2l0,0.2
		l0,0.2l0,0.2l0,0.2l0,0.2l0,0.2l0,0.2l0,0.2l0,0.2l0,0.2l0,0.2l0,0.2l0,0.2l0,0.2l0,0.2l0,0.2l0,0.1l1.5,0l0-0.1l0-0.2l0-0.2l0-0.2
		l0-0.2l0-0.2l0-0.2l0-0.2l0-0.2l0-0.2l0-0.2l0-0.2l0-0.2l0-0.2l0-0.2l0-0.2l0-0.2l0-0.2l0-0.2l0-0.2l0-0.2l0-0.2l0-0.2l0-0.2l0-0.2
		l0-0.2l0-0.2l0-0.2l0-0.2l0-0.2l0-0.2l0-0.2l0-0.2l0-0.2l0-0.2l0,0L220.2,155.7L220.2,155.7z M220.4,164.5l0,0.1l0,0.2l0,0.2l0,0.2
		l0,0.2l0,0.2l0,0.2l0,0.2l0,0.2l0,0.2l0,0.2l0,0.2l0,0.2l0,0.2l0,0.2l0,0.2l0,0.2l0,0.2l0,0.2l0,0.2l0,0.2l0,0.2l0,0.2l0,0.2l0,0.2
		l0,0.2l0,0.2l0,0.2l0,0.2l0,0.2l0,0.2l0,0.2l0,0.2l0,0.2l0,0.2l0,0.2l0,0.2l1.5-0.2l0-0.2l0-0.2l0-0.2l0-0.2l0-0.2l0-0.2l0-0.2
		l0-0.2l0-0.2l0-0.2l0-0.2l0-0.2l0-0.2l0-0.2l0-0.2l0-0.2l0-0.2l0-0.2l0-0.2l0-0.2l0-0.2l0-0.2l0-0.2l0-0.2l0-0.2l0-0.2l0-0.2l0-0.2
		l0-0.2l0-0.2l0-0.2l0-0.2l0-0.2l0-0.2l0-0.2l0-0.2l0-0.1L220.4,164.5L220.4,164.5z"/>
	<path fill="#663333" d="M231.9,119.5c0.2,2.2-0.8,4.3-1.3,6.5c0,0.2-0.1,0.3-0.1,0.5l1.5,0.2c0.1-1,0.5-2,0.8-2.9
		c0.4-1.4,0.7-2.9,0.6-4.4L231.9,119.5L231.9,119.5z M213,127.7L213,127.7L213,127.7L213,127.7L213,127.7L213,127.7L213,127.7
		L213,127.7L213,127.7L213,127.7L213,127.7L213,127.7L213,127.7C213,127.6,213,127.7,213,127.7L213,127.7L213,127.7L213,127.7
		L213,127.7L213,127.7L213,127.7L213,127.7L213,127.7l0-0.1L213,127.7l0-0.1L213,127.7l0-0.1L213,127.7l0-0.1L213,127.7l0-0.1
		L213,127.7l0-0.1l0,0l0,0l0-0.1l0,0l0,0l0,0l0-0.1l0,0.1c0,0,0-0.1,0-0.1l0,0l0-0.1l0,0.1l0-0.1l0,0.1l0-0.2l0,0.1c0,0,0-0.1,0-0.1
		c0,0.1,0,0.1,0,0l0,0l0-0.1l0,0.1c0,0,0-0.1,0-0.1l0,0.1c0-0.1,0-0.2,0-0.2l0,0.1c0,0,0-0.1,0-0.1l0,0.1l0-0.1l0,0l0-0.1l0,0.1l0,0
		l0-0.1l0,0l0,0l0,0L213,127l0,0.1L213,127l0,0.1c0-0.1,0-0.1-0.1-0.2l0.1,0.1l-0.1-0.1l0.1,0.1l-0.1-0.1l0,0l0-0.1l0,0.1l0-0.1
		l0,0.1l0-0.1l0,0l0,0l0,0c-0.1-0.1,0,0,0,0l0-0.1l0,0l0,0l0,0l0,0l0,0c0,0,0,0,0,0l0,0l0,0l0,0l0,0l0,0l0,0l0-0.1l0,0l0,0l0,0l0,0
		l0,0l0,0l0,0l0,0l0,0l0,0l0,0l0,0l0,0l0,0l0,0l0,0l0,0l0,0l0,0l0,0l0,0l0,0l0,0l0,0l0,0l0,0l0,0l0,0l0,0l0,0l-0.5,0.3l0,0l-0.1,0.1
		l-0.7,0.4l0,0l0,0l0,0l0,0l0,0l0,0l0,0c0,0,0,0,0,0l0,0l0,0l0,0l0,0.1l0,0c0,0.1,0,0,0,0l0-0.1l0.1,0.1c-0.1-0.1,0-0.1,0,0l0,0l0,0
		l0-0.1c0,0,0.1,0.1,0,0l0,0.1l0,0l0,0l0,0l0,0.1l0-0.1l0,0.1l0-0.1l0,0l0-0.1l0,0l0,0c0,0,0,0.1,0,0.1l0-0.1l0,0l0,0
		c0,0.1,0.1,0.2,0,0l0,0l0,0l0,0l0,0l0,0l0,0l0,0.1l0,0l0,0l0-0.1l0,0l0,0l0,0l0,0l0,0l0,0l0,0l0,0l0,0l0-0.1l0,0.1l0-0.1l0,0.1l0,0
		l0,0l0-0.1l0,0l0,0l0,0l0-0.1c0,0,0,0.1,0,0.1l0-0.1v0l0-0.1c0,0,0,0.1,0,0.1l0-0.1l0,0.1l0-0.1l0,0l0-0.1l0,0.1l0-0.1
		c0,0,0,0.1,0,0.1l0-0.2c0,0,0,0.1,0,0.1l0-0.1l0,0.1l0-0.1l0,0l0-0.1l0,0.1l0-0.1l0,0l0,0l0,0c0-0.1,0,0,0,0l0-0.1c0,0,0,0.1,0,0
		l0,0l0,0l0,0l0,0l0,0l0,0l0,0l0,0l0,0l0,0l0,0l0,0l0,0l0,0l0,0l0,0l0,0l0,0l0,0l0,0l0,0l0,0l0,0l0,0l0,0l0,0l0,0l0,0l0,0l0,0l0,0
		l0,0l0,0l0.3,0.1l0.4,0.1l0.1,0l0.1,0l0.4,0.1L213,127.7L213,127.7z M212.2,127.9c0.3,0,0.5-0.1,0.6-0.2L212.2,127.9L212.2,127.9z
		 M213,126.9L213,126.9L213,126.9L213,126.9z M213,126.9L213,126.9L213,126.9L213,126.9z M213,126.9L213,126.9L213,126.9L213,126.9z
		 M213,126.9L213,126.9L213,126.9L213,126.9z M213,126.9L213,126.9L213,126.9L213,126.9L213,126.9L213,126.9z M213,126.9
		c-0.1-0.1-0.1-0.2-0.3-0.3c-0.1-0.1-0.2-0.1-0.3-0.1l0,0h0l0,0l0,0l0,0L213,126.9L213,126.9z M212.4,126.4L212.4,126.4L212.4,126.4
		L212.4,126.4L212.4,126.4L212.4,126.4z M212.4,126.4L212.4,126.4L212.4,126.4L212.4,126.4L212.4,126.4L212.4,126.4L212.4,126.4
		L212.4,126.4L212.4,126.4L212.4,126.4L212.4,126.4l-0.1,0l0,0l0,0l0,0c-0.1,0-0.1-0.1-0.2-0.1l0,0c-0.1-0.1-0.2-0.2-0.3-0.3l0,0
		l0,0l0,0l-0.1-0.1l0,0l0,0l0,0l-0.4-0.4l0,0l0,0l0,0l0,0l0,0l0,0c-0.6-0.5-1-1.1-1.4-1.8l-1.3,0.7c0.4,0.8,1,1.5,1.7,2.1l0,0l0,0
		l0,0l0,0l0,0l0,0l0,0l0,0v0c0.1,0.1,0.3,0.3,0.4,0.4l0,0l0,0l0,0c0.1,0.1,0.1,0.1,0.2,0.2l0,0c0.4,0.3,0.8,0.7,1.3,0.7l0.1-0.4
		L212.4,126.4L212.4,126.4z M212.3,127.2l-0.4,0.2L212.3,127.2L212.3,127.2z M211.6,127.5L211.6,127.5L211.6,127.5L211.6,127.5z
		 M211.7,127.5L211.7,127.5L211.7,127.5L211.7,127.5z M211.7,127.5L211.7,127.5L211.7,127.5L211.7,127.5z M211.7,127.5L211.7,127.5
		L211.7,127.5L211.7,127.5z M211.7,127.5l0.5,0.4L211.7,127.5L211.7,127.5z M212.4,126.4L212.4,126.4L212.4,126.4L212.4,126.4
		L212.4,126.4L212.4,126.4L212.4,126.4z M212.4,126.4L212.4,126.4L212.4,126.4L212.4,126.4L212.4,126.4z M211.1,125.4L211.1,125.4
		L211.1,125.4L211.1,125.4z M210.1,126.5l1-1.1L210.1,126.5L210.1,126.5z M209.3,122.4c-0.1-0.4-0.2-1-0.5-1.4
		c0.2-1.7,0.6-3.5,1.5-5l-1.3-0.7c-1,1.8-1.5,3.9-1.7,5.9c0,0.2,0.1,0.4,0.2,0.6l0,0l0,0l0,0l0,0l0,0l0,0l0,0l0,0l0,0
		c0.1,0.2,0.2,0.7,0.3,1L209.3,122.4L209.3,122.4z M211.1,114.9c0.9-1.2,2.2-2,3.7-2.4l0.1,0l0.1,0l0.1,0l0.1,0l0.1,0l0.1,0l0.1,0
		l0.1,0l0.1,0l0.1,0l0.1,0l0.1,0l0.1,0l0.1,0l0.1,0l0.1,0l0.1,0l0.1,0l0.1,0l0.1,0l0.1,0l0.1,0l0.1,0l0.1,0l0.1,0l0.1,0l0.1,0l0.1,0
		l0.1,0l0.1,0l0.1,0l0.1,0l0,0l-0.2-1.4l0,0l-0.1,0l-0.1,0l-0.1,0l-0.1,0l-0.1,0l-0.1,0l-0.1,0l-0.1,0l-0.1,0l-0.1,0l-0.1,0l-0.1,0
		l-0.1,0l-0.1,0l-0.1,0l-0.1,0l-0.1,0l-0.1,0l-0.1,0l-0.1,0l-0.1,0l-0.1,0l-0.1,0l-0.1,0l-0.1,0l-0.1,0l-0.1,0l-0.1,0l-0.1,0l-0.1,0
		l-0.1,0l-0.1,0c-1.8,0.4-3.4,1.4-4.5,2.9L211.1,114.9L211.1,114.9z M218.5,111.8c2.6-0.2,4.4,0.1,6.8,1.2l0.1,0l0.7-1.3
		c-2.6-1.3-4.8-1.6-7.6-1.4L218.5,111.8L218.5,111.8z M226.6,113.7L226.6,113.7L226.6,113.7l0.1,0.1l0.1,0l0.1,0l0.1,0l0.1,0l0.1,0
		l0.1,0l0.1,0l0.1,0l0.1,0l0.1,0l0.1,0l0.1,0l0.1,0l0.1,0l0.1,0l0.1,0l0.1,0l0.1,0l0.1,0l0.1,0l0.1,0l0.1,0l0.1,0l0.1,0l0.1,0l0.1,0
		l0.1,0l0.1,0l0.1,0l0.1,0l0.1,0l0.1,0l0.1,0l0.1,0l0.1,0l0.1,0l0.1,0l0.1,0l0,0l0,0l0,0l0.3,0.2l0,0c1.1,0.7,2,1.6,2.4,2.8l0,0
		l1.4-0.5c-0.6-1.5-1.6-2.6-3-3.5l-0.1,0l-0.3-0.2l0,0l0,0l-0.1,0l-0.1,0l-0.1,0l-0.1,0l-0.1,0l-0.1,0l-0.1,0l-0.1,0l-0.1,0l-0.1,0
		l-0.1,0l-0.1,0l-0.1,0l-0.1,0l-0.1,0l-0.1,0l-0.1,0l-0.1,0l-0.1,0l-0.1,0l-0.1,0l-0.1,0l-0.1,0l-0.1,0l-0.1,0l-0.1,0l-0.1,0l-0.1,0
		l-0.1,0l-0.1,0l-0.1,0l-0.1,0l-0.1,0l-0.1,0l-0.1,0l-0.1,0l-0.1,0l-0.1,0l-0.1,0l-0.1,0l0,0L226.6,113.7L226.6,113.7z M229.2,115.4
		L229.2,115.4L229.2,115.4L229.2,115.4z M230,114.2l-0.8,1.2L230,114.2L230,114.2z"/>
	<path fill="#663333" d="M220,159.9l0.2,0.3c-0.6-0.3-1.1-0.7-1.6-1l0,0l-0.8,1.2c0.1,0.1,0.3,0.2,0.4,0.3c1,0.7,3.5,2.3,4.8,2.1
		l0-0.1l0,0c0.2,0,0.3-0.1,0.4-0.3c0.1-0.2,0.2-0.3,0.2-0.5v0l0,0c1.7-0.1,3.9-1.6,4.9-2.5l-1-1.1c-1,0.8-2.5,1.8-3.8,2.1l0,0l0,0
		l0,0l0,0l0,0l0,0l0,0l0,0l0,0l-1.4-0.4l0,0l0,0.1l0,0.1l0,0.1l0,0.1l0,0.1l0,0.1l0,0.1l0,0.1l0,0.1l0,0.1l0,0.1l0,0.1l0,0.1l0,0.1
		l0,0.1l0,0.1l0,0.1l0,0.1l0,0.1l0,0.1l0,0.1l0,0.1l0,0.1l0,0.1l0,0.1l0,0.1l0,0.1l0,0c-0.3-0.1-0.6-0.3-0.8-0.3
		c-0.2-0.1-0.4-0.2-0.6-0.3l1-0.5l-0.4-0.8v0l0,0c-0.7-1.4-1.5-2.7-2.3-4c-0.4-0.6-0.8-1.1-1.2-1.6l-1.2,0.9c0.5,0.7,1,1.4,1.5,2.1
		C218.8,157.7,219.4,158.8,220,159.9L220,159.9L220,159.9L220,159.9L220,159.9z M223.6,161.7L223.6,161.7L223.6,161.7L223.6,161.7
		L223.6,161.7z M223.6,161.7L223.6,161.7L223.6,161.7L223.6,161.7z M223.7,161.6L223.7,161.6L223.7,161.6L223.7,161.6L223.7,161.6z
		 M223.7,161.6L223.7,161.6L223.7,161.6L223.7,161.6L223.7,161.6z M223.7,161.7L223.7,161.7L223.7,161.7L223.7,161.7L223.7,161.7z
		 M223.7,161.6L223.7,161.6L223.7,161.6L223.7,161.6L223.7,161.6L223.7,161.6L223.7,161.6L223.7,161.6z M223.7,161.6L223.7,161.6
		L223.7,161.6L223.7,161.6z M229.6,158.4c1.5-1.5,2.7-3.5,2.7-5.7l0,0c0-0.3-0.2-0.6-0.6-0.7c-0.1,0-0.1,0-0.2,0h-0.1l-0.1,0l-0.1,0
		l-0.1,0l-0.1,0l-0.1,0l-0.1,0l-0.1,0l-0.1,0l-0.1,0l-0.1,0l-0.1,0l-0.1,0l-0.1,0l-0.1,0l-0.1,0l-0.1,0l-0.1,0l-0.1,0l-0.1,0l-0.1,0
		l-0.1,0l-0.1,0l-0.1,0l-0.1,0l-0.1,0l0,0l0.3,1.4l0,0l0,0l0,0l0,0l0,0l0,0l0,0l0,0l0,0l0,0l0,0c-0.3,1.5-1.2,2.8-2.2,3.9
		L229.6,158.4L229.6,158.4z M228.4,152.7c-2.4,1-4.4,3.2-5.5,5.5l1.4,0.6c0.9-2,2.7-3.9,4.7-4.8L228.4,152.7L228.4,152.7z
		 M217.4,158.4c-0.9-0.7-1.8-1.4-2.6-2.1c-0.9-0.8-1.9-1.8-2.6-2.8l-1.2,0.8c0.5,0.8,1.1,1.5,1.8,2.1c1.1,1.1,2.4,2.2,3.7,3.1
		L217.4,158.4L217.4,158.4z M211.7,152.4L211.7,152.4L211.7,152.4L211.7,152.4l0-0.1l0,0l0,0l0,0l0,0l0,0l0,0l0,0v0l0,0l0,0l0,0l0,0
		l0,0l0,0l0,0l0,0l0,0l0,0l0,0l0,0l0,0l0,0l0,0l0,0l0,0l0,0l0,0l0,0l0,0l0,0l0,0l0,0l0,0l0,0l0,0l0,0l0,0l0,0l0,0l0,0l0,0l0,0l0,0
		c1.4-0.6,2.9,1,3.7,1.8l1.1-1c-1.3-1.5-3.3-3.1-5.4-2.2l-0.1,0l-0.1,0l-0.1,0l-0.1,0l-0.1,0l-0.1,0l-0.1,0l-0.1,0l-0.1,0l-0.1,0
		l-0.1,0l-0.1,0l0,0l0,0l0,0.1l0,0.1l0,0.1l0,0.1l0,0.1l0,0.1l0,0.1l0,0.1l0,0.1l0,0.1l0,0.1l0,0.1l0,0.1l0,0.1l0,0.1l0,0.1l0,0.1
		l0,0.1l0,0.1l0,0.1l0,0.1v0.1l0,0.1l0,0.1l0,0.1l0,0.1l0,0.1l0,0.1l0,0.1l0,0.1l0,0.1l0,0.1l0,0L211.7,152.4L211.7,152.4z"/>
	<path fill="#663333" d="M221.2,173.9L221.2,173.9c0.6,0.7,1.5,0.4,2.2,0.2c0.9-0.3,1.8-0.7,2.6-1.1l-0.7-1.3
		c-0.9,0.4-1.8,0.9-2.7,1.2c0,0-0.1,0-0.1,0c0.7-1.3,2.3-2.6,3.4-3.5l-0.9-1.2c-1.2,0.9-2.6,2.2-3.5,3.5c-1.1-1.5-2.4-3.1-3.8-4.3
		l-1,1.1c1.3,1.1,2.5,2.6,3.5,4l-0.1,0l0,0l-0.3,1.4C220.2,174,220.8,174,221.2,173.9L221.2,173.9z M221.3,173.9l0.4-0.3l0,0
		L221.3,173.9L221.3,173.9z M221.7,173.6c0.1,0,0.1-0.1,0.2-0.2l0.6-0.4L221.7,173.6L221.7,173.6z M227.3,172.2c2-1.2,4.7-3,5.9-5
		l-1.3-0.8c-1.1,1.7-3.6,3.4-5.4,4.5L227.3,172.2L227.3,172.2z M233.9,165.5L233.9,165.5l0-0.1l0-0.1l0-0.1l0-0.1l0-0.1l0,0
		c0-0.3-0.2-0.6-0.6-0.7c-0.1,0-0.1,0-0.2,0c-2.3,0-5.1,1.5-7,2.8l0.9,1.2c0.1-0.1,0.2-0.1,0.3-0.2c1.5-1,3.9-2.3,5.8-2.3
		C233.4,165.9,233.7,165.8,233.9,165.5L233.9,165.5L233.9,165.5z M232.6,165.4l0.5,0.1v0.5L232.6,165.4L232.6,165.4z M218.8,172
		c-0.7-0.3-1.3-0.7-1.9-1.1c-1.4-0.9-2.7-1.9-4-3l-1,1.1c1.6,1.4,3.4,2.8,5.3,3.9c0.3,0.2,0.6,0.3,0.9,0.5L218.8,172L218.8,172z
		 M211.9,166.9L211.9,166.9L211.9,166.9L211.9,166.9l-0.1-0.1l0,0l0,0l0,0l0,0l0,0l0,0l0,0l0,0l0,0l0,0c1.4-0.1,2.8,0.4,4,1.2
		l0.8-1.2c-1.7-1.1-3.6-1.6-5.7-1.3h0c0,0-0.1,0-0.1,0l0,0l-0.1,0c0,0-0.1,0-0.1,0l0,0c-0.1,0-0.2,0.1-0.3,0.2l0,0c0,0,0,0-0.1,0.1
		l0,0c0,0-0.1,0.1,0,0l0,0c-0.1,0.1-0.1,0.2-0.2,0.3l0,0c0,0,0,0.1,0,0.1c0,0,0,0.1,0,0.1v0.1l0,0c0,0,0,0.1,0,0.1c0,0,0,0,0,0l0,0
		c-0.1,0.2-0.1,0.5,0,0.7l0,0l0,0l0,0l0,0l0,0l0,0l0,0l0,0l0,0l0,0l0,0l0,0l0,0l0,0l0,0l0,0l0,0l0,0l0,0l0,0l0,0l0,0l0,0l0,0l0,0
		l0,0l0,0l0,0l0,0l0,0l0,0l0,0l0,0l0,0l0,0l0,0l0,0l0,0L211.9,166.9L211.9,166.9z M209.8,166.1L209.8,166.1L209.8,166.1L209.8,166.1
		L209.8,166.1L209.8,166.1L209.8,166.1L209.8,166.1L209.8,166.1z M209.8,166.1L209.8,166.1L209.8,166.1L209.8,166.1L209.8,166.1z
		 M209.8,166.1L209.8,166.1L209.8,166.1L209.8,166.1L209.8,166.1L209.8,166.1L209.8,166.1L209.8,166.1L209.8,166.1z M209.8,166.1
		L209.8,166.1L209.8,166.1L209.8,166.1z M209.8,166.1L209.8,166.1L209.8,166.1L209.8,166.1L209.8,166.1L209.8,166.1z"/>
	<path fill="#663333" d="M270.6,172.8c0.1,2.4,0.2,4.8,0.3,7.2l0,0.1c0,0,0-0.1,0-0.2l1.5,0.3c0-0.2,0-0.4,0-0.7
		c-0.1-2.3-0.2-4.6-0.3-6.9L270.6,172.8L270.6,172.8z M264.9,111L264.9,111L264.9,111l0,0.1l0,0.1l0,0.1l0,0.1l0,0.1l0,0.1l0,0.1
		l0,0.1l0,0.1l0,0.1l0,0.1l0,0.1l0,0.1l0,0.1l0,0.1l0,0.1l0,0.1l0,0.1l1.5-0.2l0-0.1l0-0.1l0-0.1l0-0.1l0-0.1l0-0.1l0-0.1l0-0.1
		l0-0.1l0-0.1l0-0.1l0-0.1l0-0.1l0-0.1l0-0.1l0-0.1l0,0l0,0v0l0.1,0l0.2,0l0.2,0l0.2,0l0.2,0l0.2,0l0.2,0l0.2,0l0.2,0l0.2,0l0.2,0
		l0.2,0l0.2,0l0.2,0l0.2,0l0.2,0l0.1,0l0-1.5l-0.1,0l-0.2,0l-0.2,0l-0.2,0l-0.2,0l-0.2,0l-0.2,0l-0.2,0l-0.2,0l-0.2,0l-0.2,0l-0.2,0
		l-0.2,0l-0.2,0l-0.2,0l-0.2,0l-0.2,0l-0.2,0l-0.2,0l-0.2,0l-0.2,0l-0.2,0l-0.2,0l-0.2,0l-0.2,0l-0.2,0l-0.2,0l-0.2,0l-0.2,0l-0.2,0
		l-0.2,0l-0.2,0l-0.2,0l-0.2,0l-0.2,0l-0.2,0l-0.2,0l-0.2,0l0,0l0.1,1.5l0,0l0.2,0l0.2,0l0.2,0l0.2,0l0.2,0l0.2,0l0.2,0l0.2,0l0.2,0
		l0.2,0l0.2,0l0.2,0l0.2,0L264.9,111L264.9,111z M265.2,113.6c0.3,2.4,0.6,4.9,0.8,7.3l1.5-0.2c-0.3-2.4-0.6-4.9-0.8-7.3
		L265.2,113.6L265.2,113.6z M266.2,122.4c0.3,2.4,0.5,4.9,0.8,7.3l0,0l1.5-0.1l0-0.1c-0.3-2.4-0.5-4.8-0.8-7.2L266.2,122.4
		L266.2,122.4z M267.2,131.1c0.1,0.9,0.2,1.8,0.3,2.8c0.1,0.7,0.1,1.4,0.2,2c-1.9,0.1-3.8,0.3-5.7,0.4l0.1,1.5
		c1.9-0.1,3.8-0.3,5.7-0.4l0,0.1l0,0c0,0.3,0.2,0.6,0.6,0.7c0.1,0,0.1,0,0.2,0h0.1h0.1l0.1,0h0.1l0.1,0l0.1,0l0.1,0l0.1,0l0.1,0
		c0.1,2.3,0.1,4.5,0.3,6.8l1.5-0.1c-0.1-1.9-0.2-3.7-0.2-5.6c0-0.6-0.1-1.2-0.1-1.7l-1.3,0l0-0.3l0.1,0l0-1.5l-0.3,0
		c-0.1-1.6-0.3-3.3-0.4-4.9l0,0L267.2,131.1L267.2,131.1z M270.8,138.2c2.5-0.1,5-0.2,7.5-0.4l-0.1-1.5c-2.5,0.2-5,0.3-7.4,0.4
		L270.8,138.2L270.8,138.2z M279.8,137.7c2.5-0.2,5-0.3,7.4-0.4l0-1.5c-2.5,0.1-5,0.2-7.5,0.4L279.8,137.7L279.8,137.7z
		 M288.7,137.3L288.7,137.3l0.1,0l0.1,0l0.1,0l0.1,0l0.1,0l0.1,0l0.1,0h0.1h0.1l0,0c0.3,0,0.6-0.2,0.7-0.6c0-0.1,0-0.1,0-0.2h-0.1
		l0.1-0.1c0-2.2-0.1-4.4-0.2-6.6l0,0l-1.5,0.1c0.1,2,0.2,4,0.2,6l0,0.6c0,0.1,0,0.1,0,0.2L288.7,137.3L288.7,137.3z M288.7,136.5
		L288.7,136.5L288.7,136.5L288.7,136.5L288.7,136.5z M289.9,128.4c-0.1-2.4-0.2-4.9-0.4-7.3l-1.5,0.1c0.2,2.4,0.3,4.9,0.4,7.3
		L289.9,128.4L289.9,128.4z M289.4,119.6c-0.1-2.1-0.3-4.2-0.6-6.3c-0.1-0.4-0.1-0.7-0.2-1.1l-1.5,0.3c0.2,1.2,0.3,2.5,0.4,3.7
		c0.1,1.2,0.2,2.4,0.3,3.5L289.4,119.6L289.4,119.6z M287.9,110.4c-1.4-1-6-1.1-7.7-1.2l0,1.5c0.8,0,1.6,0.1,2.4,0.1
		c0.9,0.1,3.8,0.3,4.6,0.8L287.9,110.4L287.9,110.4z M278.6,109.2L278.6,109.2l-0.2,0l-0.2,0l-0.2,0l-0.2,0l-0.2,0l-0.2,0l-0.2,0
		l-0.2,0l-0.2,0l-0.2,0l-0.2,0l-0.2,0l-0.2,0h-0.2l-0.2,0l-0.2,0l-0.2,0l-0.2,0l-0.2,0l-0.2,0l-0.2,0l-0.2,0l-0.2,0l-0.2,0l-0.2,0
		l-0.2,0l-0.2,0l-0.2,0l-0.2,0l-0.2,0l-0.2,0l-0.2,0l-0.2,0l-0.2,0l-0.2,0l-0.2,0l-0.2,0l-0.2,0l0,0l0,1.5l0,0l0.2,0l0.2,0l0.2,0
		l0.2,0l0.2,0l0.2,0l0.2,0l0.2,0l0.2,0l0.2,0l0.2,0l0.2,0l0.2,0l0.2,0l0.2,0l0.2,0l0.2,0l0.2,0l0.2,0l0.2,0l0.2,0l0.2,0l0.2,0h0.2
		l0.2,0l0.2,0l0.2,0l0.2,0l0.2,0l0.2,0l0.2,0l0.2,0l0.2,0l0.2,0l0.2,0l0.2,0l0.2,0l0.2,0l0.1,0L278.6,109.2L278.6,109.2z
		 M260.7,109.7c-1.9,0.1-3.8,0.2-5.8,0.4c-0.6,0-1.2,0.1-1.7,0.2l0.2,1.5c2.5-0.2,4.9-0.4,7.4-0.6L260.7,109.7L260.7,109.7z
		 M251.7,110.5L251.7,110.5L251.7,110.5l-0.1,0l0,0l0,0l0,0l0,0l0,0l0,0l0,0l0,0l0,0c-0.3,0.1-0.6,0.4-0.5,0.8l0,0l0,0
		c0.1,0.6,0.1,1.3,0.1,1.9c0.1,1.6,0.2,3.3,0.2,4.9l0,0.1l1.5-0.1c-0.1-1-0.1-2.1-0.1-3.1c-0.1-1.3-0.1-2.5-0.2-3.8l0-0.1
		c0-0.2-0.1-0.4-0.3-0.5C251.8,110.6,251.8,110.6,251.7,110.5L251.7,110.5L251.7,110.5z M251.9,111.7l-0.1-0.5l0.4,0L251.9,111.7
		L251.9,111.7z M251.1,119.8c0,1.1,0.1,2.2,0.1,3.3l0.2,4l0,0l1.5-0.1l0-0.2c-0.1-2.4-0.2-4.8-0.3-7.2l0,0L251.1,119.8L251.1,119.8z
		 M251.5,128.6c0.1,2.2,0.2,4.4,0.3,6.7l0,0.7l1.5-0.1l0-0.6c-0.1-2.2-0.2-4.5-0.3-6.7L251.5,128.6L251.5,128.6z M252.9,137.7
		c1,0.2,2.1,0.2,3.1,0.2c1.5,0,3-0.1,4.5-0.1l-0.1-1.5c-1.8,0.1-3.6,0.2-5.4,0.1c-0.6,0-1.2,0-1.8-0.2L252.9,137.7L252.9,137.7z
		 M269.4,146.4l0,0.2l0,0.2l0,0.2l0,0.2l0,0.2l0,0.2l0,0.2l0,0.2l0,0.2l0,0.2l0,0.2l0,0.2l0,0.2l0,0.2l0,0.2l0,0.2l0,0.2l0,0.2
		l0,0.2l0,0.2l0,0.2l0,0.2l0,0.2l0,0.2l0,0.2l0,0.2l0,0.2l0,0.2l0,0.2l0,0.2l0,0.2l0,0.2l0,0.2l1.5-0.1l0-0.2l0-0.2l0-0.2l0-0.2
		l0-0.2l0-0.2l0-0.2l0-0.2l0-0.2l0-0.2l0-0.2l0-0.2l0-0.2l0-0.2l0-0.2l0-0.2l0-0.2l0-0.2l0-0.2l0-0.2l0-0.2l0-0.2l0-0.2l0-0.2l0-0.2
		l0-0.2l0-0.2l0-0.2l0-0.2l0-0.2l0-0.2l0-0.2l0-0.2L269.4,146.4L269.4,146.4z M269.8,155.2L269.8,155.2l0,0.3l0,0.2l0,0.2l0,0.2
		l0,0.2l0,0.2l0,0.2l0,0.2l0,0.2l0,0.2l0,0.2l0,0.2l0,0.2l0,0.2l0,0.2l0,0.2l0,0.2l0,0.2l0,0.2l0,0.2l0,0.2l0,0.2l0,0.2l0,0.2l0,0.2
		l0,0.2l0,0.2l0,0.2l0,0.2l0,0.2l0,0.1l1.5-0.1l0-0.1l0-0.2l0-0.2l0-0.2l0-0.2l0-0.2l0-0.2l0-0.2l0-0.2l0-0.2l0-0.2l0-0.2l0-0.2
		l0-0.2l0-0.2l0-0.2l0-0.2l0-0.2l0-0.2l0-0.2l0-0.2l0-0.2l0-0.2l0-0.2l0-0.2l0-0.2l0-0.2l0-0.2l0-0.2l0-0.2l0-0.2l0,0L269.8,155.2
		L269.8,155.2z M270.2,164L270.2,164l0,0.3l0,0.2l0,0.2l0,0.2l0,0.2l0,0.2l0,0.2l0,0.2l0,0.2l0,0.2l0,0.2l0,0.2l0,0.2l0,0.2l0,0.2
		l0,0.2l0,0.2l0,0.2l0,0.2l0,0.2l0,0.2l0,0.2l0,0.2l0,0.2l0,0.2l0,0.2l0,0.2l0,0.2l0,0.2l0,0.2l0,0.2l0,0.2l0,0.2l0,0l1.5-0.1l0,0
		l0-0.2l0-0.2l0-0.2l0-0.2l0-0.2l0-0.2l0-0.2l0-0.2l0-0.2l0-0.2l0-0.2l0-0.2l0-0.2l0-0.2l0-0.2l0-0.2l0-0.2l0-0.2l0-0.2l0-0.2l0-0.2
		l0-0.2l0-0.2l0-0.2l0-0.2l0-0.2l0-0.2l0-0.2l0-0.2l0-0.2l0-0.2l0-0.2l0-0.2l0-0.1L270.2,164L270.2,164z"/>
	<path fill="#663333" d="M259.5,123.6c-1.9,0-3.9,0.1-5.9-0.1c-0.5,0-0.9-0.1-1.4-0.2l-0.3,1.4c0.7,0.2,1.5,0.2,2.3,0.2
		c1.8,0.1,3.6,0.1,5.3,0L259.5,123.6L259.5,123.6z M289.5,123.4L289.5,123.4l-0.1-0.1l-0.1,0l-0.1,0l-0.1,0l-0.1,0l-0.1,0l-0.1,0
		l-0.1,0l-0.1,0l-0.1,0l-0.1,0l-0.1,0l-0.1,0l-0.1,0l-0.1,0l-0.1,0l-0.1,0l-0.1,0l-0.1,0l-0.1,0l-0.1,0l-0.1,0l-0.1,0l-0.2,1.5
		l0.1,0l0.1,0l0.1,0l0.1,0l0.1,0l0.1,0l0,0l0,0l0,0l0,0l0,0l0,0l0,0l0,0l0,0l0,0l0,0l0,0l0,0l0,0l0,0l0,0l0,0l0,0L289.5,123.4
		L289.5,123.4z M286.4,122.7c-1,0-1.9,0-2.9,0c-1.5,0-3.1,0.1-4.6,0.1l0.1,1.5c2.2-0.1,4.4-0.2,6.7-0.1c0.2,0,0.5,0,0.7,0
		L286.4,122.7L286.4,122.7z M277.4,122.8L277.4,122.8l-0.2,0l-0.2,0l-0.2,0l-0.2,0l-0.2,0l-0.2,0l-0.2,0l-0.2,0l-0.2,0l-0.2,0
		l-0.2,0l-0.2,0l-0.2,0l-0.2,0l-0.2,0l-0.2,0l-0.2,0l-0.2,0l-0.2,0l-0.2,0l-0.2,0l-0.2,0l-0.2,0l-0.2,0l-0.2,0l-0.2,0l-0.2,0l-0.2,0
		l-0.2,0l-0.2,0l-0.2,0l-0.2,0l-0.2,0l-0.2,0l-0.2,0l-0.2,0l-0.2,0l-0.2,0l-0.1,0l0.1,1.5l0.1,0l0.2,0l0.2,0l0.2,0l0.2,0l0.2,0
		l0.2,0l0.2,0l0.2,0l0.2,0l0.2,0l0.2,0l0.2,0l0.2,0l0.2,0l0.2,0l0.2,0l0.2,0l0.2,0l0.2,0l0.2,0l0.2,0l0.2,0l0.2,0l0.2,0l0.2,0l0.2,0
		l0.2,0l0.2,0l0.2,0l0.2,0l0.2,0l0.2,0l0.2,0l0.2,0l0.2,0l0.2,0l0.2,0l0.2,0l0,0L277.4,122.8L277.4,122.8z M268.4,123.3l-0.1,0
		l-0.2,0l-0.2,0l-0.2,0l-0.2,0l-0.2,0l-0.2,0l-0.2,0l-0.2,0l-0.2,0l-0.2,0l-0.2,0l-0.2,0l-0.2,0l-0.2,0l-0.2,0l-0.2,0l-0.2,0l-0.2,0
		l-0.2,0l-0.2,0l-0.2,0l-0.2,0l-0.2,0l-0.2,0l-0.2,0l-0.2,0l-0.2,0l-0.2,0l-0.2,0l-0.2,0l-0.2,0l-0.2,0l-0.2,0l-0.2,0l-0.2,0l-0.2,0
		l-0.2,0l-0.2,0l-0.2,0l0,1.5l0.2,0l0.2,0l0.2,0l0.2,0l0.2,0l0.2,0l0.2,0l0.2,0l0.2,0l0.2,0l0.2,0l0.2,0l0.2,0l0.2,0l0.2,0l0.2,0
		l0.2,0l0.2,0l0.2,0l0.2,0l0.2,0l0.2,0l0.2,0l0.2,0l0.2,0l0.2,0l0.2,0l0.2,0l0.2,0l0.2,0l0.2,0l0.2,0l0.2,0l0.2,0l0.2,0l0.2,0l0.2,0
		l0.2,0l0.2,0l0.1,0L268.4,123.3L268.4,123.3z"/>
	<path fill="#663333" d="M263.4,104l-0.3-0.4l0.7-0.3L263.4,104L263.4,104z M264.9,110.7l1.4-0.6l0,0l0,0l0,0c0-0.1,0-0.2-0.1-0.2
		c0-0.2-0.1-0.4-0.1-0.5l0,0l0,0l0,0l0,0l0,0l0,0l0,0l0,0l0,0l0,0l0,0l0,0l0,0l0,0l0,0l0,0l0,0l0,0l0.1,0v0l0.2-0.1l0.1,0
		c0.1,0,0.2-0.1,0.3-0.2c0.7,0.2,1.4,0.2,2,0l-0.3-1.4c-0.4,0.1-0.8,0.1-1.2,0l0.8-2.3l0,0l0,0l0,0l0,0l0,0l0,0l0,0l0,0l0,0l0,0l0,0
		l0,0l0,0l0,0l-1.3-0.7l0,0l0,0.1l0,0.1l0,0.1l0,0.1l0,0.1l0,0.1l0,0.1l0,0.1l0,0.1l0,0.1l0,0.1l0,0.1l0,0.1l-1.1,3.1l0,0l0,0
		c-0.3-1.3-0.7-2.7-1-4c-0.1-0.2-0.1-0.5-0.2-0.7l0,0l0,0c-0.3-0.8-1.5-0.5-1.4,0.4c0,0.1,0,0.1,0.1,0.2c0.1,0.3,0.2,0.7,0.3,1.1
		c0.2,0.8,0.4,1.6,0.6,2.4l-0.7,0.8l0,0l0,0l0,0l0,0l0,0l0,0l0,0l0,0l0,0l0,0l0,0l0,0l0,0l0,0l0,0l0,0l0,0l0,0l0,0l0,0l0,0l0,0l0,0
		l0,0l0,0l0,0l0,0l0,0l0,0l0,0l0,0l0,0l0,0l0,0l0,0l0,0l0,0l0,0l0,0l0,0l0,0l0,0c0.1,0.2,0.3,0.4,0.5,0.4l0,0l0,0l0,0l0.1,0.6
		C264.6,109.9,264.8,110.3,264.9,110.7L264.9,110.7L264.9,110.7L264.9,110.7L264.9,110.7L264.9,110.7z M267.2,108.4L267.2,108.4
		L267.2,108.4L267.2,108.4L267.2,108.4z M270.5,108.4L270.5,108.4L270.5,108.4L270.5,108.4L270.5,108.4L270.5,108.4L270.5,108.4
		l0.1,0l0,0l0,0l0,0l0,0l0,0l0,0l0,0l0,0l0,0l0,0l0,0l0,0l0,0l0,0l0,0l0,0l0,0l0,0l0,0l0,0l0,0l0,0l0,0l0,0l0,0l0,0l0,0l0,0l0,0l0,0
		l0,0l0,0l0,0l0,0l0,0l0,0l0,0l0,0l0,0l0,0l0,0v0l0.9-0.4c0.1,0,0.3-0.1,0.4-0.3c0-0.1,0.1-0.1,0.1-0.2l0,0l0,0
		c0.2-0.4,2.1-0.9,2.6-1c0.7-0.2,1.4-0.5,2-0.8l-0.7-1.3c-0.7,0.4-1.7,0.7-2.5,0.9c-0.9,0.3-2.1,0.6-2.6,1.4l-0.7,0.4l0,0l0,0l0,0
		l0,0l0,0l0,0l0,0l0,0l0,0l0,0l0,0l0,0l0,0l0,0l0,0l0,0l0,0l0,0l0,0l0,0l0,0l0,0l0,0l0,0l0,0l0,0l0,0l0,0l0,0l0,0l0,0l0,0l0,0l0,0
		l0,0l0,0l0,0l0,0l0,0l0,0l0,0l0,0l0,0l0,0l0,0l0,0l0,0l0,0l0,0L270.5,108.4L270.5,108.4z M278.6,104.2L278.6,104.2L278.6,104.2
		L278.6,104.2l0.1-0.1l0,0l0,0l0,0l0,0l0,0l0,0l0,0l0,0l0,0l0,0l0,0l0,0l0,0l0,0l0,0l0.1,0l0,0l0,0l0,0l0,0l0,0l0.2-0.1l0,0l0,0l0,0
		l0,0l0.1-0.1l0,0l0,0l0.1,0l0,0l0,0l0,0l0,0l0,0l0,0l0,0c0,0,0.1-0.1,0.1-0.1l0,0l0,0l0,0l0,0l0,0l0,0l0,0l0,0l0,0l0,0l0,0l0,0l0,0
		l0,0l0,0l0,0l0,0l0,0l0,0l0,0l0,0l0,0l0,0l0,0l0,0l0,0l0,0l0,0l0,0l0,0l0,0l0,0l0,0l0,0l0.1-0.1l0,0l0,0c0.2-0.1,0.3-0.3,0.3-0.6
		c0,0,0-0.1,0-0.1l0,0l0-0.1c-0.4-2.2-1.7-3.6-4.1-3.7l0,1.5c1.5,0.1,2.3,0.8,2.6,2.1l0,0l0,0l0,0l0,0l0,0l0,0l0,0l0,0l0,0l0,0l0,0
		l0,0l0,0l0,0l0,0l0,0l0,0l0,0l0,0l0,0l0,0l0,0l0,0l0,0l0,0l0,0l0,0l0,0l0,0l0,0l0,0l0,0l0,0l0,0l0,0l0,0l0,0l0,0l0,0l0,0l0,0l0,0
		l0,0l0,0l0,0l0,0l0,0l0,0l0,0l0,0l0,0l0,0l0,0l0,0l0,0l0,0l0,0l0,0l0,0l0,0l0,0h0l0,0l0,0l0,0l-0.1,0l0,0l0,0l0,0l0,0l-0.3,0.1
		c-0.2,0.1-0.3,0.3-0.4,0.4l0,0l0,0l0,0l0,0l0,0l0,0l0,0l0,0l0,0l0,0l0,0l0,0l0,0l0,0l0,0l0,0l0,0l0,0l0,0l0,0l0,0l0,0l0,0
		L278.6,104.2L278.6,104.2z M274.7,98.5c-2.4,0.5-5.1,2.2-6.7,4l1.2,0.9c1.4-1.6,3.7-3.1,5.8-3.5L274.7,98.5L274.7,98.5z
		 M263.1,105.8c-1.6-1.2-3.2-2.3-4.8-3.4c-0.4-0.3-0.8-0.6-1.2-0.9l-0.9,1.1c1,0.8,2.1,1.5,3.1,2.3c1,0.7,1.9,1.4,2.9,2.1
		L263.1,105.8L263.1,105.8z M257.2,101c0.3-0.7,0.6-0.7,1.3-0.5c1,0.4,2.1,1.3,3,2c0.2,0.2,0.4,0.3,0.6,0.5l0.9-1.2
		c-1.1-0.9-2.3-1.9-3.6-2.6c-1.5-0.7-2.9-0.5-3.6,1.1l0,0.1L257.2,101L257.2,101z"/>
	<path fill="#663333" d="M268.9,162.3l1.4,3l1.3-0.6l-1.4-3l0,0l0,0l0-0.1l0-0.1l0-0.1l0-0.1l0-0.1l0-0.1l0-0.1l0-0.1l0-0.1l0-0.1
		l0-0.1l0-0.1l0-0.1l0-0.1l0-0.1l0-0.1l0-0.1l0-0.1l0-0.1l0-0.1l0-0.1l0-0.1l0-0.1l0-0.1l0-0.1l0-0.1l0-0.1l0-0.1l0-0.1l0-0.1l0-0.1
		l0-0.1l0-0.1l0-0.1l0-0.1l0-0.1l0-0.1l0-0.1l0-0.1l0-0.1l0-0.1l-1.3,0.7l0,0.1l0,0.1l0,0.1l0,0.1l0,0.1l0,0.1l0,0.1l0,0.1l0,0.1
		l0,0.1l0,0.1l0,0.1l0,0.1l0,0.1l0,0.1l0,0.1l0,0.1l0,0.1l0,0.1l0,0.1l0,0.1l0,0.1l0,0.1l0,0.1l0,0.1l0,0.1l0,0.1l0,0.1l0,0.1l0,0.1
		l0,0.1l0,0.1l0,0.1l0,0.1l0,0.1l0,0.1l0,0.1l0,0.1l0,0.1L268.9,162.3L268.9,162.3L268.9,162.3L268.9,162.3L268.9,162.3L268.9,162.3
		z M252.8,152.7c0.1,0.3,0.1,0.6,0.2,0.9l0,0l0,0.1l0,0l0.1,0.1l0,0l0,0l0,0c0,0,0,0.1,0.1,0.1l0,0l0,0l0,0l0,0l0,0l0,0l0,0l0,0l0,0
		l0,0c0,0,0,0,0,0l0,0l0,0l0,0l0,0l0,0l0,0l0,0l0,0l0,0l0,0l0,0l0,0l0,0l0,0c0,0,0,0,0,0l0,0l0,0l0,0l0,0l0,0c0,0,0,0,0,0l0,0l0,0
		l0,0l0,0l0,0l0,0l0,0l0,0l0,0l0,0l0,0l0,0l0,0l0,0l0,0l0,0l0,0l0,0l0,0l0,0l0,0l0,0l0,0l0,0l0,0c0.1,1,0.5,3.8-0.3,4.6l0,0l1,1.1
		c1.4-1.2,1-4.2,0.8-5.8l0-0.2l0,0l0-0.1v0c0-0.1,0-0.1,0-0.2l0,0l0,0l0,0l0-0.1l0,0l0,0l0,0c0,0,0-0.1-0.1-0.1l0,0l0,0l0,0
		c0-0.1,0-0.1-0.1-0.1l0,0l0-0.1l0,0l0,0l0,0l0,0l0,0l0,0l0,0l0,0l0,0l0,0l0,0l0,0l0,0l0,0l0,0l0,0l0,0l0,0l0,0l0,0l0,0l0,0l0,0l0,0
		l0,0l0,0l0,0l0,0l0,0l0,0l0,0l0,0l0,0l0,0l0,0l0,0l0,0l0,0l0,0l0,0l0,0v0l0-0.1l0,0c0-0.2-0.1-0.3-0.1-0.5L252.8,152.7L252.8,152.7
		z M253.3,154.2L253.3,154.2L253.3,154.2L253.3,154.2z M254.7,153.9l-1.5,0.2L254.7,153.9L254.7,153.9z M252.3,158.8
		c-0.6-0.2-1.1-0.6-1.5-1c-1.1-1.1-1.9-2.7-2.1-4.2l-1.5,0.2c0.2,1.2,0.6,2.4,1.3,3.5c0.7,1.2,1.9,2.5,3.2,2.9L252.3,158.8
		L252.3,158.8z M248.8,152.3c0-0.1,0-0.2,0-0.3c0.3-1.4,1.3-2.3,2.6-2.8l0.1,0l0.1,0l0.1,0l0.1,0l0.1,0l0.1,0l0.1,0l0.1,0l0.1,0
		l0.1,0l0.1,0l0.1,0l0.1,0l0.1,0l0.1,0l0.1,0l0.1,0l0.1,0l0.1,0l0,0l-0.3-1.4l-0.1,0l-0.1,0l-0.1,0l-0.1,0l-0.1,0l-0.1,0l-0.1,0
		l-0.1,0l-0.1,0l-0.1,0l-0.1,0l-0.1,0l-0.1,0l-0.1,0l-0.1,0l-0.1,0l-0.1,0l-0.1,0l-0.1,0l-0.1,0c-2,0.8-3.3,2.2-3.6,4.3l0,0
		L248.8,152.3L248.8,152.3z M254.9,148.4c2.4-0.2,4.5,0.7,6.3,2.2l1-1.1c-2.1-1.8-4.6-2.7-7.4-2.5L254.9,148.4L254.9,148.4z
		 M262.2,151.5c1.7,1.7,3,3.8,4.2,5.8l1.3-0.7c-1.2-2.2-2.6-4.3-4.4-6.1L262.2,151.5L262.2,151.5z"/>
	<path fill="#663333" d="M271.2,168.6c-0.2,2.4-0.3,4.9-0.4,7.3l1.5,0.1c0.2-2.4,0.3-4.9,0.4-7.3L271.2,168.6L271.2,168.6z
		 M287.9,160.1c-1.7,0.4-1.6,2.4-1.6,3.8c0,0.1,0,0.3,0,0.5v0l0,0c0,0.2,0,0.5,0.2,0.7l0.1,0.1l0.1,0.1l0.1,0.1l0.1,0.1l0.1,0.1
		l0.1,0.1l0.1,0l0.1,0l0.1,0l0.1,0l0.1,0l0.1,0l0.1,0l0.1,0l0.1,0l0.1,0l0.1,0l0.1,0l0.1,0l0.1,0l0.1,0l0.1,0l0.1,0l0.1,0l0.1,0
		l0.1,0l0.1,0l0.1,0l0.1,0l0.1,0l0.1,0l0.1,0l0.1,0l0.1,0l0.1,0l0.1,0l0.1,0l0.1,0l0.1,0l0.1,0l0.1,0l0.1,0l0.1,0l0,0l0.6-1.3l0,0
		l0,0l0,0l0,0l0,0l0,0l0,0l0,0l0,0l0,0l0,0l0,0l0,0l0,0l0,0l0,0l0,0l0,0l0,0l0,0l0,0l0,0l0,0l0,0l0,0l0,0l0,0l0,0l0,0l0,0l0,0l0,0
		l-0.1,0l0,0l0,0l0,0l-0.1,0l-0.1,0l0,0c0-0.8-0.1-1.9,0.2-2.5c0,0,0-0.1,0.1-0.1v0l0,0l0,0l0,0c0,0,0.1,0,0.1-0.1L287.9,160.1
		L287.9,160.1z M290.7,167.2c2,0.2,3.5-0.8,4.2-2.6c0.4-1.1,0.5-2.2,0.4-3.3l-1.5,0.1c0.2,1.5-0.1,3.6-1.9,4.2
		c-0.4,0.1-0.7,0.1-1.1,0.1L290.7,167.2L290.7,167.2z M295,159.8L295,159.8l0-0.1l0-0.1l0-0.1l0-0.1l0-0.1l0-0.1l0-0.1l0-0.1l0-0.1
		l0-0.1l0-0.1l0-0.1c-0.7-2.1-1.7-4.4-3.6-5.7l-0.9,1.2c1.5,1.1,2.4,3.3,3,5l0,0.1l0,0.1l0,0.1l0,0.1l0,0.1l0,0.1l0,0.1l0,0.1l0,0.1
		l0,0.1l0,0.1l0,0.1l0,0L295,159.8L295,159.8z M289.6,152.3c-2.5-0.8-5,0.1-7.3,1c-0.1,0.1-0.3,0.1-0.4,0.2l0.6,1.3
		c0.1,0,0.3-0.1,0.4-0.2c1.8-0.8,4.2-1.7,6.2-1l0,0L289.6,152.3L289.6,152.3z M280.5,154L280.5,154l-0.1,0l-0.1,0l-0.1,0l-0.1,0
		l-0.1,0l-0.1,0l-0.1,0l-0.1,0l-0.1,0c-2.2,0.9-4.3,2.3-5.7,4.2l1.2,0.9c1.3-1.7,3-2.9,5.1-3.7l0.1,0l0.1,0l0.1,0l0.1,0l0.1,0l0.1,0
		l0.1,0l0.1,0l0.1,0l0,0L280.5,154L280.5,154z M273.4,159.8c-1.3,2.3-1.7,4.8-2,7.3l1.5,0.2c0.3-2.3,0.7-4.7,1.9-6.8L273.4,159.8
		L273.4,159.8z"/>
	<path fill="#663333" d="M84.4,167.8c0.6,1.7,1.4,4.2,1.1,6.2c-0.3,0.3-0.6,0.3-1,0.2l-0.4,1.4c1,0.3,1.8,0,2.4-0.5L84.4,167.8
		L84.4,167.8z M88.1,175L88.1,175C88.1,175,88.2,175,88.1,175L88.1,175L88.1,175L88.1,175l0.1-0.1L88.1,175L88.1,175L88.1,175z
		 M87.3,173.7l0.2-0.4c0.3-0.4,0.4-0.8,0.6-1.3c0.3-0.8,0.6-1.6,0.8-2.3l-1.4-0.5c-0.2,0.7-0.4,1.3-0.7,2c-0.2-1.4-0.7-2.8-1.1-4
		l-1.4,0.5L87.3,173.7L87.3,173.7z M88.2,174.9L88.2,174.9L88.2,174.9L88.2,174.9L88.2,174.9L88.2,174.9L88.2,174.9L88.2,174.9
		L88.2,174.9L88.2,174.9L88.2,174.9L88.2,174.9l0.1-0.1l0,0c0.6-0.3,1.2-0.6,1.8-0.9l0,0l0,0l0.1,0l0,0l0.1,0l0,0l0.1,0l0,0l0,0l0,0
		l0,0l0,0l0,0l0,0l-0.6-1.3l0,0l0,0l0,0l0,0l0,0l0,0c-0.3,0.1-0.7,0.3-1,0.5c-0.4,0.2-0.7,0.4-1.1,0.6l0,0l-0.1,0.1l0,0l0,0l0,0l0,0
		l0,0l0,0l0,0L88.2,174.9L88.2,174.9z M87.8,174.3l-0.3-0.7L87.8,174.3L87.8,174.3z M88.2,174.9L88.2,174.9L88.2,174.9L88.2,174.9z
		 M90.3,173.9L90.3,173.9c1.1-0.5,2.1-1.1,3-1.9l-0.9-1.1c-0.9,0.7-1.7,1.2-2.7,1.7l0,0L90.3,173.9L90.3,173.9z M94.5,171
		c0.7-0.6,1.5-1.2,2.3-1.7c1.3-0.8,2.5-1.9,3.5-3l-1.1-1c-1,1-2,2-3.2,2.8c-0.9,0.6-1.7,1.2-2.4,1.8L94.5,171L94.5,171z M86.4,175.2
		L86.4,175.2L86.4,175.2L86.4,175.2L86.4,175.2L86.4,175.2L86.4,175.2L86.4,175.2L86.4,175.2L86.4,175.2L86.4,175.2L86.4,175.2
		L86.4,175.2L86.4,175.2L86.4,175.2L86.4,175.2L86.4,175.2L86.4,175.2L86.4,175.2L86.4,175.2L86.4,175.2L86.4,175.2L86.4,175.2
		L86.4,175.2l0.1,0h0l0,0l0,0l0.1,0l0,0l0.1,0l0,0l0,0v0c0.1,0,0.2,0,0.2,0c0.1,0,0.2,0,0.3,0c0.3,0,0.6-0.1,0.8-0.2l0,0l0,0l0,0
		l0,0l0,0l0,0l0,0l0,0l0,0l0,0l0,0v0l-0.3-0.7l-0.1-0.2l-0.2-0.4l0,0l0-0.1l0,0l0,0l0,0l0,0l0,0l0,0l0,0l0,0l0,0l0,0l0,0l0,0l0,0h0
		l0,0l-0.1,0h0l0,0h0l0,0h0l0,0h0l0,0l0,0l0,0h0l-0.1,0l0,0l0,0l0,0l0,0h0l-0.1,0l0,0l-0.1,0l0,0l-0.1,0l0,0l0,0c-0.1,0-0.1,0-0.2,0
		h0c-0.1,0-0.2,0-0.3,0L86.4,175.2L86.4,175.2L86.4,175.2z M101.3,165.1c1.6-2,2.9-4.1,3.9-6.4l-1.4-0.6c-1,2.2-2.2,4.2-3.7,6.1
		L101.3,165.1L101.3,165.1z M105.8,157.3c0.9-2.4,1.4-5,1.1-7.5l-1.5,0.2c0.3,2.3-0.3,4.7-1.1,6.8L105.8,157.3L105.8,157.3z
		 M106.7,148.2l0-0.1c-0.5-2.1-1.6-4.9-4.3-4.4c-0.6,0.1-1.2,0.4-1.7,0.8l0.8,1.2c0.5-0.3,1.1-0.6,1.7-0.5c1.2,0.2,1.8,2.4,2,3.4
		l0,0L106.7,148.2L106.7,148.2z M99.4,145.5c-1.5,1.4-2.9,3.3-4,5c-0.2,0.3-0.4,0.6-0.6,1l1.3,0.8c1.2-1.9,2.6-4,4.3-5.6l0.1-0.1
		L99.4,145.5L99.4,145.5z M94,152.8c-1.2,2.2-2.2,4.5-3.1,6.8l1.4,0.5c0.4-1,0.8-2.1,1.3-3.1c0.5-1.2,1.1-2.3,1.7-3.5L94,152.8
		L94,152.8z M90.4,160.9c-0.8,2.3-1.6,4.6-2.4,7l1.4,0.4c0.1-0.2,0.1-0.3,0.2-0.5c0.7-2.1,1.4-4.3,2.2-6.4L90.4,160.9L90.4,160.9z
		 M83.3,173.6c-1.4-0.9-2.8-2.4-3.9-3.6c-0.4-0.5-0.8-0.9-1.2-1.4l-1.2,0.9c0.7,0.9,1.4,1.7,2.2,2.5c1,1,2.1,2.1,3.3,2.8L83.3,173.6
		L83.3,173.6z M77.3,167.5L77.3,167.5L77.3,167.5l-0.1-0.1l0,0l0,0l0,0l0,0l0,0l0,0l0,0l0,0l0,0l0,0l0,0l0,0l0,0l0,0l0,0l0,0l0,0
		l0,0l0,0l0,0l0,0l0,0l0,0l0,0l0,0l0,0l0,0l0,0l0,0l0,0l0,0l0,0l0,0l0,0l0,0l0,0l0,0l0,0l0,0l0,0l0,0l0,0l0,0l0,0
		c-1-1.5-2.1-3-3.1-4.6l0,0l-1.3,0.8c0,0,0.1,0.1,0.1,0.1c1,1.5,2,3,3,4.4l0,0l0,0l0,0l0,0l0,0l0,0l0,0l0,0l0,0l0,0l0,0l0,0l0,0l0,0
		l0,0l0,0l0,0l0,0l0,0l0,0l0,0l0,0l0,0l0,0l0,0l0,0l0,0l0,0l0,0l0,0l0,0l0,0l0,0l0,0l0,0l0,0l0,0l0,0l0,0l0,0l0,0l0,0l0,0l0,0l0,0
		l0,0l0,0L77.3,167.5L77.3,167.5z M72.4,160.2c-0.6-1-1.2-2-1.8-3.1c-0.6-1.1-1.1-2.2-1.6-3.3l-1.4,0.5c0.9,2.3,2.1,4.4,3.4,6.5
		l0.1,0.1L72.4,160.2L72.4,160.2z M68.5,152.5c-0.3-1.1-0.6-2.4-0.4-3.6l0,0c0.2-0.7,0.5-2,1.2-2.5l-0.8-1.2c-1,0.7-1.5,2.1-1.8,3.3
		l0,0.1c-0.3,1.4,0,3,0.4,4.3L68.5,152.5L68.5,152.5z M68.2,149L68.2,149L68.2,149L68.2,149z M66.7,148.6l1.5,0.3L66.7,148.6
		L66.7,148.6z M70.1,146.5c0.6,0.2,1.4,1,1.9,1.4c0.8,0.9,1.6,1.9,2.3,2.8l0,0l0,0l0,0l0,0l0,0.1l0,0.1l0,0.1l0,0.1l0,0.1l0,0.1
		l0,0.1l0,0.1l0,0.1l0,0.1l0,0.1l0,0.1l0,0l1.2-0.9l0,0l-0.1-0.1l0-0.1l0-0.1l0-0.1l0-0.1l0-0.1l0-0.1l0-0.1l0-0.1l0-0.1l0-0.1
		l0-0.1c-1.1-1.4-2.3-3.1-3.8-4.1c-0.3-0.2-0.8-0.5-1.1-0.6L70.1,146.5L70.1,146.5z M75.8,152.6c1.4,2,2.8,4,4,6.1l1.3-0.7
		c-0.7-1.2-1.4-2.3-2.2-3.5c-0.6-0.9-1.2-1.8-1.9-2.7L75.8,152.6L75.8,152.6z M80.6,160c1.2,2.1,2.3,4.3,3.3,6.5l1.4-0.6
		c-1-2.3-2.1-4.5-3.4-6.6L80.6,160L80.6,160z"/>
	<path fill-rule="evenodd" clip-rule="evenodd" fill="#BDE6BD" d="M86.5,173.6c-2.2-1.5-5.7-9.1-7.4-12.3c-2.4-4.2-2.2-5.7-5.7-9.7
		c-1-1.1-2.7-6-4.2-3.4c-1.6,2.8,7.2,16.2,9.9,18.7c1.8,1.7,3.8,6.4,6.4,6.6C86,173.6,85.8,173.2,86.5,173.6L86.5,173.6z"/>
	<path fill-rule="evenodd" clip-rule="evenodd" fill="#BDE6BD" d="M90.3,170.3c6.2-3.8,6.6-5.5,9.9-11.5c1.1-2,3.4-9.7,1.7-10.7
		c0-0.3,0-0.2,0-0.3c-1.4-0.5-3.5,2.8-3.9,4c-1.5,4.1-5.1,9-7.3,13.9c-0.6,1.4-2,3-0.5,4.1l0.1,0.3
		C90.2,170.3,90.3,170.4,90.3,170.3L90.3,170.3z"/>
	<path fill-rule="evenodd" clip-rule="evenodd" fill="#663333" d="M218.9,104.3c1.4,0,2.6,1.2,2.6,2.6c0,1.4-1.2,2.6-2.6,2.6
		s-2.6-1.2-2.6-2.6C216.3,105.5,217.5,104.3,218.9,104.3L218.9,104.3z"/>
</g>
</svg>
