<?xml version="1.0" encoding="utf-8"?>
<!-- Generator: Adobe Illustrator 18.0.0, SVG Export Plug-In . SVG Version: 6.00 Build 0)  -->
<!DOCTYPE svg PUBLIC "-//W3C//DTD SVG 1.1//EN" "http://www.w3.org/Graphics/SVG/1.1/DTD/svg11.dtd">
<svg version="1.1" id="logo" xmlns="http://www.w3.org/2000/svg" xmlns:xlink="http://www.w3.org/1999/xlink" x="0px" y="0px"
	 viewBox="0 0 288.1 77.9" enable-background="new 0 0 288.1 77.9" xml:space="preserve">
<g>
	<path fill="#FF6699" d="M11.7,6l0.1-0.1l0.1-0.1l0.1-0.1L12,5.6l0.1-0.1l0.1-0.1l0.1-0.1l0.1-0.1L12.5,5l0.1-0.1l0.1-0.1l0.1-0.1
		l0.1-0.1L13,4.5l0.1-0.1l0.1-0.1l0.1-0.1l0.1-0.1l0.1-0.1L13.6,4l0.1-0.1l0.1-0.1L14,3.8l0.1-0.1l0.1-0.1l0.1-0.1l0.1-0.1l0.1-0.1
		l0.1-0.1l0.1-0.1L15,3.2l0.1-0.1L15.3,3L15.5,3l0.1-0.1l0.1-0.1l0.1-0.1L16,2.7l0.2-0.1l0.2-0.1l0.2-0.1l0.2-0.1l0.2,0l-0.4-1.3
		l-0.2,0.1l-0.2,0.1l-0.2,0.1l-0.2,0.1l-0.2,0.1l-0.2,0.1l-0.2,0.1l-0.2,0.1l-0.2,0.1l-0.2,0.1l-0.2,0.1L14.4,2L14.3,2l-0.2,0.1
		l-0.2,0.1l-0.1,0.1l-0.1,0.1l-0.1,0.1l-0.1,0.1l-0.1,0.1l-0.1,0.1L13,2.8l-0.1,0.1L12.7,3l-0.1,0.1l-0.1,0.1l-0.1,0.1l-0.1,0.1
		l-0.1,0.1l-0.1,0.1l-0.1,0.1l-0.1,0.1L11.6,4l-0.1,0.1l-0.1,0.1l-0.1,0.1l-0.1,0.1l-0.1,0.1L11,4.7l-0.1,0.1L10.8,5l-0.1,0.1
		l-0.1,0.1L11.7,6L11.7,6z M15.4,75.4c-1.7-0.6-3-1.7-4-3.2l-1.2,0.7c1.1,1.8,2.7,3.1,4.7,3.8L15.4,75.4L15.4,75.4z M10.7,71
		c-1-2-1.5-4.1-1.9-6.2L7.5,65c0.4,2.3,0.9,4.6,2,6.6L10.7,71L10.7,71z M8.7,63.5c-0.3-2.2-0.3-4.4-0.3-6.6v0l-1.4,0
		C7,58,7,59.2,7,60.4c0.1,1.1,0.1,2.2,0.3,3.3L8.7,63.5L8.7,63.5z M8.4,55.5c0.1-2.1,0.2-4.3,0.4-6.4l0-0.3l-1.4-0.1l0,0.3
		c-0.2,2.2-0.3,4.3-0.4,6.5L8.4,55.5L8.4,55.5z M8.9,47.5l0-0.1l0-0.3l0-0.3l0-0.3l0-0.3L9,46l0-0.3l0-0.3l0-0.3L9,45l0-0.2l0-0.2
		l0-0.2L9,44l0-0.2l0-0.2l0-0.2l0-0.2l0-0.2l0-0.2l0-0.2l0-0.2l0-0.2l0-0.2l0-0.2l0-0.2l0-0.2l0-0.2l0-0.2l0-0.2l0-0.1l-1.4,0.2
		l0,0.1l0,0.2l0,0.2l0,0.2l0,0.2l0,0.2l0,0.2l0,0.2l0,0.2l0,0.2l0,0.2l0,0.2l0,0.2l0,0.2l0,0.2l0,0.2l0,0.2l0,0.2l0,0.2l0,0.2l0,0.2
		l0,0.2l0,0.2l0,0.3l0,0.3l0,0.3l0,0.3l0,0.3l0,0.3l0,0.3l0,0.1L8.9,47.5L8.9,47.5z M8.6,39.2C8.5,38.6,8.3,38,8,37.3l0.6,0.2
		c0.8-2.1,0.9-4.7,0.9-6.9l-1.4,0c0,1.8-0.1,4-0.6,5.8c-0.5-0.7-1.1-1.3-2.1-1.4c-1-0.1-1.8,0.4-2.5,1l1,1c0.3-0.3,0.7-0.5,1.1-0.6
		c0.9-0.2,1.5,0.7,1.8,1.6l0,0l0,0l0,0l0,0c-0.8,0.4-2.7,1.2-3.5,0.9c-0.3-0.1-0.2-0.5-0.1-0.7c0-0.1,0.1-0.2,0.1-0.3l-1.3-0.6
		c-0.7,1.6-0.1,3,1.8,3c1.1-0.1,2.3-0.5,3.3-1l0,0L8.6,39.2L8.6,39.2z M9.5,29.3l0-0.1l0-0.2l0-0.2l0-0.2l0-0.2l0-0.2l0-0.2l0-0.2
		l0-0.2l0-0.2l0-0.2l0-0.2l0-0.2l0-0.2l0-0.2l0-0.2l0-0.2l0-0.2l0-0.2l0-0.2l0-0.2l0-0.2l0-0.2l0-0.2l0-0.2l0-0.2l0-0.2l0-0.2l0-0.2
		l0-0.2l0-0.2l0-0.2l0-0.2l0-0.2l0-0.2l0-0.2l0-0.2l0-0.2l0-0.1l-1.4,0.1l0,0.1l0,0.2l0,0.2l0,0.2l0,0.2l0,0.2l0,0.2l0,0.2l0,0.2
		l0,0.2l0,0.2l0,0.2l0,0.2l0,0.2l0,0.2l0,0.2l0,0.2l0,0.2L8,26l0,0.2l0,0.2l0,0.2l0,0.2l0,0.2l0,0.2l0,0.2l0,0.2l0,0.2l0,0.2l0,0.2
		l0,0.2l0,0.2l0,0.2l0,0.2l0,0.2l0,0.2l0,0.2l0,0.2l0,0.1L9.5,29.3L9.5,29.3z M9.1,21.2L9.1,21.2l0-0.2l0-0.2l0-0.2l0-0.2l0-0.2
		l0-0.2l0-0.2l0-0.2l0-0.2l0-0.2l0-0.2L9,19l0-0.2l0-0.2l0-0.2l0-0.2l0-0.2L9,18l0-0.2l0-0.2l0-0.2l0-0.2l0-0.2l0-0.2l0-0.2l0-0.2
		l0-0.2l0-0.2l0-0.2l0-0.2l0-0.2l0-0.2l0-0.2l0-0.2l0-0.2l0-0.2l0-0.2l0,0l-1.4-0.1l0,0l0,0.2l0,0.2l0,0.2l0,0.2l0,0.2l0,0.2l0,0.2
		l0,0.2l0,0.2l0,0.2l0,0.2l0,0.2l0,0.2l0,0.2l0,0.2l0,0.2l0,0.2l0,0.2l0,0.2l0,0.2l0,0.2l0,0.2l0,0.2l0,0.2l0,0.2l0,0.2l0,0.2l0,0.2
		l0,0.2l0,0.2l0,0.2l0,0.2l0,0.2l0,0.2l0,0.2l0,0.2l0,0.2l0,0L9.1,21.2L9.1,21.2z M9.3,13.3L9.3,13.3l0-0.2l0-0.2l0-0.2l0-0.2l0-0.2
		l0-0.2l0-0.2l0-0.2l0-0.2l0-0.2l0-0.2l0-0.2l0-0.2l0-0.2l0-0.2l0-0.2l0-0.2l0-0.2l0-0.2l0-0.2l0-0.1l0-0.1l0-0.1l0-0.1l0-0.1l0-0.1
		l0-0.1l0-0.1l0.1-0.1l0.1-0.1l0.1-0.1l0.1-0.1l0.1-0.1l0.1-0.1L10.6,8l0.1-0.1l0.1-0.1l0.1-0.1l0.1-0.1l0.1-0.1L11,7.2L11,7.1l0,0
		L9.8,6.4l0,0L9.7,6.6L9.7,6.7L9.6,6.9L9.5,7L9.5,7.1L9.4,7.3L9.3,7.4L9.3,7.6L9.2,7.7L9.1,7.9L9.1,8L9,8.2L9,8.3L8.9,8.5L8.8,8.6
		L8.8,8.8L8.7,9l0,0.2l0,0.2l0,0.2l0,0.2l0,0.2l0,0.2l0,0.2l0,0.2l0,0.2l0,0.2l0,0.2l0,0.2l0,0.2l0,0.2l0,0.2l0,0.2l0,0.2l0,0.2
		l0,0.2l0,0.2l0,0.2l0,0.2l0,0.2l0,0.2l0,0.2l0,0L9.3,13.3L9.3,13.3z"/>
	<path fill="#663333" d="M57.9,29.7c0,3.6-1.4,6.2-4.1,8c-2.8,1.8-6.4,2.6-11.1,2.6c-0.6,0-1.1,0-1.5,0c0,3.4,0.1,7.5,0.4,12.3H37
		c0.2-4.4,0.4-9.8,0.4-16c0-5.4-0.1-10.2-0.4-14.5h3.4c0.4,0,1.4,0,3.1-0.1c1.7,0,3.2-0.1,4.4-0.1c3.1,0,5.5,0.7,7.3,2
		C57,25.4,57.9,27.3,57.9,29.7L57.9,29.7z M54,31.1c0-4-2.8-6-8.4-6c-1.4,0-2.9,0.1-4.6,0.4c0.1,2.5,0.2,6.5,0.2,11.9
		c0.6,0,1.2,0,2.1,0C50.4,37.3,54,35.3,54,31.1L54,31.1z M80.6,52.6l-3.7,0.1c-0.2-0.8-0.3-1.5-0.3-2.2h-0.2c-2,1.8-4.6,2.6-8,2.6
		c-1.8,0-3.4-0.5-4.7-1.6c-1.3-1-2-2.6-2-4.5c0-2.4,1-4.3,3.1-5.8c2.1-1.5,5.9-2.2,11.5-2.3c0-0.4,0.1-0.8,0.1-1.3
		c0-1.9-0.5-3.2-1.6-3.8c-1-0.6-2.6-1-4.7-1c-2.5,0-4.9,0.3-7.4,0.9l0.4-3.2c2.4-0.7,5.1-1,8.2-1c2.8,0,5,0.6,6.6,1.7
		c1.5,1.2,2.3,3.1,2.3,5.9c0,0.7,0,2.1-0.1,4c-0.1,1.9-0.1,3.2-0.1,3.9C79.9,47.9,80.1,50.4,80.6,52.6L80.6,52.6z M76.3,48.1
		c-0.1-2.4-0.1-4.5-0.1-6.4c-3,0-5.3,0.2-6.8,0.7c-2.6,0.8-3.9,2.3-3.9,4.5c0,2.1,1.5,3.2,4.6,3.2C72.7,50,74.8,49.4,76.3,48.1
		L76.3,48.1z M106.8,52.6h-4.3c0.3-4.1,0.5-8.6,0.5-13.4c0-2.4-0.5-4-1.5-4.9c-1-0.9-2.4-1.3-4.3-1.3c-2.3,0-4.3,0.8-6.2,2.4
		c0,5.3,0,11.1,0.1,17.3h-4.3c0.3-5.3,0.4-9.2,0.4-11.5c0-3.7-0.3-7.2-1-10.6l4.2-0.6l0.4,2.9h0.2c2.4-2.1,4.9-3.1,7.6-3.1
		c2.6,0,4.7,0.6,6.1,1.7c1.4,1.2,2.2,3.2,2.2,6.1c0,0.3,0,0.9,0,1.8c0,0.9,0,1.5,0,1.8C106.7,43.6,106.7,47.5,106.8,52.6L106.8,52.6
		z M134.8,40.8c0,4-1.2,7.1-3.5,9.4c-2.3,2.2-5.1,3.4-8.3,3.4c-3,0-5.5-1-7.6-3c-2.1-2-3.2-4.8-3.2-8.4c0-4,1.2-7.2,3.5-9.4
		c2.3-2.3,5.1-3.4,8.3-3.4c3,0,5.5,1,7.6,3C133.8,34.4,134.8,37.2,134.8,40.8L134.8,40.8z M130.7,41.7c0-2.4-0.6-4.6-1.9-6.5
		c-1.3-1.9-3-2.8-5.3-2.8c-2.3,0-4.1,0.9-5.3,2.7c-1.2,1.8-1.8,3.9-1.8,6.3c0,2.5,0.6,4.6,1.9,6.5c1.2,1.9,3,2.8,5.4,2.8
		c2.3,0,4-0.9,5.3-2.7C130.1,46.1,130.7,44,130.7,41.7L130.7,41.7z M176.8,36.3c0,4.4-1.4,8.3-4.3,11.7c-2.9,3.3-6.9,5-11.9,5
		c-1.7,0-4.4-0.1-8.3-0.3c0.2-4.8,0.4-10.2,0.4-16c0-5.5-0.1-10.3-0.4-14.5h2.6c0.6,0,1.6,0,2.9-0.1c1.3,0,2.2-0.1,2.6-0.1
		c5.6,0,9.7,1.4,12.4,4.1C175.4,28.8,176.8,32.2,176.8,36.3L176.8,36.3z M172.6,37.3c0-3.5-1.1-6.4-3.4-8.7
		c-2.2-2.3-5.7-3.5-10.4-3.5c-0.7,0-1.6,0.1-2.7,0.2c0.1,3.6,0.2,7.4,0.2,11.2c0,4.2,0.1,8.5,0.3,12.8c1.3,0.2,2.5,0.4,3.7,0.4
		c4.2,0,7.3-1.2,9.4-3.7C171.6,43.7,172.6,40.8,172.6,37.3L172.6,37.3z M204.1,40.8c0,4-1.2,7.1-3.5,9.4c-2.3,2.2-5.1,3.4-8.3,3.4
		c-3,0-5.5-1-7.6-3c-2.1-2-3.2-4.8-3.2-8.4c0-4,1.2-7.2,3.5-9.4c2.3-2.3,5.1-3.4,8.3-3.4c3,0,5.5,1,7.6,3
		C203,34.4,204.1,37.2,204.1,40.8L204.1,40.8z M199.9,41.7c0-2.4-0.6-4.6-1.9-6.5c-1.3-1.9-3-2.8-5.3-2.8c-2.3,0-4.1,0.9-5.3,2.7
		c-1.2,1.8-1.8,3.9-1.8,6.3c0,2.5,0.6,4.6,1.9,6.5c1.2,1.9,3,2.8,5.4,2.8c2.3,0,4-0.9,5.3-2.7C199.3,46.1,199.9,44,199.9,41.7
		L199.9,41.7z M226.9,49.1l-0.2,3.1c-1.3,0.7-3,1.1-5.2,1.1c-4.1,0-7.3-1.1-9.4-3.3c-2.2-2.2-3.3-4.9-3.3-8.1c0-3.3,1.1-6.2,3.4-8.6
		c2.3-2.4,5.3-3.6,9.1-3.6c1.9,0,3.4,0.2,4.6,0.6l-0.6,3.7c-1.7-0.6-3.4-0.9-5.1-0.9c-2.3,0-4.1,0.8-5.4,2.3c-1.3,1.6-2,3.5-2,5.8
		c0,2.5,0.8,4.6,2.4,6.3c1.6,1.7,3.8,2.5,6.7,2.5C223.1,49.9,224.8,49.6,226.9,49.1L226.9,49.1z M251.2,38.9c0,0.7,0,1.6-0.1,2.7
		l-16.4,0.3c0.2,2.3,1.1,4.2,2.7,5.7c1.6,1.5,3.8,2.3,6.5,2.3c2.4,0,4.7-0.3,6.8-0.9l-0.4,3.3c-1.6,0.6-3.8,0.9-6.7,0.9
		c-4.1,0-7.3-1.1-9.5-3.3c-2.2-2.2-3.3-4.9-3.3-8.1c0-3.4,1-6.3,3-8.8c2-2.5,4.6-3.7,8-3.7c3.1,0,5.4,0.9,7,2.7
		C250.4,33.8,251.2,36.1,251.2,38.9L251.2,38.9z M247.2,38.9c0-4.4-1.9-6.6-5.6-6.6c-3.8,0-6.1,2.3-6.7,6.8L247.2,38.9L247.2,38.9z"
		/>
	<path fill="#FF6699" d="M276.7,6l-0.1-0.1l-0.1-0.1l-0.1-0.1l-0.1-0.1l-0.1-0.1l-0.1-0.1l-0.1-0.1L276,5.1L275.9,5l-0.1-0.1
		l-0.1-0.1l-0.1-0.1l-0.1-0.1l-0.1-0.1l-0.1-0.1l-0.1-0.1l-0.1-0.1L275,4.2l-0.1-0.1L274.8,4l-0.1-0.1l-0.1-0.1l-0.1-0.1l-0.1-0.1
		l-0.1-0.1l-0.1-0.1l-0.1-0.1l-0.1-0.1l-0.1-0.1l-0.1-0.1l-0.1-0.1l-0.1-0.1L273.1,3L273,3l-0.1-0.1l-0.1-0.1l-0.1-0.1l-0.2-0.1
		l-0.2-0.1l-0.2-0.1l-0.2-0.1l-0.2-0.1l-0.2,0l0.4-1.3l0.2,0.1l0.2,0.1l0.2,0.1l0.2,0.1l0.2,0.1l0.2,0.1l0.2,0.1l0.2,0.1l0.2,0.1
		l0.2,0.1l0.2,0.1L274,2l0.2,0.1l0.2,0.1l0.2,0.1l0.1,0.1l0.1,0.1l0.1,0.1l0.1,0.1l0.1,0.1l0.1,0.1l0.1,0.1l0.1,0.1l0.1,0.1l0.1,0.1
		l0.1,0.1l0.1,0.1l0.1,0.1l0.1,0.1l0.1,0.1l0.1,0.1l0.1,0.1l0.1,0.1l0.1,0.1l0.1,0.1l0.1,0.1l0.1,0.1l0.1,0.1l0.1,0.1l0.1,0.1
		l0.1,0.1l0.1,0.1l0.1,0.1L276.7,6L276.7,6z M273.1,75.4c1.7-0.6,3-1.7,4-3.2l1.2,0.7c-1.1,1.8-2.7,3.1-4.7,3.8L273.1,75.4
		L273.1,75.4z M277.7,71c1-2,1.5-4.1,1.9-6.2l1.4,0.2c-0.4,2.3-0.9,4.6-2,6.6L277.7,71L277.7,71z M279.8,63.5
		c0.3-2.2,0.3-4.4,0.3-6.6v0l1.4,0c0,1.2,0,2.4-0.1,3.6c-0.1,1.1-0.1,2.2-0.3,3.3L279.8,63.5L279.8,63.5z M280.1,55.5
		c-0.1-2.1-0.2-4.3-0.4-6.4l0-0.3l1.4-0.1l0,0.3c0.2,2.2,0.3,4.3,0.4,6.5L280.1,55.5L280.1,55.5z M279.5,47.5l0-0.1l0-0.3l0-0.3
		l0-0.3l0-0.3l0-0.3l0-0.3l0-0.3l0-0.3l0-0.2l0-0.2l0-0.2l0-0.2l0-0.2l0-0.2l0-0.2l0-0.2l0-0.2l0-0.2l0-0.2l0-0.2l0-0.2l0-0.2l0-0.2
		l0-0.2l0-0.2l0-0.2l0-0.2l0-0.2l0-0.2l0-0.1l1.4,0.2l0,0.1l0,0.2l0,0.2l0,0.2l0,0.2l0,0.2l0,0.2l0,0.2l0,0.2l0,0.2l0,0.2l0,0.2
		l0,0.2l0,0.2l0,0.2l0,0.2l0,0.2l0,0.2l0,0.2l0,0.2l0,0.2l0,0.2l0,0.2l0,0.3l0,0.3l0,0.3l0,0.3l0,0.3l0,0.3l0,0.3l0,0.1L279.5,47.5
		L279.5,47.5z M279.8,39.2c0.1-0.6,0.3-1.3,0.6-1.9l-0.6,0.2c-0.8-2.1-0.9-4.7-0.9-6.9l1.4,0c0,1.8,0.1,4,0.6,5.8
		c0.5-0.7,1.1-1.3,2.1-1.4c1-0.1,1.8,0.4,2.5,1l-1,1c-0.3-0.3-0.7-0.5-1.1-0.6c-0.9-0.2-1.5,0.7-1.8,1.6l0,0l0,0l0,0l0,0
		c0.8,0.4,2.7,1.2,3.5,0.9c0.3-0.1,0.2-0.5,0.1-0.7c0-0.1-0.1-0.2-0.1-0.3l1.3-0.6c0.7,1.6,0.1,3-1.8,3c-1.1-0.1-2.3-0.5-3.3-1l0,0
		L279.8,39.2L279.8,39.2z M278.9,29.3l0-0.1l0-0.2l0-0.2l0-0.2l0-0.2l0-0.2l0-0.2l0-0.2l0-0.2l0-0.2l0-0.2l0-0.2l0-0.2l0-0.2l0-0.2
		l0-0.2l0-0.2l0-0.2l0-0.2l0-0.2l0-0.2l0-0.2l0-0.2l0-0.2l0-0.2l0-0.2l0-0.2l0-0.2l0-0.2l0-0.2l0-0.2l0-0.2l0-0.2l0-0.2l0-0.2l0-0.2
		l0-0.2l0-0.2l0-0.1l1.4,0.1l0,0.1l0,0.2l0,0.2l0,0.2l0,0.2l0,0.2l0,0.2l0,0.2l0,0.2l0,0.2l0,0.2l0,0.2l0,0.2l0,0.2l0,0.2l0,0.2
		l0,0.2l0,0.2l0,0.2l0,0.2l0,0.2l0,0.2l0,0.2l0,0.2l0,0.2l0,0.2l0,0.2l0,0.2l0,0.2l0,0.2l0,0.2l0,0.2l0,0.2l0,0.2l0,0.2l0,0.2l0,0.2
		l0,0.2l0,0.1L278.9,29.3L278.9,29.3z M279.3,21.2L279.3,21.2l0-0.2l0-0.2l0-0.2l0-0.2l0-0.2l0-0.2l0-0.2l0-0.2l0-0.2l0-0.2l0-0.2
		l0-0.2l0-0.2l0-0.2l0-0.2l0-0.2l0-0.2l0-0.2l0-0.2l0-0.2l0-0.2l0-0.2l0-0.2l0-0.2l0-0.2l0-0.2l0-0.2l0-0.2l0-0.2l0-0.2l0-0.2l0-0.2
		l0-0.2l0-0.2l0-0.2l0-0.2l0-0.2l0,0l1.4-0.1l0,0l0,0.2l0,0.2l0,0.2l0,0.2l0,0.2l0,0.2l0,0.2l0,0.2l0,0.2l0,0.2l0,0.2l0,0.2l0,0.2
		l0,0.2l0,0.2l0,0.2l0,0.2l0,0.2l0,0.2l0,0.2l0,0.2l0,0.2l0,0.2l0,0.2l0,0.2l0,0.2l0,0.2l0,0.2l0,0.2l0,0.2l0,0.2l0,0.2l0,0.2l0,0.2
		l0,0.2l0,0.2l0,0.2l0,0L279.3,21.2L279.3,21.2z M279.2,13.3L279.2,13.3l0-0.2l0-0.2l0-0.2l0-0.2l0-0.2l0-0.2l0-0.2l0-0.2l0-0.2
		l0-0.2l0-0.2l0-0.2l0-0.2l0-0.2l0-0.2l0-0.2l0-0.2l0-0.2l0-0.2l0-0.2l0-0.1l0-0.1l0-0.1l0-0.1l0-0.1l0-0.1l0-0.1l0-0.1l0-0.1
		l-0.1-0.1l-0.1-0.1L278,8.4L278,8.2l-0.1-0.1L277.9,8l-0.1-0.1l-0.1-0.1l-0.1-0.1l-0.1-0.1l-0.1-0.1l-0.1-0.1l-0.1-0.1l0,0l1.2-0.7
		l0,0l0.1,0.1l0.1,0.1l0.1,0.1l0.1,0.1l0.1,0.1l0.1,0.1l0.1,0.1l0.1,0.1l0.1,0.1l0.1,0.2l0.1,0.2l0.1,0.2l0.1,0.2l0.1,0.2l0.1,0.2
		l0.1,0.2l0.1,0.2l0,0.2l0,0.2l0,0.2l0,0.2l0,0.2l0,0.2l0,0.2l0,0.2l0,0.2l0,0.2l0,0.2l0,0.2l0,0.2l0,0.2l0,0.2l0,0.2l0,0.2l0,0.2
		l0,0.2l0,0.2l0,0.2l0,0.2l0,0.2l0,0.2l0,0.2l0,0L279.2,13.3L279.2,13.3z"/>
</g>
</svg>
