<?xml version="1.0" encoding="utf-8"?>
<!-- Generator: Adobe Illustrator 18.0.0, SVG Export Plug-In . SVG Version: 6.00 Build 0)  -->
<!DOCTYPE svg PUBLIC "-//W3C//DTD SVG 1.1//EN" "http://www.w3.org/Graphics/SVG/1.1/DTD/svg11.dtd">
<svg version="1.1" id="logo" xmlns="http://www.w3.org/2000/svg" xmlns:xlink="http://www.w3.org/1999/xlink" x="0px" y="0px"
	 viewBox="0 0 288.1 170.2" enable-background="new 0 0 288.1 170.2" xml:space="preserve">
<g>
	<path fill="#FF6699" d="M11.7,6l0.1-0.1l0.1-0.1l0.1-0.1L12,5.6l0.1-0.1l0.1-0.1l0.1-0.1l0.1-0.1L12.5,5l0.1-0.1l0.1-0.1l0.1-0.1
		l0.1-0.1L13,4.5l0.1-0.1l0.1-0.1l0.1-0.1l0.1-0.1l0.1-0.1L13.6,4l0.1-0.1l0.1-0.1L14,3.8l0.1-0.1l0.1-0.1l0.1-0.1l0.1-0.1l0.1-0.1
		l0.1-0.1l0.1-0.1L15,3.2l0.1-0.1L15.3,3L15.5,3l0.1-0.1l0.1-0.1l0.1-0.1L16,2.7l0.2-0.1l0.2-0.1l0.2-0.1l0.2-0.1l0.2,0l-0.4-1.3
		l-0.2,0.1l-0.2,0.1l-0.2,0.1l-0.2,0.1l-0.2,0.1l-0.2,0.1l-0.2,0.1l-0.2,0.1l-0.2,0.1l-0.2,0.1l-0.2,0.1L14.4,2L14.3,2l-0.2,0.1
		l-0.2,0.1l-0.1,0.1l-0.1,0.1l-0.1,0.1l-0.1,0.1l-0.1,0.1l-0.1,0.1L13,2.8l-0.1,0.1L12.7,3l-0.1,0.1l-0.1,0.1l-0.1,0.1l-0.1,0.1
		l-0.1,0.1l-0.1,0.1l-0.1,0.1l-0.1,0.1L11.6,4l-0.1,0.1l-0.1,0.1l-0.1,0.1l-0.1,0.1l-0.1,0.1L11,4.7l-0.1,0.1L10.8,5l-0.1,0.1
		l-0.1,0.1L11.7,6L11.7,6z M15.4,75.4c-1.7-0.6-3-1.7-4-3.2l-1.2,0.7c1.1,1.8,2.7,3.1,4.7,3.8L15.4,75.4L15.4,75.4z M10.7,71
		c-1-2-1.5-4.1-1.9-6.2L7.5,65c0.4,2.3,0.9,4.6,2,6.6L10.7,71L10.7,71z M8.7,63.5c-0.3-2.2-0.3-4.4-0.3-6.6v0l-1.4,0
		C7,58,7,59.2,7,60.4c0.1,1.1,0.1,2.2,0.3,3.3L8.7,63.5L8.7,63.5z M8.4,55.5c0.1-2.1,0.2-4.3,0.4-6.4l0-0.3l-1.4-0.1l0,0.3
		c-0.2,2.2-0.3,4.3-0.4,6.5L8.4,55.5L8.4,55.5z M8.9,47.5l0-0.1l0-0.3l0-0.3l0-0.3l0-0.3L9,46l0-0.3l0-0.3l0-0.3L9,45l0-0.2l0-0.2
		l0-0.2L9,44l0-0.2l0-0.2l0-0.2l0-0.2l0-0.2l0-0.2l0-0.2l0-0.2l0-0.2l0-0.2l0-0.2l0-0.2l0-0.2l0-0.2l0-0.2l0-0.2l0-0.1l-1.4,0.2
		l0,0.1l0,0.2l0,0.2l0,0.2l0,0.2l0,0.2l0,0.2l0,0.2l0,0.2l0,0.2l0,0.2l0,0.2l0,0.2l0,0.2l0,0.2l0,0.2l0,0.2l0,0.2l0,0.2l0,0.2l0,0.2
		l0,0.2l0,0.2l0,0.3l0,0.3l0,0.3l0,0.3l0,0.3l0,0.3l0,0.3l0,0.1L8.9,47.5L8.9,47.5z M8.6,39.2C8.5,38.6,8.3,38,8,37.3l0.6,0.2
		c0.8-2.1,0.9-4.7,0.9-6.9l-1.4,0c0,1.8-0.1,4-0.6,5.8c-0.5-0.7-1.1-1.3-2.1-1.4c-1-0.1-1.8,0.4-2.5,1l1,1c0.3-0.3,0.7-0.5,1.1-0.6
		c0.9-0.2,1.5,0.7,1.8,1.6l0,0l0,0l0,0l0,0c-0.8,0.4-2.7,1.2-3.5,0.9c-0.3-0.1-0.2-0.5-0.1-0.7c0-0.1,0.1-0.2,0.1-0.3l-1.3-0.6
		c-0.7,1.6-0.1,3,1.8,3c1.1-0.1,2.3-0.5,3.3-1l0,0L8.6,39.2L8.6,39.2z M9.5,29.3l0-0.1l0-0.2l0-0.2l0-0.2l0-0.2l0-0.2l0-0.2l0-0.2
		l0-0.2l0-0.2l0-0.2l0-0.2l0-0.2l0-0.2l0-0.2l0-0.2l0-0.2l0-0.2l0-0.2l0-0.2l0-0.2l0-0.2l0-0.2l0-0.2l0-0.2l0-0.2l0-0.2l0-0.2l0-0.2
		l0-0.2l0-0.2l0-0.2l0-0.2l0-0.2l0-0.2l0-0.2l0-0.2l0-0.2l0-0.1l-1.4,0.1l0,0.1l0,0.2l0,0.2l0,0.2l0,0.2l0,0.2l0,0.2l0,0.2l0,0.2
		l0,0.2l0,0.2l0,0.2l0,0.2l0,0.2l0,0.2l0,0.2l0,0.2l0,0.2L8,26l0,0.2l0,0.2l0,0.2l0,0.2l0,0.2l0,0.2l0,0.2l0,0.2l0,0.2l0,0.2l0,0.2
		l0,0.2l0,0.2l0,0.2l0,0.2l0,0.2l0,0.2l0,0.2l0,0.2l0,0.1L9.5,29.3L9.5,29.3z M9.1,21.2L9.1,21.2l0-0.2l0-0.2l0-0.2l0-0.2l0-0.2
		l0-0.2l0-0.2l0-0.2l0-0.2l0-0.2l0-0.2L9,19l0-0.2l0-0.2l0-0.2l0-0.2l0-0.2L9,18l0-0.2l0-0.2l0-0.2l0-0.2l0-0.2l0-0.2l0-0.2l0-0.2
		l0-0.2l0-0.2l0-0.2l0-0.2l0-0.2l0-0.2l0-0.2l0-0.2l0-0.2l0-0.2l0-0.2l0,0l-1.4-0.1l0,0l0,0.2l0,0.2l0,0.2l0,0.2l0,0.2l0,0.2l0,0.2
		l0,0.2l0,0.2l0,0.2l0,0.2l0,0.2l0,0.2l0,0.2l0,0.2l0,0.2l0,0.2l0,0.2l0,0.2l0,0.2l0,0.2l0,0.2l0,0.2l0,0.2l0,0.2l0,0.2l0,0.2l0,0.2
		l0,0.2l0,0.2l0,0.2l0,0.2l0,0.2l0,0.2l0,0.2l0,0.2l0,0.2l0,0L9.1,21.2L9.1,21.2z M9.3,13.3L9.3,13.3l0-0.2l0-0.2l0-0.2l0-0.2l0-0.2
		l0-0.2l0-0.2l0-0.2l0-0.2l0-0.2l0-0.2l0-0.2l0-0.2l0-0.2l0-0.2l0-0.2l0-0.2l0-0.2l0-0.2l0-0.2l0-0.1l0-0.1l0-0.1l0-0.1l0-0.1l0-0.1
		l0-0.1l0-0.1l0.1-0.1l0.1-0.1l0.1-0.1l0.1-0.1l0.1-0.1l0.1-0.1L10.6,8l0.1-0.1l0.1-0.1l0.1-0.1l0.1-0.1l0.1-0.1L11,7.2L11,7.1l0,0
		L9.8,6.4l0,0L9.7,6.6L9.7,6.7L9.6,6.9L9.5,7L9.5,7.1L9.4,7.3L9.3,7.4L9.3,7.6L9.2,7.7L9.1,7.9L9.1,8L9,8.2L9,8.3L8.9,8.5L8.8,8.6
		L8.8,8.8L8.7,9l0,0.2l0,0.2l0,0.2l0,0.2l0,0.2l0,0.2l0,0.2l0,0.2l0,0.2l0,0.2l0,0.2l0,0.2l0,0.2l0,0.2l0,0.2l0,0.2l0,0.2l0,0.2
		l0,0.2l0,0.2l0,0.2l0,0.2l0,0.2l0,0.2l0,0.2l0,0L9.3,13.3L9.3,13.3z"/>
	<path fill="#663333" d="M57.9,29.7c0,3.6-1.4,6.2-4.1,8c-2.8,1.8-6.4,2.6-11.1,2.6c-0.6,0-1.1,0-1.5,0c0,3.4,0.1,7.5,0.4,12.3H37
		c0.2-4.4,0.4-9.8,0.4-16c0-5.4-0.1-10.2-0.4-14.5h3.4c0.4,0,1.4,0,3.1-0.1c1.7,0,3.2-0.1,4.4-0.1c3.1,0,5.5,0.7,7.3,2
		C57,25.4,57.9,27.3,57.9,29.7L57.9,29.7z M54,31.1c0-4-2.8-6-8.4-6c-1.4,0-2.9,0.1-4.6,0.4c0.1,2.5,0.2,6.5,0.2,11.9
		c0.6,0,1.2,0,2.1,0C50.4,37.3,54,35.3,54,31.1L54,31.1z M80.6,52.6l-3.7,0.1c-0.2-0.8-0.3-1.5-0.3-2.2h-0.2c-2,1.8-4.6,2.6-8,2.6
		c-1.8,0-3.4-0.5-4.7-1.6c-1.3-1-2-2.6-2-4.5c0-2.4,1-4.3,3.1-5.8c2.1-1.5,5.9-2.2,11.5-2.3c0-0.4,0.1-0.8,0.1-1.3
		c0-1.9-0.5-3.2-1.6-3.8c-1-0.6-2.6-1-4.7-1c-2.5,0-4.9,0.3-7.4,0.9l0.4-3.2c2.4-0.7,5.1-1,8.2-1c2.8,0,5,0.6,6.6,1.7
		c1.5,1.2,2.3,3.1,2.3,5.9c0,0.7,0,2.1-0.1,4c-0.1,1.9-0.1,3.2-0.1,3.9C79.9,47.9,80.1,50.4,80.6,52.6L80.6,52.6z M76.3,48.1
		c-0.1-2.4-0.1-4.5-0.1-6.4c-3,0-5.3,0.2-6.8,0.7c-2.6,0.8-3.9,2.3-3.9,4.5c0,2.1,1.5,3.2,4.6,3.2C72.7,50,74.8,49.4,76.3,48.1
		L76.3,48.1z M106.8,52.6h-4.3c0.3-4.1,0.5-8.6,0.5-13.4c0-2.4-0.5-4-1.5-4.9c-1-0.9-2.4-1.3-4.3-1.3c-2.3,0-4.3,0.8-6.2,2.4
		c0,5.3,0,11.1,0.1,17.3h-4.3c0.3-5.3,0.4-9.2,0.4-11.5c0-3.7-0.3-7.2-1-10.6l4.2-0.6l0.4,2.9h0.2c2.4-2.1,4.9-3.1,7.6-3.1
		c2.6,0,4.7,0.6,6.1,1.7c1.4,1.2,2.2,3.2,2.2,6.1c0,0.3,0,0.9,0,1.8c0,0.9,0,1.5,0,1.8C106.7,43.6,106.7,47.5,106.8,52.6L106.8,52.6
		z M134.8,40.8c0,4-1.2,7.1-3.5,9.4c-2.3,2.2-5.1,3.4-8.3,3.4c-3,0-5.5-1-7.6-3c-2.1-2-3.2-4.8-3.2-8.4c0-4,1.2-7.2,3.5-9.4
		c2.3-2.3,5.1-3.4,8.3-3.4c3,0,5.5,1,7.6,3C133.8,34.4,134.8,37.2,134.8,40.8L134.8,40.8z M130.7,41.7c0-2.4-0.6-4.6-1.9-6.5
		c-1.3-1.9-3-2.8-5.3-2.8c-2.3,0-4.1,0.9-5.3,2.7c-1.2,1.8-1.8,3.9-1.8,6.3c0,2.5,0.6,4.6,1.9,6.5c1.2,1.9,3,2.8,5.4,2.8
		c2.3,0,4-0.9,5.3-2.7C130.1,46.1,130.7,44,130.7,41.7L130.7,41.7z M176.8,36.3c0,4.4-1.4,8.3-4.3,11.7c-2.9,3.3-6.9,5-11.9,5
		c-1.7,0-4.4-0.1-8.3-0.3c0.2-4.8,0.4-10.2,0.4-16c0-5.5-0.1-10.3-0.4-14.5h2.6c0.6,0,1.6,0,2.9-0.1c1.3,0,2.2-0.1,2.6-0.1
		c5.6,0,9.7,1.4,12.4,4.1C175.4,28.8,176.8,32.2,176.8,36.3L176.8,36.3z M172.6,37.3c0-3.5-1.1-6.4-3.4-8.7
		c-2.2-2.3-5.7-3.5-10.4-3.5c-0.7,0-1.6,0.1-2.7,0.2c0.1,3.6,0.2,7.4,0.2,11.2c0,4.2,0.1,8.5,0.3,12.8c1.3,0.2,2.5,0.4,3.7,0.4
		c4.2,0,7.3-1.2,9.4-3.7C171.6,43.7,172.6,40.8,172.6,37.3L172.6,37.3z M204.1,40.8c0,4-1.2,7.1-3.5,9.4c-2.3,2.2-5.1,3.4-8.3,3.4
		c-3,0-5.5-1-7.6-3c-2.1-2-3.2-4.8-3.2-8.4c0-4,1.2-7.2,3.5-9.4c2.3-2.3,5.1-3.4,8.3-3.4c3,0,5.5,1,7.6,3
		C203,34.4,204.1,37.2,204.1,40.8L204.1,40.8z M199.9,41.7c0-2.4-0.6-4.6-1.9-6.5c-1.3-1.9-3-2.8-5.3-2.8c-2.3,0-4.1,0.9-5.3,2.7
		c-1.2,1.8-1.8,3.9-1.8,6.3c0,2.5,0.6,4.6,1.9,6.5c1.2,1.9,3,2.8,5.4,2.8c2.3,0,4-0.9,5.3-2.7C199.3,46.1,199.9,44,199.9,41.7
		L199.9,41.7z M226.9,49.1l-0.2,3.1c-1.3,0.7-3,1.1-5.2,1.1c-4.1,0-7.3-1.1-9.4-3.3c-2.2-2.2-3.3-4.9-3.3-8.1c0-3.3,1.1-6.2,3.4-8.6
		c2.3-2.4,5.3-3.6,9.1-3.6c1.9,0,3.4,0.2,4.6,0.6l-0.6,3.7c-1.7-0.6-3.4-0.9-5.1-0.9c-2.3,0-4.1,0.8-5.4,2.3c-1.3,1.6-2,3.5-2,5.8
		c0,2.5,0.8,4.6,2.4,6.3c1.6,1.7,3.8,2.5,6.7,2.5C223.1,49.9,224.8,49.6,226.9,49.1L226.9,49.1z M251.2,38.9c0,0.7,0,1.6-0.1,2.7
		l-16.4,0.3c0.2,2.3,1.1,4.2,2.7,5.7c1.6,1.5,3.8,2.3,6.5,2.3c2.4,0,4.7-0.3,6.8-0.9l-0.4,3.3c-1.6,0.6-3.8,0.9-6.7,0.9
		c-4.1,0-7.3-1.1-9.5-3.3c-2.2-2.2-3.3-4.9-3.3-8.1c0-3.4,1-6.3,3-8.8c2-2.5,4.6-3.7,8-3.7c3.1,0,5.4,0.9,7,2.7
		C250.4,33.8,251.2,36.1,251.2,38.9L251.2,38.9z M247.2,38.9c0-4.4-1.9-6.6-5.6-6.6c-3.8,0-6.1,2.3-6.7,6.8L247.2,38.9L247.2,38.9z"
		/>
	<path fill="#FF6699" d="M276.7,6l-0.1-0.1l-0.1-0.1l-0.1-0.1l-0.1-0.1l-0.1-0.1l-0.1-0.1l-0.1-0.1L276,5.1L275.9,5l-0.1-0.1
		l-0.1-0.1l-0.1-0.1l-0.1-0.1l-0.1-0.1l-0.1-0.1l-0.1-0.1l-0.1-0.1L275,4.2l-0.1-0.1L274.8,4l-0.1-0.1l-0.1-0.1l-0.1-0.1l-0.1-0.1
		l-0.1-0.1l-0.1-0.1l-0.1-0.1l-0.1-0.1l-0.1-0.1l-0.1-0.1l-0.1-0.1l-0.1-0.1L273.1,3L273,3l-0.1-0.1l-0.1-0.1l-0.1-0.1l-0.2-0.1
		l-0.2-0.1l-0.2-0.1l-0.2-0.1l-0.2-0.1l-0.2,0l0.4-1.3l0.2,0.1l0.2,0.1l0.2,0.1l0.2,0.1l0.2,0.1l0.2,0.1l0.2,0.1l0.2,0.1l0.2,0.1
		l0.2,0.1l0.2,0.1L274,2l0.2,0.1l0.2,0.1l0.2,0.1l0.1,0.1l0.1,0.1l0.1,0.1l0.1,0.1l0.1,0.1l0.1,0.1l0.1,0.1l0.1,0.1l0.1,0.1l0.1,0.1
		l0.1,0.1l0.1,0.1l0.1,0.1l0.1,0.1l0.1,0.1l0.1,0.1l0.1,0.1l0.1,0.1l0.1,0.1l0.1,0.1l0.1,0.1l0.1,0.1l0.1,0.1l0.1,0.1l0.1,0.1
		l0.1,0.1l0.1,0.1l0.1,0.1L276.7,6L276.7,6z M273.1,75.4c1.7-0.6,3-1.7,4-3.2l1.2,0.7c-1.1,1.8-2.7,3.1-4.7,3.8L273.1,75.4
		L273.1,75.4z M277.7,71c1-2,1.5-4.1,1.9-6.2l1.4,0.2c-0.4,2.3-0.9,4.6-2,6.6L277.7,71L277.7,71z M279.8,63.5
		c0.3-2.2,0.3-4.4,0.3-6.6v0l1.4,0c0,1.2,0,2.4-0.1,3.6c-0.1,1.1-0.1,2.2-0.3,3.3L279.8,63.5L279.8,63.5z M280.1,55.5
		c-0.1-2.1-0.2-4.3-0.4-6.4l0-0.3l1.4-0.1l0,0.3c0.2,2.2,0.3,4.3,0.4,6.5L280.1,55.5L280.1,55.5z M279.5,47.5l0-0.1l0-0.3l0-0.3
		l0-0.3l0-0.3l0-0.3l0-0.3l0-0.3l0-0.3l0-0.2l0-0.2l0-0.2l0-0.2l0-0.2l0-0.2l0-0.2l0-0.2l0-0.2l0-0.2l0-0.2l0-0.2l0-0.2l0-0.2l0-0.2
		l0-0.2l0-0.2l0-0.2l0-0.2l0-0.2l0-0.2l0-0.1l1.4,0.2l0,0.1l0,0.2l0,0.2l0,0.2l0,0.2l0,0.2l0,0.2l0,0.2l0,0.2l0,0.2l0,0.2l0,0.2
		l0,0.2l0,0.2l0,0.2l0,0.2l0,0.2l0,0.2l0,0.2l0,0.2l0,0.2l0,0.2l0,0.2l0,0.3l0,0.3l0,0.3l0,0.3l0,0.3l0,0.3l0,0.3l0,0.1L279.5,47.5
		L279.5,47.5z M279.8,39.2c0.1-0.6,0.3-1.3,0.6-1.9l-0.6,0.2c-0.8-2.1-0.9-4.7-0.9-6.9l1.4,0c0,1.8,0.1,4,0.6,5.8
		c0.5-0.7,1.1-1.3,2.1-1.4c1-0.1,1.8,0.4,2.5,1l-1,1c-0.3-0.3-0.7-0.5-1.1-0.6c-0.9-0.2-1.5,0.7-1.8,1.6l0,0l0,0l0,0l0,0
		c0.8,0.4,2.7,1.2,3.5,0.9c0.3-0.1,0.2-0.5,0.1-0.7c0-0.1-0.1-0.2-0.1-0.3l1.3-0.6c0.7,1.6,0.1,3-1.8,3c-1.1-0.1-2.3-0.5-3.3-1l0,0
		L279.8,39.2L279.8,39.2z M278.9,29.3l0-0.1l0-0.2l0-0.2l0-0.2l0-0.2l0-0.2l0-0.2l0-0.2l0-0.2l0-0.2l0-0.2l0-0.2l0-0.2l0-0.2l0-0.2
		l0-0.2l0-0.2l0-0.2l0-0.2l0-0.2l0-0.2l0-0.2l0-0.2l0-0.2l0-0.2l0-0.2l0-0.2l0-0.2l0-0.2l0-0.2l0-0.2l0-0.2l0-0.2l0-0.2l0-0.2l0-0.2
		l0-0.2l0-0.2l0-0.1l1.4,0.1l0,0.1l0,0.2l0,0.2l0,0.2l0,0.2l0,0.2l0,0.2l0,0.2l0,0.2l0,0.2l0,0.2l0,0.2l0,0.2l0,0.2l0,0.2l0,0.2
		l0,0.2l0,0.2l0,0.2l0,0.2l0,0.2l0,0.2l0,0.2l0,0.2l0,0.2l0,0.2l0,0.2l0,0.2l0,0.2l0,0.2l0,0.2l0,0.2l0,0.2l0,0.2l0,0.2l0,0.2l0,0.2
		l0,0.2l0,0.1L278.9,29.3L278.9,29.3z M279.3,21.2L279.3,21.2l0-0.2l0-0.2l0-0.2l0-0.2l0-0.2l0-0.2l0-0.2l0-0.2l0-0.2l0-0.2l0-0.2
		l0-0.2l0-0.2l0-0.2l0-0.2l0-0.2l0-0.2l0-0.2l0-0.2l0-0.2l0-0.2l0-0.2l0-0.2l0-0.2l0-0.2l0-0.2l0-0.2l0-0.2l0-0.2l0-0.2l0-0.2l0-0.2
		l0-0.2l0-0.2l0-0.2l0-0.2l0-0.2l0,0l1.4-0.1l0,0l0,0.2l0,0.2l0,0.2l0,0.2l0,0.2l0,0.2l0,0.2l0,0.2l0,0.2l0,0.2l0,0.2l0,0.2l0,0.2
		l0,0.2l0,0.2l0,0.2l0,0.2l0,0.2l0,0.2l0,0.2l0,0.2l0,0.2l0,0.2l0,0.2l0,0.2l0,0.2l0,0.2l0,0.2l0,0.2l0,0.2l0,0.2l0,0.2l0,0.2l0,0.2
		l0,0.2l0,0.2l0,0.2l0,0L279.3,21.2L279.3,21.2z M279.2,13.3L279.2,13.3l0-0.2l0-0.2l0-0.2l0-0.2l0-0.2l0-0.2l0-0.2l0-0.2l0-0.2
		l0-0.2l0-0.2l0-0.2l0-0.2l0-0.2l0-0.2l0-0.2l0-0.2l0-0.2l0-0.2l0-0.2l0-0.1l0-0.1l0-0.1l0-0.1l0-0.1l0-0.1l0-0.1l0-0.1l0-0.1
		l-0.1-0.1l-0.1-0.1L278,8.4L278,8.2l-0.1-0.1L277.9,8l-0.1-0.1l-0.1-0.1l-0.1-0.1l-0.1-0.1l-0.1-0.1l-0.1-0.1l-0.1-0.1l0,0l1.2-0.7
		l0,0l0.1,0.1l0.1,0.1l0.1,0.1l0.1,0.1l0.1,0.1l0.1,0.1l0.1,0.1l0.1,0.1l0.1,0.1l0.1,0.2l0.1,0.2l0.1,0.2l0.1,0.2l0.1,0.2l0.1,0.2
		l0.1,0.2l0.1,0.2l0,0.2l0,0.2l0,0.2l0,0.2l0,0.2l0,0.2l0,0.2l0,0.2l0,0.2l0,0.2l0,0.2l0,0.2l0,0.2l0,0.2l0,0.2l0,0.2l0,0.2l0,0.2
		l0,0.2l0,0.2l0,0.2l0,0.2l0,0.2l0,0.2l0,0.2l0,0L279.2,13.3L279.2,13.3z"/>
	<path fill-rule="evenodd" clip-rule="evenodd" fill="#BDE6BD" d="M185.3,145.1l0.1-0.2c-0.8-2.5-4.1-6.1-6.4-7.5
		c-0.1-0.1-3.2-0.3-2.4,1.3c1,2.1,4.2,7.6,6.6,8.1c1,0.2,1.5-0.2,1.4-1.3c0.2-0.1,0,0,0.1-0.1C184.6,145.1,185.2,145.3,185.3,145.1
		L185.3,145.1z"/>
	<path fill-rule="evenodd" clip-rule="evenodd" fill="#BDE6BD" d="M188.2,145.5c0.6-2.1,3.3-5,5.8-5.5c1.8-0.4,0.6,0,1.7-0.1
		c0.2,0.1,0.4,0.3,0.5,0.4l0.1,0.1c0.4,2-2.2,4.5-3.9,5.4c-1.6,0.8-4.4,2.9-4.4,0.3C188,145.3,188.1,145.8,188.2,145.5L188.2,145.5z
		"/>
	<path fill-rule="evenodd" clip-rule="evenodd" fill="#BDE6BD" d="M184.9,157.2l-0.5-0.1c-0.7-0.2-2.2-2.6-4.1-3.8
		c-0.7-0.5-3.8-1.2-3.8,0.1c-0.1,1.5,3.1,3,4.5,3.9c0.9,0.6,5.3,3.9,4.1,0.1C185.1,157.2,185.1,157.2,184.9,157.2L184.9,157.2z"/>
	<path fill-rule="evenodd" clip-rule="evenodd" fill="#BDE6BD" d="M187.2,158.3l0.1-0.2c2-3.6,3.4-3.6,6.4-5.8
		c1.1-0.8,4.2-2.4,4.2-0.1c0,1.2-1,2-2,2.9c-2.1,2-4.7,2.7-7,4c-1,0.6-1.4,0.2-1.8-0.6C187.3,158.4,187.2,158.4,187.2,158.3
		L187.2,158.3z"/>
	<path fill-rule="evenodd" clip-rule="evenodd" fill="#F7EAB4" d="M48.6,94.6c1-0.8-0.2-6.3-1.2-7.7l-0.2-0.3
		c-1.4-1.9-3.7-3.2-6-3.8c-0.2-0.1-0.6-0.1-0.9-0.1c0,0.1,3.6,6.1,4,7.1c0.2,0.5,1.9,4.4,2.1,4.4c0.2,0.6,0.1,0.6,0.2,1
		c-4.5-0.8-5.9-2.7-10.7-2.3c-2.1,0.2-3.7-0.3-5.7,0.5c-0.7,0.3-1.9,0.3-0.9,2.1c1.7,3,9.4,2.3,12.7,2.3c1.1,0,1.3-0.5,2.9-0.5
		c-1.7,1-9.6,0-14.5,3.1c-2.9,1.8-2.4,0.9-3.9,3.6c-0.6,1.2,1.7,3.1,4.1,2.8c3-0.4,2.4,0,5.7-1.3c5.1-1.9,7.6-2.5,12.6-5.3l0.8-0.4
		c0.5-0.3,0.1-0.1,0.4-0.3c1.1,0.6-1.5,1.7,5.1,1.7c3.1,0,7.8,0.5,10.5-0.1c2.4-0.5,8.2-0.4,11.4-0.6c2.4-0.2,2.9,0.7,4.7-1.1
		c0.9-0.8-0.8-2.3-2.6-2.3c-4.3,0-8.5,0-12.8,0.1c-2.4,0-4.8-0.3-7.4-0.2c-0.1,0-1,0-1-0.2l0.4-0.4c1.3-1.1,4.6-1.5,6.8-2.6
		c3.2-1.6,3.3-0.1,6.4-2.8c0.1-0.1,2.3-1.9,2.6-1.9c0-2.4-4.5,0.5-5.7,1c-4.2,1.8-9.9,3.2-14.3,4.6c-1.3,0.4-5.5,1.4-6.8,1.1
		c-0.2-0.7,0.9-0.9,1-1.2C48.5,94.6,48.5,94.6,48.6,94.6L48.6,94.6z"/>
	<path fill-rule="evenodd" clip-rule="evenodd" fill="#FCCDE4" d="M96,133.2c1.4-1.3,7.8-0.3,12.2-4.9l0.5-0.3
		c0.4-0.3,0.9-0.8,1.4-0.9c0.2-0.4,0.3-0.5,0.4-1c3.7-0.5-1.4-14.8-7.3-15.9c-0.2-1.5-12.8-1.2-17.2,1.4c-6,3.5-3.7,3.9-4.6,9.3
		c5.6,5.3-2.2,4,14.3,10.7c0.4,0.2,0.5,0.2,0.5,0.7c0.9,0.1,0.8,1.3,0.4,1.9C96,133.8,95.6,133.5,96,133.2L96,133.2z"/>
	<path fill-rule="evenodd" clip-rule="evenodd" fill="#FCCDE4" d="M183.4,98.3l-0.5,0.1c-3.1,0.4-9.2,2-10.4,5.2
		c-1.5,3.9,4,6.8,7.4,7.7c2.9,0.8,11.8,1,14-0.6c1.6-1.1,2.6-4.1,1-6.2c-2.5-3.4-4.7-4.9-9.1-5.5c-0.3,0-0.8-0.3-1-0.2
		c-0.1-0.1-0.1-0.1-0.2-0.2C184.2,98.6,183.8,98.2,183.4,98.3L183.4,98.3z"/>
	<path fill-rule="evenodd" clip-rule="evenodd" fill="#F7EAB4" d="M179.8,114.8c0,0,1.9,7.4,2,8.7c0.4,3.7-0.8,2.4,6.4,2.5
		c1.9,0,4.1,0,5.9-0.6c0.1,0,0.2,0,0.3,0c0-0.1,0.7-2.5,0.7-3.4c0-0.7,0-5.7-0.2-6.1c-1.6-1.9-0.9-0.6-4.5-0.6
		c-4.3-0.1-5.5,0.4-9.9-0.4C180.1,115,179.8,114.8,179.8,114.8L179.8,114.8z"/>
	<path fill-rule="evenodd" clip-rule="evenodd" fill="#BDE6BD" d="M216.6,97.7c2.2,2.3,1.4,1.3,2.5,2.9c-0.1,6.3-1.4,4,0.1,11
		c2.6,11.8,2.6,4.4,16.4,8.4c3.3,1,13.3,1.2,14.3-2.2c2.5-8.3,2-4,2-12.6c0-1-0.4-5-1.5-5.5c-7.1-1.7-21,0.8-29.9-1.3
		C219.2,98,218.4,99.5,216.6,97.7L216.6,97.7z"/>
	<path fill="#663333" d="M50.3,158.9L50.3,158.9l0,0.2l0,0.2l0,0.2l0,0.2l0,0.2l0,0.2l0,0.2l0,0.2l0,0.2l0,0.2l0,0.2l0,0.2l0,0.2
		l0,0.2l0,0.2l0,0.2l0,0.2l0,0.2l0,0.2l0,0.2l0,0.2l0,0.2l0,0.2l0,0.2l0,0.2l0,0.2l0,0.2l0,0.1l0,0.1l0,0.1l0,0.1l0,0.1l0,0.1l0,0.1
		l0,0.1l0,0.1l0,0.1l0,0.1l0,0.1l0,0.1l0,0.1l0,0.1l0,0.1l1.5,0.3l0-0.1l0-0.1l0-0.1l0-0.1l0-0.1l0-0.1l0-0.1l0-0.1l0-0.1l0-0.1
		l0-0.1l0-0.1l0-0.1l0-0.2l0-0.2l0-0.2l0-0.2l0-0.2l0-0.2l0-0.2l0-0.2l0-0.2l0-0.2l0-0.2l0-0.2l0-0.2l0-0.2l0-0.2l0-0.2l0-0.2l0-0.2
		l0-0.2l0-0.2l0-0.2l0-0.2l0-0.2l0-0.2l0-0.2l0-0.2l0-0.2l0-0.2l0-0.2l0-0.2l0,0L50.3,158.9L50.3,158.9z M50.5,99.9L50.5,99.9
		L50.5,99.9L50.5,99.9L50.5,99.9L50.5,99.9L50.5,99.9L50.5,99.9L50.5,99.9L50.5,99.9L50.5,99.9L50.5,99.9L50.5,99.9l0-0.1l0,0l0,0
		l0,0l0,0l0,0v0v0l0,0c-0.2-0.4-0.6-0.6-1.1-0.4c0,0-0.1,0.1-0.1,0.1c-1.8,1.5-3.7,3-5.7,4.1l0.7,1.3c2.2-1.2,4.2-2.7,6-4.3
		C50.5,100.4,50.5,100.1,50.5,99.9L50.5,99.9L50.5,99.9L50.5,99.9z M49.6,99.9l-0.5,0.1l0.2-0.5L49.6,99.9L49.6,99.9z M42.2,104.3
		c-2.2,1-4.5,1.5-6.9,1.6l0.1,1.5c2.7-0.1,5.1-0.6,7.5-1.7L42.2,104.3L42.2,104.3z M33.8,105.9c-2.3,0-4.6-0.4-6.9-0.8l-0.1,0.7
		l0.1-0.4l-0.9,0.2l0,0.1l0,0.1l0,0.1l0,0.1l0,0.1l0,0.1c0.1,0.3,0.3,0.4,0.6,0.5c2.3,0.4,4.7,0.8,7.1,0.8L33.8,105.9L33.8,105.9z
		 M27.5,104.2c0.6-1.7,4-3,5.6-3.5l-0.5-1.4c-2.1,0.7-5.7,2.1-6.5,4.4L27.5,104.2L27.5,104.2z M34.5,100.3c2.3-0.7,4.8-1.1,7.2-1.5
		l-0.2-1.4c-0.3,0-0.5,0.1-0.8,0.1l0-0.6c-0.4,0-0.8,0-1.2,0c-2.1,0-4.1,0-6.2,0l0,0l0,1.5c0.3,0,0.6,0,0.9,0c0.7,0,1.4,0,2.1,0
		c-0.7,0.2-1.4,0.4-2.1,0.5L34.5,100.3L34.5,100.3z M43.1,98.6c0.8-0.1,1.7-0.2,2.5-0.3c0.2,0,0.3,0,0.5,0l0.2,0
		c0.9,0,1-1.2,0.2-1.4c0,0-0.1,0-0.1,0L43.1,98.6L43.1,98.6z M46.4,96.8L46.4,96.8L46.4,96.8L46.4,96.8L46.4,96.8L46.4,96.8
		L46.4,96.8L46.4,96.8L46.4,96.8L46.4,96.8L46.4,96.8L46.4,96.8L46.4,96.8L46.4,96.8L46.4,96.8L46.4,96.8L46.4,96.8L46.4,96.8
		L46.4,96.8L46.4,96.8L46.4,96.8L46.4,96.8L46.4,96.8L46.4,96.8c-0.1,0-0.2,0-0.3,0c-1.3,0-2.7,0-4,0l0,1.5l0.9,0l0,0.3L46.4,96.8
		L46.4,96.8z M31.8,96.7L31.8,96.7L31.8,96.7L31.8,96.7L31.8,96.7L31.8,96.7l-0.1,0l0,0l0,0l0,0l0,0l0,0l0,0l0,0l0,0
		c-0.8-0.3-2.4-1-3-1.7c0,0-0.1-0.1-0.1-0.2l0,0v0c0,0,0,0,0-0.1c0.3-0.3,0.9-0.5,1.3-0.6l-0.4-1.4c-0.9,0.3-1.9,0.7-2.3,1.5
		c-0.7,1.7,1.7,2.8,2.9,3.4c0.3,0.1,0.7,0.3,1,0.4l0,0l0,0l0,0l0,0l0,0l0,0l0,0l0,0l0,0l0,0l0,0l0,0l0,0l0,0l0,0l0,0l0,0l0,0l0,0h0
		L31.8,96.7L31.8,96.7z M31.2,93.8c2.3-0.4,4.9-0.3,7.2-0.1l0.2-1.5c-2.4-0.3-5.1-0.3-7.5,0.1l-0.2,0L31.2,93.8L31.2,93.8z M39.9,94
		c2.1,0.4,4.8,1.1,6.4,2.6l0.3-0.4c0.2,0.4,0.4,0.8,0.5,1.3l-0.1,0l0,0l0,0.1l0,0.1l0,0.1l0,0.1l0,0.1l0,0l0,0l0,0
		c0.1,0.2,0.3,0.4,0.6,0.4c0.5,0.1,0.9-0.4,0.8-0.9l0-0.1l0,0l0,0l0,0l0,0l0.1,0l0,0l0.1,0l0,0l0.1,0l0,0l0.1,0l0,0l0,0l0,0l0,0l0,0
		l0,0l0,0l0,0l0.1,0l0,0l0,0l0,0l0,0l0,0l0,0l0,0l0,0l0.1,0l0,0l0,0l0,0l0,0l0,0l0,0l0,0l0,0l0,0l0,0l0,0l0,0l0,0h0l0.1-0.1
		c1.2-0.1,3-0.8,4-1.2c0.4-0.2,0.8-0.3,1.2-0.5L54,93.7c-1.2,0.5-2.5,1-3.7,1.4c-0.3,0.1-0.8,0.2-1.2,0.2c-0.3,0-0.5,0.1-0.6,0.2
		c-0.1,0.1-0.2,0.2-0.3,0.3v0l0,0l0,0l0,0l0,0l0,0l0,0l0,0l0,0c-0.3-0.7-0.7-1.5-1.1-2.1c-0.5-0.9-1-1.8-1.6-2.7l-1.3,0.7
		c0.5,0.8,1,1.6,1.5,2.5c-1.7-0.9-3.7-1.5-5.5-1.8L39.9,94L39.9,94z M48.2,95.9L48.2,95.9L48.2,95.9L48.2,95.9L48.2,95.9L48.2,95.9
		L48.2,95.9z M48.2,95.9L48.2,95.9L48.2,95.9L48.2,95.9L48.2,95.9L48.2,95.9L48.2,95.9L48.2,95.9C48.2,95.9,48.3,95.9,48.2,95.9
		L48.2,95.9L48.2,95.9L48.2,95.9L48.2,95.9L48.2,95.9L48.2,95.9L48.2,95.9L48.2,95.9L48.2,95.9L48.2,95.9L48.2,95.9L48.2,95.9
		C48.3,95.9,48.3,95.9,48.2,95.9L48.2,95.9L48.2,95.9L48.2,95.9L48.2,95.9L48.2,95.9L48.2,95.9L48.2,95.9L48.2,95.9L48.2,95.9
		L48.2,95.9L48.2,95.9L48.2,95.9L48.2,95.9z M48.2,95.9L48.2,95.9L48.2,95.9L48.2,95.9L48.2,95.9L48.2,95.9z M44.8,89.8
		c-0.5-0.8-1-1.6-1.5-2.5c-0.6-1-1.2-2.2-1.6-3.3c-0.1-0.2-0.1-0.3-0.1-0.5l0,0l-1.5,0.3c0.1,0.6,0.3,1.1,0.6,1.7
		c0.8,1.8,1.8,3.4,2.8,5.1l0,0L44.8,89.8L44.8,89.8z M41.3,83.4l0.1-1.5l0.6,0L42,83.5c0.9,0,2,0.8,2.8,1.1c0.1,0,0.1,0,0.2,0.1
		c0.4,0.9,0.9,1.7,1.7,2.4l1.1-1l0,0c-0.7-0.7-1.1-1.4-1.5-2.3c-0.1-0.2-0.3-0.4-0.5-0.4c-0.8-0.2-1.5-0.7-2.2-1
		c-0.4-0.2-1-0.3-1.4-0.3L41.3,83.4L41.3,83.4z M42,83.5l-0.6,0L42,83.5L42,83.5z M42,83.5L42,83.5L42,83.5L42,83.5z M47.7,88.1
		c0.7,0.8,0.8,1.6,0.7,2.6c0,1.3-0.3,2.6-0.6,3.9l1.5,0.3c0.3-1.2,0.5-2.4,0.6-3.7c0.1-1.5,0-2.9-1.1-4L47.7,88.1L47.7,88.1z
		 M48.6,97.3L48.6,97.3L48.6,97.3L48.6,97.3z M48.6,97.3L48.6,97.3L48.6,97.3L48.6,97.3z M56,94.5c2.3-1,4.5-2.1,6.8-3.1l-0.6-1.3
		c-2.3,1-4.5,2.1-6.8,3.1L56,94.5L56,94.5z M64.2,90.8c1.8-0.8,3.7-1.6,5.6-2.1c0.4-0.1,0.8-0.2,1.2-0.3L70.8,87
		c-0.7,0.1-1.4,0.3-2.1,0.5c-1.8,0.5-3.5,1.3-5.2,2L64.2,90.8L64.2,90.8z M72.3,88.4c0.6,0,1.2,0.1,1.7,0.1c0.3,0,1.2,0.2,1.4,0.4
		c-0.1-0.1-0.1-0.2-0.1-0.3c0,0.1-0.3,0.3-0.4,0.4c-0.5,0.4-1.2,0.7-1.8,1l0.7,1.3c0.8-0.4,1.8-0.9,2.5-1.6c0.8-0.8,0.6-1.7-0.5-2.2
		c-1-0.4-2.5-0.5-3.6-0.5L72.3,88.4L72.3,88.4z M72,90.6L72,90.6l-0.2,0.1l-0.1,0.1l-0.1,0.1l-0.1,0.1l-0.1,0.1l-0.1,0.1L71,91
		l-0.1,0.1l-0.1,0.1l-0.2,0.1l-0.2,0.1l-0.2,0.1l-0.2,0.1l-0.2,0.1l-0.2,0.1l-0.2,0.1l-0.2,0.1l-0.2,0.1l-0.2,0.1L69,91.8l-0.2,0.1
		l-0.2,0.1L68.5,92L68.3,92l-0.2,0.1L68,92.2l-0.2,0.1l-0.2,0.1l-0.2,0.1l-0.2,0.1l-0.2,0.1l-0.2,0.1l-0.2,0.1l-0.2,0.1l-0.2,0.1
		l-0.2,0.1L66,92.8l-0.2,0.1l-0.2,0.1L65.5,93l-0.2,0.1l-0.2,0.1l0,0l0.5,1.4l0,0l0.2-0.1l0.2-0.1l0.2-0.1l0.2-0.1l0.2-0.1l0.2-0.1
		l0.2-0.1l0.2-0.1l0.2-0.1l0.2-0.1l0.2-0.1l0.2-0.1l0.2-0.1l0.2-0.1l0.2-0.1l0.2-0.1l0.2-0.1l0.2-0.1l0.2-0.1l0.2-0.1l0.2-0.1
		l0.2-0.1l0.2-0.1l0.2-0.1L70,93l0.2-0.1l0.2-0.1l0.2-0.1l0.2-0.1l0.2-0.1l0.2-0.1l0.2-0.1l0.2-0.1l0.2-0.1l0.2-0.1l0.1-0.1l0.1-0.1
		l0.1-0.1l0.1-0.1l0.1-0.1l0.1-0.1l0.1-0.1l0,0L72,90.6L72,90.6z M63.7,93.6L63.7,93.6l-0.2,0.1l-0.2,0.1l-0.2,0.1l-0.2,0.1
		l-0.2,0.1L62.6,94L62.4,94l-0.2,0.1L62,94.1l-0.2,0.1l-0.2,0.1l-0.2,0.1l-0.2,0.1l-0.2,0.1l-0.2,0.1l-0.2,0.1l-0.2,0.1l-0.2,0.1
		l-0.2,0.1L60,94.8l-0.2,0.1l-0.2,0.1l-0.2,0.1L59.3,95L59.1,95l-0.2,0.1l-0.2,0.1l-0.2,0.1l-0.2,0.1l-0.2,0.1l-0.2,0.1l-0.2,0.1
		l-0.2,0.1l-0.2,0.1l-0.2,0.1l-0.2,0l-0.2,0l-0.2,0l-0.2,0l-0.1,0c-0.9,0.1-1.8,0.2-2.6,0.3c-0.2,0-0.4,0.1-0.6,0.1l0.1,0.5
		l-1.5,0.4l-0.2-0.6l-0.1,0l-0.1,0l-0.1,0l-0.1,0l-0.1,0l-0.1,0l-0.1,0l-0.1,0l-0.1,0l-0.1,0l-0.1,0l-0.1,0l-0.1,0l-0.1,0l-0.1,0
		l-0.1,0l-0.1,0l-0.1,0l-0.1,0l-0.1,0l-0.1,0l-0.1,0l-0.1,0l-0.1,0l-0.1,0.1L50,97.5l-0.1,0.1l-0.1,0.1l0,0.1l0,0.1l0,0.1l0,0.1
		l0,0.1l0,0.1l0,0.1l0,0.1l0,0.1l0,0.1c0,0.6,0.6,0.9,1,0.7c0.1,0,0.2-0.1,0.2-0.1c1.6-0.5,3.2-0.9,4.7-1.4l-0.1-0.2
		c1.8-0.2,3.7-0.3,5.5-0.4l0-0.9l0,0l0.2-0.1l0.2-0.1l0.2-0.1l0.2-0.1l0.2-0.1l0.2-0.1l0.2-0.1l0.2,0l0.1,1.3l0,0l0.2,0l0.2,0l0.2,0
		l0.2,0l0.2,0l0.2,0l0.2,0l0.2,0l0.2,0l0.2,0l0.2,0l0.2,0l0.2,0l0.2,0l0.2,0l0.2,0l0.2,0l0.2,0l0.2,0l0.2,0l0.2,0l0.2,0l0.2,0l0.2,0
		l0.2,0l0.2,0l0.2,0l0.2,0l0.2,0l0.2,0l0.2,0l0.2,0l0.2,0l0.2,0l0.2,0l0.2,0l0.2,0l0.2,0l0.2,0l0.2,0l0.1,0l0-1.5l-0.1,0l-0.2,0
		l-0.2,0l-0.2,0l-0.2,0l-0.2,0l-0.2,0l-0.2,0l-0.2,0l-0.2,0l-0.2,0l-0.2,0l-0.2,0l-0.2,0l-0.2,0l-0.2,0l-0.2,0l-0.2,0l-0.2,0l-0.2,0
		l-0.2,0l-0.2,0l-0.2,0l-0.2,0l-0.2,0l-0.2,0l-0.2,0l-0.2,0l-0.2,0l-0.2,0l-0.2,0l-0.2,0l-0.2,0l-0.2,0l-0.2,0l-0.2,0l-0.2,0l-0.2,0
		l-0.1,0l0.1,0l0.2-0.1l0.2-0.1l0.2-0.1l0.2-0.1l0.2-0.1l0.2-0.1l0,0L63.7,93.6L63.7,93.6z M71.4,96.7L71.4,96.7l0.3,0l0.2,0l0.2,0
		l0.2,0l0.2,0l0.2,0l0.2,0l0.2,0l0.2,0h0.2h0.2h0.2l0.2,0l0.2,0h0.2l0.2,0l0.2,0l0.2,0l0.2,0l0.2,0l0.2,0l0.2,0l0.2,0l0.2,0l0.2,0
		l0.2,0l0.2,0l0.2,0l0.2,0l0.2,0l0.2,0l0.2,0l0.2,0l0.2,0l0.2,0l0.2,0l0.2,0l0.2,0l0.1,0l0.1,0l0.1,0l0.1,0l0.1,0l0.1,0l0.1,0l0-1.5
		l-0.1,0l-0.1,0l-0.1,0l-0.1,0l-0.1,0l-0.1,0l-0.2,0l-0.2,0l-0.2,0l-0.2,0l-0.2,0l-0.2,0l-0.2,0l-0.2,0l-0.2,0l-0.2,0l-0.2,0l-0.2,0
		l-0.2,0l-0.2,0l-0.2,0l-0.2,0l-0.2,0l-0.2,0l-0.2,0l-0.2,0l-0.2,0l-0.2,0l-0.2,0l-0.2,0l-0.2,0h-0.2l-0.2,0h-0.2h-0.2h-0.2l-0.2,0
		h-0.2l-0.2,0l-0.2,0l-0.2,0l-0.2,0l-0.2,0l-0.2,0l-0.2,0l-0.1,0L71.4,96.7L71.4,96.7z M80.4,96.7l0.1,0l0.1,0l0.1,0l0.1,0l0.1,0
		l0.1,0l0.1,0l0.1,0l0.1,0l0.1,0l0.1,0l0.1,0l0.1,0l0.1,0l0.1,0l0.1,0l0.1,0l0.1,0l0.1,0l0.1,0l0.1,0l0.1,0l0.1,0l0.1,0l0.1,0l0.1,0
		l0,0l0,0l0,0.1l0,0.1l0,0.1l0,0.1l0,0.1l0,0.1l0,0.1l0,0.1l0,0.1l0,0.1l0,0.1l-0.1,0.1l-0.1,0.1l-0.1,0.1l-0.1,0.1l-0.1,0.1
		l-0.1,0.1l-0.1,0.1l-0.1,0.1l-0.1,0.1L82.1,98L82,98l-0.1,0.1l-0.1,0.1l-0.1,0.1l-0.1,0.1l-0.1,0.1l0,0l0.7,1.3l0.1,0l0.1-0.1
		l0.1-0.1l0.1-0.1l0.1-0.1l0.1-0.1l0.1-0.1l0.1-0.1l0.1-0.1l0.1-0.1l0.1-0.1l0.1-0.1l0.1-0.1l0.1-0.1l0.1-0.1l0.1-0.1l0.1-0.1
		l0.1-0.1l0.1-0.1l0.1-0.1l0.1-0.1l0.1-0.1l0.1-0.1l0.1-0.1l0.1-0.1l0.1-0.1l0-0.1l0-0.1l0-0.1l0-0.1l0-0.1l0-0.1l0-0.1l0-0.1l0-0.1
		l0-0.1l0-0.1l0-0.1l0-0.1c0-0.5-0.4-0.7-0.7-0.7l0,0h0l-0.1,0h-0.1l-0.1,0l-0.1,0l-0.1,0l-0.1,0l-0.1,0l-0.1,0l-0.1,0l-0.1,0
		l-0.1,0l-0.1,0l-0.1,0l-0.1,0l-0.1,0l-0.1,0l-0.1,0l-0.1,0l-0.1,0l-0.1,0l-0.1,0l-0.1,0l-0.1,0l-0.1,0l-0.1,0l-0.1,0l-0.1,0l-0.1,0
		l-0.1,0l-0.1,0l-0.1,0l-0.1,0l-0.1,0l-0.1,0l-0.1,0l-0.1,0l-0.1,0l-0.1,0l-0.1,0L80.4,96.7L80.4,96.7z M80.3,98.9L80.3,98.9
		L80.1,99l-0.1,0l-0.1,0l-0.1,0l-0.1,0l-0.1,0l-0.1,0l-0.1,0l-0.1,0l-0.1,0l-0.1,0l-0.1,0l-0.1,0l-0.1,0l-0.1,0l-0.2,0l-0.2,0
		l-0.2,0l-0.2,0l-0.2,0l-0.2,0l-0.2,0l-0.2,0l-0.2,0l-0.2,0l-0.2,0l-0.2,0l-0.2,0l-0.2,0l-0.2,0l-0.2,0l-0.2,0l-0.2,0l-0.2,0l-0.2,0
		l-0.2,0l-0.2,0l-0.2,0l-0.2,0l-0.2,0l-0.2,0l-0.2,0l-0.2,0l-0.2,0l0,0l0.1,1.5l0,0l0.2,0l0.2,0l0.2,0l0.2,0l0.2,0l0.2,0l0.2,0
		l0.2,0l0.2,0l0.2,0l0.2,0l0.2,0l0.2,0l0.2,0l0.2,0l0.2,0l0.2,0l0.2,0l0.2,0l0.2,0l0.2,0l0.2,0l0.2,0l0.2,0l0.2,0l0.2,0l0.2,0l0.2,0
		l0.2,0l0.2,0l0.2,0l0.2,0l0.2,0l0.2,0l0.2,0l0.1,0l0.1,0l0.1,0l0.1,0l0.1,0l0.1,0l0.1,0l0.1,0l0.1,0l0.1,0L80.3,98.9L80.3,98.9z
		 M71.7,100.4L71.7,100.4l-0.2,0l-0.2,0l-0.2,0l-0.2,0l-0.2,0l-0.2,0l-0.2,0l-0.2,0l-0.2,0l-0.2,0l-0.2,0l-0.2,0l-0.2,0l-0.2,0
		l-0.2,0l-0.2,0l-0.2,0l-0.2,0l-0.2,0l-0.2,0l-0.2,0l-0.2,0l-0.2,0l-0.2,0l-0.2,0l-0.2,0l-0.2,0l-0.2,0l-0.2,0l-0.2,0l-0.2,0l-0.2,0
		l-0.2,0l-0.2,0l-0.2,0l-0.2,0l-0.1,0l0,1.5l0.1,0l0.2,0l0.2,0l0.2,0l0.2,0l0.2,0l0.2,0l0.2,0l0.2,0l0.2,0l0.2,0l0.2,0l0.2,0l0.2,0
		l0.2,0l0.2,0l0.2,0l0.2,0l0.2,0l0.2,0l0.2,0l0.2,0l0.2,0l0.2,0l0.2,0l0.2,0l0.2,0l0.2,0l0.2,0l0.2,0l0.2,0l0.2,0l0.2,0l0.2,0l0.2,0
		l0.2,0l0.2,0l0,0L71.7,100.4L71.7,100.4z M62.8,100.8L62.8,100.8l-0.3,0l-0.2,0l-0.2,0l-0.2,0l-0.2,0l-0.2,0l-0.2,0l-0.2,0l-0.2,0
		l-0.2,0l-0.2,0l-0.2,0l-0.2,0l-0.2,0l-0.2,0l-0.2,0l-0.2,0l-0.2,0l-0.2,0l-0.2,0l-0.2,0l-0.2,0l-0.2,0l-0.2,0l-0.2,0l-0.2,0l-0.2,0
		l-0.2,0l-0.2,0l-0.2,0l-0.2,0l-0.2,0l-0.2,0l-0.2,0l-0.2,0l-0.2,0l-0.2,0l-0.2,0l-0.1,0l0.1,1.5l0.1,0l0.2,0l0.2,0l0.2,0l0.2,0
		l0.2,0l0.2,0l0.2,0l0.2,0l0.2,0l0.2,0l0.2,0l0.2,0l0.2,0l0.2,0l0.2,0l0.2,0l0.2,0l0.2,0l0.2,0l0.2,0l0.2,0l0.2,0l0.2,0l0.2,0l0.2,0
		l0.2,0l0.2,0l0.2,0l0.2,0l0.2,0l0.2,0l0.2,0l0.2,0l0.2,0l0.2,0l0.2,0l0.2,0l0.2,0l0.1,0L62.8,100.8L62.8,100.8z M53.8,101.2
		c-1.1,0.1-2.2,0.3-3.4,0.5c-1.2,0.3-2.8,0.7-3.3,2l0,0.1l0,0.1l0,0.1l0,0.1l0,0.1l0,0.1l0,0.1l0,0.1l0,0.1l0,0.1l0,0l1.5,0.2l0,0
		l0-0.1l0-0.1l0-0.1l0-0.1l0-0.1l0-0.1l0-0.1l0-0.1l0,0l0,0c0.5-1.1,4.4-1.5,5.4-1.6L53.8,101.2L53.8,101.2z M46.7,106.2L46.7,106.2
		l0,0.2l0,0.2l0,0.2l0,0.2l0,0.2l0,0.2l0,0.2l0,0.2l0,0.2l0,0.2l0,0.2v0.2l0,0.2l0,0.2l0,0.2l0,0.2l0,0.2l0,0.2l0,0.2l0,0.2l0,0.2
		l0,0.2l0,0.2l0,0.2l0,0.2l0,0.2l0,0.2l0,0.2l0,0.2l0,0.2l0,0.2l0,0.2l0,0.2l0,0.2l0,0.2l0,0.2l0,0.2l1.5-0.1l0-0.2l0-0.2l0-0.2
		l0-0.2l0-0.2l0-0.2l0-0.2l0-0.2l0-0.2l0-0.2l0-0.2l0-0.2l0-0.2l0-0.2l0-0.2l0-0.2l0-0.2l0-0.2l0-0.2l0-0.2l0-0.2l0-0.2l0-0.2l0-0.2
		l0-0.2v-0.2l0-0.2l0-0.2l0-0.2l0-0.2l0-0.2l0-0.2l0-0.2l0-0.2l0-0.1l0-0.1l0-0.1l0-0.1L46.7,106.2L46.7,106.2z M46.9,115.1l0,0.1
		l0,0.3l0,0.3l0,0.3l0,0.3l0,0.3l0,0.3l0,0.3l0,0.3l0,0.3l0,0.3l0,0.3l0,0.3l0,0.3l0,0.3l0,0.3l0,0.3l0,0.3l0,0.3l0,0.3l0,0.3l0,0.3
		l0,0.3l0,0.3l0,0.3l0,0.3l0,0.2l1.5-0.1l0-0.2l0-0.3l0-0.3l0-0.3l0-0.3l0-0.3l0-0.3l0-0.3l0-0.3l0-0.3l0-0.3l0-0.3l0-0.3l0-0.3
		l0-0.3l0-0.3l0-0.3l0-0.3l0-0.3l0-0.3l0-0.3l0-0.3l0-0.3l0-0.3l0-0.3l0-0.3l0-0.1L46.9,115.1L46.9,115.1z M47.6,123.9l0,0.2l0,0.3
		l0,0.3l0,0.3l0,0.3l0,0.3l0,0.3l0,0.3l0,0.3l0,0.3l0,0.3l0,0.3l0,0.3l0,0.3l0,0.3l0,0.3l0,0.3l0,0.3l0,0.3l0,0.3l0,0.3l0,0.3l0,0.3
		l0,0.2l1.5-0.1l0-0.2l0-0.3l0-0.3l0-0.3l0-0.3l0-0.3l0-0.3l0-0.3l0-0.3l0-0.3l0-0.3l0-0.3l0-0.3l0-0.3l0-0.3l0-0.3l0-0.3l0-0.3
		l0-0.3l0-0.3l0-0.3l0-0.3l0-0.3l0-0.2L47.6,123.9L47.6,123.9z M48.3,132.6l0,0.3l0,0.3l0,0.3l0,0.3l0,0.3l0,0.3l0,0.3l0,0.3l0,0.3
		l0,0.3l0,0.3l0,0.3l0,0.3l0,0.3l0,0.3l0,0.3l0,0.3l0,0.3l0,0.3l0,0.3l0,0.3l0,0.3l0,0.2l1.5-0.1l0-0.2l0-0.3l0-0.3l0-0.3l0-0.3
		l0-0.3l0-0.3l0-0.3l0-0.3l0-0.3l0-0.3l0-0.3l0-0.3l0-0.3l0-0.3l0-0.3l0-0.3l0-0.3l0-0.3l0-0.3l0-0.3l0-0.3l0-0.3L48.3,132.6
		L48.3,132.6z M49.1,141.4l0,0.2l0,0.3l0,0.3l0,0.3l0,0.3l0,0.3l0,0.3l0,0.3l0,0.3l0,0.3l0,0.3l0,0.3l0,0.3l0,0.3l0,0.3l0,0.3l0,0.3
		l0,0.3l0,0.3l0,0.3l0,0.3l0,0.3l0,0.3l0,0.2l1.5-0.1l0-0.2l0-0.3l0-0.3l0-0.3l0-0.3l0-0.3l0-0.3l0-0.3l0-0.3l0-0.3l0-0.3l0-0.3
		l0-0.3l0-0.3l0-0.3l0-0.3l0-0.3l0-0.3l0-0.3l0-0.3l0-0.3l0-0.3l0-0.3l0-0.2L49.1,141.4L49.1,141.4z M49.8,150.2L49.8,150.2l0,0.4
		l0,0.3l0,0.3l0,0.3l0,0.3l0,0.3l0,0.3l0,0.3l0,0.3l0,0.3l0,0.3l0,0.3l0,0.3l0,0.3l0,0.3l0,0.3l0,0.3l0,0.3l0,0.3l0,0.3l0,0.3l0,0.3
		l0,0.3l0,0.3l0,0.2l0,0.2l0,0.2l1.5-0.1l0-0.2l0-0.2l0-0.3l0-0.3l0-0.3l0-0.3l0-0.3l0-0.3l0-0.3l0-0.3l0-0.3l0-0.3l0-0.3l0-0.3
		l0-0.3l0-0.3l0-0.3l0-0.3l0-0.3l0-0.3l0-0.3l0-0.3l0-0.3l0-0.3l0-0.3l0-0.3l0-0.3l0-0.1L49.8,150.2L49.8,150.2z"/>
	<path fill="#663333" d="M99.1,161.6c0,2.3,0,4.7,0,7v0.3h1.5c0-2.4,0-4.9,0-7.3v0L99.1,161.6L99.1,161.6z M101.7,118
		c0.2,0,0.4,0,0.5,0.2c0.2,0.3,0.1,1.1,0,1.4l1.4,0.4c0.4-1.3,0.3-3-1.3-3.3c-0.2,0-0.4-0.1-0.6-0.1V118L101.7,118z M101.7,120.8
		L101.7,120.8L101.7,120.8L101.7,120.8L101.7,120.8L101.7,120.8L101.7,120.8L101.7,120.8L101.7,120.8l0.6,0.5l0.1,0.7
		c0.3,0,0.5-0.2,0.6-0.4l0,0l0,0l0,0l0,0l0,0l0,0l0,0c0.1-0.4-0.1-0.9-0.6-1c0,0-0.1,0-0.1,0l0,0.6L101.7,120.8L101.7,120.8
		L101.7,120.8z M101.8,120.8l0.5-0.3c-0.8,0.1-2.4,0.2-3.1-0.1l0,0l-0.1,0l0,0l0,0l0,0l0,0h0l0,0l0,0l0,0c0,0-0.2-0.2-0.2-0.2
		c-0.6-0.6-1-1.3-0.9-2.1v0l-1.5-0.2c-0.2,1.4,0.6,2.7,1.7,3.6l1-1.1L101.8,120.8L101.8,120.8z M98.1,121.5c0.9,0.8,3.1,0.6,4.2,0.5
		l0.1,0L98.1,121.5L98.1,121.5z M98.1,121.5L98.1,121.5L98.1,121.5L98.1,121.5z M98.3,117c1.1-1.8,3.7-2.6,5.7-2.1l0.4-1.4
		c-2.5-0.6-5.5,0.3-7.1,2.3c-0.1,0.1-0.2,0.3-0.3,0.4L98.3,117L98.3,117z M105.2,115.4L105.2,115.4L105.2,115.4l0.1,0.1l0,0l0.1,0
		l0,0l0,0l0,0l0,0l0,0l0,0l0,0l0,0l0,0l0,0l0,0l0,0l0,0l0,0l0,0l0,0l0,0l0,0l0,0l0,0.1l0,0.1l0,0.1l0,0.1l0,0.1
		c1,1.3,1.8,2.8,2.2,4.4l1.5-0.3c-0.4-1.8-1.3-3.5-2.5-5l-0.1-0.1l-0.1-0.1l-0.1-0.1l-0.1-0.1l-0.1-0.1l-0.1-0.1l-0.1-0.1l-0.1-0.1
		l-0.1-0.1l-0.1-0.1l-0.1-0.1l-0.1-0.1l-0.1-0.1l-0.1-0.1l-0.1-0.1l-0.1-0.1l-0.1-0.1l-0.1-0.1l-0.1-0.1l-0.1,0l-0.1,0l-0.1,0
		l-0.1,0l-0.1,0l-0.1,0l-0.1,0l-0.1,0l-0.1,0l0,0L105.2,115.4L105.2,115.4z M108.9,122.3c0.1,2.4-1,4.3-2.8,5.8l0.9,1.1
		c2.2-1.8,3.5-4.2,3.4-7L108.9,122.3L108.9,122.3z M104.9,128.9c-1.7,1-3.6,1.6-5.6,1.7l0,0h0h0l-1.2,0.1l0.1,1.5
		c-0.8,0.1-1.6,0.2-2.4,0.3l0,0c-0.1,0-0.1,0-0.2,0.1l0,0c-0.1,0-0.2,0.1-0.3,0.2c-0.2,0.4-0.2,0.9-0.2,1.3l0,0.1l1.5-0.1
		c0-0.1,0-0.2,0-0.2c2-0.3,3.9-0.5,5.9-1l-0.3-1.3c0.5-0.1,0.9-0.3,1.4-0.5l0.4,1.4c2.4-0.6,5-1.4,7.2-2.6l-0.7-1.3
		c-2,1.2-4.5,1.9-6.8,2.5c0.7-0.3,1.4-0.6,2-1L104.9,128.9L104.9,128.9z M96.7,130.8c-2.4,0.1-4.9-0.1-7.2-0.7l-0.4,1.4
		c2.5,0.7,5,0.8,7.6,0.8L96.7,130.8L96.7,130.8z M88.2,129.6c-2.2-0.8-4.2-2.1-5.4-4.1l0,0l-1.3,0.8c1.4,2.2,3.7,3.8,6.2,4.7
		L88.2,129.6L88.2,129.6z M82.1,124.4c-0.9-2.1-1-4.5-0.6-6.8l-1.5-0.2c-0.4,2.5-0.3,5.2,0.7,7.6L82.1,124.4L82.1,124.4z
		 M81.7,116.2l0-0.1l0-0.1l0-0.1l0-0.1l0-0.1l0-0.1l0-0.1l0-0.1l0-0.1l0-0.1l0-0.1l0-0.1l0-0.1l0-0.1l0-0.1l0-0.1l0-0.1l0-0.1l0-0.1
		l0.1-0.1l0.1-0.1l0.1-0.1l0-0.1c0.9-0.3,1.8-1.1,2.5-1.5l0.5-0.3l0,0l-0.9-1.2c-0.4,0.3-0.8,0.6-1.2,0.9c-0.3,0.2-1.2,0.8-1.6,0.9
		c-0.3,0.1-0.5,0.2-0.6,0.5l-0.1,0.2l-0.1,0.2l-0.1,0.2l-0.1,0.2l-0.1,0.2l-0.1,0.2l-0.1,0.2l-0.1,0.2l-0.1,0.2l0,0.1l0,0.1l0,0.1
		l0,0.1l0,0.1l0,0.1l0,0.1l0,0.1l0,0.1l0,0.1l0,0.1l0,0.1l0,0.1l0,0.1l0,0.1l0,0.1L81.7,116.2L81.7,116.2z M86.8,110.4
		c0.6-0.4,1.4-0.8,2.1-1h0l0.9-0.2h0l0.1,0l0.1,0l0.1,0l0.1,0l0.1,0l0.1,0l0.1,0l0.1,0l0.1,0l0.1,0l0.1,0l0.1,0l0.1,0l0.1,0l0.1,0
		l0.1,0l0.1,0l0.1,0l0.1,0l0.1,0l0.1,0l0.1,0l0.1,0l0.1,0l0.1,0l0.1,0l0.1,0l0.1,0l0.1,0l0.1,0l0.1,0l0.1,0l0,0l0-1.5l-0.1,0l-0.1,0
		l-0.1,0l-0.1,0l-0.1,0l-0.1,0l-0.1,0l-0.1,0l-0.1,0l-0.1,0l-0.1,0l-0.1,0l-0.1,0l-0.1,0l-0.1,0l-0.1,0l-0.1,0l-0.1,0l-0.1,0l-0.1,0
		l-0.1,0l-0.1,0l-0.1,0l-0.1,0l-0.1,0l-0.1,0l-0.1,0l-0.1,0l-0.1,0l-0.1,0l-0.1,0l-0.1,0l-0.1,0h0l-0.9,0.2h0
		c-0.9,0.2-1.8,0.7-2.7,1.2L86.8,110.4L86.8,110.4z M89.9,109.2L89.9,109.2L89.9,109.2L89.9,109.2z M89.6,107.8l0.3,1.4L89.6,107.8
		L89.6,107.8z M95,109c2.4,0.2,4.8,0.8,7.1,1.6l0.5-1.4c-2.4-0.8-4.9-1.4-7.4-1.7L95,109L95,109z M103.5,111.1
		c2.2,0.9,4.4,2.1,6.3,3.5l0.9-1.2c-2-1.5-4.3-2.8-6.6-3.7L103.5,111.1L103.5,111.1z M110.9,115.5c1.6,1.4,3.2,3.3,3.7,5.4l0,0.1
		l0,0.1l0,0l1.5-0.3l0,0l0-0.1l0-0.1c-0.6-2.4-2.3-4.5-4.2-6.1L110.9,115.5L110.9,115.5z M114.8,122.4c0,2.4-1.2,4.2-3.2,5.5
		l0.9,1.2c2.3-1.6,3.8-3.9,3.8-6.7L114.8,122.4L114.8,122.4z M95.3,135.7c0,0.4,0.1,0.8,0.1,1.3l0,0l0,0l0,0l0,0l0,0l0,0l0,0l0,0
		c0,0,0,0.2,0,0.1l0,0.1l0,0l0,0.2l0,0.2l0,0.2l0,0.2l0,0.2l0,0.2l0,0.2l0,0.2l0,0.2l0,0.2l0,0.2l0,0.2l0,0.2l0,0.2l0,0.2l0,0.2
		l0,0.2l0,0.2l0,0.2l0,0.2l0,0.2l0,0.1l0,0.1l0,0.1l0,0.1l0,0.1l0,0.1l0,0.1l0,0.1l0,0.1l0,0.1l0,0.1l0,0.1l0,0.1l0,0.1l0,0.1l0,0.1
		l0,0.1l1.5-0.3l0-0.1l0-0.1l0-0.1l0-0.1l0-0.1l0-0.1l0-0.1l0-0.1l0-0.1l0-0.1l0-0.1l0-0.1l0-0.1l0-0.1l0-0.1l0-0.2l0-0.2l0-0.2
		l0-0.2l0-0.2l0-0.2l0-0.2l0-0.2l0-0.2l0-0.2l0-0.2l0-0.2l0-0.2l0-0.2l0-0.2l0-0.2l0-0.2l0-0.2l0-0.2l0-0.2l0-0.2l0-0.2l0-0.1l0-0.1
		v0l0,0l0,0c0-0.4-0.1-0.8-0.1-1.2L95.3,135.7L95.3,135.7z M97.3,144.3c0.4,1.8,0.8,3.6,1,5.4c0.1,0.6,0.2,1.1,0.2,1.7l1.5-0.2
		c-0.3-2.5-0.8-4.9-1.3-7.3L97.3,144.3L97.3,144.3z M98.7,152.9c0.2,2.4,0.3,4.8,0.4,7.3l1.5,0c0-2.5-0.1-4.9-0.4-7.4L98.7,152.9
		L98.7,152.9z"/>
	<path fill="#663333" d="M94.9,148.3c0.8,0.5,2.2,1.4,2.7,2.3c0.2,0.4,0.1,0.8,0.2,1.3c-0.1,0.1-0.2,0.1-0.3,0.2
		c-0.1,0-0.2-0.1-0.3-0.1c-0.7-0.3-1.4-0.6-2.1-0.9l-0.6,1.4c0.8,0.3,1.6,0.6,2.4,1l0.1,0.1c0.1,0.1,0.3,0.1,0.5,0.1
		c0.4,0,0.8-0.2,1.1-0.4c0.2,0.1,0.4,0.2,0.6,0.3h0l0,0l0,0l0,0l0,0l0,0l0,0l0,0l0,0l0,0l0,0l0.6-1.3l0,0l0,0l0,0l0,0l0,0l0,0l0,0
		l0,0l0,0l0,0h0l0,0c0.6-0.6,1.1-1.2,1.6-1.9l-1.2-0.9c-0.3,0.4-0.6,0.8-1,1.2c-0.4-1.3-1.7-2.3-2.8-3.1c-0.2-0.1-0.4-0.3-0.7-0.4
		l-0.1,0l-0.1,0l-0.1,0l-0.1,0l-0.1,0l-0.8,1.3l0.1,0l0.1,0l0.1,0L94.9,148.3L94.9,148.3L94.9,148.3z M99.8,152.1L99.8,152.1
		L99.8,152.1L99.8,152.1z M101.2,153.8c0.3-0.1,0.5-0.2,0.8-0.3c0.1,0,0.3-0.1,0.4-0.3c0.1-0.1,0.1-0.2,0.1-0.3l0,0l0,0
		c0-0.1,0.1-0.2,0.1-0.2l0,0l0,0l0,0l0,0l0,0l0,0l0,0l0,0l0,0l0,0l0,0l0,0l0,0l0,0l0,0l0,0l0,0l0,0l0,0l0,0l0,0l0,0l0,0l0,0l0,0l0,0
		l0,0l0,0l0,0l0,0c0,0,0,0,0,0l0,0l0,0l0,0l0,0l0,0l0,0l0,0l0,0l0,0l0,0l0,0l0,0l0,0l0,0l0,0l0,0l0,0l0,0l0,0l0,0l0,0l0,0l0,0l0.1,0
		l0.2-0.1l0,0c0.2-0.1,0.4-0.1,0.6-0.3h0c1.3-0.7,2.6-1.5,3.9-2.2l-0.8-1.3c-1.1,0.7-2.2,1.3-3.4,1.9L103,151l0,0l0,0l0,0l0,0l0,0
		l0,0l0,0l0,0l0,0l0,0l0,0l0,0l0,0l0,0l0,0l0,0l0,0l0,0l0,0l0,0l0,0l-0.1,0l0,0l0,0l0,0l0,0l-0.2,0.1l0,0c-0.2,0.1-0.4,0.1-0.5,0.2
		l0,0c-0.4,0.2-0.6,0.5-0.7,0.8c-0.2,0.1-0.4,0.1-0.5,0.2L101.2,153.8L101.2,153.8z M103.7,152.2L103.7,152.2L103.7,152.2
		L103.7,152.2z M103,151l0.8,1.3L103,151L103,151z M108.9,149.2c2.1-1.3,4.5-3.1,5.6-5.3l-1.4-0.6c-0.9,1.9-3.2,3.6-5,4.7
		L108.9,149.2L108.9,149.2z M114.9,142.2L114.9,142.2L114.9,142.2l0-0.2l0-0.1l0-0.1l0-0.1l0-0.1l0-0.1l0-0.1v-0.1l0-0.1l0-0.1
		l0-0.1l0-0.1l0-0.1l0-0.1l0-0.1l0,0c0-0.2-0.1-0.5-0.4-0.6c-0.1,0-0.1-0.1-0.2-0.1l0,0.1l-0.1-0.1c-2.4-0.6-4.6,0-6.7,1.3l0.8,1.2
		c1.6-1,3.2-1.5,5.1-1.2l0,0l0,0l0,0l0,0l0,0l0,0L114.9,142.2L114.9,142.2z M106.3,142.7c-0.2,0.1-0.4,0.3-0.6,0.5
		c-1.7,1.5-3.2,3.2-4.6,5l1.2,0.9c1.5-1.9,3.1-3.7,5-5.2l0,0L106.3,142.7L106.3,142.7z M93.7,150.5c-2.3-0.9-4.6-1.8-6.8-2.8l-0.1,0
		l-0.6,1.4c0.8,0.3,1.6,0.7,2.4,1c1.5,0.6,3,1.2,4.5,1.8L93.7,150.5L93.7,150.5z M85.4,147.1L85.4,147.1L85.4,147.1L85.4,147.1
		L85.4,147.1l-0.1,0l0,0l0,0l0,0l0,0l0,0l0,0l0,0l0,0l0,0l0,0l0,0l0,0l0,0l0,0l0,0l0,0l0,0l0,0l0,0l0,0l0,0l0.1,0L85.4,147.1
		l-0.7,0.5l-0.6,0.4l0.1,0.1l0.1,0.1l0,0l0,0l0,0l0,0l0,0l0,0l0,0l0,0l0,0l0,0l0,0l0,0l0,0l0,0l0,0l0,0l0,0l0,0l0,0l0,0l0,0l0,0l0,0
		l0,0l0,0l0,0l0-0.1l0,0l0.5-1.1L85.4,147.1L85.4,147.1z M84.9,148.4c0.5-0.1,0.8-0.7,0.5-1.1L84.9,148.4L84.9,148.4z M85.2,147
		c-0.1,0-0.1-0.1-0.2-0.1c-0.1,0-0.1,0-0.2,0l0,0c0,0,0,0,0,0l-0.1,0l0,0l-0.1,0h0l0,0h0l0,0h0h0h0h-0.1l0,0l0,0h0l0,0h0l0,0l0,0h0
		l0,0h0l0,0l0,0l0,0l0,0l0,0l0,0l0,0h0l0,0l0,0l0,0l0,0l0,0l0,0l0,0l0,0l0,0l0,0l0,0l0,0l0,0l0,0l0,0l0,0c-0.2-0.3-0.9-1.1-0.7-1.4
		c0.2-0.3,1.3-0.4,1.7-0.4c0.1,0,0.2,0,0.3,0l0.1-1.5c-1.3,0-3.4,0.2-3.6,1.9c0,0.9,0.5,1.7,1.1,2.4l0,0l0.1,0.1l0,0l0,0
		c0.1,0.1,0.1,0.1,0.2,0.1l0,0l0.1,0.1l0,0c0.1,0.1,0.3,0.1,0.5,0.1l0,0c0.1,0,0.4,0,0.4,0l0,0h0l0.1,0l0,0l0,0h0l0,0h0.1l0,0l0,0h0
		l0,0h0l0,0l0,0h0l0,0l0,0l0,0l0,0h0h0h0h0L85.2,147L85.2,147z M84.6,148.4L84.6,148.4L84.6,148.4L84.6,148.4L84.6,148.4z
		 M83.8,146.9L83.8,146.9L83.8,146.9L83.8,146.9L83.8,146.9z M83.8,146.9L83.8,146.9L83.8,146.9L83.8,146.9L83.8,146.9z M83.8,146.9
		L83.8,146.9L83.8,146.9l-1.1,1L83.8,146.9L83.8,146.9z M86.5,145.2c0.2,0,0.5,0.1,0.7,0.1c2.1,0.4,4.2,1.1,6.1,2.1l0.7-1.3
		c-1.5-0.7-3.1-1.3-4.7-1.8c-0.8-0.2-1.8-0.4-2.6-0.6L86.5,145.2L86.5,145.2z"/>
	<path fill="#663333" d="M126.3,162.5l-0.2,0.1l-0.2,0.1l-0.2,0.1l-0.2,0.1l-0.2,0.1l-0.2,0.1l-0.2,0.1l-0.2,0.1l-0.2,0.1l-0.2,0.1
		l-0.2,0.1l-0.2,0.1l-0.2,0.1l-0.2,0.1l-0.2,0.1l-0.2,0.1l-0.2,0.1l-0.2,0.1l-0.2,0.1l-0.2,0.1l-0.2,0.1l-0.2,0.1l-0.2,0.1l-0.2,0.1
		l-0.2,0.1l-0.2,0.1l-0.2,0.1l-0.2,0.1l-0.2,0.1l-0.2,0.1l0.8,1.2l0.2-0.1l0.2-0.1l0.2-0.1l0.2-0.1l0.2-0.1l0.2-0.1l0.2-0.1l0.2-0.1
		l0.2-0.1l0.2-0.1l0.2-0.1l0.2-0.1l0.2-0.1l0.2-0.1l0.2-0.1l0.2-0.1l0.2-0.1l0.2-0.1l0.2-0.1l0.2-0.1l0.2-0.1l0.2-0.1l0.2-0.1
		l0.2-0.1l0.2-0.1l0.2-0.1l0.2-0.1l0.2-0.1l0.2-0.1l0.2-0.1L126.3,162.5L126.3,162.5z M128.1,103.8c0,0.7-0.2,1.9-0.9,2.2
		c-0.9,0.4-2.2-0.6-2.8-1.1l-0.4,0.5l-0.8,0.4l0,0c0,0.1,0.1,0.1,0.1,0.2l0,0c1.1,1,2.6,1.9,4.1,1.5c1.6-0.5,2-2.2,2.1-3.7
		L128.1,103.8L128.1,103.8z M124,103.9c-0.7-1.8-0.9-3.8,0.4-5.4c0.2-0.2,0.3-0.4,0.5-0.6l-1-1.1c-1.8,1.5-2.3,3.8-1.8,6.1
		c0.1,0.5,0.3,1,0.5,1.5L124,103.9L124,103.9z M125.9,97.3c0.9-0.4,1.9-0.4,2.7,0.1l0.1,0.1l0.1,0.1l0.1,0.1l0.1,0.1l0.1,0.1
		l0.1,0.1l0.1,0.1l0.1,0.1l0.1,0.1l0.1,0.1l0.1,0.1l0.1,0.1l0.1,0.1l0.1,0.1l0.1,0.1l0.1,0.1l0.1,0.1l0.1,0.1l0.1,0.1l0.1,0.1
		l0.1,0.1l0.1,0.1l0.1,0.1l0.1,0.1l0.1,0.1l0.1,0.1l0.1,0.1l0.1,0.1l0.1,0.1l0,0l0.9-1.2l0,0l-0.1-0.1l-0.1-0.1l-0.1-0.1l-0.1-0.1
		l-0.1-0.1l-0.1-0.1l-0.1-0.1l-0.1-0.1l-0.1-0.1l-0.1-0.1l-0.1-0.1l-0.1-0.1l-0.1-0.1l-0.1-0.1l-0.1-0.1l-0.1-0.1l-0.1-0.1l-0.1-0.1
		l-0.1-0.1l-0.1-0.1l-0.1-0.1l-0.1-0.1l-0.1-0.1l-0.1-0.1l-0.1-0.1l-0.1-0.1l-0.1-0.1l-0.1-0.1l-0.1-0.1c-1.2-0.7-2.7-0.8-4.1-0.2
		L125.9,97.3L125.9,97.3z M133,100.4c1.9,1.5,3.6,3.2,4.9,5.2l1.2-0.8c-1.4-2.1-3.2-3.9-5.2-5.5L133,100.4L133,100.4z M138.7,106.8
		c1.2,2.1,1.9,4.3,2.3,6.7l1.5-0.2c-0.4-2.5-1.2-4.9-2.5-7.1L138.7,106.8L138.7,106.8z M141.2,114.9c0.2,2.1,0.3,4.1,0.2,6.2l0,0.3
		l0,0.3l0,0.3l0,0.2l1.5,0l0-0.2l0-0.3l0-0.3l0-0.3c0.1-2.2,0-4.3-0.2-6.4L141.2,114.9L141.2,114.9z M141.3,123.6l0,0.1l0,0.3l0,0.3
		l0,0.3l0,0.2l0,0.2l0,0.2l0,0.2l0,0.2l0,0.2l0,0.2l0,0.2l0,0.2l0,0.2l0,0.2l0,0.2l0,0.2l0,0.2l0,0.2l0,0.2l0,0.2l0,0.2l0,0.2l0,0.2
		l0,0.2l0,0.2l0,0.2l0,0.2l0,0.2l0,0.2l0,0.2l0,0l1.5,0.1l0,0l0-0.2l0-0.2l0-0.2l0-0.2l0-0.2l0-0.2l0-0.2l0-0.2l0-0.2l0-0.2l0-0.2
		l0-0.2l0-0.2l0-0.2l0-0.2l0-0.2l0-0.2l0-0.2l0-0.2l0-0.2l0-0.2l0-0.2l0-0.2l0-0.2l0-0.2l0-0.2l0-0.3l0-0.3l0-0.3l0-0.3l0-0.1
		L141.3,123.6L141.3,123.6z M140.9,132.3L140.9,132.3l0,0.3l0,0.2l0,0.2l0,0.2l0,0.2l0,0.2l0,0.2l0,0.2l0,0.2l0,0.2l0,0.2l0,0.2
		l0,0.2l0,0.2l0,0.2l0,0.2l0,0.2l0,0.2l0,0.2l0,0.2l0,0.2l0,0.2l0,0.2l0,0.2l0,0.2l0,0.2l0,0.2l0,0.2l0,0.2l0,0.2l0,0.2l0,0.2l0,0.2
		l0,0.2l0,0.1l1.5,0.2l0-0.1l0-0.2l0-0.2l0-0.2l0-0.2l0-0.2l0-0.2l0-0.2l0-0.2l0-0.2l0-0.2l0-0.2l0-0.2l0-0.2l0-0.2l0-0.2l0-0.2
		l0-0.2l0-0.2l0-0.2l0-0.2l0-0.2l0-0.2l0-0.2l0-0.2l0-0.2l0-0.2l0-0.2l0-0.2l0-0.2l0-0.2l0-0.2l0-0.2l0-0.2l0-0.2l0-0.1L140.9,132.3
		L140.9,132.3z M139.8,141l0,0.2l0,0.2l0,0.2l0,0.2l0,0.2l0,0.2l0,0.2l0,0.2l0,0.2l0,0.2l0,0.2l0,0.2l0,0.2l0,0.2l0,0.2l0,0.2l0,0.2
		l0,0.2l0,0.2l-0.1,0.2l-0.1,0.2l-0.1,0.2l-0.1,0.2l-0.1,0.2l-0.1,0.2l-0.1,0.2l-0.1,0.2l-0.1,0.2l-0.1,0.2l-0.1,0.2l-0.1,0.2
		l-0.1,0.2l-0.1,0.2l-0.1,0.2l-0.1,0.2l-0.1,0.2l-0.1,0.2l-0.1,0.2l-0.1,0.2l0,0l1.4,0.5l0,0l0.1-0.2l0.1-0.2l0.1-0.2l0.1-0.2
		l0.1-0.2l0.1-0.2l0.1-0.2l0.1-0.2l0.1-0.2l0.1-0.2l0.1-0.2l0.1-0.2l0.1-0.2l0.1-0.2l0.1-0.2l0.1-0.2l0.1-0.2l0.1-0.2l0.1-0.2
		l0.1-0.2l0.1-0.2l0.1-0.2l0.1-0.2l0-0.2l0-0.2l0-0.2l0-0.2l0-0.2l0-0.2l0-0.2l0-0.2l0-0.2l0-0.2l0-0.2l0-0.2l0-0.2l0-0.2l0-0.2
		l0-0.2L139.8,141L139.8,141z M137.2,149.2l-0.1,0.1l-0.1,0.2l-0.1,0.2l-0.1,0.2l-0.1,0.2l-0.1,0.2l-0.1,0.2l-0.1,0.2l-0.1,0.2
		l-0.1,0.2l-0.1,0.2l-0.1,0.2l-0.1,0.2l-0.1,0.2l-0.1,0.2l-0.1,0.2l-0.1,0.2l-0.1,0.2l-0.1,0.2l-0.1,0.2l-0.1,0.2l-0.1,0.2l-0.1,0.2
		l-0.1,0.2l-0.1,0.2l-0.1,0.2l-0.1,0.2l-0.1,0.2l-0.1,0.2l-0.1,0.2l-0.1,0.2l-0.1,0.2l-0.1,0.1l-0.1,0.1l-0.1,0.1l-0.1,0.1l-0.1,0.1
		l-0.1,0.1l-0.1,0.1l-0.1,0.1l0,0l1.2,0.9l0,0l0.1-0.2l0.1-0.2l0.1-0.2l0.1-0.2l0.1-0.2l0.1-0.2l0.1-0.2l0.1-0.2l0.1-0.2l0.1-0.2
		l0.1-0.2l0.1-0.2l0.1-0.2l0.1-0.2l0.1-0.2l0.1-0.2l0.1-0.2l0.1-0.2l0.1-0.2l0.1-0.2l0.1-0.2l0.1-0.2l0.1-0.2l0.1-0.2l0.1-0.2
		l0.1-0.2l0.1-0.2l0.1-0.2l0.1-0.2l0.1-0.2l0.1-0.2l0.1-0.2l0.1-0.2l0.1-0.2l0.1-0.2l0.1-0.2l0.1-0.2l0.1-0.2l0.1-0.2l0.1-0.1
		L137.2,149.2L137.2,149.2z M132.6,156.5L132.6,156.5l-0.1,0.2l-0.1,0.1l-0.1,0.1l-0.1,0.1l-0.1,0.1l-0.1,0.1l-0.1,0.1l-0.1,0.1
		l-0.1,0.1l-0.1,0.1l-0.1,0.1l-0.1,0.1l-0.1,0.1l-0.1,0.1l-0.1,0.1l-0.1,0.1l-0.1,0.1l-0.1,0.1l-0.1,0.1l-0.1,0.1l-0.1,0.1l-0.1,0.1
		l-0.2,0.1l-0.2,0.1l-0.2,0.1l-0.2,0.1l-0.2,0.1l-0.2,0.1l-0.2,0.1l-0.2,0.1l-0.2,0.1l-0.2,0.1l-0.2,0.1l-0.2,0.1l-0.2,0.1l-0.1,0.1
		l1,1.1l0.1-0.1l0.2-0.1l0.2-0.1l0.2-0.1l0.2-0.1l0.2-0.1l0.2-0.1l0.2-0.1l0.2-0.1l0.2-0.1l0.2-0.1l0.2-0.1l0.2-0.1l0.2-0.1l0.2-0.1
		l0.2-0.1l0.2-0.1l0.2-0.1l0.1-0.1l0.1-0.1l0.1-0.1l0.1-0.1l0.1-0.1l0.1-0.1l0.1-0.1l0.1-0.1l0.1-0.2l0.1-0.2l0.1-0.2l0.1-0.2
		l0.1-0.2l0.1-0.2l0.1-0.2l0.1-0.2l0.1-0.2l0.1-0.2l0,0L132.6,156.5L132.6,156.5z"/>
	<path fill="#663333" d="M141.7,126.4L141.7,126.4l-0.5,1.5l1.4,0.5l0.5-1.5v0l0,0l0,0l0,0c0.1-0.3,0.2-0.7,0.3-1.1
		c0.4-1.5,0.8-3,1.2-4.5l-1.4-0.4c-0.4,1.6-0.8,3.2-1.3,4.8C141.9,125.9,141.8,126.2,141.7,126.4L141.7,126.4L141.7,126.4z
		 M152.2,109.4L152.2,109.4L152.2,109.4L152.2,109.4L152.2,109.4L152.2,109.4L152.2,109.4l0,0.1l0,0l0,0l0,0l0,0l0,0l0,0l0,0l0,0
		l0,0l0,0l0,0l0,0l0,0l0,0l0,0l0,0l0,0l0,0l0,0l0,0l0,0l0,0l0,0l0,0l0,0.1l0,0l0.1,0.2c0,0.1,0.1,0.3,0.3,0.4
		c0.1,0.1,0.2,0.1,0.3,0.1l0,0c0,0,0,0,0,0l0,0l0,0l0,0l0,0l0,0l0,0l0,0l0,0h0l0,0l0,0l0,0l0,0l0,0l0,0l0,0l0,0l0,0l0.1,0.1l0,0
		c0.8,0.6,1.5,0.7,2.4,0.4c0.5-0.1,0.9-0.3,1.4-0.5l0,0c0.2-0.1,0.4-0.3,0.4-0.5l0,0l0,0c0.2-1,0.4-1.9,0.4-2.9l-1.5-0.1
		c0,0.4-0.1,0.8-0.1,1.2c-0.1,0.4-0.1,0.8-0.2,1.2c-0.5,0.2-1.1,0.4-1.5,0.3l0,0c0,0-0.1,0-0.1,0c0,0-0.1,0-0.1-0.1
		c-0.2-0.2-0.4-0.3-0.6-0.4l0,0l0,0l0,0l0,0l0,0l0,0l0,0l0,0l0,0l0,0l0,0l0,0l0,0l0,0l0,0l0,0l0,0l0,0l0,0l0,0l0,0l0,0l0,0l0,0l0,0
		l0,0l0,0l0,0l-0.1,0c-0.1,0-0.2-0.1-0.3-0.1c-0.3-0.1-0.5,0-0.7,0.2L152.2,109.4L152.2,109.4z M153.4,109.3l-0.2,0l0-0.1
		L153.4,109.3L153.4,109.3z M157.9,105.6c-0.1-1.1-0.6-2.1-1.5-2.7c-1.9-1.2-3.7-1-5.4,0.3l0,0l1,1.1l0,0c1.2-1,2.3-1,3.6-0.2
		c0.6,0.4,0.8,1,0.8,1.6L157.9,105.6L157.9,105.6z M149.8,104.4c-1.6,1.9-2.7,4.4-3.6,6.7l1.4,0.5c0.8-2.1,1.9-4.5,3.3-6.2l0,0
		L149.8,104.4L149.8,104.4z M145.7,112.4c-0.8,2.3-1.5,4.7-2.2,7.1l1.4,0.4c0.6-2.3,1.3-4.7,2.1-7L145.7,112.4L145.7,112.4z"/>
	<path fill="#663333" d="M142.3,133.8c-1.6,1.9-3.2,4.9-2.5,7.3l1.4-0.4c-0.5-2,1-4.6,2.3-6L142.3,133.8L142.3,133.8z M150.3,132.4
		c0,1.6,0.4,2.8,2.2,2.9c0.7,0,1.3,0,2,0l0,0c0,0,0.1,0,0.1,0c0.2,0,0.4-0.1,0.6-0.3l0,0l0,0c0.2-0.2,0.4-0.4,0.6-0.6l0,0l0.1,0
		l0.1,0l0,0l0,0l0,0l0,0l0,0l0,0l0,0l0,0l0,0l0,0l0,0l0,0l0,0l0,0l0,0l0,0l0,0l0,0l0,0l0,0l0,0l0,0l0,0l0,0l-0.6-1.3l0,0l0,0l-0.1,0
		l0,0l0,0l0,0l0,0l0,0l-0.1,0l0,0l-0.1,0h0l0,0v0c-0.2,0.1-0.7,0.5-0.9,0.8c-0.6,0-1.1,0-1.7,0c-0.2,0-0.4,0-0.6-0.1l0,0l0,0l0,0
		l0,0l0,0l0,0l0,0l0,0c-0.2-0.2-0.2-1-0.2-1.3H150.3L150.3,132.4z M156.9,132.3c0-0.6,0-1.2,0.1-1.8c0-1.1-0.3-1.8-1.4-2.1
		c-0.6-0.2-1.2-0.2-1.8-0.2l-0.1,0l-0.1,0l-0.1,0l-0.1,0l-0.1,0l-0.1,0l-0.1,0l-0.1,0l-0.1,0l-0.1,0l-0.1,0l-0.1,0l-0.1,0l-0.1,0
		l-0.1,0l-0.1,0l-0.1,0l-0.1,0l-0.1,0l-0.1,0l-0.1,0l-0.1,0l0,0l0.3,1.4l0,0l0.1,0l0.1,0l0.1,0l0.1,0l0.1,0l0.1,0l0.1,0l0.1,0l0.1,0
		l0.1,0l0.1,0l0.1,0l0.1,0l0.1,0l0.1,0l0.1,0l0.1,0l0.1,0l0.1,0l0.1,0l0.1,0l0.1,0c0.3,0,1.3,0,1.6,0.2v0l0,0l0,0l0,0l0,0l0,0l0,0
		l0,0l0,0c0.1,0.2,0,1.3,0,1.5c0,0.3,0,0.6,0,0.9L156.9,132.3L156.9,132.3z M150,128.7c-2.5,0.7-4.8,2.1-6.6,3.9l1.1,1
		c1.6-1.6,3.7-2.9,6-3.6L150,128.7L150,128.7z"/>
	<path fill="#663333" d="M136.5,151.2c-0.1,2.2-0.9,4.1-3.2,4.8l-0.2,0.1l0.4,1.4c3.1-0.9,4.3-3.2,4.5-6.2l0-0.1L136.5,151.2
		L136.5,151.2z M127.2,138.9c-0.4,0-0.8,0-1.1-0.1l0,0l-0.4,1.4c0.5,0.1,1,0.2,1.5,0.2V138.9L127.2,138.9z M125.3,138.3
		c-0.3-0.4-0.1-1.1,0.1-1.5l0,0c0.3-0.9,0.8-1.7,1.9-1.6c0.3,0,0.8,0.2,1.1,0.4l0.7-1.3c-1.8-1-3.5-0.8-4.6,1
		c-0.2,0.3-0.3,0.7-0.5,1h0c-0.3,0.9-0.5,2,0.1,2.8L125.3,138.3L125.3,138.3z M125.4,136.7l-1.4-0.5L125.4,136.7L125.4,136.7
		L125.4,136.7z M129.4,136.2c1.8,1.5,3.2,3.6,4.3,5.6l1.3-0.7c-1.2-2.1-2.8-4.4-4.7-6L129.4,136.2L129.4,136.2z M134.4,143.1
		c1,2.1,1.8,4.4,2.1,6.7l1.5-0.1c-0.3-2.5-1.1-5-2.2-7.2L134.4,143.1L134.4,143.1z"/>
	<path fill="#663333" d="M186.2,159.8c0.1,1.1,0.3,2.2,0.6,3.2c0.3,1.4,0.7,2.9,1.5,4.1l1.3-0.8c-0.4-0.7-0.7-1.4-0.9-2.2
		c-0.4-1.5-0.7-3-0.9-4.6L186.2,159.8L186.2,159.8z M186.7,127.8c1.4,0.3,2.8,0.7,4.3,0.9c0.4,0,0.8,0.1,1.2,0.1l0-1.5
		c-0.4,0-0.9,0-1.3-0.1c-1.5-0.2-3-0.7-4.6-0.9c0-0.1-0.1-0.1-0.1-0.2c-0.2-0.2-0.4-0.3-0.6-0.3c-0.7,0-1.4,0-2,0l0,1.5
		c0.5,0,1,0,1.5,0c0,0.2,0.1,0.5,0.1,0.7c0.1,1.3,0.1,2.6,0.1,3.9l1.5,0C186.8,130.5,186.8,129.2,186.7,127.8L186.7,127.8
		L186.7,127.8z M193.8,128.7L193.8,128.7L193.8,128.7l0.1,0l0,0l0,0l0,0l0,0l0,0l0,0l0,0l0,0l0,0l0,0l0,0l0,0l0,0l0,0l0,0l0,0l0,0
		l0,0l0,0l0,0l0,0c0,0,0.1,0,0.1,0c0.1,0,0.2-0.1,0.3-0.1l0.7-0.5c0.1-0.1,0.2-0.2,0.3-0.4l0,0l0,0c0.4-1.2,0.6-2.6,0.7-3.9
		c0-0.5,0.1-1.1,0.1-1.6l-1.5-0.1c-0.1,1.5-0.2,3-0.5,4.5c0,0.2-0.1,0.3-0.1,0.5l-0.4,0.3l0,0l0,0l0,0l0,0l0,0l0,0l0,0l0,0l0,0l0,0
		l0,0l0,0l0,0l0,0l0,0l0,0l0,0l0,0l0,0L193.8,128.7L193.8,128.7z M197.1,120.5c0.1-2.5,0.1-4.9,0.1-7.4h-1.5c0,2.4,0,4.9-0.1,7.3
		L197.1,120.5L197.1,120.5z M195.1,112.2c-2.5,0-5,0.1-7.5,0.2l0.1,1.5c2.5-0.1,5-0.2,7.4-0.2L195.1,112.2L195.1,112.2z
		 M186.2,112.5c-2.4,0.1-4.8,0.2-7.2,0.4l-0.3,0l0.2,1.5c1.4-0.2,2.8-0.2,4.2-0.3c1.1-0.1,2.1-0.1,3.2-0.2L186.2,112.5L186.2,112.5z
		 M176.6,114c0,0.4,0.1,0.8,0.1,1.2c0.3,1.6,0.7,3.2,1,4.8c0,0.2,0.1,0.3,0.1,0.5c0,0.1,0,0.2,0,0.2c0,0.2,0,0.3,0.1,0.5
		c0,0.1,0.1,0.1,0.1,0.1l0,0l0,0l0,0l0,0l0,0l0,0l0,0l0,0l0,0l0,0l0,0l0,0l0,0l0,0l0,0l0,0l0,0l0,0l0,0l0.7-0.7l-0.5-0.1l0.7,0.1
		c0-0.1,0-0.2,0-0.3l0,0l0,0l0,0l0,0l0,0c0-0.7-0.2-1.6-0.3-2.1c-0.3-1.3-0.6-2.5-0.8-3.8c0-0.2-0.1-0.4-0.1-0.6l0,0L176.6,114
		L176.6,114z M178.7,121.7L178.7,121.7L178.7,121.7L178.7,121.7c0,0.4,0,0.9,0,1.3c0,1,0,2.1,0,3.2c0,0.1,0,0.2,0,0.2
		c0,0.2,0.1,0.4,0.3,0.5c0,0,0.1,0.1,0.1,0.1l0,0l0,0c0.7,0.3,2.2,0.3,2.9,0.3v-1.5c-0.4,0-1.3,0-1.9-0.1l0,0c0-1.3,0-2.6,0-3.9
		c0-0.1,0-0.2,0-0.3L178.7,121.7L178.7,121.7z M185.3,133.3l0,0.1l0,0.2l0,0.2l0,0.2l0,0.2v0.2l0,0.2l0,0.2v0.2v0.2v0.2v0.2v0.2v0.2
		v0.2v0.2v0.2v0.2v0.2l0,0.2v0.2v0.2l0,0.2v0.2v0.2v0.2v0.2l0,0.2v0.2l0,0.2v0.2l0,0.2l0,0.2l0,0.2v0.2l0,0.2l0,0.2l0,0.2l0,0.2
		l0,0.1l1.5,0l0-0.1l0-0.2l0-0.2l0-0.2l0-0.2l0-0.2l0-0.2l0-0.2v-0.2l0-0.2v-0.2v-0.2l0-0.2v-0.2v-0.2v-0.2v-0.2l0-0.2v-0.2v-0.2
		v-0.2v-0.2v-0.2l0-0.2v-0.2v-0.2v-0.2v-0.2v-0.2v-0.2l0-0.2v-0.2v-0.2l0-0.2l0-0.2l0-0.2l0-0.2l0-0.2l0-0.2v-0.1L185.3,133.3
		L185.3,133.3z M185.4,142.1L185.4,142.1l0,0.2l0,0.2l0,0.2l0,0.2l0,0.2l0,0.2l0,0.2l0,0.2l0,0.2l0,0.2l0,0.2l0,0.2l0,0.2l0,0.2
		l0,0.2l0,0.2l0,0.2l0,0.2l0,0.2l0,0.2l0,0.2l0,0.2l0,0.2l0,0.2l0,0.2l0,0.2l0,0.2l0,0.2l0,0.2l0,0.2l0,0.2l0,0.2l0,0.2l0,0.2l0,0.1
		l1.5,0l0-0.1l0-0.2l0-0.2l0-0.2l0-0.2l0-0.2l0-0.2l0-0.2l0-0.2l0-0.2l0-0.2l0-0.2l0-0.2l0-0.2l0-0.2l0-0.2l0-0.2l0-0.2l0-0.2l0-0.2
		l0-0.2l0-0.2l0-0.2l0-0.2l0-0.2l0-0.2l0-0.2l0-0.2l0-0.2l0-0.2l0-0.2l0-0.2l0-0.2l0-0.2l0-0.2l0,0L185.4,142.1L185.4,142.1z
		 M185.5,150.9l0,0.1l0,0.2l0,0.2l0,0.2l0,0.2l0,0.2l0,0.2l0,0.2l0,0.2l0,0.2l0,0.2l0,0.2l0,0.2l0,0.2l0,0.2l0,0.2l0,0.2l0,0.2
		l0,0.2l0,0.2l0,0.2l0,0.2l0,0.2l0,0.2l0,0.2l0,0.2l0,0.2l0,0.2l0,0.2l0,0.2l0,0.2l0,0.2l0,0.2l0,0.2l0,0.2l0,0.2l0,0.2l1.5-0.2
		l0-0.2l0-0.2l0-0.2l0-0.2l0-0.2l0-0.2l0-0.2l0-0.2l0-0.2l0-0.2l0-0.2l0-0.2l0-0.2l0-0.2l0-0.2l0-0.2l0-0.2l0-0.2l0-0.2l0-0.2l0-0.2
		l0-0.2l0-0.2l0-0.2l0-0.2l0-0.2l0-0.2l0-0.2l0-0.2l0-0.2l0-0.2l0-0.2l0-0.2l0-0.2l0-0.2l0-0.2l0-0.1L185.5,150.9L185.5,150.9z"/>
	<path fill="#663333" d="M197.1,105.9c0.2,2.2-0.8,4.3-1.3,6.5c0,0.2-0.1,0.3-0.1,0.5l1.5,0.2c0.1-1,0.5-2,0.8-2.9
		c0.4-1.4,0.7-2.9,0.6-4.4L197.1,105.9L197.1,105.9z M178.1,114.1L178.1,114.1L178.1,114.1L178.1,114.1L178.1,114.1L178.1,114.1
		L178.1,114.1L178.1,114.1L178.1,114.1L178.1,114.1L178.1,114.1L178.1,114.1L178.1,114.1C178.1,114,178.1,114.1,178.1,114.1
		L178.1,114.1L178.1,114.1L178.1,114.1L178.1,114.1L178.1,114.1L178.1,114.1L178.1,114.1L178.1,114.1l0-0.1L178.1,114.1l0-0.1
		L178.1,114.1l0-0.1L178.1,114.1l0-0.1L178.1,114.1l0-0.1L178.1,114.1l0-0.1l0,0l0,0l0-0.1l0,0l0,0l0,0l0-0.1l0,0.1c0,0,0-0.1,0-0.1
		l0,0l0-0.1l0,0.1l0-0.1l0,0.1l0-0.2l0,0.1c0,0,0-0.1,0-0.1c0,0.1,0,0.1,0,0l0,0l0-0.1l0,0.1c0,0,0-0.1,0-0.1l0,0.1
		c0-0.1,0-0.2,0-0.2l0,0.1c0,0,0-0.1,0-0.1l0,0.1l0-0.1l0,0l0-0.1l0,0.1l0,0l0-0.1l0,0l0,0l0,0l-0.1-0.1l0,0.1l-0.1-0.1l0,0.1
		c0-0.1,0-0.1-0.1-0.2l0.1,0.1l-0.1-0.1l0.1,0.1l-0.1-0.1l0,0l0-0.1l0,0.1l0-0.1l0,0.1l0-0.1l0,0l0,0l0,0c-0.1-0.1,0,0,0,0l0-0.1
		l0,0l0,0l0,0l0,0l0,0c0,0,0,0,0,0l0,0l0,0l0,0l0,0l0,0l0,0l0-0.1l0,0l0,0l0,0l0,0l0,0l0,0l0,0l0,0l0,0l0,0l0,0l0,0l0,0l0,0l0,0l0,0
		l0,0l0,0l0,0l0,0l0,0l0,0l0,0l0,0l0,0l0,0l0,0l0,0l0,0l0,0l-0.5,0.3l0,0l-0.1,0.1l-0.7,0.4l0,0l0,0l0,0l0,0l0,0l0,0l0,0
		c0,0,0,0,0,0l0,0l0,0l0,0l0,0.1l0,0c0,0.1,0,0,0,0l0-0.1l0.1,0.1c-0.1-0.1,0-0.1,0,0l0,0l0,0l0-0.1c0,0,0.1,0.1,0,0l0,0.1l0,0l0,0
		l0,0l0,0.1l0-0.1l0,0.1l0-0.1l0,0l0-0.1l0,0l0,0c0,0,0,0.1,0,0.1l0-0.1l0,0l0,0c0,0.1,0.1,0.2,0,0l0,0l0,0l0,0l0,0l0,0l0,0l0,0.1
		l0,0l0,0l0-0.1l0,0l0,0l0,0l0,0l0,0l0,0l0,0l0,0l0,0l0-0.1l0,0.1l0-0.1l0,0.1l0,0l0,0l0-0.1l0,0l0,0l0,0l0-0.1c0,0,0,0.1,0,0.1
		l0-0.1v0l0-0.1c0,0,0,0.1,0,0.1l0-0.1l0,0.1l0-0.1l0,0l0-0.1l0,0.1l0-0.1c0,0,0,0.1,0,0.1l0-0.2c0,0,0,0.1,0,0.1l0-0.1l0,0.1l0-0.1
		l0,0l0-0.1l0,0.1l0-0.1l0,0l0,0l0,0c0-0.1,0,0,0,0l0-0.1c0,0,0,0.1,0,0l0,0l0,0l0,0l0,0l0,0l0,0l0,0l0,0l0,0l0,0l0,0l0,0l0,0l0,0
		l0,0l0,0l0,0l0,0l0,0l0,0l0,0l0,0l0,0l0,0l0,0l0,0l0,0l0,0l0,0l0,0l0,0l0,0l0,0l0.3,0.1l0.4,0.1l0.1,0l0.1,0l0.4,0.1L178.1,114.1
		L178.1,114.1z M177.3,114.3c0.3,0,0.5-0.1,0.6-0.2L177.3,114.3L177.3,114.3z M178.1,113.3L178.1,113.3L178.1,113.3L178.1,113.3z
		 M178.1,113.3L178.1,113.3L178.1,113.3L178.1,113.3z M178.1,113.3L178.1,113.3L178.1,113.3L178.1,113.3z M178.1,113.3L178.1,113.3
		L178.1,113.3L178.1,113.3z M178.1,113.3L178.1,113.3L178.1,113.3L178.1,113.3L178.1,113.3L178.1,113.3z M178.1,113.3
		c-0.1-0.1-0.1-0.2-0.3-0.3c-0.1-0.1-0.2-0.1-0.3-0.1l0,0h0l0,0l0,0l0,0L178.1,113.3L178.1,113.3z M177.5,112.8L177.5,112.8
		L177.5,112.8L177.5,112.8L177.5,112.8L177.5,112.8z M177.5,112.8L177.5,112.8L177.5,112.8L177.5,112.8L177.5,112.8L177.5,112.8
		L177.5,112.8L177.5,112.8L177.5,112.8L177.5,112.8L177.5,112.8l-0.1,0l0,0l0,0l0,0c-0.1,0-0.1-0.1-0.2-0.1l0,0
		c-0.1-0.1-0.2-0.2-0.3-0.3l0,0l0,0l0,0l-0.1-0.1l0,0l0,0l0,0l-0.4-0.4l0,0l0,0l0,0l0,0l0,0l0,0c-0.6-0.5-1-1.1-1.4-1.8l-1.3,0.7
		c0.4,0.8,1,1.5,1.7,2.1l0,0l0,0l0,0l0,0l0,0l0,0l0,0l0,0v0c0.1,0.1,0.3,0.3,0.4,0.4l0,0l0,0l0,0c0.1,0.1,0.1,0.1,0.2,0.2l0,0
		c0.4,0.3,0.8,0.7,1.3,0.7l0.1-0.4L177.5,112.8L177.5,112.8z M177.4,113.6l-0.4,0.2L177.4,113.6L177.4,113.6z M176.8,113.9
		L176.8,113.9L176.8,113.9L176.8,113.9z M176.8,113.9L176.8,113.9L176.8,113.9L176.8,113.9z M176.8,113.9L176.8,113.9L176.8,113.9
		L176.8,113.9z M176.8,113.9L176.8,113.9L176.8,113.9L176.8,113.9z M176.8,113.9l0.5,0.4L176.8,113.9L176.8,113.9z M177.5,112.8
		L177.5,112.8L177.5,112.8L177.5,112.8L177.5,112.8L177.5,112.8L177.5,112.8z M177.5,112.8L177.5,112.8L177.5,112.8L177.5,112.8
		L177.5,112.8z M176.2,111.8L176.2,111.8L176.2,111.8L176.2,111.8z M175.2,112.9l1-1.1L175.2,112.9L175.2,112.9z M174.4,108.8
		c-0.1-0.4-0.2-1-0.5-1.4c0.2-1.7,0.6-3.5,1.5-5l-1.3-0.7c-1,1.8-1.5,3.9-1.7,5.9c0,0.2,0.1,0.4,0.2,0.6l0,0l0,0l0,0l0,0l0,0l0,0
		l0,0l0,0l0,0c0.1,0.2,0.2,0.7,0.3,1L174.4,108.8L174.4,108.8z M176.2,101.3c0.9-1.2,2.2-2,3.7-2.4l0.1,0l0.1,0l0.1,0l0.1,0l0.1,0
		l0.1,0l0.1,0l0.1,0l0.1,0l0.1,0l0.1,0l0.1,0l0.1,0l0.1,0l0.1,0l0.1,0l0.1,0l0.1,0l0.1,0l0.1,0l0.1,0l0.1,0l0.1,0l0.1,0l0.1,0l0.1,0
		l0.1,0l0.1,0l0.1,0l0.1,0l0.1,0l0.1,0l0,0L182,97l0,0l-0.1,0l-0.1,0l-0.1,0l-0.1,0l-0.1,0l-0.1,0l-0.1,0l-0.1,0l-0.1,0l-0.1,0
		l-0.1,0l-0.1,0l-0.1,0l-0.1,0l-0.1,0l-0.1,0l-0.1,0l-0.1,0l-0.1,0l-0.1,0l-0.1,0l-0.1,0l-0.1,0l-0.1,0l-0.1,0l-0.1,0l-0.1,0l-0.1,0
		l-0.1,0l-0.1,0l-0.1,0l-0.1,0c-1.8,0.4-3.4,1.4-4.5,2.9L176.2,101.3L176.2,101.3z M183.6,98.2c2.6-0.2,4.4,0.1,6.8,1.2l0.1,0
		l0.7-1.3c-2.6-1.3-4.8-1.6-7.6-1.4L183.6,98.2L183.6,98.2z M191.7,100.1L191.7,100.1L191.7,100.1l0.1,0.1l0.1,0l0.1,0l0.1,0l0.1,0
		l0.1,0l0.1,0l0.1,0l0.1,0l0.1,0l0.1,0l0.1,0l0.1,0l0.1,0l0.1,0l0.1,0l0.1,0l0.1,0l0.1,0l0.1,0l0.1,0l0.1,0l0.1,0l0.1,0l0.1,0l0.1,0
		l0.1,0l0.1,0l0.1,0l0.1,0l0.1,0l0.1,0l0.1,0l0.1,0l0.1,0l0.1,0l0.1,0l0.1,0l0.1,0l0,0l0,0l0,0l0.3,0.2l0,0c1.1,0.7,2,1.6,2.4,2.8
		l0,0l1.4-0.5c-0.6-1.5-1.6-2.6-3-3.5l-0.1,0l-0.3-0.2l0,0l0,0l-0.1,0l-0.1,0l-0.1,0l-0.1,0l-0.1,0l-0.1,0l-0.1,0l-0.1,0l-0.1,0
		l-0.1,0l-0.1,0l-0.1,0l-0.1,0l-0.1,0l-0.1,0l-0.1,0l-0.1,0l-0.1,0l-0.1,0l-0.1,0l-0.1,0l-0.1,0l-0.1,0l-0.1,0l-0.1,0l-0.1,0l-0.1,0
		l-0.1,0l-0.1,0l-0.1,0l-0.1,0l-0.1,0l-0.1,0l-0.1,0l-0.1,0l-0.1,0l-0.1,0l-0.1,0l-0.1,0l-0.1,0l0,0L191.7,100.1L191.7,100.1z
		 M194.3,101.8L194.3,101.8L194.3,101.8L194.3,101.8z M195.2,100.6l-0.8,1.2L195.2,100.6L195.2,100.6z"/>
	<path fill="#663333" d="M185.1,146.3l0.2,0.3c-0.6-0.3-1.1-0.7-1.6-1l0,0l-0.8,1.2c0.1,0.1,0.3,0.2,0.4,0.3c1,0.7,3.5,2.3,4.8,2.1
		l0-0.1l0,0c0.2,0,0.3-0.1,0.4-0.3c0.1-0.2,0.2-0.3,0.2-0.5v0l0,0c1.7-0.1,3.9-1.6,4.9-2.5l-1-1.1c-1,0.8-2.5,1.8-3.8,2.1l0,0l0,0
		l0,0l0,0l0,0l0,0l0,0l0,0l0,0l-1.4-0.4l0,0l0,0.1l0,0.1l0,0.1l0,0.1l0,0.1l0,0.1l0,0.1l0,0.1l0,0.1l0,0.1l0,0.1l0,0.1l0,0.1l0,0.1
		l0,0.1l0,0.1l0,0.1l0,0.1l0,0.1l0,0.1l0,0.1l0,0.1l0,0.1l0,0.1l0,0.1l0,0.1l0,0.1l0,0c-0.3-0.1-0.6-0.3-0.8-0.3
		c-0.2-0.1-0.4-0.2-0.6-0.3l1-0.5l-0.4-0.8v0l0,0c-0.7-1.4-1.5-2.7-2.3-4c-0.4-0.6-0.8-1.1-1.2-1.6l-1.2,0.9c0.5,0.7,1,1.4,1.5,2.1
		C183.9,144.1,184.5,145.2,185.1,146.3L185.1,146.3L185.1,146.3L185.1,146.3L185.1,146.3z M188.8,148.1L188.8,148.1L188.8,148.1
		L188.8,148.1L188.8,148.1z M188.8,148.1L188.8,148.1L188.8,148.1L188.8,148.1z M188.8,148L188.8,148L188.8,148L188.8,148L188.8,148
		z M188.8,148L188.8,148L188.8,148L188.8,148L188.8,148z M188.8,148.1L188.8,148.1L188.8,148.1L188.8,148.1L188.8,148.1z M188.8,148
		L188.8,148L188.8,148L188.8,148L188.8,148L188.8,148L188.8,148L188.8,148z M188.8,148L188.8,148L188.8,148L188.8,148z M194.8,144.8
		c1.5-1.5,2.7-3.5,2.7-5.7l0,0c0-0.3-0.2-0.6-0.6-0.7c-0.1,0-0.1,0-0.2,0h-0.1l-0.1,0l-0.1,0l-0.1,0l-0.1,0l-0.1,0l-0.1,0l-0.1,0
		l-0.1,0l-0.1,0l-0.1,0l-0.1,0l-0.1,0l-0.1,0l-0.1,0l-0.1,0l-0.1,0l-0.1,0l-0.1,0l-0.1,0l-0.1,0l-0.1,0l-0.1,0l-0.1,0l-0.1,0l-0.1,0
		l0,0l0.3,1.4l0,0l0,0l0,0l0,0l0,0l0,0l0,0l0,0l0,0l0,0l0,0c-0.3,1.5-1.2,2.8-2.2,3.9L194.8,144.8L194.8,144.8z M193.6,139.1
		c-2.4,1-4.4,3.2-5.5,5.5l1.4,0.6c0.9-2,2.7-3.9,4.7-4.8L193.6,139.1L193.6,139.1z M182.5,144.8c-0.9-0.7-1.8-1.4-2.6-2.1
		c-0.9-0.8-1.9-1.8-2.6-2.8l-1.2,0.8c0.5,0.8,1.1,1.5,1.8,2.1c1.1,1.1,2.4,2.2,3.7,3.1L182.5,144.8L182.5,144.8z M176.8,138.8
		L176.8,138.8L176.8,138.8L176.8,138.8l0-0.1l0,0l0,0l0,0l0,0l0,0l0,0l0,0v0l0,0l0,0l0,0l0,0l0,0l0,0l0,0l0,0l0,0l0,0l0,0l0,0l0,0
		l0,0l0,0l0,0l0,0l0,0l0,0l0,0l0,0l0,0l0,0l0,0l0,0l0,0l0,0l0,0l0,0l0,0l0,0l0,0l0,0l0,0l0,0c1.4-0.6,2.9,1,3.7,1.8l1.1-1
		c-1.3-1.5-3.3-3.1-5.4-2.2l-0.1,0l-0.1,0l-0.1,0l-0.1,0l-0.1,0l-0.1,0l-0.1,0l-0.1,0l-0.1,0l-0.1,0l-0.1,0l-0.1,0l0,0l0,0l0,0.1
		l0,0.1l0,0.1l0,0.1l0,0.1l0,0.1l0,0.1l0,0.1l0,0.1l0,0.1l0,0.1l0,0.1l0,0.1l0,0.1l0,0.1l0,0.1l0,0.1l0,0.1l0,0.1l0,0.1l0,0.1v0.1
		l0,0.1l0,0.1l0,0.1l0,0.1l0,0.1l0,0.1l0,0.1l0,0.1l0,0.1l0,0.1l0,0L176.8,138.8L176.8,138.8z"/>
	<path fill="#663333" d="M186.3,160.3L186.3,160.3c0.6,0.7,1.5,0.4,2.2,0.2c0.9-0.3,1.8-0.7,2.6-1.1l-0.7-1.3
		c-0.9,0.4-1.8,0.9-2.7,1.2c0,0-0.1,0-0.1,0c0.7-1.3,2.3-2.6,3.4-3.5l-0.9-1.2c-1.2,0.9-2.6,2.2-3.5,3.5c-1.1-1.5-2.4-3.1-3.8-4.3
		l-1,1.1c1.3,1.1,2.5,2.6,3.5,4l-0.1,0l0,0l-0.3,1.4C185.4,160.4,185.9,160.4,186.3,160.3L186.3,160.3z M186.4,160.3l0.4-0.3l0,0
		L186.4,160.3L186.4,160.3z M186.8,160c0.1,0,0.1-0.1,0.2-0.2l0.6-0.4L186.8,160L186.8,160z M192.4,158.6c2-1.2,4.7-3,5.9-5
		l-1.3-0.8c-1.1,1.7-3.6,3.4-5.4,4.5L192.4,158.6L192.4,158.6z M199,151.9L199,151.9l0-0.1l0-0.1l0-0.1l0-0.1l0-0.1l0,0
		c0-0.3-0.2-0.6-0.6-0.7c-0.1,0-0.1,0-0.2,0c-2.3,0-5.1,1.5-7,2.8l0.9,1.2c0.1-0.1,0.2-0.1,0.3-0.2c1.5-1,3.9-2.3,5.8-2.3
		C198.6,152.3,198.8,152.2,199,151.9L199,151.9L199,151.9z M197.7,151.8l0.5,0.1v0.5L197.7,151.8L197.7,151.8z M183.9,158.4
		c-0.7-0.3-1.3-0.7-1.9-1.1c-1.4-0.9-2.7-1.9-4-3l-1,1.1c1.6,1.4,3.4,2.8,5.3,3.9c0.3,0.2,0.6,0.3,0.9,0.5L183.9,158.4L183.9,158.4z
		 M177,153.3L177,153.3L177,153.3L177,153.3l-0.1-0.1l0,0l0,0l0,0l0,0l0,0l0,0l0,0l0,0l0,0l0,0c1.4-0.1,2.8,0.4,4,1.2l0.8-1.2
		c-1.7-1.1-3.6-1.6-5.7-1.3h0c0,0-0.1,0-0.1,0l0,0l-0.1,0c0,0-0.1,0-0.1,0l0,0c-0.1,0-0.2,0.1-0.3,0.2l0,0c0,0,0,0-0.1,0.1l0,0
		c0,0-0.1,0.1,0,0l0,0c-0.1,0.1-0.1,0.2-0.2,0.3l0,0c0,0,0,0.1,0,0.1c0,0,0,0.1,0,0.1v0.1l0,0c0,0,0,0.1,0,0.1c0,0,0,0,0,0l0,0
		c-0.1,0.2-0.1,0.5,0,0.7l0,0l0,0l0,0l0,0l0,0l0,0l0,0l0,0l0,0l0,0l0,0l0,0l0,0l0,0l0,0l0,0l0,0l0,0l0,0l0,0l0,0l0,0l0,0l0,0l0,0
		l0,0l0,0l0,0l0,0l0,0l0,0l0,0l0,0l0,0l0,0l0,0l0,0l0,0L177,153.3L177,153.3z M174.9,152.5L174.9,152.5L174.9,152.5L174.9,152.5
		L174.9,152.5L174.9,152.5L174.9,152.5L174.9,152.5L174.9,152.5z M174.9,152.5L174.9,152.5L174.9,152.5L174.9,152.5L174.9,152.5z
		 M174.9,152.5L174.9,152.5L174.9,152.5L174.9,152.5L174.9,152.5L174.9,152.5L174.9,152.5L174.9,152.5L174.9,152.5z M174.9,152.5
		L174.9,152.5L174.9,152.5L174.9,152.5z M174.9,152.5L174.9,152.5L174.9,152.5L174.9,152.5L174.9,152.5L174.9,152.5z"/>
	<path fill="#663333" d="M235.7,159.2c0.1,2.4,0.2,4.8,0.3,7.2l0,0.1c0,0,0-0.1,0-0.2l1.5,0.3c0-0.2,0-0.4,0-0.7
		c-0.1-2.3-0.2-4.6-0.3-6.9L235.7,159.2L235.7,159.2z M230,97.4L230,97.4L230,97.4l0,0.1l0,0.1l0,0.1l0,0.1l0,0.1l0,0.1l0,0.1l0,0.1
		l0,0.1l0,0.1l0,0.1l0,0.1l0,0.1l0,0.1l0,0.1l0,0.1l0,0.1l0,0.1l1.5-0.2l0-0.1l0-0.1l0-0.1l0-0.1l0-0.1l0-0.1l0-0.1l0-0.1l0-0.1
		l0-0.1l0-0.1l0-0.1l0-0.1l0-0.1l0-0.1l0-0.1l0,0l0,0v0l0.1,0l0.2,0l0.2,0l0.2,0l0.2,0l0.2,0l0.2,0l0.2,0l0.2,0l0.2,0l0.2,0l0.2,0
		l0.2,0l0.2,0l0.2,0l0.2,0l0.1,0l0-1.5l-0.1,0l-0.2,0l-0.2,0l-0.2,0l-0.2,0l-0.2,0l-0.2,0l-0.2,0l-0.2,0l-0.2,0l-0.2,0l-0.2,0
		l-0.2,0l-0.2,0l-0.2,0l-0.2,0l-0.2,0l-0.2,0l-0.2,0l-0.2,0l-0.2,0l-0.2,0l-0.2,0l-0.2,0l-0.2,0l-0.2,0l-0.2,0l-0.2,0l-0.2,0l-0.2,0
		l-0.2,0l-0.2,0l-0.2,0l-0.2,0l-0.2,0l-0.2,0l-0.2,0l-0.2,0l0,0l0.1,1.5l0,0l0.2,0l0.2,0l0.2,0l0.2,0l0.2,0l0.2,0l0.2,0l0.2,0l0.2,0
		l0.2,0l0.2,0l0.2,0l0.2,0L230,97.4L230,97.4z M230.3,100c0.3,2.4,0.6,4.9,0.8,7.3l1.5-0.2c-0.3-2.4-0.6-4.9-0.8-7.3L230.3,100
		L230.3,100z M231.3,108.8c0.3,2.4,0.5,4.9,0.8,7.3l0,0l1.5-0.1l0-0.1c-0.3-2.4-0.5-4.8-0.8-7.2L231.3,108.8L231.3,108.8z
		 M232.3,117.5c0.1,0.9,0.2,1.8,0.3,2.8c0.1,0.7,0.1,1.4,0.2,2c-1.9,0.1-3.8,0.3-5.7,0.4l0.1,1.5c1.9-0.1,3.8-0.3,5.7-0.4l0,0.1l0,0
		c0,0.3,0.2,0.6,0.6,0.7c0.1,0,0.1,0,0.2,0h0.1h0.1l0.1,0h0.1l0.1,0l0.1,0l0.1,0l0.1,0l0.1,0c0.1,2.3,0.1,4.5,0.3,6.8l1.5-0.1
		c-0.1-1.9-0.2-3.7-0.2-5.6c0-0.6-0.1-1.2-0.1-1.7l-1.3,0l0-0.3l0.1,0l0-1.5l-0.3,0c-0.1-1.6-0.3-3.3-0.4-4.9l0,0L232.3,117.5
		L232.3,117.5z M235.9,124.6c2.5-0.1,5-0.2,7.5-0.4l-0.1-1.5c-2.5,0.2-5,0.3-7.4,0.4L235.9,124.6L235.9,124.6z M244.9,124.1
		c2.5-0.2,5-0.3,7.4-0.4l0-1.5c-2.5,0.1-5,0.2-7.5,0.4L244.9,124.1L244.9,124.1z M253.8,123.7L253.8,123.7l0.1,0l0.1,0l0.1,0l0.1,0
		l0.1,0l0.1,0l0.1,0h0.1h0.1l0,0c0.3,0,0.6-0.2,0.7-0.6c0-0.1,0-0.1,0-0.2h-0.1l0.1-0.1c0-2.2-0.1-4.4-0.2-6.6l0,0l-1.5,0.1
		c0.1,2,0.2,4,0.2,6l0,0.6c0,0.1,0,0.1,0,0.2L253.8,123.7L253.8,123.7z M253.8,122.9L253.8,122.9L253.8,122.9L253.8,122.9
		L253.8,122.9z M255,114.8c-0.1-2.4-0.2-4.9-0.4-7.3l-1.5,0.1c0.2,2.4,0.3,4.9,0.4,7.3L255,114.8L255,114.8z M254.5,106
		c-0.1-2.1-0.3-4.2-0.6-6.3c-0.1-0.4-0.1-0.7-0.2-1.1l-1.5,0.3c0.2,1.2,0.3,2.5,0.4,3.7c0.1,1.2,0.2,2.4,0.3,3.5L254.5,106
		L254.5,106z M253,96.9c-1.4-1-6-1.1-7.7-1.2l0,1.5c0.8,0,1.6,0.1,2.4,0.1c0.9,0.1,3.8,0.3,4.6,0.8L253,96.9L253,96.9z M243.7,95.7
		L243.7,95.7l-0.2,0l-0.2,0l-0.2,0l-0.2,0l-0.2,0l-0.2,0l-0.2,0l-0.2,0l-0.2,0l-0.2,0l-0.2,0l-0.2,0l-0.2,0h-0.2l-0.2,0l-0.2,0
		l-0.2,0l-0.2,0l-0.2,0l-0.2,0l-0.2,0l-0.2,0l-0.2,0l-0.2,0l-0.2,0l-0.2,0l-0.2,0l-0.2,0l-0.2,0l-0.2,0l-0.2,0l-0.2,0l-0.2,0l-0.2,0
		l-0.2,0l-0.2,0l-0.2,0l-0.2,0l0,0l0,1.5l0,0l0.2,0l0.2,0l0.2,0l0.2,0l0.2,0l0.2,0l0.2,0l0.2,0l0.2,0l0.2,0l0.2,0l0.2,0l0.2,0l0.2,0
		l0.2,0l0.2,0l0.2,0l0.2,0l0.2,0l0.2,0l0.2,0l0.2,0l0.2,0h0.2l0.2,0l0.2,0l0.2,0l0.2,0l0.2,0l0.2,0l0.2,0l0.2,0l0.2,0l0.2,0l0.2,0
		l0.2,0l0.2,0l0.2,0l0.1,0L243.7,95.7L243.7,95.7z M225.8,96.1c-1.9,0.1-3.8,0.2-5.8,0.4c-0.6,0-1.2,0.1-1.7,0.2l0.2,1.5
		c2.5-0.2,4.9-0.4,7.4-0.6L225.8,96.1L225.8,96.1z M216.8,96.9L216.8,96.9L216.8,96.9l-0.1,0l0,0l0,0l0,0l0,0l0,0l0,0l0,0l0,0l0,0
		c-0.3,0.1-0.6,0.4-0.5,0.8l0,0l0,0c0.1,0.6,0.1,1.3,0.1,1.9c0.1,1.6,0.2,3.3,0.2,4.9l0,0.1l1.5-0.1c-0.1-1-0.1-2.1-0.1-3.1
		c-0.1-1.3-0.1-2.5-0.2-3.8l0-0.1c0-0.2-0.1-0.4-0.3-0.5C216.9,97,216.9,97,216.8,96.9L216.8,96.9L216.8,96.9z M217,98.1l-0.1-0.5
		l0.4,0L217,98.1L217,98.1z M216.3,106.2c0,1.1,0.1,2.2,0.1,3.3l0.2,4l0,0l1.5-0.1l0-0.2c-0.1-2.4-0.2-4.8-0.3-7.2l0,0L216.3,106.2
		L216.3,106.2z M216.6,115c0.1,2.2,0.2,4.4,0.3,6.7l0,0.7l1.5-0.1l0-0.6c-0.1-2.2-0.2-4.5-0.3-6.7L216.6,115L216.6,115z M218,124.1
		c1,0.2,2.1,0.2,3.1,0.2c1.5,0,3-0.1,4.5-0.1l-0.1-1.5c-1.8,0.1-3.6,0.2-5.4,0.1c-0.6,0-1.2,0-1.8-0.2L218,124.1L218,124.1z
		 M234.5,132.8l0,0.2l0,0.2l0,0.2l0,0.2l0,0.2l0,0.2l0,0.2l0,0.2l0,0.2l0,0.2l0,0.2l0,0.2l0,0.2l0,0.2l0,0.2l0,0.2l0,0.2l0,0.2
		l0,0.2l0,0.2l0,0.2l0,0.2l0,0.2l0,0.2l0,0.2l0,0.2l0,0.2l0,0.2l0,0.2l0,0.2l0,0.2l0,0.2l0,0.2l1.5-0.1l0-0.2l0-0.2l0-0.2l0-0.2
		l0-0.2l0-0.2l0-0.2l0-0.2l0-0.2l0-0.2l0-0.2l0-0.2l0-0.2l0-0.2l0-0.2l0-0.2l0-0.2l0-0.2l0-0.2l0-0.2l0-0.2l0-0.2l0-0.2l0-0.2l0-0.2
		l0-0.2l0-0.2l0-0.2l0-0.2l0-0.2l0-0.2l0-0.2l0-0.2L234.5,132.8L234.5,132.8z M234.9,141.6L234.9,141.6l0,0.3l0,0.2l0,0.2l0,0.2
		l0,0.2l0,0.2l0,0.2l0,0.2l0,0.2l0,0.2l0,0.2l0,0.2l0,0.2l0,0.2l0,0.2l0,0.2l0,0.2l0,0.2l0,0.2l0,0.2l0,0.2l0,0.2l0,0.2l0,0.2l0,0.2
		l0,0.2l0,0.2l0,0.2l0,0.2l0,0.2l0,0.1l1.5-0.1l0-0.1l0-0.2l0-0.2l0-0.2l0-0.2l0-0.2l0-0.2l0-0.2l0-0.2l0-0.2l0-0.2l0-0.2l0-0.2
		l0-0.2l0-0.2l0-0.2l0-0.2l0-0.2l0-0.2l0-0.2l0-0.2l0-0.2l0-0.2l0-0.2l0-0.2l0-0.2l0-0.2l0-0.2l0-0.2l0-0.2l0-0.2l0,0L234.9,141.6
		L234.9,141.6z M235.3,150.4L235.3,150.4l0,0.3l0,0.2l0,0.2l0,0.2l0,0.2l0,0.2l0,0.2l0,0.2l0,0.2l0,0.2l0,0.2l0,0.2l0,0.2l0,0.2
		l0,0.2l0,0.2l0,0.2l0,0.2l0,0.2l0,0.2l0,0.2l0,0.2l0,0.2l0,0.2l0,0.2l0,0.2l0,0.2l0,0.2l0,0.2l0,0.2l0,0.2l0,0.2l0,0.2l0,0l1.5-0.1
		l0,0l0-0.2l0-0.2l0-0.2l0-0.2l0-0.2l0-0.2l0-0.2l0-0.2l0-0.2l0-0.2l0-0.2l0-0.2l0-0.2l0-0.2l0-0.2l0-0.2l0-0.2l0-0.2l0-0.2l0-0.2
		l0-0.2l0-0.2l0-0.2l0-0.2l0-0.2l0-0.2l0-0.2l0-0.2l0-0.2l0-0.2l0-0.2l0-0.2l0-0.2l0-0.1L235.3,150.4L235.3,150.4z"/>
	<path fill="#663333" d="M224.6,110c-1.9,0-3.9,0.1-5.9-0.1c-0.5,0-0.9-0.1-1.4-0.2l-0.3,1.4c0.7,0.2,1.5,0.2,2.3,0.2
		c1.8,0.1,3.6,0.1,5.3,0L224.6,110L224.6,110z M254.6,109.8L254.6,109.8l-0.1-0.1l-0.1,0l-0.1,0l-0.1,0l-0.1,0l-0.1,0l-0.1,0l-0.1,0
		l-0.1,0l-0.1,0l-0.1,0l-0.1,0l-0.1,0l-0.1,0l-0.1,0l-0.1,0l-0.1,0l-0.1,0l-0.1,0l-0.1,0l-0.1,0l-0.1,0l-0.1,0l-0.2,1.5l0.1,0l0.1,0
		l0.1,0l0.1,0l0.1,0l0.1,0l0,0l0,0l0,0l0,0l0,0l0,0l0,0l0,0l0,0l0,0l0,0l0,0l0,0l0,0l0,0l0,0l0,0l0,0L254.6,109.8L254.6,109.8z
		 M251.5,109.1c-1,0-1.9,0-2.9,0c-1.5,0-3.1,0.1-4.6,0.1l0.1,1.5c2.2-0.1,4.4-0.2,6.7-0.1c0.2,0,0.5,0,0.7,0L251.5,109.1
		L251.5,109.1z M242.5,109.2L242.5,109.2l-0.2,0l-0.2,0l-0.2,0l-0.2,0l-0.2,0l-0.2,0l-0.2,0l-0.2,0l-0.2,0l-0.2,0l-0.2,0l-0.2,0
		l-0.2,0l-0.2,0l-0.2,0l-0.2,0l-0.2,0l-0.2,0l-0.2,0l-0.2,0l-0.2,0l-0.2,0l-0.2,0l-0.2,0l-0.2,0l-0.2,0l-0.2,0l-0.2,0l-0.2,0l-0.2,0
		l-0.2,0l-0.2,0l-0.2,0l-0.2,0l-0.2,0l-0.2,0l-0.2,0l-0.2,0l-0.1,0l0.1,1.5l0.1,0l0.2,0l0.2,0l0.2,0l0.2,0l0.2,0l0.2,0l0.2,0l0.2,0
		l0.2,0l0.2,0l0.2,0l0.2,0l0.2,0l0.2,0l0.2,0l0.2,0l0.2,0l0.2,0l0.2,0l0.2,0l0.2,0l0.2,0l0.2,0l0.2,0l0.2,0l0.2,0l0.2,0l0.2,0l0.2,0
		l0.2,0l0.2,0l0.2,0l0.2,0l0.2,0l0.2,0l0.2,0l0.2,0l0.2,0l0,0L242.5,109.2L242.5,109.2z M233.6,109.7l-0.1,0l-0.2,0l-0.2,0l-0.2,0
		l-0.2,0l-0.2,0l-0.2,0l-0.2,0l-0.2,0l-0.2,0l-0.2,0l-0.2,0l-0.2,0l-0.2,0l-0.2,0l-0.2,0l-0.2,0l-0.2,0l-0.2,0l-0.2,0l-0.2,0l-0.2,0
		l-0.2,0l-0.2,0l-0.2,0l-0.2,0l-0.2,0l-0.2,0l-0.2,0l-0.2,0l-0.2,0l-0.2,0l-0.2,0l-0.2,0l-0.2,0l-0.2,0l-0.2,0l-0.2,0l-0.2,0l-0.2,0
		l0,1.5l0.2,0l0.2,0l0.2,0l0.2,0l0.2,0l0.2,0l0.2,0l0.2,0l0.2,0l0.2,0l0.2,0l0.2,0l0.2,0l0.2,0l0.2,0l0.2,0l0.2,0l0.2,0l0.2,0l0.2,0
		l0.2,0l0.2,0l0.2,0l0.2,0l0.2,0l0.2,0l0.2,0l0.2,0l0.2,0l0.2,0l0.2,0l0.2,0l0.2,0l0.2,0l0.2,0l0.2,0l0.2,0l0.2,0l0.2,0l0.1,0
		L233.6,109.7L233.6,109.7z"/>
	<path fill="#663333" d="M228.5,90.4l-0.3-0.4l0.7-0.3L228.5,90.4L228.5,90.4z M230.1,97.1l1.4-0.6l0,0l0,0l0,0c0-0.1,0-0.2-0.1-0.2
		c0-0.2-0.1-0.4-0.1-0.5l0,0l0,0l0,0l0,0l0,0l0,0l0,0l0,0l0,0l0,0l0,0l0,0l0,0l0,0l0,0l0,0l0,0l0,0l0.1,0v0l0.2-0.1l0.1,0
		c0.1,0,0.2-0.1,0.3-0.2c0.7,0.2,1.4,0.2,2,0l-0.3-1.4c-0.4,0.1-0.8,0.1-1.2,0l0.8-2.3l0,0l0,0l0,0l0,0l0,0l0,0l0,0l0,0l0,0l0,0l0,0
		l0,0l0,0l0,0l-1.3-0.7l0,0l0,0.1l0,0.1l0,0.1l0,0.1l0,0.1l0,0.1l0,0.1l0,0.1l0,0.1l0,0.1l0,0.1l0,0.1l0,0.1l-1.1,3.1l0,0l0,0
		c-0.3-1.3-0.7-2.7-1-4c-0.1-0.2-0.1-0.5-0.2-0.7l0,0l0,0c-0.3-0.8-1.5-0.5-1.4,0.4c0,0.1,0,0.1,0.1,0.2c0.1,0.3,0.2,0.7,0.3,1.1
		c0.2,0.8,0.4,1.6,0.6,2.4l-0.7,0.8l0,0l0,0l0,0l0,0l0,0l0,0l0,0l0,0l0,0l0,0l0,0l0,0l0,0l0,0l0,0l0,0l0,0l0,0l0,0l0,0l0,0l0,0l0,0
		l0,0l0,0l0,0l0,0l0,0l0,0l0,0l0,0l0,0l0,0l0,0l0,0l0,0l0,0l0,0l0,0l0,0l0,0l0,0c0.1,0.2,0.3,0.4,0.5,0.4l0,0l0,0l0,0l0.1,0.6
		C229.7,96.3,229.9,96.7,230.1,97.1L230.1,97.1L230.1,97.1L230.1,97.1L230.1,97.1L230.1,97.1z M232.3,94.8L232.3,94.8L232.3,94.8
		L232.3,94.8L232.3,94.8z M235.6,94.8L235.6,94.8L235.6,94.8L235.6,94.8L235.6,94.8L235.6,94.8L235.6,94.8l0.1,0l0,0l0,0l0,0l0,0
		l0,0l0,0l0,0l0,0l0,0l0,0l0,0l0,0l0,0l0,0l0,0l0,0l0,0l0,0l0,0l0,0l0,0l0,0l0,0l0,0l0,0l0,0l0,0l0,0l0,0l0,0l0,0l0,0l0,0l0,0l0,0
		l0,0l0,0l0,0l0,0l0,0l0,0v0l0.9-0.4c0.1,0,0.3-0.1,0.4-0.3c0-0.1,0.1-0.1,0.1-0.2l0,0l0,0c0.2-0.4,2.1-0.9,2.6-1
		c0.7-0.2,1.4-0.5,2-0.8l-0.7-1.3c-0.7,0.4-1.7,0.7-2.5,0.9c-0.9,0.3-2.1,0.6-2.6,1.4l-0.7,0.4l0,0l0,0l0,0l0,0l0,0l0,0l0,0l0,0l0,0
		l0,0l0,0l0,0l0,0l0,0l0,0l0,0l0,0l0,0l0,0l0,0l0,0l0,0l0,0l0,0l0,0l0,0l0,0l0,0l0,0l0,0l0,0l0,0l0,0l0,0l0,0l0,0l0,0l0,0l0,0l0,0
		l0,0l0,0l0,0l0,0l0,0l0,0l0,0l0,0l0,0L235.6,94.8L235.6,94.8z M243.7,90.6L243.7,90.6L243.7,90.6L243.7,90.6l0.1-0.1l0,0l0,0l0,0
		l0,0l0,0l0,0l0,0l0,0l0,0l0,0l0,0l0,0l0,0l0,0l0,0l0.1,0l0,0l0,0l0,0l0,0l0,0l0.2-0.1l0,0l0,0l0,0l0,0l0.1-0.1l0,0l0,0l0.1,0l0,0
		l0,0l0,0l0,0l0,0l0,0l0,0c0,0,0.1-0.1,0.1-0.1l0,0l0,0l0,0l0,0l0,0l0,0l0,0l0,0l0,0l0,0l0,0l0,0l0,0l0,0l0,0l0,0l0,0l0,0l0,0l0,0
		l0,0l0,0l0,0l0,0l0,0l0,0l0,0l0,0l0,0l0,0l0,0l0,0l0,0l0,0l0.1-0.1l0,0l0,0c0.2-0.1,0.3-0.3,0.3-0.6c0,0,0-0.1,0-0.1l0,0l0-0.1
		c-0.4-2.2-1.7-3.6-4.1-3.7l0,1.5c1.5,0.1,2.3,0.8,2.6,2.1l0,0l0,0l0,0l0,0l0,0l0,0l0,0l0,0l0,0l0,0l0,0l0,0l0,0l0,0l0,0l0,0l0,0
		l0,0l0,0l0,0l0,0l0,0l0,0l0,0l0,0l0,0l0,0l0,0l0,0l0,0l0,0l0,0l0,0l0,0l0,0l0,0l0,0l0,0l0,0l0,0l0,0l0,0l0,0l0,0l0,0l0,0l0,0l0,0
		l0,0l0,0l0,0l0,0l0,0l0,0l0,0l0,0l0,0l0,0l0,0l0,0l0,0h0l0,0l0,0l0,0l-0.1,0l0,0l0,0l0,0l0,0l-0.3,0.1c-0.2,0.1-0.3,0.3-0.4,0.4
		l0,0l0,0l0,0l0,0l0,0l0,0l0,0l0,0l0,0l0,0l0,0l0,0l0,0l0,0l0,0l0,0l0,0l0,0l0,0l0,0l0,0l0,0l0,0L243.7,90.6L243.7,90.6z
		 M239.8,84.9c-2.4,0.5-5.1,2.2-6.7,4l1.2,0.9c1.4-1.6,3.7-3.1,5.8-3.5L239.8,84.9L239.8,84.9z M228.2,92.2
		c-1.6-1.2-3.2-2.3-4.8-3.4c-0.4-0.3-0.8-0.6-1.2-0.9l-0.9,1.1c1,0.8,2.1,1.5,3.1,2.3c1,0.7,1.9,1.4,2.9,2.1L228.2,92.2L228.2,92.2z
		 M222.3,87.5c0.3-0.7,0.6-0.7,1.3-0.5c1,0.4,2.1,1.3,3,2c0.2,0.2,0.4,0.3,0.6,0.5l0.9-1.2c-1.1-0.9-2.3-1.9-3.6-2.6
		c-1.5-0.7-2.9-0.5-3.6,1.1l0,0.1L222.3,87.5L222.3,87.5z"/>
	<path fill="#663333" d="M234,148.7l1.4,3l1.3-0.6l-1.4-3l0,0l0,0l0-0.1l0-0.1l0-0.1l0-0.1l0-0.1l0-0.1l0-0.1l0-0.1l0-0.1l0-0.1
		l0-0.1l0-0.1l0-0.1l0-0.1l0-0.1l0-0.1l0-0.1l0-0.1l0-0.1l0-0.1l0-0.1l0-0.1l0-0.1l0-0.1l0-0.1l0-0.1l0-0.1l0-0.1l0-0.1l0-0.1l0-0.1
		l0-0.1l0-0.1l0-0.1l0-0.1l0-0.1l0-0.1l0-0.1l0-0.1l0-0.1l0-0.1l-1.3,0.7l0,0.1l0,0.1l0,0.1l0,0.1l0,0.1l0,0.1l0,0.1l0,0.1l0,0.1
		l0,0.1l0,0.1l0,0.1l0,0.1l0,0.1l0,0.1l0,0.1l0,0.1l0,0.1l0,0.1l0,0.1l0,0.1l0,0.1l0,0.1l0,0.1l0,0.1l0,0.1l0,0.1l0,0.1l0,0.1l0,0.1
		l0,0.1l0,0.1l0,0.1l0,0.1l0,0.1l0,0.1l0,0.1l0,0.1l0,0.1L234,148.7L234,148.7L234,148.7L234,148.7L234,148.7L234,148.7z
		 M217.9,139.1c0.1,0.3,0.1,0.6,0.2,0.9l0,0l0,0.1l0,0l0.1,0.1l0,0l0,0l0,0c0,0,0,0.1,0.1,0.1l0,0l0,0l0,0l0,0l0,0l0,0l0,0l0,0l0,0
		l0,0c0,0,0,0,0,0l0,0l0,0l0,0l0,0l0,0l0,0l0,0l0,0l0,0l0,0l0,0l0,0l0,0l0,0c0,0,0,0,0,0l0,0l0,0l0,0l0,0l0,0c0,0,0,0,0,0l0,0l0,0
		l0,0l0,0l0,0l0,0l0,0l0,0l0,0l0,0l0,0l0,0l0,0l0,0l0,0l0,0l0,0l0,0l0,0l0,0l0,0l0,0l0,0l0,0l0,0c0.1,1,0.5,3.8-0.3,4.6l0,0l1,1.1
		c1.4-1.2,1-4.2,0.8-5.8l0-0.2l0,0l0-0.1v0c0-0.1,0-0.1,0-0.2l0,0l0,0l0,0l0-0.1l0,0l0,0l0,0c0,0,0-0.1-0.1-0.1l0,0l0,0l0,0
		c0-0.1,0-0.1-0.1-0.1l0,0l0-0.1l0,0l0,0l0,0l0,0l0,0l0,0l0,0l0,0l0,0l0,0l0,0l0,0l0,0l0,0l0,0l0,0l0,0l0,0l0,0l0,0l0,0l0,0l0,0l0,0
		l0,0l0,0l0,0l0,0l0,0l0,0l0,0l0,0l0,0l0,0l0,0l0,0l0,0l0,0l0,0l0,0l0,0v0l0-0.1l0,0c0-0.2-0.1-0.3-0.1-0.5L217.9,139.1L217.9,139.1
		z M218.4,140.6L218.4,140.6L218.4,140.6L218.4,140.6z M219.9,140.3l-1.5,0.2L219.9,140.3L219.9,140.3z M217.4,145.3
		c-0.6-0.2-1.1-0.6-1.5-1c-1.1-1.1-1.9-2.7-2.1-4.2l-1.5,0.2c0.2,1.2,0.6,2.4,1.3,3.5c0.7,1.2,1.9,2.5,3.2,2.9L217.4,145.3
		L217.4,145.3z M213.9,138.7c0-0.1,0-0.2,0-0.3c0.3-1.4,1.3-2.3,2.6-2.8l0.1,0l0.1,0l0.1,0l0.1,0l0.1,0l0.1,0l0.1,0l0.1,0l0.1,0
		l0.1,0l0.1,0l0.1,0l0.1,0l0.1,0l0.1,0l0.1,0l0.1,0l0.1,0l0.1,0l0,0l-0.3-1.4l-0.1,0l-0.1,0l-0.1,0l-0.1,0l-0.1,0l-0.1,0l-0.1,0
		l-0.1,0l-0.1,0l-0.1,0l-0.1,0l-0.1,0l-0.1,0l-0.1,0l-0.1,0l-0.1,0l-0.1,0l-0.1,0l-0.1,0l-0.1,0c-2,0.8-3.3,2.2-3.6,4.3l0,0
		L213.9,138.7L213.9,138.7z M220,134.8c2.4-0.2,4.5,0.7,6.3,2.2l1-1.1c-2.1-1.8-4.6-2.7-7.4-2.5L220,134.8L220,134.8z M227.4,138
		c1.7,1.7,3,3.8,4.2,5.8l1.3-0.7c-1.2-2.2-2.6-4.3-4.4-6.1L227.4,138L227.4,138z"/>
	<path fill="#663333" d="M236.3,155c-0.2,2.4-0.3,4.9-0.4,7.3l1.5,0.1c0.2-2.4,0.3-4.9,0.4-7.3L236.3,155L236.3,155z M253,146.5
		c-1.7,0.4-1.6,2.4-1.6,3.8c0,0.1,0,0.3,0,0.5v0l0,0c0,0.2,0,0.5,0.2,0.7l0.1,0.1l0.1,0.1l0.1,0.1l0.1,0.1l0.1,0.1l0.1,0.1l0.1,0
		l0.1,0l0.1,0l0.1,0l0.1,0l0.1,0l0.1,0l0.1,0l0.1,0l0.1,0l0.1,0l0.1,0l0.1,0l0.1,0l0.1,0l0.1,0l0.1,0l0.1,0l0.1,0l0.1,0l0.1,0l0.1,0
		l0.1,0l0.1,0l0.1,0l0.1,0l0.1,0l0.1,0l0.1,0l0.1,0l0.1,0l0.1,0l0.1,0l0.1,0l0.1,0l0.1,0l0.1,0l0,0l0.6-1.3l0,0l0,0l0,0l0,0l0,0l0,0
		l0,0l0,0l0,0l0,0l0,0l0,0l0,0l0,0l0,0l0,0l0,0l0,0l0,0l0,0l0,0l0,0l0,0l0,0l0,0l0,0l0,0l0,0l0,0l0,0l0,0l0,0l-0.1,0l0,0l0,0l0,0
		l-0.1,0l-0.1,0l0,0c0-0.8-0.1-1.9,0.2-2.5c0,0,0-0.1,0.1-0.1v0l0,0l0,0l0,0c0,0,0.1,0,0.1-0.1L253,146.5L253,146.5z M255.8,153.6
		c2,0.2,3.5-0.8,4.2-2.6c0.4-1.1,0.5-2.2,0.4-3.3l-1.5,0.1c0.2,1.5-0.1,3.6-1.9,4.2c-0.4,0.1-0.7,0.1-1.1,0.1L255.8,153.6
		L255.8,153.6z M260.1,146.2L260.1,146.2l0-0.1l0-0.1l0-0.1l0-0.1l0-0.1l0-0.1l0-0.1l0-0.1l0-0.1l0-0.1l0-0.1l0-0.1
		c-0.7-2.1-1.7-4.4-3.6-5.7l-0.9,1.2c1.5,1.1,2.4,3.3,3,5l0,0.1l0,0.1l0,0.1l0,0.1l0,0.1l0,0.1l0,0.1l0,0.1l0,0.1l0,0.1l0,0.1l0,0.1
		l0,0L260.1,146.2L260.1,146.2z M254.7,138.7c-2.5-0.8-5,0.1-7.3,1c-0.1,0.1-0.3,0.1-0.4,0.2l0.6,1.3c0.1,0,0.3-0.1,0.4-0.2
		c1.8-0.8,4.2-1.7,6.2-1l0,0L254.7,138.7L254.7,138.7z M245.6,140.4L245.6,140.4l-0.1,0l-0.1,0l-0.1,0l-0.1,0l-0.1,0l-0.1,0l-0.1,0
		l-0.1,0l-0.1,0c-2.2,0.9-4.3,2.3-5.7,4.2l1.2,0.9c1.3-1.7,3-2.9,5.1-3.7l0.1,0l0.1,0l0.1,0l0.1,0l0.1,0l0.1,0l0.1,0l0.1,0l0.1,0
		l0,0L245.6,140.4L245.6,140.4z M238.5,146.2c-1.3,2.3-1.7,4.8-2,7.3l1.5,0.2c0.3-2.3,0.7-4.7,1.9-6.8L238.5,146.2L238.5,146.2z"/>
	<path fill="#663333" d="M49.5,154.2c0.6,1.7,1.4,4.2,1.1,6.2c-0.3,0.3-0.6,0.3-1,0.2l-0.4,1.4c1,0.3,1.8,0,2.4-0.5L49.5,154.2
		L49.5,154.2z M53.2,161.4L53.2,161.4C53.3,161.4,53.3,161.4,53.2,161.4L53.2,161.4L53.2,161.4L53.2,161.4l0.1-0.1L53.2,161.4
		L53.2,161.4L53.2,161.4z M52.4,160.1l0.2-0.4c0.3-0.4,0.4-0.8,0.6-1.3c0.3-0.8,0.6-1.6,0.8-2.3l-1.4-0.5c-0.2,0.7-0.4,1.3-0.7,2
		c-0.2-1.4-0.7-2.8-1.1-4l-1.4,0.5L52.4,160.1L52.4,160.1z M53.3,161.3L53.3,161.3L53.3,161.3L53.3,161.3L53.3,161.3L53.3,161.3
		L53.3,161.3L53.3,161.3L53.3,161.3L53.3,161.3L53.3,161.3L53.3,161.3l0.1-0.1l0,0c0.6-0.3,1.2-0.6,1.8-0.9l0,0l0,0l0.1,0l0,0l0.1,0
		l0,0l0.1,0l0,0l0,0l0,0l0,0l0,0l0,0l0,0l-0.6-1.3l0,0l0,0l0,0l0,0l0,0l0,0c-0.3,0.1-0.7,0.3-1,0.5c-0.4,0.2-0.7,0.4-1.1,0.6l0,0
		l-0.1,0.1l0,0l0,0l0,0l0,0l0,0l0,0l0,0L53.3,161.3L53.3,161.3z M52.9,160.7l-0.3-0.7L52.9,160.7L52.9,160.7z M53.3,161.3
		L53.3,161.3L53.3,161.3L53.3,161.3z M55.5,160.3L55.5,160.3c1.1-0.5,2.1-1.1,3-1.9l-0.9-1.1c-0.9,0.7-1.7,1.2-2.7,1.7l0,0
		L55.5,160.3L55.5,160.3z M59.6,157.4c0.7-0.6,1.5-1.2,2.3-1.7c1.3-0.8,2.5-1.9,3.5-3l-1.1-1c-1,1-2,2-3.2,2.8
		c-0.9,0.6-1.7,1.2-2.4,1.8L59.6,157.4L59.6,157.4z M51.6,161.6L51.6,161.6L51.6,161.6L51.6,161.6L51.6,161.6L51.6,161.6L51.6,161.6
		L51.6,161.6L51.6,161.6L51.6,161.6L51.6,161.6L51.6,161.6L51.6,161.6L51.6,161.6L51.6,161.6L51.6,161.6L51.6,161.6L51.6,161.6
		L51.6,161.6L51.6,161.6L51.6,161.6L51.6,161.6L51.6,161.6L51.6,161.6l0.1,0h0l0,0l0,0l0.1,0l0,0l0.1,0l0,0l0,0v0c0.1,0,0.2,0,0.2,0
		c0.1,0,0.2,0,0.3,0c0.3,0,0.6-0.1,0.8-0.2l0,0l0,0l0,0l0,0l0,0l0,0l0,0l0,0l0,0l0,0l0,0v0l-0.3-0.7l-0.1-0.2l-0.2-0.4l0,0l0-0.1
		l0,0l0,0l0,0l0,0l0,0l0,0l0,0l0,0l0,0l0,0l0,0l0,0l0,0h0l0,0l-0.1,0h0l0,0h0l0,0h0l0,0h0l0,0l0,0l0,0h0l-0.1,0l0,0l0,0l0,0l0,0h0
		l-0.1,0l0,0l-0.1,0l0,0l-0.1,0l0,0l0,0c-0.1,0-0.1,0-0.2,0h0c-0.1,0-0.2,0-0.3,0L51.6,161.6L51.6,161.6L51.6,161.6z M66.4,151.5
		c1.6-2,2.9-4.1,3.9-6.4l-1.4-0.6c-1,2.2-2.2,4.2-3.7,6.1L66.4,151.5L66.4,151.5z M70.9,143.7c0.9-2.4,1.4-5,1.1-7.5l-1.5,0.2
		c0.3,2.3-0.3,4.7-1.1,6.8L70.9,143.7L70.9,143.7z M71.8,134.7l0-0.1c-0.5-2.1-1.6-4.9-4.3-4.4c-0.6,0.1-1.2,0.4-1.7,0.8l0.8,1.2
		c0.5-0.3,1.1-0.6,1.7-0.5c1.2,0.2,1.8,2.4,2,3.4l0,0L71.8,134.7L71.8,134.7z M64.5,131.9c-1.5,1.4-2.9,3.3-4,5
		c-0.2,0.3-0.4,0.6-0.6,1l1.3,0.8c1.2-1.9,2.6-4,4.3-5.6l0.1-0.1L64.5,131.9L64.5,131.9z M59.1,139.2c-1.2,2.2-2.2,4.5-3.1,6.8
		l1.4,0.5c0.4-1,0.8-2.1,1.3-3.1c0.5-1.2,1.1-2.3,1.7-3.5L59.1,139.2L59.1,139.2z M55.5,147.3c-0.8,2.3-1.6,4.6-2.4,7l1.4,0.4
		c0.1-0.2,0.1-0.3,0.2-0.5c0.7-2.1,1.4-4.3,2.2-6.4L55.5,147.3L55.5,147.3z M48.4,160c-1.4-0.9-2.8-2.4-3.9-3.6
		c-0.4-0.5-0.8-0.9-1.2-1.4l-1.2,0.9c0.7,0.9,1.4,1.7,2.2,2.5c1,1,2.1,2.1,3.3,2.8L48.4,160L48.4,160z M42.4,153.9L42.4,153.9
		L42.4,153.9l-0.1-0.1l0,0l0,0l0,0l0,0l0,0l0,0l0,0l0,0l0,0l0,0l0,0l0,0l0,0l0,0l0,0l0,0l0,0l0,0l0,0l0,0l0,0l0,0l0,0l0,0l0,0l0,0
		l0,0l0,0l0,0l0,0l0,0l0,0l0,0l0,0l0,0l0,0l0,0l0,0l0,0l0,0l0,0l0,0l0,0l0,0c-1-1.5-2.1-3-3.1-4.6l0,0l-1.3,0.8c0,0,0.1,0.1,0.1,0.1
		c1,1.5,2,3,3,4.4l0,0l0,0l0,0l0,0l0,0l0,0l0,0l0,0l0,0l0,0l0,0l0,0l0,0l0,0l0,0l0,0l0,0l0,0l0,0l0,0l0,0l0,0l0,0l0,0l0,0l0,0l0,0
		l0,0l0,0l0,0l0,0l0,0l0,0l0,0l0,0l0,0l0,0l0,0l0,0l0,0l0,0l0,0l0,0l0,0l0,0l0,0l0,0L42.4,153.9L42.4,153.9z M37.5,146.6
		c-0.6-1-1.2-2-1.8-3.1c-0.6-1.1-1.1-2.2-1.6-3.3l-1.4,0.5c0.9,2.3,2.1,4.4,3.4,6.5l0.1,0.1L37.5,146.6L37.5,146.6z M33.6,138.9
		c-0.3-1.1-0.6-2.4-0.4-3.6l0,0c0.2-0.7,0.5-2,1.2-2.5l-0.8-1.2c-1,0.7-1.5,2.1-1.8,3.3l0,0.1c-0.3,1.4,0,3,0.4,4.3L33.6,138.9
		L33.6,138.9z M33.3,135.4L33.3,135.4L33.3,135.4L33.3,135.4z M31.8,135l1.5,0.3L31.8,135L31.8,135z M35.3,132.9
		c0.6,0.2,1.4,1,1.9,1.4c0.8,0.9,1.6,1.9,2.3,2.8l0,0l0,0l0,0l0,0l0,0.1l0,0.1l0,0.1l0,0.1l0,0.1l0,0.1l0,0.1l0,0.1l0,0.1l0,0.1
		l0,0.1l0,0.1l0,0l1.2-0.9l0,0l-0.1-0.1l0-0.1l0-0.1l0-0.1l0-0.1l0-0.1l0-0.1l0-0.1l0-0.1l0-0.1l0-0.1l0-0.1
		c-1.1-1.4-2.3-3.1-3.8-4.1c-0.3-0.2-0.8-0.5-1.1-0.6L35.3,132.9L35.3,132.9z M40.9,139c1.4,2,2.8,4,4,6.1l1.3-0.7
		c-0.7-1.2-1.4-2.3-2.2-3.5c-0.6-0.9-1.2-1.8-1.9-2.7L40.9,139L40.9,139z M45.7,146.4c1.2,2.1,2.3,4.3,3.3,6.5l1.4-0.6
		c-1-2.3-2.1-4.5-3.4-6.6L45.7,146.4L45.7,146.4z"/>
	<path fill-rule="evenodd" clip-rule="evenodd" fill="#BDE6BD" d="M51.6,160c-2.2-1.5-5.7-9.1-7.4-12.3c-2.4-4.2-2.2-5.7-5.7-9.7
		c-1-1.1-2.7-6-4.2-3.4c-1.6,2.8,7.2,16.2,9.9,18.7c1.8,1.7,3.8,6.4,6.4,6.6C51.2,160,50.9,159.6,51.6,160L51.6,160z"/>
	<path fill-rule="evenodd" clip-rule="evenodd" fill="#BDE6BD" d="M55.4,156.7c6.2-3.8,6.6-5.5,9.9-11.5c1.1-2,3.4-9.7,1.7-10.7
		c0-0.3,0-0.2,0-0.3c-1.4-0.5-3.5,2.8-3.9,4c-1.5,4.1-5.1,9-7.3,13.9c-0.6,1.4-2,3-0.5,4.1l0.1,0.3
		C55.4,156.7,55.4,156.8,55.4,156.7L55.4,156.7z"/>
	<path fill-rule="evenodd" clip-rule="evenodd" fill="#663333" d="M184.1,90.8c1.4,0,2.6,1.2,2.6,2.6c0,1.4-1.2,2.6-2.6,2.6
		s-2.6-1.2-2.6-2.6C181.4,91.9,182.6,90.8,184.1,90.8L184.1,90.8z"/>
</g>
</svg>
