<?xml version="1.0" encoding="utf-8"?>
<!-- Generator: Adobe Illustrator 18.0.0, SVG Export Plug-In . SVG Version: 6.00 Build 0)  -->
<!DOCTYPE svg PUBLIC "-//W3C//DTD SVG 1.1//EN" "http://www.w3.org/Graphics/SVG/1.1/DTD/svg11.dtd">
<svg version="1.1" id="Camada_1" xmlns="http://www.w3.org/2000/svg" xmlns:xlink="http://www.w3.org/1999/xlink" x="0px" y="0px"
	 viewBox="233.8 407 133 30.5" enable-background="new 233.8 407 133 30.5" xml:space="preserve">
<path fill="#008D91" d="M236.7,407h19.4c1.7,0,2.9,1.3,2.9,2.9v19.4c0,1.7-1.3,2.9-2.9,2.9h-19.4c-1.7,0-2.9-1.3-2.9-2.9v-19.4
	C233.8,408.2,235,407,236.7,407z"/>
<path fill="#FFFFFF" d="M254.2,429.3h-15.5c-1.1,0-1.9-0.9-1.9-1.9v-6.8v-2.9h19.4v2.9v6.8C256.1,428.5,255.2,429.3,254.2,429.3z"/>
<path fill="#008D91" d="M246.4,411.8c4.3,0,7.8,3.5,7.8,7.8c0,4.3-3.5,7.8-7.8,7.8c-4.3,0-7.8-3.5-7.8-7.8
	C238.6,415.3,242.1,411.8,246.4,411.8z"/>
<path fill="#FFFFFF" d="M246.4,414.8c2.7,0,4.9,2.1,4.9,4.9c0,2.7-2.1,4.9-4.9,4.9c-2.7,0-4.9-2.1-4.9-4.9
	C241.5,416.9,243.7,414.8,246.4,414.8z"/>
<path fill="#FFFFFF" d="M253.2,409.9h1c1.1,0,1.9,0.9,1.9,1.9v1c0,1.1-0.9,1.9-1.9,1.9h-1c-1.1,0-1.9-0.9-1.9-1.9v-1
	C251.2,410.8,252.1,409.9,253.2,409.9z"/>
<g>
	<g>
		<path fill="#008D91" d="M275.6,409.9c-2,0.8-4.1,3.1-4.8,6c-0.8,3.6,2.7,5.2,3,4.7c0.3-0.6-0.6-0.8-0.8-2.7
			c-0.3-2.5,0.8-5.2,2.3-6.5c0.3-0.2,0.2,0.1,0.2,0.6c0,1-0.1,10.3-0.1,12.3c0,2.6-0.1,3.4-0.3,4.3c-0.2,0.8-0.5,1.4-0.3,1.6
			c0.3,0.2,1.5-0.3,2.1-1.2c0.8-1.1,1-2.4,1.1-3.9c0.1-1.8,0.1-4.5,0.1-6.1c0-1.5,0-5.7,0-8.2C278.2,410.2,276.5,409.6,275.6,409.9z
			"/>
		<path fill="#008D91" d="M365.9,423.7c-0.3,0-0.4,0.3-0.5,0.8c-0.4,1.7-0.7,2.1-1.2,2.1c-0.5,0-1-0.8-1.2-2.5
			c-0.1-1.4-0.1-3.7,0-6.2c0-0.5-0.1-1-1.5-1.5c-0.6-0.2-1.5-0.5-1.9,0.5c-1.1,2.8-1.7,5.1-1.8,6c0,0-0.1,0.1-0.1-0.1
			c-0.1-0.7-0.2-2.1-0.2-4.9c0-0.5-0.1-1-0.7-1.4c-0.4-0.2-1.6-0.7-2-0.2c-0.4,0.4-0.8,1.6-1.2,2.9c-0.4,1.1-0.6,1.9-0.6,1.9
			s0-3,0-4.2c0-0.4-0.3-0.5-0.4-0.6c-0.2-0.1-1-0.3-1.4-0.3c-0.4,0-0.5,0.2-0.5,0.5c0,0-0.1,4-0.1,6.7c0,0.1,0,0.2,0,0.4
			c-0.2,1.2-0.9,2.9-1.8,2.9c-0.8,0-1.1-0.7-1.1-4c0-1.9,0.1-2.7,0.1-4.1c0-0.8,0-1.4,0-1.6c0-0.4-0.7-0.6-1-0.7
			c-0.3-0.1-0.6-0.1-0.8-0.1c-0.3,0-0.5,0.2-0.5,0.5c0,0.2,0,0.4,0,0.4c-0.4-0.6-1.1-1.1-1.6-1.2c-1.2-0.3-2.5,0-3.4,1.2
			c-0.7,1-1.2,2.3-1.4,4c-0.1,1.2-0.1,2.6,0.1,3.6c-0.3,1.2-0.8,1.8-1.4,1.8c-0.8,0-1.5-1.4-1.4-3.7c0-1.6,0.3-2.6,0.7-4.3
			c0.1-0.6,0-1-0.3-1.4s-0.8-0.4-1.7-0.3c-0.6,0.1-1.5,0.3-2.2,0.4c0,0,0-0.2,0.1-0.5c0.2-1.8-1.7-1.6-2.3-1
			c-0.3,0.3-0.6,0.7-0.7,1.5c-0.3,1.4,0.6,1.9,0.6,1.9c-0.3,1.4-1,3.1-1.8,4.4c-0.4,0.7-0.7,1.1-1.1,1.8c0-0.2,0-0.4,0-0.6
			c0-2.8,0-5.1,0-5.9s0-1.4,0-1.6c0-0.3-0.2-0.4-0.5-0.6c-0.3-0.1-0.7-0.2-1.1-0.2c-0.5,0-0.8,0.2-0.8,0.5c0,0.1,0,0.4,0,0.4
			c-0.4-0.6-1.1-1.1-1.6-1.2c-1.2-0.3-2.5,0-3.4,1.2c-0.7,1-1.2,2.6-1.4,4c-0.1,1.4-0.1,2.5,0.1,3.4c-0.2,0.9-0.7,2-1.4,2
			c-0.8,0-1.2-0.7-1.2-4c0-1.9,0.1-2.7,0.1-4.1c0-0.8,0-1.4,0-1.6c0-0.4-0.7-0.6-1-0.7c-0.3-0.1-0.6-0.1-0.9-0.1
			c-0.3,0-0.5,0.3-0.5,0.5c0,0.2,0,0.5,0,0.5c-0.4-0.6-1.1-1.1-1.6-1.2c-1.2-0.3-2.5,0-3.4,1.2c-0.6,1-1.1,2-1.5,4.2
			c-0.1,0.6-0.1,1.1-0.1,1.8c-0.2,1.6-1.4,3.3-2.3,3.3c-0.5,0-1-1-1-3.2c0-2.9,0.2-7.1,0.2-7.5c0,0,1.1,0,1.4,0c0.5,0,1,0,1.9,0
			c0.4,0,0.7-1.4,0.3-1.6c-0.2-0.1-1.5-0.1-2-0.1c-0.4,0-1.6-0.1-1.6-0.1s0.1-2.8,0.1-3c0-0.2-0.3-0.4-0.5-0.4
			c-0.4-0.2-0.8-0.3-1.2-0.4c-0.6-0.1-0.9,0-1,0.5c-0.1,0.8-0.1,3.2-0.1,3.2c-0.5,0-2.1-0.1-2.6-0.1c-0.4,0-0.9,1.9-0.3,1.9
			c0.7,0,1.9,0,2.7,0.1c0,0,0,4.3,0,5.5c0,0.1,0,0.3,0,0.4c-0.4,2.3-2,3.5-2,3.5c0.3-1.6-0.3-2.7-1.6-3.6c-0.4-0.3-1.4-1-2.4-1.8
			c0,0,0.6-0.6,1.1-1.8c0.4-0.8,0.4-1.8-0.5-2c-1.5-0.3-2.7,0.7-3,1.9c-0.3,0.9-0.1,1.6,0.4,2.3l0.1,0.1c-0.3,0.6-0.8,1.6-1.1,2.2
			c-1,1.9-1.9,3.3-2.5,3.3c-0.5,0-0.5-1.5-0.5-2.9c0-1.2,0.1-3,0.2-4.9c0-0.6-0.3-0.9-0.8-1.2c-0.3-0.2-1-0.6-1.4-0.6
			c-0.6,0-2.3,0.1-3.9,4.7c-0.2,0.6-0.6,1.7-0.6,1.7v-5.6c0-0.1-0.1-0.2-0.2-0.3c-0.2-0.1-0.9-0.4-1.6-0.4c-0.3,0-0.4,0.1-0.4,0.4
			l-0.1,8.7c0,0.6,0,1.5,0.1,1.8c0.1,0.3,0.2,0.6,0.3,0.7c0.1,0.2,0.3,0.3,0.5,0.3s1.5,0.2,1.6-0.3c0.1-0.6,0.1-1.2,0.7-3.5
			c1-3.6,2.4-5.4,3-6c0.1,0,0.2-0.1,0.2,0.1c0,0.8-0.1,2.8-0.2,4.5c-0.2,4.6,0.6,5.4,1.9,5.4c0.9,0,2.2-0.9,3.5-3.2
			c0.8-1.5,1.7-2.8,2.3-3.9c0.4,0.4,0.8,0.8,1.4,1.2c1,1,1.5,2,1.2,2.9c-0.2,0.7-0.8,1.5-2.1,0.7c-0.3-0.2-0.5-0.4-0.8-0.6
			c-0.2-0.1-0.5-0.2-0.6,0c-0.4,0.3-0.7,0.7-0.8,1.4c-0.1,0.5,0.4,0.8,0.9,1c0.4,0.2,1.5,0.4,2.1,0.4c2.5,0.1,4.5-1.2,5.8-4.5
			c0.2,2.9,1.4,4.5,3.1,4.5c1.2,0,2.5-1.6,3-3.1c0.1,0.6,0.4,1.1,0.7,1.7c1.5,2.3,4.2,1.8,5.5-0.1c0.4-0.6,0.5-0.8,0.5-0.8
			c0.2,1.8,1.7,2.4,2.5,2.4c0.9,0,1.9-0.4,2.6-2c0.1,0.2,0.2,0.3,0.2,0.5c1.5,2.3,4.2,1.8,5.5-0.1c0.1-0.1,0.1-0.2,0.2-0.2v1.1
			c0,0-0.8,0.7-1.2,1.1c-2.1,2-3.7,3.4-3.9,5.2c-0.1,2.2,1.7,3,3,3.1c1.5,0.1,2.7-0.7,3.4-1.8c0.6-0.9,1.1-3.1,1-5.1
			c0-0.8,0-1.9,0-3c0.7-0.8,1.6-2,2.4-3.2c0.8-1.4,1.8-3.3,2.2-4.8c0,0,0.8,0,1.7,0c0.3,0,0.3,0,0.3,0.2c-0.1,0.2-1,4.1-0.1,6.7
			c0.6,1.8,2.1,2.3,2.9,2.3c0.9,0,1.9-0.7,2.4-1.9c0.1,0.1,0.1,0.2,0.2,0.3c1.5,2.3,4.2,1.8,5.5-0.1c0.3-0.4,0.5-0.8,0.5-0.8
			c0.3,1.9,1.8,2.4,2.6,2.4c0.8,0,1.7-0.3,2.4-2c0,0.7,0.1,1.2,0.1,1.5c0,0.1,0.3,0.2,0.4,0.3c0.8,0.3,1.6,0.1,1.9,0.1
			c0.2,0,0.4-0.2,0.4-0.6c0.1-1.1,0-3,0.3-4.4c0.5-2.4,1.1-3.2,1.4-3.7c0.1-0.2,0.3-0.3,0.3,0c0,0.5,0,2.2,0.3,4.3
			c0.2,1.6,0.4,2.5,0.5,2.8c0.5,0.8,1,0.8,1.6,0.8c0.3,0,0.9-0.1,0.9-0.6c0-0.3,0-1.9,0.6-4.2c0.4-1.6,0.9-2.9,1.2-3.4
			c0.1-0.2,0.1,0,0.1,0c0,1-0.1,4.5,0.3,6.4c0.6,2.5,2.3,2.8,2.8,2.8c1.2,0,2.3-0.9,2.6-3.4C366.4,424.2,366.3,423.7,365.9,423.7z
			 M314,422.1c-0.1,1.4-0.3,2.4-0.7,3.2c-0.7,1.5-2.2,1.9-2.9-0.2c-0.5-1.5-0.3-3.5-0.1-4.7c0.3-1.7,1-2.8,2.2-2.7
			C313.5,417.9,314.1,419.4,314,422.1z M325.3,422.2c-0.1,1.2-0.4,2.5-0.7,3.2c-0.7,1.5-2.3,1.9-2.9-0.2c-0.4-1.5-0.3-3.3-0.1-4.5
			c0.3-1.6,0.9-2.9,2.2-2.9C324.9,417.8,325.4,419.1,325.3,422.2z M325.6,430.6c0,2.3-0.4,4.3-1.1,4.8c-1,0.8-2.5,0.2-2.3-1.5
			c0.3-1.5,1.6-2.9,3.3-4.8C325.6,429.3,325.6,429.7,325.6,430.6z M345.2,422.2c-0.1,1.4-0.4,2.4-0.7,3.2c-0.7,1.5-2.2,1.9-2.9-0.2
			c-0.3-1.1-0.3-3-0.1-4.7c0.2-1.7,0.9-2.8,2.2-2.7C344.8,417.9,345.3,419.4,345.2,422.2z"/>
	</g>
</g>
<line fill="none" x1="-17768.8" y1="359.7" x2="22953.4" y2="359.7"/>
</svg>
