<?xml version="1.0" encoding="utf-8"?>
<!-- Generator: Adobe Illustrator 18.0.0, SVG Export Plug-In . SVG Version: 6.00 Build 0)  -->
<!DOCTYPE svg PUBLIC "-//W3C//DTD SVG 1.1//EN" "http://www.w3.org/Graphics/SVG/1.1/DTD/svg11.dtd">
<svg version="1.1" id="Camada_1" xmlns="http://www.w3.org/2000/svg" xmlns:xlink="http://www.w3.org/1999/xlink" x="0px" y="0px"
	 viewBox="0 0 375 127.2" enable-background="new 0 0 375 127.2" xml:space="preserve">
<path fill-rule="evenodd" clip-rule="evenodd" fill="#3CB9C2" d="M7.9,22.5c9.3,7.8-14.4,0-0.2,9.1c6.7,37.7-10.7,24.8,15.2,65.2
	c43.8,68.2,28.1-1.7,182.7,11.3c37.3,3.1,147.4,22.4,154,2.1c15.8-49,17.7-28,7.6-76.5C366,28.2,354.8,7,343.4,7.2
	c-78.7,1-217.1,18.3-317.2,9.3C11.6,15.2,30.5,25,7.9,15L7.9,22.5z"/>
<path fill-rule="evenodd" clip-rule="evenodd" fill="#FFFFFF" d="M4.7,16.9c9,7.8-13.8,0.1-0.2,9.1c6.5,37.8-10.3,24.9,14.6,65.3
	c42.4,68.9,26.5-1.5,180.9,13.1c37,3.5,152.7,24.9,159.8,3.8c17.3-51.4,19.2-29.3,8.9-80.4C367.5,22,355.8-0.2,343.8,0
	C259,1.4,121.1,19.7,22.4,10.8C8.3,9.5,26.6,19.3,4.7,9.4V16.9z"/>
</svg>
